<?xml version="1.0" encoding="UTF-8"?>
<svg width="611.35" height="243.25" version="1.1" viewBox="0 0 611.35 243.25" xmlns="http://www.w3.org/2000/svg">
 <g transform="translate(-89.705 -190.94)">
  <g style="shape-inside:url(#rect113);white-space:pre" aria-label="Jasper M-W">
   <path d="m159.32 190.94v71.232c0 8.448-1.0243 14.528-3.0723 18.24-2.048 3.712-5.2476 5.5664-9.5996 5.5664-5.248 0-8.9607-2.2388-11.137-6.7188-2.048-4.48-2.2402-12.736-0.57617-24.768l-44.352 7.4863c-1.664 11.008-0.96067 20.864 2.1113 29.568 2.3823 6.4799 6.2247 11.929 11.516 16.352v126.29h39.168v-43.969l-0.57617-42.625h0.76758l24.193 86.594h35.711l24.576-86.594h0.57618l-0.57618 42.625v43.969h38.977v-123.12c0-1.9508 2.608-1.4358 5.2207-4.4394 0.69264-0.7189 1.2482-1.4432 1.7461-2.1719 0.61357 1.7326 1.4215 3.3183 2.4414 4.7461 2.688 3.456 6.3354 6.081 10.943 7.873 4.736 1.664 10.113 2.4961 16.129 2.4961 6.656 0 12.047-1.4988 17.133-2.8658 11.88-3.1929 42.273-0.18819 46.275 15.856l25.35 101.62h49.152l9.791-47.617 4.4004-28.596h1.7598l4.4004 28.596 9.9844 47.617h47.424l36.867-124.82c0.38897 0.20775-0.36844-0.24155 0 0 1.9432-6.5792 24.775 2.2344 36.295 2.2344 7.168 0 14.08-1.0243 20.736-3.0723 6.784-2.048 12.609-5.1188 17.473-9.2148 4.864-4.224 8.0002-9.4722 9.4082-15.744l-35.521-9.6016c-0.64 2.56-1.9198 4.6085-3.8398 6.1445-1.792 1.408-4.3517 2.1133-7.6797 2.1133-3.072 0-5.6317-0.4497-7.6797-1.3457-1.92-1.024-3.392-2.9438-4.416-5.7598-0.47854-1.3758-0.83494-3.0574-1.0898-4.9922h30.352c12.908 0.0367 22.221-0.0352 35.129 0 2.3483-5.6922 7.2623-11.623 12.496-13.822 7.0337-2.5402 15.756-2.6462 22.08 0l21.217-11.904c-5.1481-10.806-16.659-19.303-27.865-19.479-16.236 1.0174-22.085 5.7686-27.928 18.34v-31.502c-9.5671 0-16.597 4e-3 -25.784 0 0 29.184 3.3498 1e-3 -28.816 0-10.624-3.8e-4 -19.967 1.9832-28.031 5.9512-7.936 3.84-14.143 9.4725-18.623 16.896-3.0391 5.1844-5.4159 11.166-6.5898 17.91-0.16554-3.4204-0.70208-5.7299-2.3984-10.125-2.816-7.296-6.9765-12.863-12.48-16.703-5.376-3.968-12.033-5.9512-19.969-5.9512-6.784 0-12.672 1.7276-17.664 5.1836-4.992 3.328-8.8949 7.9362-11.711 13.824-0.33735 0.70537-0.65653 1.4231-0.95898 2.1524l-0.96094-19.24h-34.369s2.805 58.497 0 87.543c-2.9332 30.373-17.518 89.852-17.518 89.852l-13.744-85.152c-1.0133-6.2779 9.2124-6.4771 14.078-11.795 4.3143-4.7151 5.1836-11.201 5.1836-17.473 0-7.296-3.3296-12.072-9.1128-15.962-12.662-8.5167-30.651-10.343-41.959-16.87-1.28-0.768-1.9199-1.6001-1.9199-2.4961 0-0.64 0.25754-1.1512 0.76954-1.5352 0.64-0.512 1.5989-0.89634 2.8789-1.1523s2.9442-0.38282 4.9922-0.38282c4.608 0 9.664 0.89551 15.168 2.6875 5.632 1.664 10.24 3.9028 13.824 6.7188l15.168-21.887c-4.992-4.352-11.457-7.7438-19.393-10.176-7.936-2.56-16.895-3.8398-26.879-3.8398-12.16 0-21.953 1.6642-29.377 4.9922s-12.864 7.5519-16.32 12.672c-3.328 4.992-4.9922 10.111-4.9922 15.359 0 8.448 2.8806 15.168 8.6406 20.16 5.76 4.992 15.616 8.8315 29.568 11.52l6.9121 1.3438c3.2 0.512 5.2485 1.0251 6.1445 1.5371 1.024 0.512 1.5352 1.2787 1.5352 2.3027 0 1.28 0.76867 5.0075-2.1113 6.8965-5.952 3.7356-12.561 3.4607-23.527 1.0537-16.101-3.5341-20.018-5.4541-35.614-3.5341-3.7294 0.45911-7.4883-2.6231-7.4883-7.8711v-29.76c0-7.296-1.793-13.697-5.377-19.201-3.456-5.504-8.831-9.7913-16.127-12.863-7.168-3.072-16.321-4.6074-27.457-4.6074-15.872 0-27.967 3.1343-36.287 9.4062s-12.928 14.722-13.824 25.346l37.248 5.375c0.256-4.608 1.2803-7.6788 3.0723-9.2148s4.0308-2.3047 6.7188-2.3047c2.816 0 4.8645 0.8321 6.1445 2.4961 1.408 1.664 2.1113 3.9681 2.1113 6.9121v3.707l-30.336 6.2773c-8.448 1.664-14.911 4.7348-19.391 9.2148-4.48 4.352-8.5504 18.624-10.752 30.516l-14.592 56.256-5.5684 23.615h-0.38477l-5.5684-23.615-12.309-47.451c7.7552-2.3647 14.299-5.9918 19.609-10.904 10.24-9.472 15.361-22.784 15.361-39.936v-74.496zm431.48 50.006c4.096 0 6.7191 1.793 7.8711 5.377 0.70517 1.9745 1.197 4.5037 1.5137 7.4883h-20.461c0.18298-1.5762 0.40623-3.0214 0.70703-4.2246 0.768-3.2 1.9844-5.4407 3.6484-6.7207 1.792-1.28 4.0327-1.9199 6.7207-1.9199zm-106.14 9.707c3.072 0 5.5029 1.2798 7.2949 3.8398 1.792 2.56 2.6894 7.616 2.6894 15.168 0 7.552-0.89745 12.608-2.6894 15.168-1.792 2.432-4.2229 3.6465-7.2949 3.6465-2.176 0-3.969-0.70333-5.377-2.1113s-2.4303-3.5199-3.0703-6.3359-0.96094-6.2712-0.96094-10.367c0-4.48 0.38435-8.064 1.1524-10.752 0.768-2.816 1.8557-4.8645 3.2637-6.1445 1.408-1.408 3.0722-2.1113 4.9922-2.1113zm-216.68 26.42v8.5234c0 1.408-0.19022 2.6878-0.57422 3.8398-0.384 1.024-0.96051 1.9195-1.7285 2.6875-0.64 0.768-1.4721 1.3445-2.4961 1.7285-0.896 0.384-1.8569 0.57617-2.8809 0.57617-2.304 0-4.095-0.63992-5.375-1.9199-1.28-1.28-1.9199-2.9442-1.9199-4.9922 0-2.176 0.57457-3.969 1.7266-5.377 1.152-1.536 3.0737-2.6237 5.7617-3.2637zm207.27 24.289c1.491 3.3669 3.3332 6.4424 5.5684 9.1934 4.992 6.016 11.135 6.9805 15.945 6.9805 3.5275 0 7.9805-0.54777 12.699-1.4492l-15.059 82.393-19.154-91.008c-0.27744-2.5287-0.42127-4.2583 0-6.1094z"/>
   <path d="m353.56 354.03v33.6h-62.09v-33.6z" stroke-width=".9106"/>
  </g>
 </g>
</svg>
