<svg version="1.1" viewBox="0 0 326.56 144.96" xmlns="http://www.w3.org/2000/svg">
 <g>
  <path d="m34.808-33.75c-18.639 0.001061-33.75 15.111-33.752 33.75v1.1875l-6.2363 1.0527c-14.379 2.4291-25.572 13.818-27.752 28.236-1.4873 9.8388-1.0571 20.694 2.6016 31.061 0.04858 0.13834 0.09806 0.27636 0.14844 0.41406 1.2906 3.5105 3.0794 6.8953 5.1719 10.105-3.9274 5.615-6.0528 12.292-6.0938 19.145l0.1906 52.005c0.0021 18.639 15.112 33.749 33.752 33.75h19.584c2.1689-0.21689 4.3117-0.64336 6.3984-1.2734 1.8899 0.59364 3.8284 1.0198 5.793 1.2734h17.855c1.984-0.25293 3.9415-0.68171 5.8496-1.2812 2.0998 0.63533 4.2564 1.0644 6.4395 1.2812h19.486c12.315-0.0679 23.616-6.8378 29.486-17.664h2.5781c5.8985 10.878 17.276 17.656 29.65 17.664h24.576c2.5834-0.29236 5.1243-0.88221 7.5723-1.7578 2.4555 0.87736 5.0044 1.4672 7.5957 1.7578h23.713c15.078-1e-3 28.327-10.003 32.459-24.504l17.856-52.005c0.22342-0.81345 0.41626-1.635 0.57812-2.4629 5.4182-0.25472 10.86-1.1469 16.111-2.6797 3.4413 1.1738 7.0496 1.7839 10.686 1.8066h22.08c18.639-2e-3 33.748-15.111 33.75-33.75v-2.0664c8.5514-5.4529 14.198-14.462 15.377-24.535l1.8223-17.76c1.1713-11.411-3.5331-22.636-12.49-29.803-6.3194-5.0555-9.4053-5.5531-12.041-6.4316-6.9049-2.3016-10.605-2.1152-14.033-2.1152-3.4806 0-7.2662 0.66906-11.086 1.6387-1.1558-0.28827-2.3261-0.51515-3.5059-0.67969h-19.873c-3.7969 0.01183-7.5647 0.66422-11.145 1.9297-6.6543-2.0566-13.378-2.8887-19.768-2.8887-8.5567 0-17.581 1.5375-26.078 5.1719-7.4052-3.565-15.489-5.1719-22.609-5.1719-3.8733 0-8.0029 0.61748-12.113 1.6406-1.1654-0.28994-2.3455-0.51748-3.5352-0.68164h-20.064c-2.8877 0.0464-5.7575 0.46321-8.5391 1.2402-6.3147-1.544-12.668-2.1992-18.932-2.1992-9.159 0-18.506 0.97166-28.494 5.4492-0.26355 0.11814-0.53211 0.25963-0.79687 0.38281-0.60162-0.28229-1.2051-0.58293-1.8027-0.83594-9.3616-3.9908-18.277-4.9961-26.916-4.9961-0.50754 0-1.0293 0.02951-1.541 0.03711-6.2964-9.0228-16.595-14.411-27.598-14.438z" color="#000000" display="none" stroke-linecap="round" stroke-linejoin="round" style="-inkscape-stroke:none;shape-inside:url(#rect1035-6);white-space:pre"/>
  <path d="m34.808-33.75c-18.639 1e-3 -33.75 15.111-33.752 33.75v1.1875l-6.2363 1.0527c-14.379 2.4291-25.572 13.818-27.752 28.236-1.4873 9.8388-1.0571 20.694 2.6016 31.061 0.0486 0.13834 0.0981 0.27637 0.14844 0.41406 1.2906 3.5105 3.0794 6.8953 5.1719 10.105-3.9274 5.615-6.0528 12.292-6.0938 19.145l0.19141 52.004c2e-3 18.639 15.112 33.749 33.752 33.75h19.584c2.1689-0.21689 4.3118-0.64336 6.3984-1.2734 1.8899 0.59364 3.8284 1.0198 5.793 1.2734h17.855c1.984-0.25293 3.9416-0.68171 5.8496-1.2812 2.0997 0.63533 4.2564 1.0644 6.4395 1.2812h19.486c12.315-0.0679 23.616-6.8378 29.486-17.664h2.5781c5.8985 10.878 17.276 17.656 29.65 17.664h24.576c2.5834-0.29236 5.1243-0.88222 7.5723-1.7578 2.4555 0.87735 5.0044 1.4672 7.5957 1.7578h23.713c15.078-1e-3 28.327-10.003 32.459-24.504l17.855-52.004c0.22342-0.81345 0.41627-1.635 0.57813-2.4629 5.4182-0.25472 10.86-1.1469 16.111-2.6797 3.4413 1.1738 7.0496 1.7839 10.686 1.8066h22.08c18.639-2e-3 33.748-15.111 33.75-33.75v-2.0664c8.5514-5.4529 14.198-14.462 15.377-24.535l1.8223-17.76c1.1713-11.411-3.5331-22.636-12.49-29.803-6.3194-5.0555-9.4053-5.5531-12.041-6.4316-6.9048-2.3016-10.605-2.1152-14.033-2.1152-3.4806 0-7.2662 0.66906-11.086 1.6387-1.1558-0.28826-2.3261-0.51514-3.5059-0.67969h-19.873c-3.7969 0.0118-7.5647 0.66422-11.145 1.9297-6.6543-2.0566-13.378-2.8887-19.768-2.8887-8.5567 0-17.581 1.5375-26.078 5.1719-7.4052-3.565-15.489-5.1719-22.609-5.1719-3.8733 0-8.0029 0.61748-12.113 1.6406-1.1654-0.28995-2.3455-0.51747-3.5352-0.68164h-20.064c-2.8877 0.0464-5.7575 0.46322-8.5391 1.2402-6.3147-1.544-12.668-2.1992-18.932-2.1992-9.159 0-18.506 0.97167-28.494 5.4492-0.26355 0.11814-0.53212 0.25963-0.79688 0.38281-0.60161-0.28229-1.2051-0.58294-1.8027-0.83594-9.3616-3.9908-18.277-4.9961-26.916-4.9961-0.50754 0-1.0293 0.02951-1.541 0.03711-6.2964-9.0228-16.595-14.411-27.598-14.438zm-2e-3 33.75h22.369v37.248c0 8.576-2.5616 15.233-7.6816 19.969-5.12 4.736-12.512 7.1035-22.176 7.1035-7.104 0-12.8-1.2481-17.088-3.7441-4.2239-2.496-7.1363-5.9195-8.7363-10.271-1.536-4.352-1.8867-9.2812-1.0547-14.785l22.176-3.7422c-0.832 6.016-0.73689 10.143 0.28711 12.383 1.088 2.24 2.9444 3.3594 5.5684 3.3594 2.176 0 3.7768-0.92721 4.8008-2.7832s1.5352-4.8952 1.5352-9.1191zm51.506 14.4c5.568 0 10.145 0.76869 13.729 2.3047 3.648 1.536 6.3364 3.6796 8.0644 6.4316 1.792 2.752 2.6875 5.9516 2.6875 9.5996v14.881c0 2.624 1.2481 3.9355 3.7441 3.9355 0.704 0 1.2469-0.09706 1.6309-0.28906l-0.95898 11.328c-2.368 1.152-5.2169 1.7285-8.5449 1.7285-3.008 1e-6 -5.6945-0.41605-8.0625-1.248-2.304-0.896-4.1286-2.2076-5.4726-3.9355-0.54285-0.75998-0.96277-1.6123-1.2754-2.5449-0.27374 0.47576-0.58331 0.94012-0.9336 1.3926-1.472 1.92-3.4552 3.4554-5.9512 4.6074s-5.343 1.7285-8.543 1.7285c-3.392 1e-6 -6.2726-0.51116-8.6406-1.5352-2.304-1.024-4.0652-2.496-5.2812-4.416s-1.8223-4.1924-1.8223-6.8164c0-3.52 1.1194-6.3689 3.3594-8.5449 2.24-2.24 5.4713-3.7754 9.6953-4.6074l15.168-3.1367v-1.8555c0-1.472-0.35069-2.6231-1.0547-3.4551-0.64-0.832-1.6643-1.248-3.0723-1.248-1.344 0-2.4653 0.38435-3.3613 1.1523s-1.4072 2.3034-1.5352 4.6074l-18.623-2.6875c0.448-5.312 2.7502-9.5359 6.9102-12.672 4.16-3.136 10.209-4.7051 18.145-4.7051zm58.01 0c4.992 0 9.4734 0.63992 13.441 1.9199 3.968 1.216 7.1993 2.9119 9.6953 5.0879l-7.584 10.943c-1.792-1.408-4.0961-2.5274-6.9121-3.3594-2.752-0.896-5.28-1.3438-7.584-1.3438-1.024 0-1.8561 0.06341-2.4961 0.19141-0.63999 0.128-1.1194 0.32017-1.4394 0.57617-0.256 0.192-0.38476 0.44758-0.38476 0.76758 0 0.448 0.32093 0.86405 0.96093 1.248 0.64 0.384 1.8882 0.73664 3.7441 1.0566l6.8145 1.1523c5.184 0.832 8.9601 2.4962 11.328 4.9922 2.432 2.496 3.6484 5.5669 3.6484 9.2148 0 3.136-0.8638 6.0483-2.5918 8.7363-1.664 2.624-4.3208 4.7359-7.9688 6.3359-3.584 1.6-8.319 2.4004-14.207 2.4004-4.672 1e-6 -9.1851-0.63992-13.537-1.9199-4.288-1.28-8.0305-3.1998-11.23-5.7598l7.8711-11.424c1.728 1.536 4.0004 2.911 6.8164 4.127 2.816 1.152 5.6313 1.7285 8.4473 1.7285 1.088 0 2.0489-0.12681 2.8809-0.38281 0.896-0.256 1.3438-0.7057 1.3438-1.3457 0-0.512-0.25558-0.89439-0.76758-1.1504-0.448-0.256-1.4723-0.51353-3.0723-0.76953l-3.457-0.67188c-6.976-1.344-11.903-3.2638-14.783-5.7598-2.88-2.496-4.3203-5.8561-4.3203-10.08 0-2.624 0.83209-5.1837 2.4961-7.6797 1.728-2.56 4.4482-4.6719 8.1602-6.3359 3.712-1.664 8.6075-2.4961 14.688-2.4961zm63.186 0c3.968 0 7.2964 0.99257 9.9844 2.9766 2.752 1.92 4.8303 4.7036 6.2383 8.3516 1.408 3.648 2.1133 8.0958 2.1133 13.344 0 5.312-0.73698 9.8568-2.209 13.633-1.408 3.776-3.4882 6.6547-6.2402 8.6387-2.752 1.984-6.0784 2.9766-9.9824 2.9766-4.672 0-8.256-1.5037-10.752-4.5117-1.1174-1.3753-2.0397-2.9126-2.7852-4.5957v28.307h-0.0156l9.0117 43.586 7.1992-45.506h23.232l-18.047 63.361h-23.713l-4.9922-23.809-2.4961-16.225h-0.28708l-2.4961 16.225-4.8965 23.809h-24.576l-17.951-63.361h24.096l7.3926 45.793 8.5703-43.957v-2e-3l8e-3 -68.072h17.945l0.48047 9.6191c0.15126-0.36474 0.30978-0.72338 0.47851-1.0762 1.408-2.944 3.3614-5.2481 5.8574-6.9121 2.496-1.728 5.44-2.5918 8.832-2.5918zm48.688 0c5.44 0 10.048 0.99257 13.824 2.9766 3.84 1.92 6.7523 4.6402 8.7363 8.1602s2.9746 7.6151 2.9746 12.287c0 1.024-0.0634 2.08-0.19141 3.168-0.064 1.088-0.16106 1.9518-0.28906 2.5918h-30.496c0.12745 0.96748 0.30564 1.8082 0.54492 2.4961 0.512 1.408 1.249 2.3689 2.209 2.8809 1.024 0.448 2.3038 0.67187 3.8398 0.67187 1.664 1e-6 2.9438-0.35264 3.8398-1.0566 0.96-0.768 1.5999-1.7923 1.9199-3.0723l17.76 4.8008c-0.704 3.136-2.2731 5.7591-4.7051 7.8711-2.432 2.048-5.3424 3.5854-8.7344 4.6094-3.328 1.024-6.7852 1.5352-10.369 1.5352-5.76 1e-6 -10.687-0.95891-14.783-2.8789-4.096-1.984-7.2322-4.8329-9.4082-8.5449s-3.2637-8.2232-3.2637-13.535c0-5.312 1.0877-9.8251 3.2637-13.537 2.24-3.712 5.3445-6.5273 9.3125-8.4473 4.032-1.984 8.7036-2.9766 14.016-2.9766zm65.375 0c1.472 0 2.5933 0.12877 3.3613 0.38476 0.768 0.256 1.3109 0.51158 1.6309 0.76758l-1.8242 17.76c-0.576-0.256-1.4081-0.47988-2.4961-0.67188s-2.2708-0.28906-3.5508-0.28906c-1.92 0-3.5842 0.32094-4.9922 0.96094-1.408 0.576-2.5274 1.4398-3.3594 2.5918-0.768 1.152-1.1524 2.624-1.1524 4.416v23.041h-22.08v-48h19.871l0.48047 12c1.088-3.968 2.7522-7.1042 4.9922-9.4082 2.304-2.368 5.3432-3.5527 9.1191-3.5527zm-65.279 14.592c-1.344 0-2.4634 0.32094-3.3594 0.96094-0.832 0.64-1.4402 1.7594-1.8242 3.3594-0.15033 0.60134-0.26203 1.3236-0.35351 2.1113h10.238c-0.15822-1.4988-0.41188-2.7537-0.76563-3.7441-0.576-1.792-1.8875-2.6875-3.9355-2.6875zm-57.713 0.86523c-0.96 0-1.7921 0.35069-2.4961 1.0547-0.704 0.64-1.2469 1.6643-1.6309 3.0723-0.384 1.344-0.57617 3.137-0.57617 5.377 0 2.048 0.16047 3.7756 0.48047 5.1836 0.32 1.408 0.83116 2.464 1.5352 3.168 0.704 0.704 1.5995 1.0547 2.6875 1.0547 1.536 0 2.7524-0.60627 3.6484-1.8223 0.896-1.28 1.3438-3.808 1.3438-7.584 0-3.776-0.44775-6.304-1.3438-7.584-0.89598-1.28-2.1124-1.9199-3.6484-1.9199zm-109.67 13.211-3.7441 0.90039c-1.344 0.32-2.3029 0.86286-2.8789 1.6309-0.576 0.704-0.86523 1.6015-0.86523 2.6895 0 1.024 0.32095 1.8561 0.96094 2.4961 0.63999 0.64 1.5355 0.95898 2.6875 0.95898 0.51199 0 0.99145-0.09511 1.4394-0.28711 0.512-0.192 0.92806-0.48124 1.248-0.86523 0.38399-0.384 0.67323-0.83175 0.86523-1.3438 0.192-0.576 0.28711-1.2159 0.28711-1.9199zm-86.258 38.531h31.297l7.2949 28.129 2.7852 11.809h0.19141l2.7832-11.809 7.2969-28.129h29.76v63.361h-19.488v-21.984l0.28906-21.312h-0.28906l-12.287 43.297h-17.855l-12.098-43.297h-0.38281l0.28711 21.312v21.984h-19.584zm93.248 28.896h37.439v16.801h-37.439z" color="#000000" display="none" stroke-linecap="round" stroke-linejoin="round" style="-inkscape-stroke:none;shape-inside:url(#rect1035-6);white-space:pre"/>
  <g transform="translate(-42.021 -33.288)" stop-color="#000000" style="-inkscape-stroke:none;font-variation-settings:normal;shape-inside:url(#rect1035);white-space:pre" aria-label="Jasper M-W">
   <path d="m99.195 33.288v37.248q0 12.864-7.68 19.968-7.68 7.104-22.176 7.104-10.656 0-17.088-3.744-6.336-3.744-8.736-10.272-2.304-6.528-1.056-14.784l22.176-3.744q-1.248 9.024 0.288 12.384 1.632 3.36 5.568 3.36 3.264 0 4.8-2.784t1.536-9.12v-35.616z" stop-color="#000000" style="-inkscape-stroke:none;font-variation-settings:normal"/>
   <path d="m130.93 66.696q0-2.208-1.056-3.456-0.96-1.248-3.072-1.248-2.016 0-3.36 1.152t-1.536 4.608l-18.624-2.688q0.672-7.968 6.912-12.672t18.144-4.704q8.352 0 13.728 2.304 5.472 2.304 8.064 6.432 2.688 4.128 2.688 9.6v14.88q0 3.936 3.744 3.936 1.056 0 1.632-0.288l-0.96 11.328q-3.552 1.728-8.544 1.728-4.512 0-8.064-1.248-3.456-1.344-5.472-3.936-1.92-2.688-1.92-6.816v-0.96h2.112q-0.096 3.648-2.4 6.624-2.208 2.88-5.952 4.608t-8.544 1.728q-5.088 0-8.64-1.536-3.456-1.536-5.28-4.416t-1.824-6.816q0-5.28 3.36-8.544 3.36-3.36 9.696-4.608l16.704-3.456-0.096 7.776-5.184 1.248q-2.016 0.48-2.88 1.632-0.864 1.056-0.864 2.688 0 1.536 0.96 2.496t2.688 0.96q0.768 0 1.44-0.288 0.768-0.288 1.248-0.864 0.576-0.576 0.864-1.344 0.288-0.864 0.288-1.92z" stop-color="#000000" style="-inkscape-stroke:none;font-variation-settings:normal"/>
   <path d="m184.81 97.608q-7.008 0-13.536-1.92-6.432-1.92-11.232-5.76l7.872-11.424q2.592 2.304 6.816 4.128 4.224 1.728 8.448 1.728 1.632 0 2.88-0.384 1.344-0.384 1.344-1.344 0-0.768-0.768-1.152-0.672-0.384-3.072-0.768l-3.456-0.672q-10.464-2.016-14.784-5.76t-4.32-10.08q0-3.936 2.496-7.68 2.592-3.84 8.16-6.336t14.688-2.496q7.488 0 13.44 1.92 5.952 1.824 9.696 5.088l-7.584 10.944q-2.688-2.112-6.912-3.36-4.128-1.344-7.584-1.344-1.536 0-2.496 0.192t-1.44 0.576q-0.384 0.288-0.384 0.768 0 0.672 0.96 1.248t3.744 1.056l6.816 1.152q7.776 1.248 11.328 4.992 3.648 3.744 3.648 9.216 0 4.704-2.592 8.736-2.496 3.936-7.968 6.336-5.376 2.4-14.208 2.4z" stop-color="#000000" style="-inkscape-stroke:none;font-variation-settings:normal"/>
   <path d="m249.53 47.688c-3.392 0-6.336 0.8638-8.832 2.5918-2.496 1.664-4.4494 3.9681-5.8574 6.9121-0.16873 0.35279-0.32725 0.71143-0.47851 1.0762l-0.48047-9.6191h-17.945l-8e-3 68.072v2e-3l-8.5703 43.957-7.3926-45.793h-24.096l17.951 63.361h24.576l4.8965-23.809 2.4961-16.225h0.28711l2.4961 16.225 4.9922 23.809h23.713l18.047-63.361h-23.232l-7.1992 45.506-9.0117-43.586h0.0156v-28.307c0.74544 1.6831 1.6677 3.2204 2.7852 4.5957 2.496 3.008 6.08 4.5117 10.752 4.5117 3.904 0 7.2304-0.99256 9.9824-2.9766 2.752-1.984 4.8322-4.8627 6.2402-8.6387 1.472-3.776 2.209-8.3208 2.209-13.633 0-5.248-0.70528-9.6958-2.1133-13.344-1.408-3.648-3.4863-6.4316-6.2383-8.3516-2.688-1.984-6.0164-2.9766-9.9844-2.9766zm-8.9297 15.457c1.536 0 2.7524 0.63992 3.6484 1.9199 0.896 1.28 1.3438 3.808 1.3438 7.584 0 3.776-0.44775 6.304-1.3438 7.584-0.89599 1.216-2.1124 1.8223-3.6484 1.8223-1.088 0-1.9835-0.35069-2.6875-1.0547s-1.2152-1.76-1.5352-3.168-0.48047-3.1356-0.48047-5.1836c0-2.24 0.19217-4.033 0.57617-5.377 0.384-1.408 0.92686-2.4323 1.6309-3.0723 0.704-0.704 1.5361-1.0547 2.4961-1.0547z" stop-color="#000000" style="-inkscape-stroke:none;font-variation-settings:normal"/>
   <path d="m299.08 97.608q-8.64 0-14.784-2.88-6.144-2.976-9.408-8.544t-3.264-13.536 3.264-13.536q3.36-5.568 9.312-8.448 6.048-2.976 14.016-2.976 8.16 0 13.824 2.976 5.76 2.88 8.736 8.16t2.976 12.288q0 1.536-0.192 3.168-0.096 1.632-0.288 2.592h-37.44v-8.16h27.84l-10.464 4.128q0-5.184-0.96-7.872-0.864-2.688-3.936-2.688-2.016 0-3.36 0.96-1.248 0.96-1.824 3.36-0.576 2.304-0.576 6.432t0.768 6.336q0.768 2.112 2.208 2.88 1.536 0.672 3.84 0.672 2.496 0 3.84-1.056 1.44-1.152 1.92-3.072l17.76 4.8q-1.056 4.704-4.704 7.872-3.648 3.072-8.736 4.608-4.992 1.536-10.368 1.536z" stop-color="#000000" style="-inkscape-stroke:none;font-variation-settings:normal"/>
   <path d="m329.13 96.648v-48h19.872l0.48 12q1.632-5.952 4.992-9.408 3.456-3.552 9.12-3.552 2.208 0 3.36 0.384t1.632 0.768l-1.824 17.76q-0.864-0.384-2.496-0.672t-3.552-0.288q-2.88 0-4.992 0.96-2.112 0.864-3.36 2.592-1.152 1.728-1.152 4.416v23.04z" stop-color="#000000" style="-inkscape-stroke:none;font-variation-settings:normal"/>
   <path d="m123.43 114.89v63.36h-19.488v-21.984l0.288-21.312h-0.288l-12.288 43.296h-17.856l-12.096-43.296h-0.384l0.288 21.312v21.984h-19.584v-63.36h31.296l7.296 28.128 2.784 11.808h0.192l2.784-11.808 7.296-28.128z" stop-color="#000000" style="-inkscape-stroke:none;font-variation-settings:normal"/>
   <path d="m172.71 143.78v16.8h-37.44v-16.8z" stop-color="#000000" style="-inkscape-stroke:none;font-variation-settings:normal"/>
  </g>
 </g>
</svg>
