<svg xmlns="http://www.w3.org/2000/svg" xmlns:xlink="http://www.w3.org/1999/xlink" xmlns:lucid="lucid" width="1619" height="598.47"><g transform="translate(34 -127)" lucid:page-tab-id="p2U9mrJNj0XlO"><path d="M-500 0h2500v1000H-500z" fill="#fff"/><path d="M520.26 529.98h-70.28v38.15l-75.9-.3v-3.94l71.94.27v-38.14h74.24z" stroke="#000" stroke-width=".05"/><path d="M363.64 551.33l3.6 1.5 3.12 2.38 2.4 3.13 1.48 3.6.5 3.9-.5 3.88-1.5 3.6-2.38 3.12-3.12 2.4-3.6 1.48-3.9.52-3.88-.52-3.6-1.5-3.12-2.38-2.4-3.12-1.48-3.6-.5-3.88.5-3.9 1.5-3.6 2.38-3.1 3.12-2.4 3.6-1.5 3.9-.5z" fill="#fff"/><path d="M364.16 549.4l4.08 1.7 3.52 2.7 2.72 3.53 1.68 4.08.58 4.42-.58 4.4-1.7 4.08-2.7 3.53-3.52 2.7-4.08 1.7-4.4.58-4.42-.57-4.08-1.7-3.52-2.7-2.72-3.53-1.7-4.08-.56-4.4.58-4.4 1.7-4.1 2.7-3.52 3.52-2.7 4.08-1.7 4.4-.58zm-7.8 3.85l-3.1 1.3-2.7 2.07-2.08 2.7-1.3 3.12-.44 3.38.44 3.37 1.3 3.1 2.07 2.7 2.7 2.1 3.12 1.28 3.38.44 3.38-.44 3.1-1.3 2.72-2.07 2.07-2.7 1.3-3.1.44-3.38-.44-3.38-1.3-3.12-2.07-2.7-2.7-2.08-3.12-1.3-3.38-.43z" stroke="#000" stroke-width=".05"/><path d="M536.53 528l-14.27 4.63v-9.26z"/><path d="M542.92 528l-22.63 7.35v-14.7zm-18.68 1.92l5.9-1.92-5.9-1.92z" stroke="#000" stroke-width=".05"/><use xlink:href="#a" transform="matrix(1,0,0,1,448,543.4101711858006) translate(0 15.2890625)"/><use xlink:href="#b" transform="matrix(1,0,0,1,488.09236199589236,502.40000000000003) translate(0 14.4)"/><path d="M361.98 254h-3.96v-76h3.96z" stroke="#f33" stroke-width=".05" fill="#f33"/><path d="M361.98 256h-3.96v-2.05h3.96zM361.98 178.05h-3.96V176h3.96z" stroke="#f33" stroke-width=".05" fill="#f33"/><use xlink:href="#a" transform="matrix(1,0,0,1,360,207.209716796875) translate(0 15.2890625)"/><path d="M360 548v58" stroke="#f33" stroke-width="4" fill="none"/><path d="M361.98 548.05h-3.96V546h3.96z" stroke="#f33" stroke-width=".05" fill="#f33"/><path d="M360 605.95V608" stroke="#f33" stroke-width="4" fill="none"/><path d="M304 256h112v288H304z" stroke="#333" stroke-width="4" fill="#828282" fill-opacity=".1"/><path d="M-32 368h160v80H-32z" stroke="#000" stroke-opacity="0" stroke-width="4" fill-opacity="0"/><use xlink:href="#c" transform="matrix(1,0,0,1,-12,368) translate(22.8662109375 27.923681640625002)"/><use xlink:href="#d" transform="matrix(1,0,0,1,-12,368) translate(55.58740234375 27.923681640625002)"/><use xlink:href="#e" transform="matrix(1,0,0,1,-12,368) translate(15.415332031249989 46.749267578125)"/><use xlink:href="#f" transform="matrix(1,0,0,1,-12,368) translate(41.82792968749999 46.749267578125)"/><use xlink:href="#g" transform="matrix(1,0,0,1,-12,368) translate(73.7890625 46.749267578125)"/><use xlink:href="#h" transform="matrix(1,0,0,1,-12,368) translate(59.79931640625 65.574853515625)"/><use xlink:href="#i" transform="matrix(1,0,0,1,-12,368) translate(96.77880859375 65.574853515625)"/><path d="M544 128h192v96H544z" stroke="#fe7070" stroke-width="2" fill="#ffd9d9"/><use xlink:href="#j" transform="matrix(1,0,0,1,564,128) translate(45.39404296875 45.336474609375)"/><use xlink:href="#k" transform="matrix(1,0,0,1,564,128) translate(31.66357421875 64.162060546875)"/><path d="M736 144h48v32h-48z" stroke="#000" stroke-opacity="0" stroke-width="4" fill-opacity="0"/><use xlink:href="#l" transform="matrix(1,0,0,1,756,144) translate(-7.619873046875 22.749267578125)"/><path d="M192 320h96v48h-96z" stroke="#000" stroke-opacity="0" stroke-width="4" fill-opacity="0"/><use xlink:href="#m" transform="matrix(1,0,0,1,212,320) translate(-16.8828125 21.336474609375003)"/><use xlink:href="#n" transform="matrix(1,0,0,1,212,320) translate(10.615234375 40.162060546875)"/><path d="M520.26 177.97H161.98V374h-3.95V174.03h362.23z" stroke="#f33" stroke-width=".05" fill="#f33"/><path d="M161.97 376h-3.94v-2.05h3.94z" fill="#f33"/><path d="M161.97 376h-3.94v-2.05h3.94z" stroke="#f33" stroke-width=".05" fill="#f33"/><path d="M536.53 176l-14.27 4.63v-9.26z" fill="#f33"/><path d="M542.92 176l-22.63 7.35v-14.7zm-18.68 1.92l5.9-1.92-5.9-1.92z" stroke="#f33" stroke-width=".05" fill="#f33"/><use xlink:href="#a" transform="matrix(1,0,0,1,251.5,167.209716796875) translate(0 15.2890625)"/><path d="M544 320h192v96H544z" stroke="#e08fff" stroke-width="2" fill="#f4d9ff"/><use xlink:href="#o" transform="matrix(1,0,0,1,564,320) translate(42.392822265625 45.336474609375)"/><use xlink:href="#p" transform="matrix(1,0,0,1,564,320) translate(39.04833984375 64.162060546875)"/><path d="M544 480h192v96H544z" stroke="#e08fff" stroke-width="2" fill="#f4d9ff"/><use xlink:href="#q" transform="matrix(1,0,0,1,564,480) translate(41.6923828125 45.336474609375)"/><use xlink:href="#p" transform="matrix(1,0,0,1,564,480) translate(39.04833984375 64.162060546875)"/><path d="M800 320h192v96H800z" stroke="#e08fff" stroke-width="2" fill="#f4d9ff"/><use xlink:href="#r" transform="matrix(1,0,0,1,820,320) translate(47.495361328125 45.336474609375)"/><use xlink:href="#s" transform="matrix(1,0,0,1,820,320) translate(17.436767578125 64.162060546875)"/><path d="M800 480h192v96H800z" stroke="#e08fff" stroke-width="2" fill="#f4d9ff"/><use xlink:href="#r" transform="matrix(1,0,0,1,820,480) translate(47.495361328125 45.336474609375)"/><use xlink:href="#s" transform="matrix(1,0,0,1,820,480) translate(17.436767578125 64.162060546875)"/><path d="M1056 240h224v40h-224z" stroke="#6db1ff" stroke-width="2" fill="#edf5ff"/><path d="M1056 280h224v328h-224z" stroke="#6db1ff" stroke-width="2" fill="none"/><use xlink:href="#t" transform="matrix(1,0,0,1,1056,240) translate(42.851318359375 26.749267578125)"/><path d="M1056 320h64v32h-64z" stroke="#6db1ff" stroke-width="2" fill="#edf5ff"/><use xlink:href="#u" transform="matrix(1,0,0,1,1076,320) translate(-4.890625 21.47265625)"/><path d="M1056 384h64v32h-64z" stroke="#6db1ff" stroke-width="2" fill="#edf5ff"/><use xlink:href="#v" transform="matrix(1,0,0,1,1076,384) translate(-0.88671875 21.47265625)"/><path d="M1056 480h64v32h-64z" stroke="#6db1ff" stroke-width="2" fill="#edf5ff"/><use xlink:href="#u" transform="matrix(1,0,0,1,1076,480) translate(-4.890625 21.47265625)"/><path d="M1056 544h64v32h-64z" stroke="#6db1ff" stroke-width="2" fill="#edf5ff"/><use xlink:href="#v" transform="matrix(1,0,0,1,1076,544) translate(-0.88671875 21.47265625)"/><path d="M1120 376h96v160h-96z" stroke="#000" stroke-opacity="0" stroke-width="4" fill-opacity="0"/><use xlink:href="#w" transform="matrix(1,0,0,1,1140,376) translate(2.02685546875 77.616845703125)"/><use xlink:href="#x" transform="matrix(1,0,0,1,1140,376) translate(-17.824462890625 94.46079101562499)"/><path d="M1200 432v-96h80v96z" stroke="#6db1ff" stroke-width="2" fill="#edf5ff"/><use xlink:href="#y" transform="matrix(6.123233995736766e-17,-1,1,6.123233995736766e-17,1200,412) translate(5.831787109375 46.498779296875)"/><use xlink:href="#z" transform="matrix(6.123233995736766e-17,-1,1,6.123233995736766e-17,1200,412) translate(24.831787109375 46.498779296875)"/><path d="M1200 568v-64h80v64z" stroke="#6db1ff" stroke-width="2" fill="#edf5ff"/><use xlink:href="#A" transform="matrix(6.123233995736766e-17,-1,1,6.123233995736766e-17,1200,548) translate(-13.68896484375 46.498779296875)"/><path d="M1376 352h208v64h-208z" stroke="#54c45e" stroke-width="2" fill="#c3f7c8"/><use xlink:href="#B" transform="matrix(1,0,0,1,1396,352) translate(14.322509765625 38.749267578125)"/><use xlink:href="#C" transform="matrix(1,0,0,1,1396,352) translate(87.186767578125 38.749267578125)"/><path d="M1376 544h208v64h-208z" stroke="#54c45e" stroke-width="2" fill="#c3f7c8"/><use xlink:href="#D" transform="matrix(1,0,0,1,1396,544) translate(23.81787109375 38.749267578125)"/><use xlink:href="#E" transform="matrix(1,0,0,1,1396,544) translate(69.2119140625 38.749267578125)"/><use xlink:href="#F" transform="matrix(1,0,0,1,1396,544) translate(92.423828125 38.749267578125)"/><path d="M1376 464h208v64h-208z" stroke="#54c45e" stroke-width="2" fill="#c3f7c8"/><use xlink:href="#G" transform="matrix(1,0,0,1,1396,464) translate(31.819580078125 38.749267578125)"/><use xlink:href="#H" transform="matrix(1,0,0,1,1396,464) translate(96.250732421875 38.749267578125)"/><path d="M161.97 606.02H358V610H158.03V442h3.94z" stroke="#f33" stroke-width=".05" fill="#f33"/><path d="M161.97 442.05h-3.94V440h3.94z" fill="#f33"/><path d="M161.97 442.05h-3.94V440h3.94zM360 609.98h-2.05V606H360z" stroke="#f33" stroke-width=".05" fill="#f33"/><use xlink:href="#a" transform="matrix(1,0,0,1,176,599.209716796875) translate(0 15.2890625)"/><path d="M224 144h48v32h-48z" stroke="#000" stroke-opacity="0" stroke-width="4" fill-opacity="0"/><use xlink:href="#I" transform="matrix(1,0,0,1,244,144) translate(-2.7014892578125 22.749267578125)"/><path d="M1478 177.97H739v-3.94h739z" stroke="#f93" stroke-width=".05" fill="#f93"/><path d="M739.05 177.97H737v-3.94h2.05z" fill="#f93"/><path d="M739.05 177.97H737v-3.94h2.05zM1480 177.97h-2.05v-3.94h2.05z" stroke="#f93" stroke-width=".05" fill="#f93"/><use xlink:href="#a" transform="matrix(1,0,0,1,1108.5,167.209716796875) translate(0 15.2890625)"/><path d="M897.98 317H894V178H898z" stroke="#f93" stroke-width=".05" fill="#f93"/><path d="M897.98 178.05H894V176H898z" stroke="#f93" stroke-width=".05" fill="#f93"/><path d="M897.98 319H894v-2.05H898z" fill="#f93"/><path d="M897.98 319H894v-2.05H898z" stroke="#f93" stroke-width=".05" fill="#f93"/><use xlink:href="#a" transform="matrix(1,0,0,1,896,238.709716796875) translate(0 15.2890625)"/><path d="M1169.97 238h-3.94v-60h3.94z" stroke="#f93" stroke-width=".05" fill="#f93"/><path d="M1169.97 178.05h-3.94V176h3.94zM1169.97 240h-3.94v-2.05h3.94z" stroke="#f93" stroke-width=".05" fill="#f93"/><use xlink:href="#a" transform="matrix(1,0,0,1,1168,199.209716796875) translate(0 15.2890625)"/><path d="M320.45 371.5h65.9v-23.07h-65.9z" fill="none"/><path d="M360 371.5v-11.53c-12.4 0-19.78-5.2-19.78-11.54 0-6.34 7.4-11.53 16.48-11.53-9.1 0-16.48-5.2-16.48-11.53 0-6.35 7.4-11.54 16.48-11.54-9.1 0-16.48-5.2-16.48-11.53 0-6.34 7.4-11.53 16.48-11.53-9.1 0-16.48-5.2-16.48-11.54 0-6.34 7.4-11.53 16.48-11.53 1.2 0 2.1.12 3.3.23v-11.76" stroke="#3a414a" stroke-width="4" fill="#fff"/><use xlink:href="#J" transform="matrix(1,0,0,1,373.1761904761904,267.7) translate(11.384999999999998 73.8)"/><path d="M776.26 369.98H739v-3.96h37.26z" stroke="#000" stroke-width=".05"/><path d="M739.05 369.98H737v-3.96h2.05z"/><path d="M739.05 369.98H737v-3.96h2.05z" stroke="#000" stroke-width=".05"/><path d="M792.53 368l-14.27 4.63v-9.26z"/><path d="M798.92 368l-22.63 7.35v-14.7zm-18.68 1.92l5.9-1.92-5.9-1.92z" stroke="#000" stroke-width=".05"/><use xlink:href="#a" transform="matrix(1,0,0,1,768,359.209716796875) translate(0 15.2890625)"/><path d="M777.26 529.98H738V526h39.26z" stroke="#000" stroke-width=".05"/><path d="M738.05 529.98H737V526h1.05z"/><path d="M738.05 529.98H737V526h1.05z" stroke="#000" stroke-width=".05"/><path d="M793.53 528l-14.27 4.63v-9.26z"/><path d="M799.92 528l-22.63 7.35v-14.7zm-18.68 1.92l5.9-1.92-5.9-1.92z" stroke="#000" stroke-width=".05"/><use xlink:href="#a" transform="matrix(1,0,0,1,768,519.209716796875) translate(0 15.2890625)"/><path d="M1032.68 340.78l-37.45 4.68-.5-3.92 37.46-4.68z" stroke="#000" stroke-width=".05"/><path d="M995.28 345.45l-2.28.3v-4l1.8-.2z"/><path d="M995.28 345.45l-2.28.3v-4l1.8-.2z" stroke="#000" stroke-width=".05"/><path d="M1048.58 336.8l-13.58 6.37-1.15-9.2z"/><path d="M1054.92 336l-21.55 10.1-1.82-14.58zm-18.3 4.23l5.62-2.63-6.1-1.18z" stroke="#000" stroke-width=".05"/><use xlink:href="#a" transform="matrix(1,0,0,1,1024,331.084716796875) translate(0 15.2890625)"/><path d="M1032.68 395.22l-.5 3.92-37.44-4.68.5-3.92z" stroke="#000" stroke-width=".05"/><path d="M995.28 390.55l-.5 3.9-1.78-.2v-4z"/><path d="M995.28 390.55l-.5 3.9-1.78-.2v-4z" stroke="#000" stroke-width=".05"/><path d="M1048.58 399.2l-14.73 2.83 1.15-9.2z"/><path d="M1054.92 400l-23.37 4.48 1.83-14.6zm-18.78-.43l6.1-1.17-5.62-2.63z" stroke="#000" stroke-width=".05"/><use xlink:href="#a" transform="matrix(1,0,0,1,1024,387.334716796875) translate(0 15.2890625)"/><path d="M1033.68 500.78l-39.45 4.93-.5-3.9 39.46-4.94z" stroke="#000" stroke-width=".05"/><path d="M994.28 505.7l-1.28.17v-4l.8-.08z"/><path d="M994.28 505.7l-1.28.17v-4l.8-.08z" stroke="#000" stroke-width=".05"/><path d="M1049.58 496.8l-13.58 6.37-1.15-9.2z"/><path d="M1055.92 496l-21.55 10.1-1.82-14.58zm-18.3 4.23l5.62-2.63-6.1-1.18z" stroke="#000" stroke-width=".05"/><use xlink:href="#a" transform="matrix(1,0,0,1,1024,491.209716796875) translate(0 15.2890625)"/><path d="M1032.68 555.22l-.5 3.92-37.44-4.68.5-3.92z" stroke="#000" stroke-width=".05"/><path d="M995.28 550.54l-.5 3.92-1.78-.22v-3.98z"/><path d="M995.28 550.54l-.5 3.92-1.78-.22v-3.98z" stroke="#000" stroke-width=".05"/><path d="M1048.58 559.2l-14.73 2.83 1.15-9.2z"/><path d="M1054.92 560l-23.37 4.48 1.83-14.6zm-18.78-.42l6.1-1.18-5.62-2.63z" stroke="#000" stroke-width=".05"/><use xlink:href="#a" transform="matrix(1,0,0,1,1024,547.334716796875) translate(0 15.2890625)"/><path d="M1283 536h40a5 5 0 0 1 5 5v30a5 5 0 0 0 5 5h19.26" stroke="#090" stroke-width="4" fill="none"/><path d="M1283.05 537.98H1281V534h2.05z" stroke="#090" stroke-width=".05" fill="#090"/><path d="M1368.53 576l-14.27 4.63v-9.26z" stroke="#090" stroke-width="4" fill="#090"/><path d="M1283 536h40a5 5 0 0 0 5-5v-30a5 5 0 0 1 5-5h19.26" stroke="#090" stroke-width="4" fill="none"/><path d="M1283.05 537.98H1281V534h2.05z" stroke="#090" stroke-width=".05" fill="#090"/><path d="M1368.53 496l-14.27 4.63v-9.26z" stroke="#090" stroke-width="4" fill="#090"/><path d="M1352.26 384H1283" stroke="#090" stroke-width="4" fill="none"/><path d="M1368.53 384l-14.27 4.63v-9.26z" stroke="#090" stroke-width="4" fill="#090"/><path d="M1283.05 385.98H1281v-3.96h2.05z" stroke="#090" stroke-width=".05" fill="#090"/><g fill="none"><path d="M984.15 651.7a7.85 7.85 0 0 0 7.85-7.85 7.85 7.85 0 0 0-7.85-7.85h-432.3a7.85 7.85 0 0 0-7.85 7.85 7.85 7.85 0 0 0 7.85 7.85z"/><path d="M544 636c0 15.46 12.54 28 28 28h168c15.46 0 28 12.54 28 28 0-15.46 12.54-28 28-28h168c15.46 0 28-12.54 28-28" stroke="#e08fff" stroke-width="4"/></g><path d="M690.4 700.1a5 5 0 0 1 5-5h145.2a5 5 0 0 1 5 5v5.7a5 5 0 0 1-5 5H695.4a5 5 0 0 1-5-5z" fill="none"/><use xlink:href="#K" transform="matrix(1,0,0,1,690.403935546875,695.1119602809447) translate(11.495361328125 14.749267578125)"/><use xlink:href="#L" transform="matrix(1,0,0,1,690.403935546875,695.1119602809447) translate(81.158935546875 14.749267578125)"/><g fill="none"><path d="M1269.33 668a10.67 10.67 0 0 0 10.67-10.67v-10.66a10.67 10.67 0 0 0-10.67-10.67h-202.66a10.67 10.67 0 0 0-10.67 10.67v10.66a10.67 10.67 0 0 0 10.67 10.67z"/><path d="M1056 636c0 7.73 6.27 14 14 14h84c7.73 0 14 6.27 14 14 0-7.73 6.27-14 14-14h84c7.73 0 14-6.27 14-14" stroke="#6db1ff" stroke-width="4"/></g><path d="M1072 691.8a5 5 0 0 1 5-5h182a5 5 0 0 1 5 5v28.67a5 5 0 0 1-5 5h-182a5 5 0 0 1-5-5z" fill="none"/><use xlink:href="#M" transform="matrix(1,0,0,1,1072,686.7867333984375) translate(22.06787109375 26.249267578125)"/><use xlink:href="#N" transform="matrix(1,0,0,1,1072,686.7867333984375) translate(107.58642578125 26.249267578125)"/><path d="M1480 349V178" stroke="#f93" stroke-width="4" fill="none"/><path d="M1481.97 351h-3.94v-2.05h3.94z" stroke="#f93" stroke-width=".05" fill="#f93"/><path d="M1480 178.05V176M1480 461v-42" stroke="#f93" stroke-width="4" fill="none"/><path d="M1481.97 463h-3.94v-2.05h3.94zM1481.97 419.05h-3.94V417h3.94zM897.98 477H894v-58H898z" stroke="#f93" stroke-width=".05" fill="#f93"/><path d="M897.98 419.05H894V417H898z" fill="#f93"/><path d="M897.98 419.05H894V417H898z" stroke="#f93" stroke-width=".05" fill="#f93"/><path d="M897.98 479H894v-2.05H898z" fill="#f93"/><path d="M897.98 479H894v-2.05H898z" stroke="#f93" stroke-width=".05" fill="#f93"/><g><use xlink:href="#a" transform="matrix(1,0,0,1,896,439.209716796875) translate(0 15.2890625)"/></g><path d="M185.6 408c0 14.08-11.52 25.6-25.6 25.6-14.08 0-25.6-11.52-25.6-25.6 0-14.08 11.52-25.6 25.6-25.6 14.08 0 25.6 11.52 25.6 25.6zM160 382.4V376m0 57.6v6.4" stroke="#f33" stroke-width="4" fill="#fff"/><path d="M160 408c0-5.12-4.48-9.6-9.6-9.6-5.12 0-9.6 4.48-9.6 9.6m38.4 0c0 5.12-4.48 9.6-9.6 9.6-5.12 0-9.6-4.48-9.6-9.6" stroke="#f33" stroke-width="4" fill="none"/><g fill="none"><path d="M331.17 499.33V384h57.66v115.33z"/><path d="M360 499.33v-25.95l-8.65-5.76 17.3-8.65-17.3-8.65 17.3-8.65-17.3-8.65 17.3-8.65-17.3-8.65 17.3-8.65-8.65-5.77V384" stroke="#3a414a" stroke-width="4"/><path d="M371.53 487.8l-20.18-92.27v10.38m0-10.37l4.6 9.23" stroke="#3a414a" stroke-width="4"/></g><g><use xlink:href="#O" transform="matrix(1,0,0,1,387.66666666666663,360.9333333333332) translate(0 61.6)"/></g><g><path d="M360 370v20" stroke="#3a414a" stroke-width="4" stroke-linecap="round" fill="none"/></g><path d="M432 270.4a5 5 0 0 1 5-5h54a5 5 0 0 1 5 5v195.2a5 5 0 0 1-5 5h-54a5 5 0 0 1-5-5z" fill="none"/><path d="M432 470.6c5.52 0 10-4.48 10-10V378c0-5.52 4.48-10 10-10-5.52 0-10-4.48-10-10v-82.6c0-5.52-4.48-10-10-10M541 368h-87.57" stroke="#000" stroke-width="4" fill="none"/><path d="M543 366.02v3.96h-2.05v-3.96z" stroke="#000" stroke-width=".05"/><path d="M453.48 368h-2.05" stroke="#000" stroke-width="4" fill="none"/><g><use xlink:href="#P" transform="matrix(1,0,0,1,487.7143081340304,342.3970257608925) translate(0 14.4)"/></g><g><path d="M360 501.33V542" stroke="#3a414a" stroke-width="4" stroke-linecap="round" fill="none"/></g><defs><path d="M33 0v-248h34V0H33" id="Q"/><path d="M30 0v-248h33v221h125V0H30" id="R"/><g id="b"><use transform="matrix(0.05,0,0,0.05,0,0)" xlink:href="#Q"/><use transform="matrix(0.034999999999999996,0,0,0.034999999999999996,5,2.5199999999999996)" xlink:href="#R"/></g><path fill="#f33" d="M1133 0l-125-360H471L346 0H51l514-1409h348L1425 0h-292zM739-1192c-50 182-61 194-202 610h405c-68-203-141-401-203-610" id="S"/><path fill="#f33" d="M381-711c0 302 128 499 414 499 178 0 302-89 371-268l257 97c-99 251-300 400-628 403C342 25 84-257 84-711c0-457 243-719 698-719 334 0 540 138 623 392l-260 71c-40-136-182-233-357-231-284 2-407 189-407 487" id="T"/><g id="c"><use transform="matrix(0.00927734375,0,0,0.00927734375,0,0)" xlink:href="#S"/><use transform="matrix(0.00927734375,0,0,0.00927734375,13.72119140625,0)" xlink:href="#T"/></g><path fill="#f33" d="M963-1038c-32-126-120-183-283-183-179 0-268 56-268 168 0 86 48 119 113 149 80 38 447 109 517 142 145 68 244 156 244 356 0 138-55 238-154 316C960 46 446 53 257-76 157-144 88-237 59-367l285-47c41 153 150 213 346 213 206 0 309-63 309-188 0-94-62-130-135-164-58-27-400-96-468-123-154-61-270-150-271-360 0-127 47-224 143-292s235-102 418-102c336 0 504 85 563 353" id="U"/><path fill="#f33" d="M627-1102c355 0 544 203 544 560 0 345-207 562-550 562C283 20 80-201 80-542c0-343 204-560 547-560zM375-542c0 208 60 370 243 370 173 0 259-123 259-370 0-129-21-222-63-280s-103-87-183-87c-171 0-256 122-256 367" id="V"/><path fill="#f33" d="M483 20c-243 0-356-160-356-415v-687h281v607c0 190 64 285 192 285 148-1 227-151 227-312v-580h281c4 356-9 741 8 1082H848c-8-96-12-168-12-215h-5C765-71 670 20 483 20" id="W"/><path fill="#f33" d="M646-868c-165 0-222 146-222 337V0H143c-4-356 8-741-8-1082h268c4 15 14 211 13 231h4c48-123 63-177 149-229 44-27 147-31 197-8v235c-45-10-85-15-120-15" id="X"/><path fill="#f33" d="M1079-360C1041-124 864 17 594 20 261 23 80-197 80-535c0-344 180-567 518-567 257 0 435 142 473 361l-283 14c-16-106-75-182-196-182-145 0-217 121-217 363 0 249 74 374 221 374 120 0 188-82 201-201" id="Y"/><path fill="#f33" d="M375-487c-1 185 60 319 225 319 99 0 162-43 188-129l265 23C976-78 821 20 586 20 247 19 80-194 80-546c0-344 176-559 510-556 341 3 483 247 479 615H375zm422-176c-8-153-68-262-211-262-144 0-206 112-209 262h420" id="Z"/><g id="d"><use transform="matrix(0.00927734375,0,0,0.00927734375,0,0)" xlink:href="#U"/><use transform="matrix(0.00927734375,0,0,0.00927734375,12.6728515625,0)" xlink:href="#V"/><use transform="matrix(0.00927734375,0,0,0.00927734375,24.27880859375,0)" xlink:href="#W"/><use transform="matrix(0.00927734375,0,0,0.00927734375,35.884765625,0)" xlink:href="#X"/><use transform="matrix(0.00927734375,0,0,0.00927734375,43.27880859375,0)" xlink:href="#Y"/><use transform="matrix(0.00927734375,0,0,0.00927734375,53.845703125,0)" xlink:href="#Z"/></g><path fill="#f33" d="M129 0v-209h349v-961L140-959v-221l353-229h266v1200h323V0H129" id="aa"/><path fill="#f33" d="M940-287V0H672v-287H31v-211l595-911h314v913h188v209H940zM672-496c3-219-7-452 9-659-119 218-288 448-421 659h412" id="ab"/><g id="e"><use transform="matrix(0.00927734375,0,0,0.00927734375,0,0)" xlink:href="#aa"/><use transform="matrix(0.00927734375,0,0,0.00927734375,10.56689453125,0)" xlink:href="#ab"/></g><path fill="#f33" d="M834 0H535L14-1409h308c123 400 253 753 364 1171 104-406 242-780 361-1171h305" id="ac"/><g id="f"><use transform="matrix(0.00927734375,0,0,0.00927734375,0,0)" xlink:href="#ac"/><use transform="matrix(0.00546875,0,0,0.00546875,12.672851562500002,2.1505859375)" xlink:href="#S"/><use transform="matrix(0.00546875,0,0,0.00546875,20.7611328125,2.1505859375)" xlink:href="#T"/></g><path fill="#f33" d="M379-530c0 428 112 673 301 955H399C210 147 102-101 102-531c0-428 108-677 297-953h281c-189 277-301 528-301 954" id="ad"/><path fill="#f33" d="M1367-989c1 207-135 359-311 397L1437 0h-332L778-535H432V0H137v-1409h704c309-2 524 129 526 420zM818-764c154 2 252-69 252-213 0-135-87-203-260-203H432v416h386" id="ae"/><path fill="#f33" d="M1307 0c4-408-9-758 10-1161C1199-702 1088-421 958 0H748C626-385 495-761 387-1161c24 414 7 744 12 1161H137v-1409h395c107 351 232 685 322 1053 98-360 215-702 322-1053h393V0h-262" id="af"/><path fill="#f33" d="M580-531c0 429-107 677-297 956H2c190-284 301-525 301-955 0-424-113-679-301-954h281c190 277 297 526 297 953" id="ag"/><g id="g"><use transform="matrix(0.0078125,0,0,0.0078125,0,0)" xlink:href="#ad"/><use transform="matrix(0.0078125,0,0,0.0078125,5.328125,0)" xlink:href="#ae"/><use transform="matrix(0.0078125,0,0,0.0078125,16.8828125,0)" xlink:href="#af"/><use transform="matrix(0.0078125,0,0,0.0078125,30.2109375,0)" xlink:href="#U"/><use transform="matrix(0.0078125,0,0,0.0078125,40.8828125,0)" xlink:href="#ag"/></g><path fill="#f33" d="M640-934c270 0 442 189 442 465 0 303-211 489-522 489-281 0-458-131-497-372l281-23c26 110 93 172 219 172 148 0 230-103 230-260 0-143-82-244-224-244-78 0-142 30-191 91H104l49-793h847v209H408l-23 356c68-60 153-90 255-90" id="ah"/><path fill="#f33" d="M81-705c0-418 89-725 492-725 167 0 289 60 366 181s116 302 116 544c0 238-41 418-123 541S728 20 565 20C242 20 81-222 81-705zm673 296c26-128 25-473 0-599-25-124-54-202-183-202-133 0-166 76-191 202s-24 478 2 604c26 125 55 203 185 203 129 0 162-84 187-208" id="ai"/><g id="h"><use transform="matrix(0.00927734375,0,0,0.00927734375,0,0)" xlink:href="#ah"/><use transform="matrix(0.00927734375,0,0,0.00927734375,10.56689453125,0)" xlink:href="#ai"/><use transform="matrix(0.00927734375,0,0,0.00927734375,21.1337890625,0)" xlink:href="#ai"/></g><path fill="#f33" d="M1046 0v-604H432V0H137v-1409h295v561h614v-561h295V0h-295" id="aj"/><path fill="#f33" d="M82 0v-199l509-680H123v-203h778v201L395-205h555V0H82" id="ak"/><g id="i"><use transform="matrix(0.00927734375,0,0,0.00927734375,0,0)" xlink:href="#aj"/><use transform="matrix(0.00927734375,0,0,0.00927734375,13.72119140625,0)" xlink:href="#ak"/></g><path d="M1133 0l-125-360H471L346 0H51l514-1409h348L1425 0h-292zM739-1192c-50 182-61 194-202 610h405c-68-203-141-401-203-610" id="al"/><path d="M381-711c0 302 128 499 414 499 178 0 302-89 371-268l257 97c-99 251-300 400-628 403C342 25 84-257 84-711c0-457 243-719 698-719 334 0 540 138 623 392l-260 71c-40-136-182-233-357-231-284 2-407 189-407 487" id="am"/><path d="M80-409v-244h520v244H80" id="an"/><path d="M647-1409c461-3 750 240 746 694-4 440-251 715-686 715H137v-1409h510zm35 1181c265 1 414-208 414-487 0-298-161-467-455-466H432v953h250" id="ao"/><g id="j"><use transform="matrix(0.00927734375,0,0,0.00927734375,0,0)" xlink:href="#al"/><use transform="matrix(0.00927734375,0,0,0.00927734375,13.72119140625,0)" xlink:href="#am"/><use transform="matrix(0.00927734375,0,0,0.00927734375,27.4423828125,0)" xlink:href="#an"/><use transform="matrix(0.00927734375,0,0,0.00927734375,33.76953125,0)" xlink:href="#ao"/><use transform="matrix(0.00927734375,0,0,0.00927734375,47.49072265625,0)" xlink:href="#am"/></g><path d="M1367-989c1 207-135 359-311 397L1437 0h-332L778-535H432V0H137v-1409h704c309-2 524 129 526 420zM818-764c154 2 252-69 252-213 0-135-87-203-260-203H432v416h386" id="ap"/><path d="M375-487c-1 185 60 319 225 319 99 0 162-43 188-129l265 23C976-78 821 20 586 20 247 19 80-194 80-546c0-344 176-559 510-556 341 3 483 247 479 615H375zm422-176c-8-153-68-262-211-262-144 0-206 112-209 262h420" id="aq"/><path d="M1108-33c0 316-189 467-512 467-247 0-427-94-467-291l281-33c20 86 88 139 194 139 188 0 233-141 225-343-1-35 4-75 0-107C767-68 651-2 481-2 198-2 84-238 84-550c0-320 120-553 418-553 157 0 266 65 327 195h5c-1-34 7-149 14-174h266c-12 332-6 705-6 1049zM600-197c173 0 231-162 231-359 0-191-60-354-229-354-150 0-225 120-225 360 0 235 74 353 223 353" id="ar"/><path d="M483 20c-243 0-356-160-356-415v-687h281v607c0 190 64 285 192 285 148-1 227-151 227-312v-580h281c4 356-9 741 8 1082H848c-8-96-12-168-12-215h-5C765-71 670 20 483 20" id="as"/><path d="M143 0v-1484h281V0H143" id="at"/><path d="M972 12c-145 0-202-73-217-205h-6C670-51 552 20 393 20 187 20 58-100 60-306c3-242 172-345 427-346l233-4c5-152-16-266-158-264-112 2-147 49-160 153l-293-14c38-217 204-321 465-321 262 0 427 133 427 388v394c3 101 7 160 89 160 21 0 42-2 62-6v152c-57 15-108 27-180 26zM483-176c165 0 247-140 237-325-89 1-231-1-283 23-55 25-84 70-84 150 0 94 44 152 130 152" id="au"/><path d="M440-330c0 98 31 152 123 154 22 0 53-5 94-14v174C588 7 509 18 420 18c-170-1-258-95-258-272v-638H25v-190h151l88-254h176v254h205v190H440v562" id="av"/><path d="M627-1102c355 0 544 203 544 560 0 345-207 562-550 562C283 20 80-201 80-542c0-343 204-560 547-560zM375-542c0 208 60 370 243 370 173 0 259-123 259-370 0-129-21-222-63-280s-103-87-183-87c-171 0-256 122-256 367" id="aw"/><path d="M646-868c-165 0-222 146-222 337V0H143c-4-356 8-741-8-1082h268c4 15 14 211 13 231h4c48-123 63-177 149-229 44-27 147-31 197-8v235c-45-10-85-15-120-15" id="ax"/><g id="k"><use transform="matrix(0.00927734375,0,0,0.00927734375,0,0)" xlink:href="#ap"/><use transform="matrix(0.00927734375,0,0,0.00927734375,13.72119140625,0)" xlink:href="#aq"/><use transform="matrix(0.00927734375,0,0,0.00927734375,24.2880859375,0)" xlink:href="#ar"/><use transform="matrix(0.00927734375,0,0,0.00927734375,35.89404296875,0)" xlink:href="#as"/><use transform="matrix(0.00927734375,0,0,0.00927734375,47.5,0)" xlink:href="#at"/><use transform="matrix(0.00927734375,0,0,0.00927734375,52.77880859375,0)" xlink:href="#au"/><use transform="matrix(0.00927734375,0,0,0.00927734375,63.345703125,0)" xlink:href="#av"/><use transform="matrix(0.00927734375,0,0,0.00927734375,69.6728515625,0)" xlink:href="#aw"/><use transform="matrix(0.00927734375,0,0,0.00927734375,81.27880859375,0)" xlink:href="#ax"/></g><path fill="#f93" d="M640-934c270 0 442 189 442 465 0 303-211 489-522 489-281 0-458-131-497-372l281-23c26 110 93 172 219 172 148 0 230-103 230-260 0-143-82-244-224-244-78 0-142 30-191 91H104l49-793h847v209H408l-23 356c68-60 153-90 255-90" id="ay"/><path fill="#f93" d="M834 0H535L14-1409h308c123 400 253 753 364 1171 104-406 242-780 361-1171h305" id="az"/><g id="l"><use transform="matrix(0.00927734375,0,0,0.00927734375,0,0)" xlink:href="#ay"/><use transform="matrix(0.00927734375,0,0,0.00927734375,10.56689453125,0)" xlink:href="#az"/></g><path fill="#ff66b3" d="M834 0H535L14-1409h308c123 400 253 753 364 1171 104-406 242-780 361-1171h305" id="aA"/><path fill="#ff66b3" d="M972 12c-145 0-202-73-217-205h-6C670-51 552 20 393 20 187 20 58-100 60-306c3-242 172-345 427-346l233-4c5-152-16-266-158-264-112 2-147 49-160 153l-293-14c38-217 204-321 465-321 262 0 427 133 427 388v394c3 101 7 160 89 160 21 0 42-2 62-6v152c-57 15-108 27-180 26zM483-176c165 0 247-140 237-325-89 1-231-1-283 23-55 25-84 70-84 150 0 94 44 152 130 152" id="aB"/><path fill="#ff66b3" d="M646-868c-165 0-222 146-222 337V0H143c-4-356 8-741-8-1082h268c4 15 14 211 13 231h4c48-123 63-177 149-229 44-27 147-31 197-8v235c-45-10-85-15-120-15" id="aC"/><path fill="#ff66b3" d="M143-1277v-207h281v207H143zM143 0v-1082h281V0H143" id="aD"/><path fill="#ff66b3" d="M770-1102c286 0 397 243 397 557 0 320-120 562-415 565-165 2-272-80-330-194 1 32-7 151-14 174H135c5-62 8-144 8-247v-1237h281c-1 197 2 398-4 590h4c63-139 179-208 346-208zM420-536c0 197 55 364 231 364 149 0 223-124 223-373 0-123-18-214-54-273s-92-89-167-89c-179 0-233 167-233 371" id="aE"/><path fill="#ff66b3" d="M143 0v-1484h281V0H143" id="aF"/><path fill="#ff66b3" d="M375-487c-1 185 60 319 225 319 99 0 162-43 188-129l265 23C976-78 821 20 586 20 247 19 80-194 80-546c0-344 176-559 510-556 341 3 483 247 479 615H375zm422-176c-8-153-68-262-211-262-144 0-206 112-209 262h420" id="aG"/><g id="m"><use transform="matrix(0.00927734375,0,0,0.00927734375,0,0)" xlink:href="#aA"/><use transform="matrix(0.00927734375,0,0,0.00927734375,11.62451171875,0)" xlink:href="#aB"/><use transform="matrix(0.00927734375,0,0,0.00927734375,22.19140625,0)" xlink:href="#aC"/><use transform="matrix(0.00927734375,0,0,0.00927734375,29.58544921875,0)" xlink:href="#aD"/><use transform="matrix(0.00927734375,0,0,0.00927734375,34.8642578125,0)" xlink:href="#aB"/><use transform="matrix(0.00927734375,0,0,0.00927734375,45.43115234375,0)" xlink:href="#aE"/><use transform="matrix(0.00927734375,0,0,0.00927734375,57.037109375,0)" xlink:href="#aF"/><use transform="matrix(0.00927734375,0,0,0.00927734375,62.31591796875,0)" xlink:href="#aG"/></g><path fill="#ff66b3" d="M137 0v-1409h295v1181h756V0H137" id="aH"/><path fill="#ff66b3" d="M627-1102c355 0 544 203 544 560 0 345-207 562-550 562C283 20 80-201 80-542c0-343 204-560 547-560zM375-542c0 208 60 370 243 370 173 0 259-123 259-370 0-129-21-222-63-280s-103-87-183-87c-171 0-256 122-256 367" id="aI"/><path fill="#ff66b3" d="M500-1102c166 0 271 75 329 191-3-189-2-382-2-573h281v1248c0 67 3 145 8 236H844c-6-25-16-141-15-176h-4C764-45 649 20 479 20c-126 0-223-50-292-148S84-363 84-540c0-321 122-562 416-562zm331 555c0-200-54-364-231-364-75 0-131 30-168 91s-55 155-55 280c0 245 74 368 221 368 74 0 131-33 172-98s61-157 61-277" id="aJ"/><g id="n"><use transform="matrix(0.00927734375,0,0,0.00927734375,0,0)" xlink:href="#aH"/><use transform="matrix(0.00927734375,0,0,0.00927734375,11.60595703125,0)" xlink:href="#aI"/><use transform="matrix(0.00927734375,0,0,0.00927734375,23.2119140625,0)" xlink:href="#aB"/><use transform="matrix(0.00927734375,0,0,0.00927734375,33.77880859375,0)" xlink:href="#aJ"/></g><path d="M834 0H535L14-1409h308c123 400 253 753 364 1171 104-406 242-780 361-1171h305" id="aK"/><g id="o"><use transform="matrix(0.00927734375,0,0,0.00927734375,0,0)" xlink:href="#aK"/><use transform="matrix(0.00927734375,0,0,0.00927734375,11.2626953125,0)" xlink:href="#aw"/><use transform="matrix(0.00927734375,0,0,0.00927734375,22.86865234375,0)" xlink:href="#at"/><use transform="matrix(0.00927734375,0,0,0.00927734375,28.1474609375,0)" xlink:href="#av"/><use transform="matrix(0.00927734375,0,0,0.00927734375,34.474609375,0)" xlink:href="#au"/><use transform="matrix(0.00927734375,0,0,0.00927734375,45.04150390625,0)" xlink:href="#ar"/><use transform="matrix(0.00927734375,0,0,0.00927734375,56.6474609375,0)" xlink:href="#aq"/></g><path d="M963-1038c-32-126-120-183-283-183-179 0-268 56-268 168 0 86 48 119 113 149 80 38 447 109 517 142 145 68 244 156 244 356 0 138-55 238-154 316C960 46 446 53 257-76 157-144 88-237 59-367l285-47c41 153 150 213 346 213 206 0 309-63 309-188 0-94-62-130-135-164-58-27-400-96-468-123-154-61-270-150-271-360 0-127 47-224 143-292s235-102 418-102c336 0 504 85 563 353" id="aL"/><path d="M768-1103c243 0 356 161 356 416V0H844v-607c0-190-64-285-193-285-148 1-227 151-227 312V0H143c-4-356 9-741-8-1082h268c4 18 14 191 13 215h4c67-145 160-236 348-236" id="aM"/><path d="M573-916c-112 0-200 14-200 111 0 88 73 97 168 120 199 47 392 70 479 217 24 40 35 90 35 152 0 237-220 338-484 336-282-2-439-78-499-290l247-37c36 115 92 141 252 141 130 0 226-17 226-124 0-35-14-62-43-82s-79-38-148-52c-159-31-266-61-321-88-100-50-170-123-170-263 0-232 201-328 458-328 245 0 416 95 457 292l-249 26c-21-98-82-131-208-131" id="aN"/><path d="M143-1277v-207h281v207H143zM143 0v-1082h281V0H143" id="aO"/><g id="p"><use transform="matrix(0.00927734375,0,0,0.00927734375,0,0)" xlink:href="#aL"/><use transform="matrix(0.00927734375,0,0,0.00927734375,12.6728515625,0)" xlink:href="#aq"/><use transform="matrix(0.00927734375,0,0,0.00927734375,23.23974609375,0)" xlink:href="#aM"/><use transform="matrix(0.00927734375,0,0,0.00927734375,34.845703125,0)" xlink:href="#aN"/><use transform="matrix(0.00927734375,0,0,0.00927734375,45.41259765625,0)" xlink:href="#aO"/><use transform="matrix(0.00927734375,0,0,0.00927734375,50.69140625,0)" xlink:href="#aM"/><use transform="matrix(0.00927734375,0,0,0.00927734375,62.29736328125,0)" xlink:href="#ar"/></g><g id="q"><use transform="matrix(0.00927734375,0,0,0.00927734375,0,0)" xlink:href="#am"/><use transform="matrix(0.00927734375,0,0,0.00927734375,13.72119140625,0)" xlink:href="#as"/><use transform="matrix(0.00927734375,0,0,0.00927734375,25.3271484375,0)" xlink:href="#ax"/><use transform="matrix(0.00927734375,0,0,0.00927734375,32.72119140625,0)" xlink:href="#ax"/><use transform="matrix(0.00927734375,0,0,0.00927734375,40.115234375,0)" xlink:href="#aq"/><use transform="matrix(0.00927734375,0,0,0.00927734375,50.68212890625,0)" xlink:href="#aM"/><use transform="matrix(0.00927734375,0,0,0.00927734375,62.2880859375,0)" xlink:href="#av"/></g><g id="r"><use transform="matrix(0.00927734375,0,0,0.00927734375,0,0)" xlink:href="#aL"/><use transform="matrix(0.00927734375,0,0,0.00927734375,12.6728515625,0)" xlink:href="#aO"/><use transform="matrix(0.00927734375,0,0,0.00927734375,17.95166015625,0)" xlink:href="#ar"/><use transform="matrix(0.00927734375,0,0,0.00927734375,29.5576171875,0)" xlink:href="#aM"/><use transform="matrix(0.00927734375,0,0,0.00927734375,41.16357421875,0)" xlink:href="#au"/><use transform="matrix(0.00927734375,0,0,0.00927734375,51.73046875,0)" xlink:href="#at"/></g><path d="M500-1102c166 0 271 75 329 191-3-189-2-382-2-573h281v1248c0 67 3 145 8 236H844c-6-25-16-141-15-176h-4C764-45 649 20 479 20c-126 0-223-50-292-148S84-363 84-540c0-321 122-562 416-562zm331 555c0-200-54-364-231-364-75 0-131 30-168 91s-55 155-55 280c0 245 74 368 221 368 74 0 131-33 172-98s61-157 61-277" id="aP"/><g id="s"><use transform="matrix(0.00927734375,0,0,0.00927734375,0,0)" xlink:href="#am"/><use transform="matrix(0.00927734375,0,0,0.00927734375,13.72119140625,0)" xlink:href="#aw"/><use transform="matrix(0.00927734375,0,0,0.00927734375,25.3271484375,0)" xlink:href="#aM"/><use transform="matrix(0.00927734375,0,0,0.00927734375,36.93310546875,0)" xlink:href="#aP"/><use transform="matrix(0.00927734375,0,0,0.00927734375,48.5390625,0)" xlink:href="#aO"/><use transform="matrix(0.00927734375,0,0,0.00927734375,53.81787109375,0)" xlink:href="#av"/><use transform="matrix(0.00927734375,0,0,0.00927734375,60.14501953125,0)" xlink:href="#aO"/><use transform="matrix(0.00927734375,0,0,0.00927734375,65.423828125,0)" xlink:href="#aw"/><use transform="matrix(0.00927734375,0,0,0.00927734375,77.02978515625,0)" xlink:href="#aM"/><use transform="matrix(0.00927734375,0,0,0.00927734375,88.6357421875,0)" xlink:href="#aO"/><use transform="matrix(0.00927734375,0,0,0.00927734375,93.91455078125,0)" xlink:href="#aM"/><use transform="matrix(0.00927734375,0,0,0.00927734375,105.5205078125,0)" xlink:href="#ar"/></g><path d="M1307 0c4-408-9-758 10-1161C1199-702 1088-421 958 0H748C626-385 495-761 387-1161c24 414 7 744 12 1161H137v-1409h395c107 351 232 685 322 1053 98-360 215-702 322-1053h393V0h-262" id="aQ"/><path d="M1079-360C1041-124 864 17 594 20 261 23 80-197 80-535c0-344 180-567 518-567 257 0 435 142 473 361l-283 14c-16-106-75-182-196-182-145 0-217 121-217 363 0 249 74 374 221 374 120 0 188-82 201-201" id="aR"/><g id="t"><use transform="matrix(0.00927734375,0,0,0.00927734375,0,0)" xlink:href="#aQ"/><use transform="matrix(0.00927734375,0,0,0.00927734375,15.8271484375,0)" xlink:href="#aO"/><use transform="matrix(0.00927734375,0,0,0.00927734375,21.10595703125,0)" xlink:href="#aR"/><use transform="matrix(0.00927734375,0,0,0.00927734375,31.6728515625,0)" xlink:href="#ax"/><use transform="matrix(0.00927734375,0,0,0.00927734375,39.06689453125,0)" xlink:href="#aw"/><use transform="matrix(0.00927734375,0,0,0.00927734375,50.6728515625,0)" xlink:href="#aR"/><use transform="matrix(0.00927734375,0,0,0.00927734375,61.23974609375,0)" xlink:href="#aw"/><use transform="matrix(0.00927734375,0,0,0.00927734375,72.845703125,0)" xlink:href="#aM"/><use transform="matrix(0.00927734375,0,0,0.00927734375,84.45166015625,0)" xlink:href="#av"/><use transform="matrix(0.00927734375,0,0,0.00927734375,90.77880859375,0)" xlink:href="#ax"/><use transform="matrix(0.00927734375,0,0,0.00927734375,98.1728515625,0)" xlink:href="#aw"/><use transform="matrix(0.00927734375,0,0,0.00927734375,109.77880859375,0)" xlink:href="#at"/><use transform="matrix(0.00927734375,0,0,0.00927734375,115.0576171875,0)" xlink:href="#at"/><use transform="matrix(0.00927734375,0,0,0.00927734375,120.33642578125,0)" xlink:href="#aq"/><use transform="matrix(0.00927734375,0,0,0.00927734375,130.9033203125,0)" xlink:href="#ax"/></g><path d="M1167 0l-161-412H364L202 0H4l575-1409h217L1362 0h-195zM685-1265c-69 226-179 482-263 704h527c-89-236-186-456-264-704" id="aS"/><path d="M634-1409c461-4 751 239 747 690-4 441-249 719-686 719H168v-1409h466zm39 1256c337-8 514-222 516-566 2-353-203-539-559-537H359v1103h314" id="aT"/><path d="M1207-1021c-59-155-207-253-415-253-322-2-494 232-494 563 0 326 186 574 502 574 197 0 346-98 445-293l156 78C1298-131 1096 20 791 20c-448 0-682-279-687-731-5-437 254-721 686-719 309 2 507 125 598 349" id="aU"/><g id="u"><use transform="matrix(0.0078125,0,0,0.0078125,0,0)" xlink:href="#aS"/><use transform="matrix(0.0078125,0,0,0.0078125,10.671875,0)" xlink:href="#aT"/><use transform="matrix(0.0078125,0,0,0.0078125,22.2265625,0)" xlink:href="#aU"/></g><path d="M189 0v-1409h191V0H189" id="aV"/><path d="M1082 0L328-1200c20 384 6 801 10 1200H168v-1409h222l762 1208c-25-412-6-786-12-1208h172V0h-230" id="aW"/><path d="M720-1253V0H530v-1253H46v-156h1158v156H720" id="aX"/><g id="v"><use transform="matrix(0.0078125,0,0,0.0078125,0,0)" xlink:href="#aV"/><use transform="matrix(0.0078125,0,0,0.0078125,4.4453125,0)" xlink:href="#aW"/><use transform="matrix(0.0078125,0,0,0.0078125,16,0)" xlink:href="#aX"/></g><path fill="#06c" d="M647-1409c461-3 750 240 746 694-4 440-251 715-686 715H137v-1409h510zm35 1181c265 1 414-208 414-487 0-298-161-467-455-466H432v953h250" id="aY"/><path fill="#06c" d="M143-1277v-207h281v207H143zM143 0v-1082h281V0H143" id="aZ"/><path fill="#06c" d="M1108-33c0 316-189 467-512 467-247 0-427-94-467-291l281-33c20 86 88 139 194 139 188 0 233-141 225-343-1-35 4-75 0-107C767-68 651-2 481-2 198-2 84-238 84-550c0-320 120-553 418-553 157 0 266 65 327 195h5c-1-34 7-149 14-174h266c-12 332-6 705-6 1049zM600-197c173 0 231-162 231-359 0-191-60-354-229-354-150 0-225 120-225 360 0 235 74 353 223 353" id="ba"/><path fill="#06c" d="M440-330c0 98 31 152 123 154 22 0 53-5 94-14v174C588 7 509 18 420 18c-170-1-258-95-258-272v-638H25v-190h151l88-254h176v254h205v190H440v562" id="bb"/><path fill="#06c" d="M972 12c-145 0-202-73-217-205h-6C670-51 552 20 393 20 187 20 58-100 60-306c3-242 172-345 427-346l233-4c5-152-16-266-158-264-112 2-147 49-160 153l-293-14c38-217 204-321 465-321 262 0 427 133 427 388v394c3 101 7 160 89 160 21 0 42-2 62-6v152c-57 15-108 27-180 26zM483-176c165 0 247-140 237-325-89 1-231-1-283 23-55 25-84 70-84 150 0 94 44 152 130 152" id="bc"/><path fill="#06c" d="M143 0v-1484h281V0H143" id="bd"/><g id="w"><use transform="matrix(0.00830078125,0,0,0.00830078125,0,0)" xlink:href="#aY"/><use transform="matrix(0.00830078125,0,0,0.00830078125,12.27685546875,0)" xlink:href="#aZ"/><use transform="matrix(0.00830078125,0,0,0.00830078125,17,0)" xlink:href="#ba"/><use transform="matrix(0.00830078125,0,0,0.00830078125,27.38427734375,0)" xlink:href="#aZ"/><use transform="matrix(0.00830078125,0,0,0.00830078125,32.107421875,0)" xlink:href="#bb"/><use transform="matrix(0.00830078125,0,0,0.00830078125,37.7685546875,0)" xlink:href="#bc"/><use transform="matrix(0.00830078125,0,0,0.00830078125,47.22314453125,0)" xlink:href="#bd"/></g><path fill="#06c" d="M770-1409c315-3 526 146 526 446 0 301-203 467-514 467H432V0H137v-1409h633zm-25 686c158 1 255-80 254-235 0-148-87-222-262-222H432v457h313" id="be"/><path fill="#06c" d="M646-868c-165 0-222 146-222 337V0H143c-4-356 8-741-8-1082h268c4 15 14 211 13 231h4c48-123 63-177 149-229 44-27 147-31 197-8v235c-45-10-85-15-120-15" id="bf"/><path fill="#06c" d="M627-1102c355 0 544 203 544 560 0 345-207 562-550 562C283 20 80-201 80-542c0-343 204-560 547-560zM375-542c0 208 60 370 243 370 173 0 259-123 259-370 0-129-21-222-63-280s-103-87-183-87c-171 0-256 122-256 367" id="bg"/><path fill="#06c" d="M1079-360C1041-124 864 17 594 20 261 23 80-197 80-535c0-344 180-567 518-567 257 0 435 142 473 361l-283 14c-16-106-75-182-196-182-145 0-217 121-217 363 0 249 74 374 221 374 120 0 188-82 201-201" id="bh"/><path fill="#06c" d="M375-487c-1 185 60 319 225 319 99 0 162-43 188-129l265 23C976-78 821 20 586 20 247 19 80-194 80-546c0-344 176-559 510-556 341 3 483 247 479 615H375zm422-176c-8-153-68-262-211-262-144 0-206 112-209 262h420" id="bi"/><path fill="#06c" d="M573-916c-112 0-200 14-200 111 0 88 73 97 168 120 199 47 392 70 479 217 24 40 35 90 35 152 0 237-220 338-484 336-282-2-439-78-499-290l247-37c36 115 92 141 252 141 130 0 226-17 226-124 0-35-14-62-43-82s-79-38-148-52c-159-31-266-61-321-88-100-50-170-123-170-263 0-232 201-328 458-328 245 0 416 95 457 292l-249 26c-21-98-82-131-208-131" id="bj"/><path fill="#06c" d="M768-1103c243 0 356 161 356 416V0H844v-607c0-190-64-285-193-285-148 1-227 151-227 312V0H143c-4-356 9-741-8-1082h268c4 18 14 191 13 215h4c67-145 160-236 348-236" id="bk"/><g id="x"><use transform="matrix(0.00830078125,0,0,0.00830078125,0,0)" xlink:href="#be"/><use transform="matrix(0.00830078125,0,0,0.00830078125,11.3388671875,0)" xlink:href="#bf"/><use transform="matrix(0.00830078125,0,0,0.00830078125,17.95458984375,0)" xlink:href="#bg"/><use transform="matrix(0.00830078125,0,0,0.00830078125,28.3388671875,0)" xlink:href="#bh"/><use transform="matrix(0.00830078125,0,0,0.00830078125,37.79345703125,0)" xlink:href="#bi"/><use transform="matrix(0.00830078125,0,0,0.00830078125,47.248046875,0)" xlink:href="#bj"/><use transform="matrix(0.00830078125,0,0,0.00830078125,56.70263671875,0)" xlink:href="#bj"/><use transform="matrix(0.00830078125,0,0,0.00830078125,66.1572265625,0)" xlink:href="#aZ"/><use transform="matrix(0.00830078125,0,0,0.00830078125,70.88037109375,0)" xlink:href="#bk"/><use transform="matrix(0.00830078125,0,0,0.00830078125,81.2646484375,0)" xlink:href="#ba"/></g><use transform="matrix(0.00927734375,0,0,0.00927734375,0,0)" xlink:href="#aT" id="y"/><path d="M0 20l411-1504h158L162 20H0" id="bl"/><path d="M797-1430c449 5 698 268 698 719S1245 20 795 20C342 20 103-258 97-711c-6-442 260-724 700-719zm-2 1295c338 0 505-227 505-576 0-336-175-563-503-563-332 0-506 222-506 563 0 335 178 576 504 576" id="bm"/><g id="z"><use transform="matrix(0.00927734375,0,0,0.00927734375,0,0)" xlink:href="#aV"/><use transform="matrix(0.00927734375,0,0,0.00927734375,5.27880859375,0)" xlink:href="#bl"/><use transform="matrix(0.00927734375,0,0,0.00927734375,10.5576171875,0)" xlink:href="#bm"/></g><path d="M1321-530c-7 359-228 550-590 550-350 0-573-184-573-532v-897h191v881c-2 253 132 393 381 393 255 0 401-146 401-406v-868h190v879" id="bn"/><path d="M1328-1006c0 221-145 368-344 399L1384 0h-220L798-585H359V0H168v-1409h663c292-4 497 130 497 403zM820-736c188 2 316-89 316-268s-133-252-324-252H359v520h461" id="bo"/><g id="A"><use transform="matrix(0.00927734375,0,0,0.00927734375,0,0)" xlink:href="#bn"/><use transform="matrix(0.00927734375,0,0,0.00927734375,13.72119140625,0)" xlink:href="#aS"/><use transform="matrix(0.00927734375,0,0,0.00927734375,26.39404296875,0)" xlink:href="#bo"/><use transform="matrix(0.00927734375,0,0,0.00927734375,39.77197265625,0)" xlink:href="#aX"/></g><path d="M408-1082c8 36 12 125 12 176h4c63-133 179-199 346-199 126 0 224 48 293 145s104 235 104 414c0 322-121 566-415 566-162 0-274-77-328-192h-6c11 149 4 424 6 597H143V-833c0-102-3-185-8-249h273zm243 172c-175 0-232 173-231 372 0 117 20 206 60 270s96 96 169 96c150 0 225-125 225-374 0-243-74-364-223-364" id="bp"/><path d="M283 425c-67 0-126-4-177-13V212c70 11 146 17 196-11 80-44 97-100 142-212L16-1082h297c99 309 178 499 271 841 73-291 164-564 250-841h294L700 57c-57 139-116 235-178 288s-142 80-239 80" id="bq"/><g id="B"><use transform="matrix(0.00927734375,0,0,0.00927734375,0,0)" xlink:href="#ao"/><use transform="matrix(0.00927734375,0,0,0.00927734375,13.72119140625,0)" xlink:href="#aO"/><use transform="matrix(0.00927734375,0,0,0.00927734375,19,0)" xlink:href="#aN"/><use transform="matrix(0.00927734375,0,0,0.00927734375,29.56689453125,0)" xlink:href="#bp"/><use transform="matrix(0.00927734375,0,0,0.00927734375,41.1728515625,0)" xlink:href="#at"/><use transform="matrix(0.00927734375,0,0,0.00927734375,46.45166015625,0)" xlink:href="#au"/><use transform="matrix(0.00927734375,0,0,0.00927734375,57.0185546875,0)" xlink:href="#bq"/></g><g id="C"><use transform="matrix(0.00927734375,0,0,0.00927734375,0,0)" xlink:href="#aQ"/><use transform="matrix(0.00927734375,0,0,0.00927734375,15.8271484375,0)" xlink:href="#aw"/><use transform="matrix(0.00927734375,0,0,0.00927734375,27.43310546875,0)" xlink:href="#aP"/><use transform="matrix(0.00927734375,0,0,0.00927734375,39.0390625,0)" xlink:href="#as"/><use transform="matrix(0.00927734375,0,0,0.00927734375,50.64501953125,0)" xlink:href="#at"/><use transform="matrix(0.00927734375,0,0,0.00927734375,55.923828125,0)" xlink:href="#aq"/></g><path d="M1354-543c1 369-250 563-631 563-373 0-600-186-600-548v-881h295v858c-1 216 102 340 313 340 215 1 328-131 328-350v-848h295v866" id="br"/><path d="M1036-741c206 23 350 127 350 339 0 282-238 402-544 402H137v-1409h645c172 0 302 29 390 89s133 148 133 265c0 179-106 282-269 314zM770-841c149 0 238-41 238-174 0-139-94-175-240-175H432v349h338zm47 622c171 0 273-51 273-206 0-132-95-198-284-198H432v404h385" id="bs"/><g id="D"><use transform="matrix(0.00927734375,0,0,0.00927734375,0,0)" xlink:href="#br"/><use transform="matrix(0.00927734375,0,0,0.00927734375,13.72119140625,0)" xlink:href="#aL"/><use transform="matrix(0.00927734375,0,0,0.00927734375,26.39404296875,0)" xlink:href="#bs"/></g><g id="E"><use transform="matrix(0.00927734375,0,0,0.00927734375,0,0)" xlink:href="#av"/><use transform="matrix(0.00927734375,0,0,0.00927734375,6.3271484375,0)" xlink:href="#aw"/></g><g id="F"><use transform="matrix(0.00927734375,0,0,0.00927734375,0,0)" xlink:href="#aL"/><use transform="matrix(0.00927734375,0,0,0.00927734375,12.6728515625,0)" xlink:href="#aq"/><use transform="matrix(0.00927734375,0,0,0.00927734375,23.23974609375,0)" xlink:href="#ax"/><use transform="matrix(0.00927734375,0,0,0.00927734375,30.6337890625,0)" xlink:href="#aO"/><use transform="matrix(0.00927734375,0,0,0.00927734375,35.91259765625,0)" xlink:href="#au"/><use transform="matrix(0.00927734375,0,0,0.00927734375,46.4794921875,0)" xlink:href="#at"/></g><path d="M137 0v-1409h1108v228H432v354h752v228H432v371h854V0H137" id="bt"/><path d="M770-1409c315-3 526 146 526 446 0 301-203 467-514 467H432V0H137v-1409h633zm-25 686c158 1 255-80 254-235 0-148-87-222-262-222H432v457h313" id="bu"/><path d="M728-721c195 20 337 130 337 330 0 281-203 414-500 414S77-119 47-383l286-25c18 135 95 203 231 203 134 0 216-66 213-203-3-142-112-195-270-194h-98v-227h92c147 1 242-56 243-191 1-118-69-186-190-186-119 0-193 72-202 184l-281-20c27-242 216-388 488-388 270 0 470 122 470 375 0 194-125 298-301 330v4" id="bv"/><path d="M563-1430c283 0 472 129 472 396 0 228-145 343-275 453-91 77-191 147-272 228-38 38-66 79-85 122h654V0H71v-195c94-197 235-331 412-476 98-81 167-146 207-198s60-103 60-153c0-123-62-184-185-184-131 0-181 74-199 194l-283-16c30-256 195-402 480-402" id="bw"/><g id="G"><use transform="matrix(0.00927734375,0,0,0.00927734375,0,0)" xlink:href="#bt"/><use transform="matrix(0.00927734375,0,0,0.00927734375,12.6728515625,0)" xlink:href="#aL"/><use transform="matrix(0.00927734375,0,0,0.00927734375,25.345703125,0)" xlink:href="#bu"/><use transform="matrix(0.00927734375,0,0,0.00927734375,38.0185546875,0)" xlink:href="#bv"/><use transform="matrix(0.00927734375,0,0,0.00927734375,48.58544921875,0)" xlink:href="#bw"/></g><path d="M551-279c84-418 84-397 254-1130h330c93 424 173 655 249 1130 85-375 166-752 248-1130h299L1567 0h-350c-82-373-182-728-250-1116C902-767 895-785 715 0H365L2-1409h299c83 377 171 749 250 1130" id="bx"/><path d="M432-1181v436h721v228H432V0H137v-1409h1039v228H432" id="by"/><g id="H"><use transform="matrix(0.00927734375,0,0,0.00927734375,0,0)" xlink:href="#bx"/><use transform="matrix(0.00927734375,0,0,0.00927734375,17.76611328125,0)" xlink:href="#aO"/><use transform="matrix(0.00927734375,0,0,0.00927734375,23.044921875,0)" xlink:href="#by"/><use transform="matrix(0.00927734375,0,0,0.00927734375,34.65087890625,0)" xlink:href="#aO"/></g><path fill="#f33" d="M137 0v-1409h295V0H137" id="bz"/><path fill="#f33" d="M137 0v-1409h295v1181h756V0H137" id="bA"/><g id="I"><use transform="matrix(0.00927734375,0,0,0.00927734375,0,0)" xlink:href="#bz"/><use transform="matrix(0.0064941406249999995,0,0,0.0064941406249999995,5.27880859375,2.5538208007812497)" xlink:href="#bA"/></g><path d="M24 0v-248h52v208h133V0H24" id="bB"/><g id="J"><use transform="matrix(0.05,0,0,0.05,0,0)" xlink:href="#bB"/><use transform="matrix(0.034999999999999996,0,0,0.034999999999999996,10.950000000000003,2.5199999999999996)" xlink:href="#bB"/></g><g id="K"><use transform="matrix(0.00927734375,0,0,0.00927734375,0,0)" xlink:href="#al"/><use transform="matrix(0.00927734375,0,0,0.00927734375,13.72119140625,0)" xlink:href="#aM"/><use transform="matrix(0.00927734375,0,0,0.00927734375,25.3271484375,0)" xlink:href="#au"/><use transform="matrix(0.00927734375,0,0,0.00927734375,35.89404296875,0)" xlink:href="#at"/><use transform="matrix(0.00927734375,0,0,0.00927734375,41.1728515625,0)" xlink:href="#aw"/><use transform="matrix(0.00927734375,0,0,0.00927734375,52.77880859375,0)" xlink:href="#ar"/></g><g id="L"><use transform="matrix(0.00927734375,0,0,0.00927734375,0,0)" xlink:href="#ao"/><use transform="matrix(0.00927734375,0,0,0.00927734375,13.72119140625,0)" xlink:href="#aq"/><use transform="matrix(0.00927734375,0,0,0.00927734375,24.2880859375,0)" xlink:href="#aN"/><use transform="matrix(0.00927734375,0,0,0.00927734375,34.85498046875,0)" xlink:href="#aO"/><use transform="matrix(0.00927734375,0,0,0.00927734375,40.1337890625,0)" xlink:href="#ar"/><use transform="matrix(0.00927734375,0,0,0.00927734375,51.73974609375,0)" xlink:href="#aM"/></g><path d="M604-1296c-97 2-130 31-131 129v85h213v190H473V0H193v-892H35v-190h158v-113c1-202 109-289 315-289 53 0 112 5 178 16v181c-27-6-55-9-82-9" id="bC"/><path d="M1313 0h-297c-77-314-153-545-219-882C730-580 647-294 571 0H274L-6-1082h264l178 827c55-291 140-551 209-827h301c70 285 147 527 207 827 59-278 123-551 184-827h260" id="bD"/><g id="M"><use transform="matrix(0.00927734375,0,0,0.00927734375,0,0)" xlink:href="#aL"/><use transform="matrix(0.00927734375,0,0,0.00927734375,12.6728515625,0)" xlink:href="#aw"/><use transform="matrix(0.00927734375,0,0,0.00927734375,24.27880859375,0)" xlink:href="#bC"/><use transform="matrix(0.00927734375,0,0,0.00927734375,30.60595703125,0)" xlink:href="#av"/><use transform="matrix(0.00927734375,0,0,0.00927734375,36.93310546875,0)" xlink:href="#bD"/><use transform="matrix(0.00927734375,0,0,0.00927734375,51.7119140625,0)" xlink:href="#au"/><use transform="matrix(0.00927734375,0,0,0.00927734375,62.27880859375,0)" xlink:href="#ax"/><use transform="matrix(0.00927734375,0,0,0.00927734375,69.6728515625,0)" xlink:href="#aq"/></g><g id="N"><use transform="matrix(0.00927734375,0,0,0.00927734375,0,0)" xlink:href="#ao"/><use transform="matrix(0.00927734375,0,0,0.00927734375,13.72119140625,0)" xlink:href="#aq"/><use transform="matrix(0.00927734375,0,0,0.00927734375,24.2880859375,0)" xlink:href="#aN"/><use transform="matrix(0.00927734375,0,0,0.00927734375,34.85498046875,0)" xlink:href="#aO"/><use transform="matrix(0.00927734375,0,0,0.00927734375,40.1337890625,0)" xlink:href="#ar"/><use transform="matrix(0.00927734375,0,0,0.00927734375,51.73974609375,0)" xlink:href="#aM"/></g><path d="M240-174c0 40-23 61-54 70L253 0h-59l-57-94H76V0H24v-248c93 4 217-23 216 74zM76-134c48-2 112 12 112-38 0-48-66-32-112-35v73" id="bE"/><g id="O"><use transform="matrix(0.05,0,0,0.05,0,0)" xlink:href="#bE"/><use transform="matrix(0.034999999999999996,0,0,0.034999999999999996,12.950000000000001,2.5199999999999996)" xlink:href="#bB"/></g><path d="M137 0h-34L2-248h35l83 218 83-218h36" id="bF"/><g id="P"><use transform="matrix(0.05,0,0,0.05,0,0)" xlink:href="#bF"/><use transform="matrix(0.034999999999999996,0,0,0.034999999999999996,12,2.5199999999999996)" xlink:href="#R"/></g></defs></g></svg>