<svg xmlns="http://www.w3.org/2000/svg" xmlns:xlink="http://www.w3.org/1999/xlink" xmlns:lucid="lucid" width="1382" height="1183"><g transform="translate(-199 141)" lucid:page-tab-id="0_0"><path d="M0-500h2000v2000H0z" fill="#fff"/><path d="M240-94a6 6 0 0 1 6-6h228a6 6 0 0 1 6 6v8a14.48 14.48 0 0 1-4.24 10.24l-1.52 1.52A14.48 14.48 0 0 1 464-70H246a6 6 0 0 1-6-6z" fill="#e3fae3"/><path d="M480-100v20l-10 10H240" stroke="#000" stroke-width="2" fill="none"/><path d="M240-94a6 6 0 0 1 6-6h408a6 6 0 0 1 6 6v398a6 6 0 0 1-6 6H246a6 6 0 0 1-6-6z" stroke="#000" stroke-width="2" fill="none"/><use xlink:href="#a" transform="matrix(1,0,0,1,248,-100) translate(0 18.6)"/><use xlink:href="#b" transform="matrix(1,0,0,1,248,-100) translate(40.65 18.6)"/><use xlink:href="#c" transform="matrix(1,0,0,1,248,-100) translate(83.55000000000001 18.6)"/><path d="M200 546a6 6 0 0 1 6-6h208a6 6 0 0 1 6 6v8a14.48 14.48 0 0 1-4.24 10.24l-1.52 1.52A14.48 14.48 0 0 1 404 570H206a6 6 0 0 1-6-6z" fill="#fbf0ff"/><path d="M420 540v20l-10 10H200" stroke="#000" stroke-width="2" fill="none"/><path d="M200 546a6 6 0 0 1 6-6h448a6 6 0 0 1 6 6v328a6 6 0 0 1-6 6H206a6 6 0 0 1-6-6z" stroke="#000" stroke-width="2" fill="none"/><use xlink:href="#d" transform="matrix(1,0,0,1,208,540) translate(0 18.6)"/><use xlink:href="#e" transform="matrix(1,0,0,1,208,540) translate(38.800000000000004 18.6)"/><use xlink:href="#f" transform="matrix(1,0,0,1,208,540) translate(107.65 18.6)"/><path d="M700 326a6 6 0 0 1 6-6h138a6 6 0 0 1 6 6v8a14.48 14.48 0 0 1-4.24 10.24l-1.52 1.52A14.48 14.48 0 0 1 834 350H706a6 6 0 0 1-6-6z" fill="#edf5ff"/><path d="M850 320v20l-10 10H700" stroke="#000" stroke-width="2" fill="none"/><path d="M700 326a6 6 0 0 1 6-6h868a6 6 0 0 1 6 6v548a6 6 0 0 1-6 6H706a6 6 0 0 1-6-6z" stroke="#000" stroke-width="2" fill="none"/><use xlink:href="#g" transform="matrix(1,0,0,1,708,320) translate(0 18.6)"/><use xlink:href="#h" transform="matrix(1,0,0,1,708,320) translate(45.85 18.6)"/><path d="M260 156a6 6 0 0 1 6-6h148a6 6 0 0 1 6 6v108a6 6 0 0 1-6 6H266a6 6 0 0 1-6-6z" stroke="#008a0e" stroke-width="4" fill="#e3fae3"/><use xlink:href="#i" transform="matrix(1,0,0,1,272,162) translate(27.351851851851855 53.77777777777778)"/><path d="M460 66a6 6 0 0 1 6-6h148a6 6 0 0 1 6 6v108a6 6 0 0 1-6 6H466a6 6 0 0 1-6-6z" stroke="#008a0e" stroke-width="4" fill="#e3fae3"/><use xlink:href="#j" transform="matrix(1,0,0,1,472,72) translate(33.4320987654321 53.77777777777778)"/><path d="M1051 166a6 6 0 0 1 6-6h148a6 6 0 0 1 6 6v108a6 6 0 0 1-6 6h-148a6 6 0 0 1-6-6z" stroke="#6db1ff" stroke-width="4" fill="#edf5ff"/><use xlink:href="#k" transform="matrix(1,0,0,1,1062.9999750000004,172) translate(10.006172839506178 38.77777777777778)"/><use xlink:href="#l" transform="matrix(1,0,0,1,1062.9999750000004,172) translate(59.38888888888889 38.77777777777778)"/><use xlink:href="#m" transform="matrix(1,0,0,1,1062.9999750000004,172) translate(24.296296296296298 65.44444444444446)"/><path d="M240 726a6 6 0 0 1 6-6h148a6 6 0 0 1 6 6v108a6 6 0 0 1-6 6H246a6 6 0 0 1-6-6z" stroke="#ba23f6" stroke-width="4" fill="#fbf0ff"/><use xlink:href="#n" transform="matrix(1,0,0,1,252,732) translate(30.438271604938272 38.77777777777778)"/><use xlink:href="#o" transform="matrix(1,0,0,1,252,732) translate(37.16666666666667 65.44444444444446)"/><path d="M460 726a6 6 0 0 1 6-6h148a6 6 0 0 1 6 6v108a6 6 0 0 1-6 6H466a6 6 0 0 1-6-6z" stroke="#ba23f6" stroke-width="4" fill="#fbf0ff"/><use xlink:href="#p" transform="matrix(1,0,0,1,472,732) translate(31.055555555555557 26.77777777777778)"/><use xlink:href="#q" transform="matrix(1,0,0,1,472,732) translate(25.561728395061728 53.44444444444445)"/><use xlink:href="#r" transform="matrix(1,0,0,1,472,732) translate(37.16666666666667 80.11111111111111)"/><path d="M1340 526a6 6 0 0 1 6-6h148a6 6 0 0 1 6 6v108a6 6 0 0 1-6 6h-148a6 6 0 0 1-6-6z" stroke="#6db1ff" stroke-width="4" fill="#edf5ff"/><use xlink:href="#s" transform="matrix(1,0,0,1,1352,532) translate(6.456790123456791 53.77777777777778)"/><use xlink:href="#t" transform="matrix(1,0,0,1,1352,532) translate(68 53.77777777777778)"/><path d="M1340 686a6 6 0 0 1 6-6h148a6 6 0 0 1 6 6v108a6 6 0 0 1-6 6h-148a6 6 0 0 1-6-6z" stroke="#6db1ff" stroke-width="4" fill="#edf5ff"/><use xlink:href="#u" transform="matrix(1,0,0,1,1352,692) translate(2.691358024691368 53.77777777777778)"/><use xlink:href="#v" transform="matrix(1,0,0,1,1352,692) translate(55.77777777777778 53.77777777777778)"/><path d="M1340 366a6 6 0 0 1 6-6h148a6 6 0 0 1 6 6v108a6 6 0 0 1-6 6h-148a6 6 0 0 1-6-6z" stroke="#6db1ff" stroke-width="4" fill="#edf5ff"/><use xlink:href="#w" transform="matrix(1,0,0,1,1352,372) translate(31.641975308641975 53.77777777777778)"/><path d="M1120-128a12 12 0 0 1 12-12h434a12 12 0 0 1 12 12v256a12 12 0 0 1-12 12h-434a12 12 0 0 1-12-12z" stroke="#000" stroke-width="2" fill-opacity="0"/><path d="M1189.18-56c0 8.2-6.64 14.82-14.83 14.82-8.18 0-14.82-6.63-14.82-14.82 0-8.2 6.64-14.82 14.82-14.82 8.2 0 14.83 6.63 14.83 14.82z" stroke="#000" stroke-opacity=".25" fill="#008a0e"/><path d="M1189.18-9.88c0 8.18-6.64 14.82-14.83 14.82-8.18 0-14.82-6.64-14.82-14.82 0-8.2 6.64-14.83 14.82-14.83 8.2 0 14.83 6.63 14.83 14.82z" stroke="#000" stroke-opacity=".25" fill="#6db1ff"/><path d="M1189.18 36.23c0 8.2-6.64 14.83-14.83 14.83-8.18 0-14.82-6.64-14.82-14.83 0-8.18 6.64-14.82 14.82-14.82 8.2 0 14.83 6.65 14.83 14.84z" stroke="#000" stroke-opacity=".25" fill="#e81313"/><path d="M1189.18 82.35c0 8.2-6.64 14.83-14.83 14.83-8.18 0-14.82-6.64-14.82-14.83 0-8.18 6.64-14.82 14.82-14.82 8.2 0 14.83 6.64 14.83 14.82z" stroke="#000" stroke-opacity=".25" fill="#ba23f6"/><use xlink:href="#x" transform="matrix(1,0,0,1,1159.5294117647059,-110.3529411764706) translate(0 19.88888888888889)"/><use xlink:href="#y" transform="matrix(1,0,0,1,1159.5294117647059,-110.3529411764706) translate(85.28395061728396 19.88888888888889)"/><use xlink:href="#z" transform="matrix(1,0,0,1,1204,-70.82352941176472) translate(0 23.38888888888889)"/><use xlink:href="#A" transform="matrix(1,0,0,1,1204,-70.82352941176472) translate(96.35185185185188 23.38888888888889)"/><use xlink:href="#B" transform="matrix(1,0,0,1,1204,-70.82352941176472) translate(120.72839506172842 23.38888888888889)"/><use xlink:href="#C" transform="matrix(1,0,0,1,1204,-70.82352941176472) translate(180.34567901234573 23.38888888888889)"/><use xlink:href="#D" transform="matrix(1,0,0,1,1204,-24.705882352941188) translate(0 23.38888888888889)"/><use xlink:href="#E" transform="matrix(1,0,0,1,1204,-24.705882352941188) translate(74.62345679012347 23.38888888888889)"/><use xlink:href="#F" transform="matrix(1,0,0,1,1204,-24.705882352941188) translate(132.88271604938274 23.38888888888889)"/><use xlink:href="#G" transform="matrix(1,0,0,1,1204,21.41176470588232) translate(0 23.38888888888889)"/><use xlink:href="#H" transform="matrix(1,0,0,1,1204,21.41176470588232) translate(96.21604938271608 23.38888888888889)"/><use xlink:href="#I" transform="matrix(1,0,0,1,1204,67.52941176470583) translate(0 23.38888888888889)"/><use xlink:href="#J" transform="matrix(1,0,0,1,1204,67.52941176470583) translate(56.96913580246915 23.38888888888889)"/><use xlink:href="#K" transform="matrix(1,0,0,1,1204,67.52941176470583) translate(153.32098765432102 23.38888888888889)"/><path d="M891 516a6 6 0 0 1 6-6h148a6 6 0 0 1 6 6v108a6 6 0 0 1-6 6H897a6 6 0 0 1-6-6z" stroke="#6db1ff" stroke-width="4" fill="#edf5ff"/><use xlink:href="#L" transform="matrix(1,0,0,1,902.9999750000004,522) translate(25.438271604938272 38.77777777777778)"/><use xlink:href="#M" transform="matrix(1,0,0,1,902.9999750000004,522) translate(42.78395061728395 65.44444444444446)"/><path d="M260-14a6 6 0 0 1 6-6h148a6 6 0 0 1 6 6V94a6 6 0 0 1-6 6H266a6 6 0 0 1-6-6z" stroke="#008a0e" stroke-width="4" fill="#e3fae3"/><use xlink:href="#N" transform="matrix(1,0,0,1,272,-8) translate(27.29012345679012 38.77777777777778)"/><use xlink:href="#v" transform="matrix(1,0,0,1,272,-8) translate(29.23456790123457 65.44444444444446)"/><path d="M540 56.5v-9.17a6 6 0 0 0-6-6h-91.38" stroke="#000" stroke-width="3" fill="none"/><path d="M541.48 58h-2.96v-1.54h2.96z" stroke="#000" stroke-width=".05"/><path d="M426.85 41.33l14.27-4.63v9.27z" stroke="#000" stroke-width="3"/><path d="M540 183.5V204a6 6 0 0 1-6 6h-91.38" stroke="#000" stroke-width="3" fill="none"/><path d="M541.48 183.54h-2.96V182h2.96z" stroke="#000" stroke-width=".05"/><path d="M426.85 210l14.27-4.63v9.26z" stroke="#000" stroke-width="3"/><path d="M1047.5 220h-27.9a6 6 0 0 0-6 6v261.38" stroke="#fe7070" stroke-width="3" fill="none"/><path d="M1049 221.47h-1.54v-2.94h1.54z" stroke="#fe7070" stroke-width=".05" fill="#fe7070"/><path d="M1013.6 503.15l-4.63-14.27h9.26z" stroke="#fe7070" stroke-width="3" fill="#fe7070"/><path d="M873.04 673.48h-6.98l-.77.05-.7.17-.65.27-.6.37-.55.46-.46.54-.37.6-.27.66-.17.7-.05.76v38.44h-2.96v-38.56l.1-1.1.27-1.15.44-1.1.6-1 .77-.9.9-.75 1-.6 1.1-.46 1.13-.3 1.1-.08h7.12zm58.9-7.42l-.1 1.1-.26 1.15-.45 1.1-.62 1-.75.9-.9.75-1 .6-1.08.46-1.14.3-1.1.08h-13.1v-2.96h12.97l.77-.05.7-.17.64-.27.62-.37.54-.46.46-.54.37-.6.26-.66.17-.7.06-.76v-13.32h2.94z" stroke="#000" stroke-width=".05"/><path d="M861.48 718h-2.96v-1.54h2.96z"/><path stroke="#000" stroke-width=".05"/><path d="M935.1 651.12h-9.27l4.63-14.27z"/><path d="M937.13 652.6H923.8l6.66-20.52zm-9.27-2.96h5.2l-2.6-8z" stroke="#000" stroke-width=".05"/><use xlink:href="#O" transform="matrix(1,0,0,1,873.0453924265229,661.3333002251527) translate(0 14.222222222222223)"/><path d="M760 166a6 6 0 0 1 6-6h148a6 6 0 0 1 6 6v108a6 6 0 0 1-6 6H766a6 6 0 0 1-6-6z" stroke="#6db1ff" stroke-width="4" fill="#edf5ff"/><use xlink:href="#P" transform="matrix(1,0,0,1,772,172) translate(3.246913580246911 53.77777777777778)"/><use xlink:href="#Q" transform="matrix(1,0,0,1,772,172) translate(76.02469135802468 53.77777777777778)"/><path d="M972.48 487.38h-2.96v-38.54h2.96zm-6.3-268.77l1.13.3 1.1.44 1 .6.9.77.75.9.6 1 .46 1.1.3 1.13.08 1.1v201.58h-2.96V226.07l-.05-.77-.17-.7-.27-.65-.37-.6-.46-.55-.54-.46-.6-.37-.66-.27-.7-.16-.76-.06H923.5v-2.95h41.56z" stroke="#000" stroke-width=".05"/><path d="M923.54 221.47H922v-2.94h1.54z"/><path stroke="#000" stroke-width=".05"/><path d="M971 503.15l-4.63-14.27h9.26z"/><path d="M971 507.92l-6.66-20.52h13.32zm-2.6-17.56l2.6 8 2.6-8z" stroke="#000" stroke-width=".05"/><use xlink:href="#O" transform="matrix(1,0,0,1,951.8147898148152,427.5071154562263) translate(0 14.222222222222223)"/><path d="M1020 726a6 6 0 0 1 6-6h148a6 6 0 0 1 6 6v108a6 6 0 0 1-6 6h-148a6 6 0 0 1-6-6z" stroke="#008a0e" stroke-width="4" fill="#e3fae3"/><use xlink:href="#R" transform="matrix(1,0,0,1,1032,732) translate(-0.9506172839506064 39.111111111111114)"/><use xlink:href="#S" transform="matrix(1,0,0,1,1032,732) translate(47.69135802469136 65.77777777777777)"/><path d="M1085.06 673.52l1.1.1 1.15.27 1.1.44 1 .6.9.77.75.9.6 1 .46 1.1.3 1.13.07 1.1v16.45h-2.94v-16.32l-.07-.77-.16-.7-.27-.65-.37-.6-.46-.55-.54-.46-.6-.37-.66-.27-.7-.17-.76-.05h-6.46v-2.96zm-66.13-3.8l.16.68.26.65.38.6.46.55.54.46.6.37.66.27.7.17.75.05h27.42v2.96h-27.53l-1.12-.1-1.14-.27-1.08-.44-1-.6-.9-.77-.76-.9-.6-1-.46-1.1-.27-1.13-.08-1.1V633.5h2.95v35.44z" stroke="#000" stroke-width=".05"/><path d="M1018.87 633.54h-2.95V632h2.95z"/><path stroke="#000" stroke-width=".05"/><path d="M1091 713.15l-4.63-14.27h9.27z"/><path d="M1091 717.92l-6.66-20.5h13.33zm-2.6-17.56l2.6 8 2.6-8z" stroke="#000" stroke-width=".05"/><use xlink:href="#T" transform="matrix(1,0,0,1,1050.8731207424312,664.333320700663) translate(0 14.222222222222223)"/><path d="M1101.78 544.14h-47.28v-2.95h47.28zm215.6-122.66h-115.82l-.77.06-.7.16-.65.27-.6.37-.55.46-.46.54-.37.6-.27.66-.16.7-.07.76v110.67l-.08 1.1-.3 1.15-.44 1.08-.6 1-.77.9-.9.76-1 .6-1.1.46-1.13.27-1.1.1h-43.35v-2.96h43.22l.77-.07.7-.16.65-.28.6-.38.55-.46.46-.54.37-.6.27-.66.16-.7.07-.75V425.95l.08-1.1.3-1.15.44-1.1.6-1 .77-.9.9-.75 1-.6 1.1-.46 1.13-.3 1.1-.08h115.95z" stroke="#000" stroke-width=".05"/><path d="M1054.54 544.14H1053v-2.95h1.54z"/><path stroke="#000" stroke-width=".05"/><path d="M1333.15 420l-14.27 4.63v-9.26z"/><path d="M1337.92 420l-20.52 6.67v-13.34zm-17.57 2.6l8.02-2.6-8-2.6z" stroke="#000" stroke-width=".05"/><use xlink:href="#U" transform="matrix(1,0,0,1,1101.777777777778,532.0000089507101) translate(0 14.222222222222223)"/><path d="M1104.5 581.48h-50v-2.96h50zm212.88 0h-184.25v-2.96h184.25z" stroke="#000" stroke-width=".05"/><path d="M1054.54 581.48H1053v-2.96h1.54z"/><path stroke="#000" stroke-width=".05"/><path d="M1333.15 580l-14.27 4.63v-9.26z"/><path d="M1337.92 580l-20.52 6.66v-13.32zm-17.57 2.6l8.02-2.6-8-2.6z" stroke="#000" stroke-width=".05"/><use xlink:href="#V" transform="matrix(1,0,0,1,1104.4880320856219,569.3333333333334) translate(0 14.222222222222223)"/><path d="M1190.67 609.28l1.14.27 1.1.45 1 .62.9.76.75.9.6 1 .46 1.08.3 1.14.07 1.1v117.34l.07.77.16.7.27.65.37.6.46.55.54.46.6.37.66.27.7.17.76.05h115.82v2.96h-115.94l-1.1-.1-1.15-.27-1.1-.44-1-.6-.9-.77-.75-.9-.6-1-.46-1.1-.3-1.13-.07-1.1V616.7l-.07-.76-.16-.7-.27-.65-.37-.6-.46-.53-.54-.46-.6-.36-.66-.27-.7-.17-.76-.06h-36.2v-2.95h36.32zm-136.17 2.86v-2.95h49.55v2.94z" stroke="#000" stroke-width=".05"/><path d="M1054.54 612.14H1053v-2.95h1.54z"/><path stroke="#000" stroke-width=".05"/><path d="M1333.15 740l-14.27 4.63v-9.26z"/><path d="M1337.92 740l-20.52 6.66v-13.32zm-17.57 2.6l8.02-2.6-8-2.6z" stroke="#000" stroke-width=".05"/><use xlink:href="#W" transform="matrix(1,0,0,1,1104.0528082057558,599.9999990741088) translate(0 14.222222222222223)"/><path d="M811.92 590.48h-47.86l-.77.05-.7.17-.65.27-.6.37-.55.46-.46.54-.37.6-.27.66-.17.7-.05.76v49l-.1 1.1-.27 1.15-.44 1.1-.6 1-.77.9-.9.75-1 .6-1.1.46-1.13.3-1.1.08h-206l-.78.05-.7.17-.65.27-.6.37-.55.46-.46.54-.37.6-.27.66-.17.7-.05.76v41.32h-2.96v-41.44l.1-1.1.27-1.15.44-1.1.6-1 .77-.9.9-.75 1-.6 1.1-.46 1.13-.3 1.1-.08h206l.78-.05.7-.17.65-.27.6-.37.55-.46.46-.54.37-.6.27-.66.17-.7.05-.76v-49l.1-1.1.27-1.15.44-1.1.6-1 .77-.9.9-.75 1-.6 1.1-.46 1.13-.3 1.1-.08h48zm75.58 0h-32.22v-2.96h32.22z" stroke="#000" stroke-width=".05"/><path d="M889 590.48h-1.54v-2.96H889z"/><path stroke="#000" stroke-width=".05"/><path d="M540 713.15l-4.63-14.27h9.26z"/><path d="M540 717.92l-6.66-20.5h13.32zm-2.6-17.56l2.6 8 2.6-8z" stroke="#000" stroke-width=".05"/><use xlink:href="#X" transform="matrix(1,0,0,1,811.9209876543212,578.333340740734) translate(0 14.222222222222223)"/><path d="M764.43 554.25h-28.37l-.77.05-.7.17-.65.27-.6.37-.55.47-.46.54-.37.62-.27.65-.17.7-.05.76v45.9l-.1 1.1-.27 1.15-.44 1.08-.6 1-.77.9-.9.76-1 .6-1.1.46-1.13.27-1.1.1h-398l-.78.05-.7.17-.65.27-.6.37-.55.47-.46.54-.37.6-.27.67-.16.7-.06.75v80.66h-2.96V616.6l.1-1.1.27-1.14.44-1.1.6-1 .77-.88.9-.76 1-.62 1.1-.45 1.13-.27 1.1-.1h398l.78-.05.7-.16.65-.28.6-.38.55-.46.46-.54.37-.6.27-.66.17-.7.05-.75v-45.9l.1-1.1.27-1.14.44-1.1.6-1 .77-.88.9-.76 1-.6 1.1-.46 1.13-.28 1.1-.1h28.5zm123.07 0h-21.53v-2.96h21.53z" stroke="#000" stroke-width=".05"/><path d="M889 554.25h-1.54v-2.96H889z"/><path stroke="#000" stroke-width=".05"/><path d="M320 713.15l-4.63-14.27h9.26z"/><path d="M320 717.92l-6.67-20.5h13.34zm-2.6-17.56l2.6 8 2.6-8z" stroke="#000" stroke-width=".05"/><use xlink:href="#Y" transform="matrix(1,0,0,1,764.4345679012347,542.1035337355947) translate(0 14.222222222222223)"/><use xlink:href="#Z" transform="matrix(1,0,0,1,764.4345679012347,542.1035337355947) translate(48.2962962962963 14.222222222222223)"/><path d="M914.86 478.52l1.1.1 1.15.27 1.1.44 1 .6.9.77.75.9.6 1 .46 1.1.3 1.13.07 1.1v20.57h-2.94v-20.44l-.07-.77-.16-.7-.27-.65-.37-.6-.46-.55-.54-.46-.6-.37-.66-.27-.7-.16-.76-.06H890.3v-2.96zm-338.13-3.8l.17.68.27.65.37.6.46.55.54.46.6.37.66.27.7.16.76.06H806.6v2.96H581.15l-1.1-.1-1.15-.27-1.1-.44-1-.6-.9-.77-.75-.9-.6-1-.46-1.1-.3-1.13-.07-1.1V275h2.94v198.94zm-.06-221.05h-2.94v-51.05h2.94z" stroke="#000" stroke-width=".05"/><path d="M922.27 508h-2.94v-1.54h2.94z"/><path stroke="#000" stroke-width=".05"/><path d="M579.84 201.12h-9.27l4.63-14.27z"/><path d="M581.87 202.6h-13.34l6.67-20.52zm-9.27-2.95h5.2l-2.6-8.02z" stroke="#000" stroke-width=".05"/><use xlink:href="#aa" transform="matrix(1,0,0,1,806.6072307675296,469.3333333333333) translate(0 14.222222222222223)"/><use xlink:href="#ab" transform="matrix(1,0,0,1,557.9407393893395,253.6745599847512) translate(0 14.222222222222223)"/><path d="M1214.5 220h29.5a6 6 0 0 1 6 6v153a6 6 0 0 0 6 6h61.38" stroke="#fe7070" stroke-width="3" fill="none"/><path d="M1214.54 221.47H1213v-2.94h1.54z" stroke="#fe7070" stroke-width=".05" fill="#fe7070"/><path d="M1333.15 385l-14.27 4.63v-9.26z" stroke="#fe7070" stroke-width="3" fill="#fe7070"/><path d="M1214.5 220h29.5a6 6 0 0 1 6 6v311.95a6 6 0 0 0 6 6h61.38" stroke="#fe7070" stroke-width="3" fill="none"/><path d="M1214.54 221.47H1213v-2.94h1.54z" stroke="#fe7070" stroke-width=".05" fill="#fe7070"/><path d="M1333.15 543.95l-14.27 4.63v-9.27z" stroke="#fe7070" stroke-width="3" fill="#fe7070"/><path d="M1214.5 220h29.5a6 6 0 0 1 6 6v483.63a6 6 0 0 0 6 6h61.38" stroke="#fe7070" stroke-width="3" fill="none"/><path d="M1214.54 221.47H1213v-2.94h1.54z" stroke="#fe7070" stroke-width=".05" fill="#fe7070"/><path d="M1333.15 715.63l-14.27 4.64V711z" stroke="#fe7070" stroke-width="3" fill="#fe7070"/><path d="M935.8 448.52l1.12.1 1.15.27 1.08.44 1 .6.9.77.75.9.62 1 .45 1.1.27 1.13.1 1.1v50.57h-2.96v-50.44l-.06-.77-.17-.7-.27-.65-.37-.6-.45-.55-.54-.46-.6-.37-.65-.27-.7-.16-.75-.06h-80.98v-2.96zm-359.06-3.8l.16.68.27.65.37.6.46.55.54.46.6.37.66.27.7.16.76.06h229.02v2.96H581.14l-1.1-.1-1.15-.27-1.1-.44-1-.6-.9-.77-.75-.9-.6-1-.46-1.1-.3-1.13-.07-1.1V275h2.94v168.94zm-.07-191.05h-2.94v-51.05h2.94z" stroke="#000" stroke-width=".05"/><path d="M943.23 508h-2.95v-1.54h2.95z"/><path stroke="#000" stroke-width=".05"/><path d="M579.84 201.12h-9.27l4.63-14.27z"/><path d="M581.87 202.6h-13.34l6.67-20.52zm-9.27-2.95h5.2l-2.6-8.02z" stroke="#000" stroke-width=".05"/><use xlink:href="#U" transform="matrix(1,0,0,1,810.2786477556241,439.3333333333333) translate(0 14.222222222222223)"/><path d="M780 726a6 6 0 0 1 6-6h148a6 6 0 0 1 6 6v108a6 6 0 0 1-6 6H786a6 6 0 0 1-6-6z" stroke="#ba23f6" stroke-width="4" fill="#fbf0ff"/><use xlink:href="#ac" transform="matrix(1,0,0,1,792,732) translate(28 26.77777777777778)"/><use xlink:href="#ad" transform="matrix(1,0,0,1,792,732) translate(35.31481481481482 53.44444444444445)"/><use xlink:href="#ae" transform="matrix(1,0,0,1,792,732) translate(32.907407407407405 80.11111111111111)"/><path d="M760-54a6 6 0 0 1 6-6h148a6 6 0 0 1 6 6V54a6 6 0 0 1-6 6H766a6 6 0 0 1-6-6z" stroke="#6db1ff" stroke-width="4" fill="#edf5ff"/><use xlink:href="#af" transform="matrix(1,0,0,1,772,-48) translate(19.26543209876543 38.77777777777778)"/><use xlink:href="#l" transform="matrix(1,0,0,1,772,-48) translate(50.129629629629626 38.77777777777778)"/><use xlink:href="#m" transform="matrix(1,0,0,1,772,-48) translate(24.296296296296298 65.44444444444446)"/><path d="M840 63.5V114a6 6 0 0 1-6 6H642.62" stroke="#fe7070" stroke-width="3" fill="none"/><path d="M841.48 63.54h-2.96V62h2.96z" stroke="#fe7070" stroke-width=".05" fill="#fe7070"/><path d="M626.85 120l14.27-4.64v9.28z" stroke="#fe7070" stroke-width="3" fill="#fe7070"/><path d="M600 906a6 6 0 0 1 6-6h148a6 6 0 0 1 6 6v108a6 6 0 0 1-6 6H606a6 6 0 0 1-6-6z" stroke="#6db1ff" stroke-width="4" fill="#edf5ff"/><g><use xlink:href="#af" transform="matrix(1,0,0,1,612,912) translate(19.26543209876543 38.77777777777778)"/><use xlink:href="#l" transform="matrix(1,0,0,1,612,912) translate(50.129629629629626 38.77777777777778)"/><use xlink:href="#m" transform="matrix(1,0,0,1,612,912) translate(24.296296296296298 65.44444444444446)"/></g><path d="M1214.5 220h29.5a6 6 0 0 1 6 6v548a6 6 0 0 1-6 6h-41.38" stroke="#fe7070" stroke-width="3" fill="none"/><path d="M1214.54 221.47H1213v-2.94h1.54z" stroke="#fe7070" stroke-width=".05" fill="#fe7070"/><path d="M1186.85 780l14.27-4.63v9.26z" stroke="#fe7070" stroke-width="3" fill="#fe7070"/><path d="M763.5 960H854a6 6 0 0 0 6-6v-91.38" stroke="#fe7070" stroke-width="3" fill="none"/><path d="M763.54 961.48H762v-2.96h1.54z" stroke="#fe7070" stroke-width=".05" fill="#fe7070"/><path d="M860 846.85l4.63 14.27h-9.26z" stroke="#fe7070" stroke-width="3" fill="#fe7070"/><path d="M776.5 780H642.62" stroke="#fe7070" stroke-width="3" fill="none"/><path d="M778 781.48h-1.54v-2.96H778z" stroke="#fe7070" stroke-width=".05" fill="#fe7070"/><path d="M626.85 780l14.27-4.63v9.26z" stroke="#fe7070" stroke-width="3" fill="#fe7070"/><path d="M596.5 928.8H326a6 6 0 0 1-6-6v-60.18" stroke="#fe7070" stroke-width="3" fill="none"/><path d="M598 930.27h-1.54v-2.94H598z" stroke="#fe7070" stroke-width=".05" fill="#fe7070"/><path d="M320 846.85l4.63 14.27h-9.26z" stroke="#fe7070" stroke-width="3" fill="#fe7070"/><path d="M1020 926a6 6 0 0 1 6-6h148a6 6 0 0 1 6 6v108a6 6 0 0 1-6 6h-148a6 6 0 0 1-6-6z" stroke="#008a0e" stroke-width="4" fill="#e3fae3"/><g><use xlink:href="#ag" transform="matrix(1,0,0,1,1032,932) translate(-4.037037037037038 52.44444444444444)"/></g><path d="M1214.5 220h29.5a6 6 0 0 1 6 6v748a6 6 0 0 1-6 6h-41.38" stroke="#fe7070" stroke-width="3" fill="none"/><path d="M1214.54 221.47H1213v-2.94h1.54z" stroke="#fe7070" stroke-width=".05" fill="#fe7070"/><path d="M1186.85 980l14.27-4.63v9.26z" stroke="#fe7070" stroke-width="3" fill="#fe7070"/><path d="M972.48 973.94l.05.77.17.7.27.65.37.6.46.55.54.46.6.37.66.27.7.17.76.05h39.44v2.96h-39.56l-1.1-.1-1.15-.27-1.1-.44-1-.6-.9-.77-.75-.9-.6-1-.46-1.1-.3-1.13-.08-1.1V687.18h2.96zm0-308.1h-2.96v-13.22h2.96z" stroke="#000" stroke-width=".05"/><path d="M975.63 651.12h-9.26l4.63-14.27z"/><path d="M977.66 652.6h-13.32l6.66-20.52zm-9.26-2.96h5.2l-2.6-8z" stroke="#000" stroke-width=".05"/><path d="M1018 981.48h-1.54v-2.96h1.54z"/><path stroke="#000" stroke-width=".05"/><g><use xlink:href="#O" transform="matrix(1,0,0,1,951.8147898148152,665.8548024719151) translate(0 14.222222222222223)"/></g><defs><path d="M30 0v-248h187v28H63v79h144v27H63v87h162V0H30" id="ah"/><path d="M185-189c-5-48-123-54-124 2 14 75 158 14 163 119 3 78-121 87-175 55-17-10-28-26-33-46l33-7c5 56 141 63 141-1 0-78-155-14-162-118-5-82 145-84 179-34 5 7 8 16 11 25" id="ai"/><path d="M30-248c87 1 191-15 191 75 0 78-77 80-158 76V0H30v-248zm33 125c57 0 124 11 124-50 0-59-68-47-124-48v98" id="aj"/><g id="a"><use transform="matrix(0.05,0,0,0.05,0,0)" xlink:href="#ah"/><use transform="matrix(0.05,0,0,0.05,12,0)" xlink:href="#ai"/><use transform="matrix(0.05,0,0,0.05,24,0)" xlink:href="#aj"/></g><path d="M212-179c-10-28-35-45-73-45-59 0-87 40-87 99 0 60 29 101 89 101 43 0 62-24 78-52l27 14C228-24 195 4 139 4 59 4 22-46 18-125c-6-104 99-153 187-111 19 9 31 26 39 46" id="ak"/><path d="M141-36C126-15 110 5 73 4 37 3 15-17 15-53c-1-64 63-63 125-63 3-35-9-54-41-54-24 1-41 7-42 31l-33-3c5-37 33-52 76-52 45 0 72 20 72 64v82c-1 20 7 32 28 27v20c-31 9-61-2-59-35zM48-53c0 20 12 33 32 33 41-3 63-29 60-74-43 2-92-5-92 41" id="al"/><path d="M210-169c-67 3-38 105-44 169h-31v-121c0-29-5-50-35-48C34-165 62-65 56 0H25l-1-190h30c1 10-1 24 2 32 10-44 99-50 107 0 11-21 27-35 58-36 85-2 47 119 55 194h-31v-121c0-29-5-49-35-48" id="am"/><g id="b"><use transform="matrix(0.05,0,0,0.05,0,0)" xlink:href="#ak"/><use transform="matrix(0.05,0,0,0.05,12.950000000000001,0)" xlink:href="#al"/><use transform="matrix(0.05,0,0,0.05,22.950000000000003,0)" xlink:href="#am"/></g><path d="M240 0l2-218c-23 76-54 145-80 218h-23L58-218 59 0H30v-248h44l77 211c21-75 51-140 76-211h43V0h-30" id="an"/><path d="M100-194c62-1 85 37 85 99 1 63-27 99-86 99S16-35 15-95c0-66 28-99 85-99zM99-20c44 1 53-31 53-75 0-43-8-75-51-75s-53 32-53 75 10 74 51 75" id="ao"/><path d="M85-194c31 0 48 13 60 33l-1-100h32l1 261h-30c-2-10 0-23-3-31C134-8 116 4 85 4 32 4 16-35 15-94c0-66 23-100 70-100zm9 24c-40 0-46 34-46 75 0 40 6 74 45 74 42 0 51-32 51-76 0-42-9-74-50-73" id="ap"/><path d="M84 4C-5 8 30-112 23-190h32v120c0 31 7 50 39 49 72-2 45-101 50-169h31l1 190h-30c-1-10 1-25-2-33-11 22-28 36-60 37" id="aq"/><path d="M24 0v-261h32V0H24" id="ar"/><path d="M100-194c63 0 86 42 84 106H49c0 40 14 67 53 68 26 1 43-12 49-29l28 8c-11 28-37 45-77 45C44 4 14-33 15-96c1-61 26-98 85-98zm52 81c6-60-76-77-97-28-3 7-6 17-6 28h103" id="as"/><g id="c"><use transform="matrix(0.05,0,0,0.05,0,0)" xlink:href="#an"/><use transform="matrix(0.05,0,0,0.05,14.950000000000001,0)" xlink:href="#ao"/><use transform="matrix(0.05,0,0,0.05,24.950000000000003,0)" xlink:href="#ap"/><use transform="matrix(0.05,0,0,0.05,34.95,0)" xlink:href="#aq"/><use transform="matrix(0.05,0,0,0.05,44.95,0)" xlink:href="#ar"/><use transform="matrix(0.05,0,0,0.05,48.900000000000006,0)" xlink:href="#as"/></g><path d="M63-220v92h138v28H63V0H30v-248h175v28H63" id="at"/><path d="M24-231v-30h32v30H24zM24 0v-190h32V0H24" id="au"/><g id="d"><use transform="matrix(0.05,0,0,0.05,0,0)" xlink:href="#at"/><use transform="matrix(0.05,0,0,0.05,10.950000000000001,0)" xlink:href="#au"/><use transform="matrix(0.05,0,0,0.05,14.9,0)" xlink:href="#ar"/><use transform="matrix(0.05,0,0,0.05,18.85,0)" xlink:href="#am"/></g><path d="M114-163C36-179 61-72 57 0H25l-1-190h30c1 12-1 29 2 39 6-27 23-49 58-41v29" id="av"/><g id="e"><use transform="matrix(0.05,0,0,0.05,0,0)" xlink:href="#ak"/><use transform="matrix(0.05,0,0,0.05,12.950000000000001,0)" xlink:href="#al"/><use transform="matrix(0.05,0,0,0.05,22.950000000000003,0)" xlink:href="#am"/><use transform="matrix(0.05,0,0,0.05,37.900000000000006,0)" xlink:href="#as"/><use transform="matrix(0.05,0,0,0.05,47.900000000000006,0)" xlink:href="#av"/><use transform="matrix(0.05,0,0,0.05,53.85,0)" xlink:href="#al"/></g><path d="M33 0v-248h34V0H33" id="aw"/><path d="M117-194c89-4 53 116 60 194h-32v-121c0-31-8-49-39-48C34-167 62-67 57 0H25l-1-190h30c1 10-1 24 2 32 11-22 29-35 61-36" id="ax"/><path d="M59-47c-2 24 18 29 38 22v24C64 9 27 4 27-40v-127H5v-23h24l9-43h21v43h35v23H59v120" id="ay"/><path d="M101-234c-31-9-42 10-38 44h38v23H63V0H32v-167H5v-23h27c-7-52 17-82 69-68v24" id="az"/><path d="M96-169c-40 0-48 33-48 73s9 75 48 75c24 0 41-14 43-38l32 2c-6 37-31 61-74 61-59 0-76-41-82-99-10-93 101-131 147-64 4 7 5 14 7 22l-32 3c-4-21-16-35-41-35" id="aA"/><g id="f"><use transform="matrix(0.05,0,0,0.05,0,0)" xlink:href="#aw"/><use transform="matrix(0.05,0,0,0.05,5,0)" xlink:href="#ax"/><use transform="matrix(0.05,0,0,0.05,15,0)" xlink:href="#ay"/><use transform="matrix(0.05,0,0,0.05,20,0)" xlink:href="#as"/><use transform="matrix(0.05,0,0,0.05,30,0)" xlink:href="#av"/><use transform="matrix(0.05,0,0,0.05,35.95,0)" xlink:href="#az"/><use transform="matrix(0.05,0,0,0.05,40.95,0)" xlink:href="#al"/><use transform="matrix(0.05,0,0,0.05,50.95,0)" xlink:href="#aA"/><use transform="matrix(0.05,0,0,0.05,59.95,0)" xlink:href="#as"/></g><path d="M232-93c-1 65-40 97-104 97C67 4 28-28 28-90v-158h33c8 89-33 224 67 224 102 0 64-133 71-224h33v155" id="aB"/><g id="g"><use transform="matrix(0.05,0,0,0.05,0,0)" xlink:href="#an"/><use transform="matrix(0.05,0,0,0.05,14.950000000000001,0)" xlink:href="#ak"/><use transform="matrix(0.05,0,0,0.05,27.900000000000002,0)" xlink:href="#aB"/></g><path d="M160-131c35 5 61 23 61 61C221 17 115-2 30 0v-248c76 3 177-17 177 60 0 33-19 50-47 57zm-97-11c50-1 110 9 110-42 0-47-63-36-110-37v79zm0 115c55-2 124 14 124-45 0-56-70-42-124-44v89" id="aC"/><g id="h"><use transform="matrix(0.05,0,0,0.05,0,0)" xlink:href="#aC"/><use transform="matrix(0.05,0,0,0.05,12,0)" xlink:href="#ao"/><use transform="matrix(0.05,0,0,0.05,22,0)" xlink:href="#al"/><use transform="matrix(0.05,0,0,0.05,32,0)" xlink:href="#av"/><use transform="matrix(0.05,0,0,0.05,37.95,0)" xlink:href="#ap"/></g><path fill="#3a414a" d="M169-182c-1-43-94-46-97-3 18 66 151 10 154 114 3 95-165 93-204 36-6-8-10-19-12-30l50-8c3 46 112 56 116 5-17-69-150-10-154-114-4-87 153-88 188-35 5 8 8 18 10 28" id="aD"/><path fill="#3a414a" d="M24-248c120-7 223 5 221 122C244-46 201 0 124 0H24v-248zM76-40c74 7 117-18 117-86 0-67-45-88-117-82v168" id="aE"/><path fill="#3a414a" d="M67-125c0 53 21 87 73 88 37 1 54-22 65-47l45 17C233-25 199 4 140 4 58 4 20-42 15-125 8-235 124-281 211-232c18 10 29 29 36 50l-46 12c-8-25-30-41-62-41-52 0-71 34-72 86" id="aF"/><path fill="#3a414a" d="M133-34C117-15 103 5 69 4 32 3 11-16 11-54c-1-60 55-63 116-61 1-26-3-47-28-47-18 1-26 9-28 27l-52-2c7-38 36-58 82-57s74 22 75 68l1 82c-1 14 12 18 25 15v27c-30 8-71 5-69-32zm-48 3c29 0 43-24 42-57-32 0-66-3-65 30 0 17 8 27 23 27" id="aG"/><path fill="#3a414a" d="M135-150c-39-12-60 13-60 57V0H25l-1-190h47c2 13-1 29 3 40 6-28 27-53 61-41v41" id="aH"/><path fill="#3a414a" d="M88-194c31-1 46 15 58 34l-1-101h50l1 261h-48c-2-10 0-23-3-31C134-8 116 4 84 4 32 4 16-41 15-95c0-56 19-97 73-99zm17 164c33 0 40-30 41-66 1-37-9-64-41-64s-38 30-39 65c0 43 13 65 39 65" id="aI"/><g id="i"><use transform="matrix(0.06172839506172839,0,0,0.06172839506172839,0,0)" xlink:href="#aD"/><use transform="matrix(0.06172839506172839,0,0,0.06172839506172839,14.814814814814813,0)" xlink:href="#aE"/><use transform="matrix(0.06172839506172839,0,0,0.06172839506172839,30.80246913580247,0)" xlink:href="#aF"/><use transform="matrix(0.06172839506172839,0,0,0.06172839506172839,46.79012345679012,0)" xlink:href="#aG"/><use transform="matrix(0.06172839506172839,0,0,0.06172839506172839,59.1358024691358,0)" xlink:href="#aH"/><use transform="matrix(0.06172839506172839,0,0,0.06172839506172839,67.77777777777777,0)" xlink:href="#aI"/></g><path fill="#3a414a" d="M24 0v-248h195v40H76v63h132v40H76v65h150V0H24" id="aJ"/><path fill="#3a414a" d="M24-248c93 1 206-16 204 79-1 75-69 88-152 82V0H24v-248zm52 121c47 0 100 7 100-41 0-47-54-39-100-39v80" id="aK"/><path fill="#3a414a" d="M128-127c34 4 56 21 59 58 7 91-148 94-172 28-4-9-6-17-7-26l51-5c1 24 16 35 40 36 23 0 39-12 38-36-1-31-31-36-65-34v-40c32 2 59-3 59-33 0-20-13-33-34-33s-33 13-35 32l-50-3c6-44 37-68 86-68 50 0 83 20 83 66 0 35-22 52-53 58" id="aL"/><path fill="#3a414a" d="M182-182c0 78-84 86-111 141h115V0H12c-6-101 99-100 120-180 1-22-12-31-33-32-23 0-32 14-35 34l-49-3c5-45 32-70 84-70 51 0 83 22 83 69" id="aM"/><g id="j"><use transform="matrix(0.06172839506172839,0,0,0.06172839506172839,0,0)" xlink:href="#aJ"/><use transform="matrix(0.06172839506172839,0,0,0.06172839506172839,14.814814814814813,0)" xlink:href="#aD"/><use transform="matrix(0.06172839506172839,0,0,0.06172839506172839,29.629629629629626,0)" xlink:href="#aK"/><use transform="matrix(0.06172839506172839,0,0,0.06172839506172839,44.44444444444444,0)" xlink:href="#aL"/><use transform="matrix(0.06172839506172839,0,0,0.06172839506172839,56.79012345679012,0)" xlink:href="#aM"/></g><path fill="#3a414a" d="M24 0v-54h51V0H24" id="aN"/><path fill="#3a414a" d="M128 0H69L1-190h53L99-40l48-150h52" id="aO"/><g id="k"><use transform="matrix(0.06172839506172839,0,0,0.06172839506172839,0,0)" xlink:href="#aL"/><use transform="matrix(0.06172839506172839,0,0,0.06172839506172839,12.345679012345679,0)" xlink:href="#aN"/><use transform="matrix(0.06172839506172839,0,0,0.06172839506172839,18.51851851851852,0)" xlink:href="#aL"/><use transform="matrix(0.06172839506172839,0,0,0.06172839506172839,30.864197530864196,0)" xlink:href="#aO"/></g><path fill="#3a414a" d="M110-194c64 0 96 36 96 99 0 64-35 99-97 99-61 0-95-36-95-99 0-62 34-99 96-99zm-1 164c35 0 45-28 45-65 0-40-10-65-43-65-34 0-45 26-45 65 0 36 10 65 43 65" id="aP"/><path fill="#3a414a" d="M231 0h-52l-39-155L100 0H48L-1-190h46L77-45c9-52 24-97 36-145h53l37 145 32-145h46" id="aQ"/><path fill="#3a414a" d="M185-48c-13 30-37 53-82 52C43 2 14-33 14-96s30-98 90-98c62 0 83 45 84 108H66c0 31 8 55 39 56 18 0 30-7 34-22zm-45-69c5-46-57-63-70-21-2 6-4 13-4 21h74" id="aR"/><g id="l"><use transform="matrix(0.06172839506172839,0,0,0.06172839506172839,0,0)" xlink:href="#aK"/><use transform="matrix(0.06172839506172839,0,0,0.06172839506172839,14.814814814814813,0)" xlink:href="#aP"/><use transform="matrix(0.06172839506172839,0,0,0.06172839506172839,28.33333333333333,0)" xlink:href="#aQ"/><use transform="matrix(0.06172839506172839,0,0,0.06172839506172839,45.61728395061728,0)" xlink:href="#aR"/><use transform="matrix(0.06172839506172839,0,0,0.06172839506172839,57.962962962962955,0)" xlink:href="#aH"/></g><path fill="#3a414a" d="M85 4C-2 5 27-109 22-190h50c7 57-23 150 33 157 60-5 35-97 40-157h50l1 190h-47c-2-12 1-28-3-38-12 25-28 42-61 42" id="aS"/><path fill="#3a414a" d="M135-194c53 0 70 44 70 98 0 56-19 98-73 100-31 1-45-17-59-34 3 33 2 69 2 105H25l-1-265h48c2 10 0 23 3 31 11-24 29-35 60-35zM114-30c33 0 39-31 40-66 0-38-9-64-40-64-56 0-55 130 0 130" id="aT"/><path fill="#3a414a" d="M25 0v-261h50V0H25" id="aU"/><path fill="#3a414a" d="M123 10C108 53 80 86 19 72V37c35 8 53-11 59-39L3-190h52l48 148c12-52 28-100 44-148h51" id="aV"/><g id="m"><use transform="matrix(0.06172839506172839,0,0,0.06172839506172839,0,0)" xlink:href="#aD"/><use transform="matrix(0.06172839506172839,0,0,0.06172839506172839,14.814814814814813,0)" xlink:href="#aS"/><use transform="matrix(0.06172839506172839,0,0,0.06172839506172839,28.33333333333333,0)" xlink:href="#aT"/><use transform="matrix(0.06172839506172839,0,0,0.06172839506172839,41.85185185185185,0)" xlink:href="#aT"/><use transform="matrix(0.06172839506172839,0,0,0.06172839506172839,55.37037037037037,0)" xlink:href="#aT"/><use transform="matrix(0.06172839506172839,0,0,0.06172839506172839,68.88888888888889,0)" xlink:href="#aU"/><use transform="matrix(0.06172839506172839,0,0,0.06172839506172839,75.06172839506172,0)" xlink:href="#aV"/></g><path fill="#3a414a" d="M136-208V0H84v-208H4v-40h212v40h-80" id="aW"/><path fill="#3a414a" d="M25-224v-37h50v37H25zM25 0v-190h50V0H25" id="aX"/><path fill="#3a414a" d="M195-6C206 82 75 100 31 46c-4-6-6-13-8-21l49-6c3 16 16 24 34 25 40 0 42-37 40-79-11 22-30 35-61 35-53 0-70-43-70-97 0-56 18-96 73-97 30 0 46 14 59 34l2-30h47zm-90-29c32 0 41-27 41-63 0-35-9-62-40-62-32 0-39 29-40 63 0 36 9 62 39 62" id="aY"/><g id="n"><use transform="matrix(0.06172839506172839,0,0,0.06172839506172839,0,0)" xlink:href="#aW"/><use transform="matrix(0.06172839506172839,0,0,0.06172839506172839,12.28395061728395,0)" xlink:href="#aH"/><use transform="matrix(0.06172839506172839,0,0,0.06172839506172839,20.925925925925924,0)" xlink:href="#aX"/><use transform="matrix(0.06172839506172839,0,0,0.06172839506172839,27.098765432098762,0)" xlink:href="#aY"/><use transform="matrix(0.06172839506172839,0,0,0.06172839506172839,40.61728395061728,0)" xlink:href="#aY"/><use transform="matrix(0.06172839506172839,0,0,0.06172839506172839,54.1358024691358,0)" xlink:href="#aR"/><use transform="matrix(0.06172839506172839,0,0,0.06172839506172839,66.48148148148148,0)" xlink:href="#aH"/></g><g id="o"><use transform="matrix(0.06172839506172839,0,0,0.06172839506172839,0,0)" xlink:href="#aD"/><use transform="matrix(0.06172839506172839,0,0,0.06172839506172839,14.814814814814813,0)" xlink:href="#aR"/><use transform="matrix(0.06172839506172839,0,0,0.06172839506172839,27.160493827160494,0)" xlink:href="#aH"/><use transform="matrix(0.06172839506172839,0,0,0.06172839506172839,35.80246913580247,0)" xlink:href="#aO"/><use transform="matrix(0.06172839506172839,0,0,0.06172839506172839,48.148148148148145,0)" xlink:href="#aP"/></g><path fill="#3a414a" d="M240-174c0 40-23 61-54 70L253 0h-59l-57-94H76V0H24v-248c93 4 217-23 216 74zM76-134c48-2 112 12 112-38 0-48-66-32-112-35v73" id="aZ"/><g id="p"><use transform="matrix(0.06172839506172839,0,0,0.06172839506172839,0,0)" xlink:href="#aZ"/><use transform="matrix(0.06172839506172839,0,0,0.06172839506172839,15.987654320987653,0)" xlink:href="#aR"/><use transform="matrix(0.06172839506172839,0,0,0.06172839506172839,28.333333333333332,0)" xlink:href="#aU"/><use transform="matrix(0.06172839506172839,0,0,0.06172839506172839,34.50617283950617,0)" xlink:href="#aP"/><use transform="matrix(0.06172839506172839,0,0,0.06172839506172839,48.02469135802469,0)" xlink:href="#aG"/><use transform="matrix(0.06172839506172839,0,0,0.06172839506172839,60.37037037037037,0)" xlink:href="#aI"/></g><path fill="#3a414a" d="M230 0l2-204L168 0h-37L68-204 70 0H24v-248h70l56 185 57-185h69V0h-46" id="ba"/><g id="q"><use transform="matrix(0.06172839506172839,0,0,0.06172839506172839,0,0)" xlink:href="#ba"/><use transform="matrix(0.06172839506172839,0,0,0.06172839506172839,18.456790123456788,0)" xlink:href="#aP"/><use transform="matrix(0.06172839506172839,0,0,0.06172839506172839,31.9753086419753,0)" xlink:href="#aI"/><use transform="matrix(0.06172839506172839,0,0,0.06172839506172839,45.49382716049382,0)" xlink:href="#aI"/><use transform="matrix(0.06172839506172839,0,0,0.06172839506172839,59.01234567901234,0)" xlink:href="#aR"/><use transform="matrix(0.06172839506172839,0,0,0.06172839506172839,71.35802469135803,0)" xlink:href="#aI"/></g><g id="r"><use transform="matrix(0.06172839506172839,0,0,0.06172839506172839,0,0)" xlink:href="#aD"/><use transform="matrix(0.06172839506172839,0,0,0.06172839506172839,14.814814814814813,0)" xlink:href="#aR"/><use transform="matrix(0.06172839506172839,0,0,0.06172839506172839,27.160493827160494,0)" xlink:href="#aH"/><use transform="matrix(0.06172839506172839,0,0,0.06172839506172839,35.80246913580247,0)" xlink:href="#aO"/><use transform="matrix(0.06172839506172839,0,0,0.06172839506172839,48.148148148148145,0)" xlink:href="#aP"/></g><path fill="#3a414a" d="M24 0v-248h52v208h133V0H24" id="bb"/><g id="s"><use transform="matrix(0.06172839506172839,0,0,0.06172839506172839,0,0)" xlink:href="#bb"/><use transform="matrix(0.06172839506172839,0,0,0.06172839506172839,13.518518518518517,0)" xlink:href="#aP"/><use transform="matrix(0.06172839506172839,0,0,0.06172839506172839,27.037037037037035,0)" xlink:href="#aZ"/><use transform="matrix(0.06172839506172839,0,0,0.06172839506172839,43.02469135802469,0)" xlink:href="#aG"/></g><g id="t"><use transform="matrix(0.06172839506172839,0,0,0.06172839506172839,0,0)" xlink:href="#aZ"/><use transform="matrix(0.06172839506172839,0,0,0.06172839506172839,15.987654320987653,0)" xlink:href="#aG"/><use transform="matrix(0.06172839506172839,0,0,0.06172839506172839,28.333333333333332,0)" xlink:href="#aI"/><use transform="matrix(0.06172839506172839,0,0,0.06172839506172839,41.85185185185185,0)" xlink:href="#aX"/><use transform="matrix(0.06172839506172839,0,0,0.06172839506172839,48.02469135802469,0)" xlink:href="#aP"/></g><path fill="#3a414a" d="M67-125c0 54 23 88 75 88 28 0 53-7 68-21v-34h-60v-39h108v91C232-14 192 4 140 4 58 4 20-42 15-125 8-236 126-280 215-234c19 10 29 26 37 47l-47 15c-11-23-29-39-63-39-53 1-75 33-75 86" id="bc"/><g id="u"><use transform="matrix(0.06172839506172839,0,0,0.06172839506172839,0,0)" xlink:href="#bc"/><use transform="matrix(0.06172839506172839,0,0,0.06172839506172839,17.28395061728395,0)" xlink:href="#aK"/><use transform="matrix(0.06172839506172839,0,0,0.06172839506172839,32.09876543209876,0)" xlink:href="#aD"/></g><g id="v"><use transform="matrix(0.06172839506172839,0,0,0.06172839506172839,0,0)" xlink:href="#ba"/><use transform="matrix(0.06172839506172839,0,0,0.06172839506172839,18.456790123456788,0)" xlink:href="#aP"/><use transform="matrix(0.06172839506172839,0,0,0.06172839506172839,31.9753086419753,0)" xlink:href="#aI"/><use transform="matrix(0.06172839506172839,0,0,0.06172839506172839,45.49382716049382,0)" xlink:href="#aS"/><use transform="matrix(0.06172839506172839,0,0,0.06172839506172839,59.01234567901234,0)" xlink:href="#aU"/><use transform="matrix(0.06172839506172839,0,0,0.06172839506172839,65.18518518518518,0)" xlink:href="#aR"/></g><path fill="#3a414a" d="M182-130c37 4 62 22 62 59C244 23 116-4 24 0v-248c84 5 203-23 205 63 0 31-19 50-47 55zM76-148c40-3 101 13 101-30 0-44-60-28-101-31v61zm0 110c48-3 116 14 116-37 0-48-69-32-116-35v72" id="bd"/><path fill="#3a414a" d="M12 0v-35l95-120H19v-35h142v35L67-36h103V0H12" id="be"/><g id="w"><use transform="matrix(0.06172839506172839,0,0,0.06172839506172839,0,0)" xlink:href="#bd"/><use transform="matrix(0.06172839506172839,0,0,0.06172839506172839,15.987654320987653,0)" xlink:href="#aS"/><use transform="matrix(0.06172839506172839,0,0,0.06172839506172839,29.50617283950617,0)" xlink:href="#be"/><use transform="matrix(0.06172839506172839,0,0,0.06172839506172839,40.61728395061728,0)" xlink:href="#be"/><use transform="matrix(0.06172839506172839,0,0,0.06172839506172839,51.72839506172839,0)" xlink:href="#aR"/><use transform="matrix(0.06172839506172839,0,0,0.06172839506172839,64.07407407407408,0)" xlink:href="#aH"/></g><path d="M67-125c0 53 21 87 73 88 37 1 54-22 65-47l45 17C233-25 199 4 140 4 58 4 20-42 15-125 8-235 124-281 211-232c18 10 29 29 36 50l-46 12c-8-25-30-41-62-41-52 0-71 34-72 86" id="bf"/><path d="M110-194c64 0 96 36 96 99 0 64-35 99-97 99-61 0-95-36-95-99 0-62 34-99 96-99zm-1 164c35 0 45-28 45-65 0-40-10-65-43-65-34 0-45 26-45 65 0 36 10 65 43 65" id="bg"/><path d="M25 0v-261h50V0H25" id="bh"/><path d="M85 4C-2 5 27-109 22-190h50c7 57-23 150 33 157 60-5 35-97 40-157h50l1 190h-47c-2-12 1-28-3-38-12 25-28 42-61 42" id="bi"/><path d="M135-150c-39-12-60 13-60 57V0H25l-1-190h47c2 13-1 29 3 40 6-28 27-53 61-41v41" id="bj"/><g id="x"><use transform="matrix(0.06790123456790124,0,0,0.06790123456790124,0,0)" xlink:href="#bf"/><use transform="matrix(0.06790123456790124,0,0,0.06790123456790124,17.58641975308642,0)" xlink:href="#bg"/><use transform="matrix(0.06790123456790124,0,0,0.06790123456790124,32.45679012345679,0)" xlink:href="#bh"/><use transform="matrix(0.06790123456790124,0,0,0.06790123456790124,39.24691358024692,0)" xlink:href="#bg"/><use transform="matrix(0.06790123456790124,0,0,0.06790123456790124,54.11728395061729,0)" xlink:href="#bi"/><use transform="matrix(0.06790123456790124,0,0,0.06790123456790124,68.98765432098766,0)" xlink:href="#bj"/></g><path d="M195 0l-88-114-31 24V0H24v-248h52v113l112-113h60L142-143 257 0h-62" id="bk"/><path d="M185-48c-13 30-37 53-82 52C43 2 14-33 14-96s30-98 90-98c62 0 83 45 84 108H66c0 31 8 55 39 56 18 0 30-7 34-22zm-45-69c5-46-57-63-70-21-2 6-4 13-4 21h74" id="bl"/><path d="M123 10C108 53 80 86 19 72V37c35 8 53-11 59-39L3-190h52l48 148c12-52 28-100 44-148h51" id="bm"/><g id="y"><use transform="matrix(0.06790123456790124,0,0,0.06790123456790124,0,0)" xlink:href="#bk"/><use transform="matrix(0.06790123456790124,0,0,0.06790123456790124,17.58641975308642,0)" xlink:href="#bl"/><use transform="matrix(0.06790123456790124,0,0,0.06790123456790124,31.16666666666667,0)" xlink:href="#bm"/></g><path d="M133-34C117-15 103 5 69 4 32 3 11-16 11-54c-1-60 55-63 116-61 1-26-3-47-28-47-18 1-26 9-28 27l-52-2c7-38 36-58 82-57s74 22 75 68l1 82c-1 14 12 18 25 15v27c-30 8-71 5-69-32zm-48 3c29 0 43-24 42-57-32 0-66-3-65 30 0 17 8 27 23 27" id="bn"/><path d="M220-157c-53 9-28 100-34 157h-49v-107c1-27-5-49-29-50C55-147 81-57 75 0H25l-1-190h47c2 12-1 28 3 38 10-53 101-56 108 0 13-22 24-43 59-42 82 1 51 116 57 194h-49v-107c-1-25-5-48-29-50" id="bo"/><g id="z"><use transform="matrix(0.06790123456790124,0,0,0.06790123456790124,0,0)" xlink:href="#bf"/><use transform="matrix(0.06790123456790124,0,0,0.06790123456790124,17.58641975308642,0)" xlink:href="#bn"/><use transform="matrix(0.06790123456790124,0,0,0.06790123456790124,31.16666666666667,0)" xlink:href="#bo"/><use transform="matrix(0.06790123456790124,0,0,0.06790123456790124,52.89506172839507,0)" xlink:href="#bl"/><use transform="matrix(0.06790123456790124,0,0,0.06790123456790124,66.47530864197532,0)" xlink:href="#bj"/><use transform="matrix(0.06790123456790124,0,0,0.06790123456790124,75.9814814814815,0)" xlink:href="#bn"/></g><path d="M168-19C124 19 11 11 16-68c3-43 29-60 59-75-25-44-12-111 53-106 37 3 64 15 64 52 0 43-40 52-69 68 12 22 27 41 43 59 14-19 21-38 28-64l37 13c-8 29-19 52-34 74 12 10 32 16 52 10v35c-28 11-65-2-81-17zm-58-139c19-9 43-14 43-39 0-14-10-22-25-22-34 0-33 41-18 61zM60-68c-3 40 55 47 79 25-18-20-34-42-48-67-18 8-30 20-31 42" id="bp"/><use transform="matrix(0.06790123456790124,0,0,0.06790123456790124,0,0)" xlink:href="#bp" id="A"/><path d="M24-248c120-7 223 5 221 122C244-46 201 0 124 0H24v-248zM76-40c74 7 117-18 117-86 0-67-45-88-117-82v168" id="bq"/><path d="M115-3C79 11 28 4 28-45v-112H4v-33h27l15-45h31v45h36v33H77v99c-1 23 16 31 38 25v30" id="br"/><g id="B"><use transform="matrix(0.06790123456790124,0,0,0.06790123456790124,0,0)" xlink:href="#bq"/><use transform="matrix(0.06790123456790124,0,0,0.06790123456790124,17.58641975308642,0)" xlink:href="#bn"/><use transform="matrix(0.06790123456790124,0,0,0.06790123456790124,31.16666666666667,0)" xlink:href="#br"/><use transform="matrix(0.06790123456790124,0,0,0.06790123456790124,39.24691358024692,0)" xlink:href="#bn"/></g><path d="M24 0v-248h52v208h133V0H24" id="bs"/><path d="M195-6C206 82 75 100 31 46c-4-6-6-13-8-21l49-6c3 16 16 24 34 25 40 0 42-37 40-79-11 22-30 35-61 35-53 0-70-43-70-97 0-56 18-96 73-97 30 0 46 14 59 34l2-30h47zm-90-29c32 0 41-27 41-63 0-35-9-62-40-62-32 0-39 29-40 63 0 36 9 62 39 62" id="bt"/><g id="C"><use transform="matrix(0.06790123456790124,0,0,0.06790123456790124,0,0)" xlink:href="#bs"/><use transform="matrix(0.06790123456790124,0,0,0.06790123456790124,14.870370370370372,0)" xlink:href="#bg"/><use transform="matrix(0.06790123456790124,0,0,0.06790123456790124,29.740740740740744,0)" xlink:href="#bt"/><use transform="matrix(0.06790123456790124,0,0,0.06790123456790124,44.611111111111114,0)" xlink:href="#bt"/><use transform="matrix(0.06790123456790124,0,0,0.06790123456790124,59.48148148148149,0)" xlink:href="#bl"/><use transform="matrix(0.06790123456790124,0,0,0.06790123456790124,73.06172839506173,0)" xlink:href="#bj"/></g><path d="M67-125c0 54 23 88 75 88 28 0 53-7 68-21v-34h-60v-39h108v91C232-14 192 4 140 4 58 4 20-42 15-125 8-236 126-280 215-234c19 10 29 26 37 47l-47 15c-11-23-29-39-63-39-53 1-75 33-75 86" id="bu"/><path d="M25-224v-37h50v37H25zM25 0v-190h50V0H25" id="bv"/><path d="M128 0H69L1-190h53L99-40l48-150h52" id="bw"/><path d="M135-194c87-1 58 113 63 194h-50c-7-57 23-157-34-157-59 0-34 97-39 157H25l-1-190h47c2 12-1 28 3 38 12-26 28-41 61-42" id="bx"/><g id="D"><use transform="matrix(0.06790123456790124,0,0,0.06790123456790124,0,0)" xlink:href="#bu"/><use transform="matrix(0.06790123456790124,0,0,0.06790123456790124,19.01234567901235,0)" xlink:href="#bv"/><use transform="matrix(0.06790123456790124,0,0,0.06790123456790124,25.802469135802472,0)" xlink:href="#bw"/><use transform="matrix(0.06790123456790124,0,0,0.06790123456790124,39.38271604938272,0)" xlink:href="#bl"/><use transform="matrix(0.06790123456790124,0,0,0.06790123456790124,52.96296296296297,0)" xlink:href="#bx"/></g><path d="M24-248c93 1 206-16 204 79-1 75-69 88-152 82V0H24v-248zm52 121c47 0 100 7 100-41 0-47-54-39-100-39v80" id="by"/><path d="M182-130c37 4 62 22 62 59C244 23 116-4 24 0v-248c84 5 203-23 205 63 0 31-19 50-47 55zM76-148c40-3 101 13 101-30 0-44-60-28-101-31v61zm0 110c48-3 116 14 116-37 0-48-69-32-116-35v72" id="bz"/><g id="E"><use transform="matrix(0.06790123456790124,0,0,0.06790123456790124,0,0)" xlink:href="#by"/><use transform="matrix(0.06790123456790124,0,0,0.06790123456790124,16.296296296296298,0)" xlink:href="#bf"/><use transform="matrix(0.06790123456790124,0,0,0.06790123456790124,33.88271604938272,0)" xlink:href="#bz"/></g><path d="M88-194c31-1 46 15 58 34l-1-101h50l1 261h-48c-2-10 0-23-3-31C134-8 116 4 84 4 32 4 16-41 15-95c0-56 19-97 73-99zm17 164c33 0 40-30 41-66 1-37-9-64-41-64s-38 30-39 65c0 43 13 65 39 65" id="bA"/><path d="M137-138c1-29-70-34-71-4 15 46 118 7 119 86 1 83-164 76-172 9l43-7c4 19 20 25 44 25 33 8 57-30 24-41C81-84 22-81 20-136c-2-80 154-74 161-7" id="bB"/><g id="F"><use transform="matrix(0.06790123456790124,0,0,0.06790123456790124,0,0)" xlink:href="#bA"/><use transform="matrix(0.06790123456790124,0,0,0.06790123456790124,14.870370370370372,0)" xlink:href="#bl"/><use transform="matrix(0.06790123456790124,0,0,0.06790123456790124,28.45061728395062,0)" xlink:href="#bB"/><use transform="matrix(0.06790123456790124,0,0,0.06790123456790124,42.03086419753087,0)" xlink:href="#bv"/><use transform="matrix(0.06790123456790124,0,0,0.06790123456790124,48.820987654320994,0)" xlink:href="#bt"/><use transform="matrix(0.06790123456790124,0,0,0.06790123456790124,63.69135802469137,0)" xlink:href="#bx"/></g><path d="M240-174c0 40-23 61-54 70L253 0h-59l-57-94H76V0H24v-248c93 4 217-23 216 74zM76-134c48-2 112 12 112-38 0-48-66-32-112-35v73" id="bC"/><g id="G"><use transform="matrix(0.06790123456790124,0,0,0.06790123456790124,0,0)" xlink:href="#bC"/><use transform="matrix(0.06790123456790124,0,0,0.06790123456790124,17.58641975308642,0)" xlink:href="#bl"/><use transform="matrix(0.06790123456790124,0,0,0.06790123456790124,31.16666666666667,0)" xlink:href="#bo"/><use transform="matrix(0.06790123456790124,0,0,0.06790123456790124,52.89506172839507,0)" xlink:href="#bg"/><use transform="matrix(0.06790123456790124,0,0,0.06790123456790124,67.76543209876544,0)" xlink:href="#br"/><use transform="matrix(0.06790123456790124,0,0,0.06790123456790124,75.84567901234571,0)" xlink:href="#bl"/></g><path d="M230 0l2-204L168 0h-37L68-204 70 0H24v-248h70l56 185 57-185h69V0h-46" id="bD"/><g id="H"><use transform="matrix(0.06790123456790124,0,0,0.06790123456790124,0,0)" xlink:href="#bD"/><use transform="matrix(0.06790123456790124,0,0,0.06790123456790124,20.302469135802472,0)" xlink:href="#bg"/><use transform="matrix(0.06790123456790124,0,0,0.06790123456790124,35.17283950617284,0)" xlink:href="#bA"/><use transform="matrix(0.06790123456790124,0,0,0.06790123456790124,50.043209876543216,0)" xlink:href="#bi"/><use transform="matrix(0.06790123456790124,0,0,0.06790123456790124,64.91358024691358,0)" xlink:href="#bh"/><use transform="matrix(0.06790123456790124,0,0,0.06790123456790124,71.70370370370371,0)" xlink:href="#bl"/></g><path d="M76-208v77h127v40H76V0H24v-248h183v40H76" id="bE"/><g id="I"><use transform="matrix(0.06790123456790124,0,0,0.06790123456790124,0,0)" xlink:href="#bE"/><use transform="matrix(0.06790123456790124,0,0,0.06790123456790124,14.870370370370372,0)" xlink:href="#bv"/><use transform="matrix(0.06790123456790124,0,0,0.06790123456790124,21.660493827160497,0)" xlink:href="#bh"/><use transform="matrix(0.06790123456790124,0,0,0.06790123456790124,28.45061728395062,0)" xlink:href="#bo"/></g><g id="J"><use transform="matrix(0.06790123456790124,0,0,0.06790123456790124,0,0)" xlink:href="#bf"/><use transform="matrix(0.06790123456790124,0,0,0.06790123456790124,17.58641975308642,0)" xlink:href="#bn"/><use transform="matrix(0.06790123456790124,0,0,0.06790123456790124,31.16666666666667,0)" xlink:href="#bo"/><use transform="matrix(0.06790123456790124,0,0,0.06790123456790124,52.89506172839507,0)" xlink:href="#bl"/><use transform="matrix(0.06790123456790124,0,0,0.06790123456790124,66.47530864197532,0)" xlink:href="#bj"/><use transform="matrix(0.06790123456790124,0,0,0.06790123456790124,75.9814814814815,0)" xlink:href="#bn"/></g><path d="M24 0v-248h52V0H24" id="bF"/><path d="M121-226c-27-7-43 5-38 36h38v33H83V0H34v-157H6v-33h28c-9-59 32-81 87-68v32" id="bG"/><path d="M190-63c-7 42-38 67-86 67-59 0-84-38-90-98-12-110 154-137 174-36l-49 2c-2-19-15-32-35-32-30 0-35 28-38 64-6 74 65 87 74 30" id="bH"/><g id="K"><use transform="matrix(0.06790123456790124,0,0,0.06790123456790124,0,0)" xlink:href="#bF"/><use transform="matrix(0.06790123456790124,0,0,0.06790123456790124,6.790123456790124,0)" xlink:href="#bx"/><use transform="matrix(0.06790123456790124,0,0,0.06790123456790124,21.660493827160497,0)" xlink:href="#br"/><use transform="matrix(0.06790123456790124,0,0,0.06790123456790124,29.740740740740748,0)" xlink:href="#bl"/><use transform="matrix(0.06790123456790124,0,0,0.06790123456790124,43.320987654320994,0)" xlink:href="#bj"/><use transform="matrix(0.06790123456790124,0,0,0.06790123456790124,52.827160493827165,0)" xlink:href="#bG"/><use transform="matrix(0.06790123456790124,0,0,0.06790123456790124,60.90740740740741,0)" xlink:href="#bn"/><use transform="matrix(0.06790123456790124,0,0,0.06790123456790124,74.48765432098766,0)" xlink:href="#bH"/><use transform="matrix(0.06790123456790124,0,0,0.06790123456790124,88.06790123456791,0)" xlink:href="#bl"/></g><path fill="#3a414a" d="M165-50V0h-47v-50H5v-38l105-160h55v161h33v37h-33zm-47-37l2-116L46-87h72" id="bI"/><path fill="#3a414a" d="M101-251c68 0 84 54 84 127C185-50 166 4 99 4S15-52 14-124c-1-75 17-127 87-127zm-1 216c37-5 36-46 36-89s4-89-36-89c-39 0-36 45-36 89 0 43-3 85 36 89" id="bJ"/><g id="L"><use transform="matrix(0.06172839506172839,0,0,0.06172839506172839,0,0)" xlink:href="#ba"/><use transform="matrix(0.06172839506172839,0,0,0.06172839506172839,18.456790123456788,0)" xlink:href="#aD"/><use transform="matrix(0.06172839506172839,0,0,0.06172839506172839,33.2716049382716,0)" xlink:href="#aK"/><use transform="matrix(0.06172839506172839,0,0,0.06172839506172839,48.08641975308642,0)" xlink:href="#bI"/><use transform="matrix(0.06172839506172839,0,0,0.06172839506172839,60.432098765432094,0)" xlink:href="#aL"/><use transform="matrix(0.06172839506172839,0,0,0.06172839506172839,72.77777777777777,0)" xlink:href="#bJ"/></g><path fill="#3a414a" d="M238-95c0 69-44 99-111 99C63 4 22-25 22-93v-155h51v151c-1 38 19 59 55 60 90 1 49-130 58-211h52v153" id="bK"/><g id="M"><use transform="matrix(0.06172839506172839,0,0,0.06172839506172839,0,0)" xlink:href="#ba"/><use transform="matrix(0.06172839506172839,0,0,0.06172839506172839,18.456790123456788,0)" xlink:href="#aF"/><use transform="matrix(0.06172839506172839,0,0,0.06172839506172839,34.44444444444444,0)" xlink:href="#bK"/></g><path fill="#3a414a" d="M220-157c-53 9-28 100-34 157h-49v-107c1-27-5-49-29-50C55-147 81-57 75 0H25l-1-190h47c2 12-1 28 3 38 10-53 101-56 108 0 13-22 24-43 59-42 82 1 51 116 57 194h-49v-107c-1-25-5-48-29-50" id="bL"/><g id="N"><use transform="matrix(0.06172839506172839,0,0,0.06172839506172839,0,0)" xlink:href="#aF"/><use transform="matrix(0.06172839506172839,0,0,0.06172839506172839,15.987654320987653,0)" xlink:href="#aG"/><use transform="matrix(0.06172839506172839,0,0,0.06172839506172839,28.333333333333332,0)" xlink:href="#bL"/><use transform="matrix(0.06172839506172839,0,0,0.06172839506172839,48.08641975308642,0)" xlink:href="#aR"/><use transform="matrix(0.06172839506172839,0,0,0.06172839506172839,60.432098765432094,0)" xlink:href="#aH"/><use transform="matrix(0.06172839506172839,0,0,0.06172839506172839,69.07407407407408,0)" xlink:href="#aG"/></g><path d="M199 0l-22-63H83L61 0H9l90-248h61L250 0h-51zm-33-102l-36-108c-10 38-24 72-36 108h72" id="bM"/><g id="O"><use transform="matrix(0.04938271604938272,0,0,0.04938271604938272,0,0)" xlink:href="#bM"/><use transform="matrix(0.04938271604938272,0,0,0.04938271604938272,12.790123456790125,0)" xlink:href="#bq"/><use transform="matrix(0.04938271604938272,0,0,0.04938271604938272,25.58024691358025,0)" xlink:href="#bf"/></g><g id="P"><use transform="matrix(0.06172839506172839,0,0,0.06172839506172839,0,0)" xlink:href="#aK"/><use transform="matrix(0.06172839506172839,0,0,0.06172839506172839,14.814814814814813,0)" xlink:href="#aP"/><use transform="matrix(0.06172839506172839,0,0,0.06172839506172839,28.33333333333333,0)" xlink:href="#aQ"/><use transform="matrix(0.06172839506172839,0,0,0.06172839506172839,45.61728395061728,0)" xlink:href="#aR"/><use transform="matrix(0.06172839506172839,0,0,0.06172839506172839,57.962962962962955,0)" xlink:href="#aH"/></g><g id="Q"><use transform="matrix(0.06172839506172839,0,0,0.06172839506172839,0,0)" xlink:href="#bb"/><use transform="matrix(0.06172839506172839,0,0,0.06172839506172839,13.518518518518517,0)" xlink:href="#aR"/><use transform="matrix(0.06172839506172839,0,0,0.06172839506172839,25.864197530864196,0)" xlink:href="#aO"/><use transform="matrix(0.06172839506172839,0,0,0.06172839506172839,38.20987654320987,0)" xlink:href="#aR"/><use transform="matrix(0.06172839506172839,0,0,0.06172839506172839,50.55555555555555,0)" xlink:href="#aU"/></g><path fill="#3a414a" d="M115-159c48 0 72 30 72 78 0 54-30 85-83 85-64 0-91-50-91-122 0-98 58-163 141-120 15 8 21 24 27 44l-47 6c-5-31-48-31-61-4-7 14-11 33-11 60 9-17 28-27 53-27zM102-35c24 0 36-20 36-45s-11-43-37-43c-23 0-36 14-36 38 0 27 11 50 37 50" id="bN"/><g id="R"><use transform="matrix(0.06172839506172839,0,0,0.06172839506172839,0,0)" xlink:href="#bb"/><use transform="matrix(0.06172839506172839,0,0,0.06172839506172839,13.518518518518517,0)" xlink:href="#aD"/><use transform="matrix(0.06172839506172839,0,0,0.06172839506172839,28.33333333333333,0)" xlink:href="#ba"/><use transform="matrix(0.06172839506172839,0,0,0.06172839506172839,46.79012345679011,0)" xlink:href="#bN"/><use transform="matrix(0.06172839506172839,0,0,0.06172839506172839,59.13580246913579,0)" xlink:href="#aE"/><use transform="matrix(0.06172839506172839,0,0,0.06172839506172839,75.12345679012344,0)" xlink:href="#aD"/><use transform="matrix(0.06172839506172839,0,0,0.06172839506172839,89.93827160493825,0)" xlink:href="#ba"/><use transform="matrix(0.06172839506172839,0,0,0.06172839506172839,108.39506172839504,0)" xlink:href="#aW"/><use transform="matrix(0.06172839506172839,0,0,0.06172839506172839,121.91358024691355,0)" xlink:href="#aZ"/></g><path fill="#3a414a" d="M24 0v-248h52V0H24" id="bO"/><g id="S"><use transform="matrix(0.06172839506172839,0,0,0.06172839506172839,0,0)" xlink:href="#bO"/><use transform="matrix(0.06172839506172839,0,0,0.06172839506172839,6.172839506172839,0)" xlink:href="#ba"/><use transform="matrix(0.06172839506172839,0,0,0.06172839506172839,24.629629629629626,0)" xlink:href="#bK"/></g><path d="M182-182c0 78-84 86-111 141h115V0H12c-6-101 99-100 120-180 1-22-12-31-33-32-23 0-32 14-35 34l-49-3c5-45 32-70 84-70 51 0 83 22 83 69" id="bP"/><g id="T"><use transform="matrix(0.04938271604938272,0,0,0.04938271604938272,0,0)" xlink:href="#bF"/><use transform="matrix(0.04938271604938272,0,0,0.04938271604938272,4.938271604938272,0)" xlink:href="#bP"/><use transform="matrix(0.04938271604938272,0,0,0.04938271604938272,14.814814814814817,0)" xlink:href="#bf"/></g><path d="M140-251c80 0 125 45 125 126S219 4 139 4C58 4 15-44 15-125s44-126 125-126zm-1 214c52 0 73-35 73-88 0-50-21-86-72-86-52 0-73 35-73 86s22 88 72 88" id="bQ"/><g id="U"><use transform="matrix(0.04938271604938272,0,0,0.04938271604938272,0,0)" xlink:href="#bu"/><use transform="matrix(0.04938271604938272,0,0,0.04938271604938272,13.827160493827162,0)" xlink:href="#by"/><use transform="matrix(0.04938271604938272,0,0,0.04938271604938272,25.679012345679016,0)" xlink:href="#bF"/><use transform="matrix(0.04938271604938272,0,0,0.04938271604938272,30.617283950617285,0)" xlink:href="#bQ"/></g><path d="M169-182c-1-43-94-46-97-3 18 66 151 10 154 114 3 95-165 93-204 36-6-8-10-19-12-30l50-8c3 46 112 56 116 5-17-69-150-10-154-114-4-87 153-88 188-35 5 8 8 18 10 28" id="bR"/><g id="V"><use transform="matrix(0.04938271604938272,0,0,0.04938271604938272,0,0)" xlink:href="#bR"/><use transform="matrix(0.04938271604938272,0,0,0.04938271604938272,11.851851851851853,0)" xlink:href="#by"/><use transform="matrix(0.04938271604938272,0,0,0.04938271604938272,23.703703703703706,0)" xlink:href="#bF"/></g><path d="M238-95c0 69-44 99-111 99C63 4 22-25 22-93v-155h51v151c-1 38 19 59 55 60 90 1 49-130 58-211h52v153" id="bS"/><path d="M136-208V0H84v-208H4v-40h212v40h-80" id="bT"/><g id="W"><use transform="matrix(0.04938271604938272,0,0,0.04938271604938272,0,0)" xlink:href="#bS"/><use transform="matrix(0.04938271604938272,0,0,0.04938271604938272,12.790123456790125,0)" xlink:href="#bM"/><use transform="matrix(0.04938271604938272,0,0,0.04938271604938272,25.58024691358025,0)" xlink:href="#bC"/><use transform="matrix(0.04938271604938272,0,0,0.04938271604938272,38.370370370370374,0)" xlink:href="#bT"/></g><path d="M275 0h-61l-44-196L126 0H64L0-248h53L97-49l45-199h58l43 199 44-199h52" id="bU"/><g id="X"><use transform="matrix(0.04938271604938272,0,0,0.04938271604938272,0,0)" xlink:href="#by"/><use transform="matrix(0.04938271604938272,0,0,0.04938271604938272,11.851851851851853,0)" xlink:href="#bU"/><use transform="matrix(0.04938271604938272,0,0,0.04938271604938272,28.592592592592595,0)" xlink:href="#bD"/></g><g id="Y"><use transform="matrix(0.04938271604938272,0,0,0.04938271604938272,0,0)" xlink:href="#by"/><use transform="matrix(0.04938271604938272,0,0,0.04938271604938272,11.851851851851853,0)" xlink:href="#bU"/><use transform="matrix(0.04938271604938272,0,0,0.04938271604938272,28.592592592592595,0)" xlink:href="#bD"/></g><g id="Z"><use transform="matrix(0.04938271604938272,0,0,0.04938271604938272,0,0)" xlink:href="#bR"/><use transform="matrix(0.04938271604938272,0,0,0.04938271604938272,11.851851851851853,0)" xlink:href="#bv"/><use transform="matrix(0.04938271604938272,0,0,0.04938271604938272,16.790123456790127,0)" xlink:href="#bt"/><use transform="matrix(0.04938271604938272,0,0,0.04938271604938272,27.604938271604947,0)" xlink:href="#bx"/><use transform="matrix(0.04938271604938272,0,0,0.04938271604938272,38.41975308641976,0)" xlink:href="#bn"/><use transform="matrix(0.04938271604938272,0,0,0.04938271604938272,48.296296296296305,0)" xlink:href="#bh"/></g><path d="M101-251c68 0 84 54 84 127C185-50 166 4 99 4S15-52 14-124c-1-75 17-127 87-127zm-1 216c37-5 36-46 36-89s4-89-36-89c-39 0-36 45-36 89 0 43-3 85 36 89" id="bV"/><path d="M182 0l-62-99L58 0H3l86-130-79-118h55l55 88 55-88h55l-75 118L237 0h-55" id="bW"/><g id="aa"><use transform="matrix(0.04938271604938272,0,0,0.04938271604938272,0,0)" xlink:href="#bS"/><use transform="matrix(0.04938271604938272,0,0,0.04938271604938272,12.790123456790125,0)" xlink:href="#bf"/><use transform="matrix(0.04938271604938272,0,0,0.04938271604938272,25.58024691358025,0)" xlink:href="#bM"/><use transform="matrix(0.04938271604938272,0,0,0.04938271604938272,38.370370370370374,0)" xlink:href="#bV"/><use transform="matrix(0.04938271604938272,0,0,0.04938271604938272,48.24691358024692,0)" xlink:href="#bT"/><use transform="matrix(0.04938271604938272,0,0,0.04938271604938272,59.061728395061735,0)" xlink:href="#bW"/><use transform="matrix(0.04938271604938272,0,0,0.04938271604938272,70.91358024691358,0)" xlink:href="#bq"/></g><g id="ab"><use transform="matrix(0.04938271604938272,0,0,0.04938271604938272,0,0)" xlink:href="#bC"/><use transform="matrix(0.04938271604938272,0,0,0.04938271604938272,12.790123456790125,0)" xlink:href="#bW"/><use transform="matrix(0.04938271604938272,0,0,0.04938271604938272,24.641975308641978,0)" xlink:href="#bP"/></g><path fill="#3a414a" d="M135-194c87-1 58 113 63 194h-50c-7-57 23-157-34-157-59 0-34 97-39 157H25l-1-190h47c2 12-1 28 3 38 12-26 28-41 61-42" id="bX"/><path fill="#3a414a" d="M115-3C79 11 28 4 28-45v-112H4v-33h27l15-45h31v45h36v33H77v99c-1 23 16 31 38 25v30" id="bY"/><g id="ac"><use transform="matrix(0.06172839506172839,0,0,0.06172839506172839,0,0)" xlink:href="#aF"/><use transform="matrix(0.06172839506172839,0,0,0.06172839506172839,15.987654320987653,0)" xlink:href="#aS"/><use transform="matrix(0.06172839506172839,0,0,0.06172839506172839,29.50617283950617,0)" xlink:href="#aH"/><use transform="matrix(0.06172839506172839,0,0,0.06172839506172839,38.148148148148145,0)" xlink:href="#aH"/><use transform="matrix(0.06172839506172839,0,0,0.06172839506172839,46.79012345679012,0)" xlink:href="#aR"/><use transform="matrix(0.06172839506172839,0,0,0.06172839506172839,59.1358024691358,0)" xlink:href="#bX"/><use transform="matrix(0.06172839506172839,0,0,0.06172839506172839,72.65432098765432,0)" xlink:href="#bY"/></g><path fill="#3a414a" d="M137-138c1-29-70-34-71-4 15 46 118 7 119 86 1 83-164 76-172 9l43-7c4 19 20 25 44 25 33 8 57-30 24-41C81-84 22-81 20-136c-2-80 154-74 161-7" id="bZ"/><g id="ad"><use transform="matrix(0.06172839506172839,0,0,0.06172839506172839,0,0)" xlink:href="#aD"/><use transform="matrix(0.06172839506172839,0,0,0.06172839506172839,14.814814814814813,0)" xlink:href="#aR"/><use transform="matrix(0.06172839506172839,0,0,0.06172839506172839,27.160493827160494,0)" xlink:href="#bX"/><use transform="matrix(0.06172839506172839,0,0,0.06172839506172839,40.67901234567901,0)" xlink:href="#bZ"/><use transform="matrix(0.06172839506172839,0,0,0.06172839506172839,53.02469135802469,0)" xlink:href="#aR"/></g><path fill="#3a414a" d="M190-63c-7 42-38 67-86 67-59 0-84-38-90-98-12-110 154-137 174-36l-49 2c-2-19-15-32-35-32-30 0-35 28-38 64-6 74 65 87 74 30" id="ca"/><g id="ae"><use transform="matrix(0.06172839506172839,0,0,0.06172839506172839,0,0)" xlink:href="#aF"/><use transform="matrix(0.06172839506172839,0,0,0.06172839506172839,15.987654320987653,0)" xlink:href="#aX"/><use transform="matrix(0.06172839506172839,0,0,0.06172839506172839,22.160493827160494,0)" xlink:href="#aH"/><use transform="matrix(0.06172839506172839,0,0,0.06172839506172839,30.80246913580247,0)" xlink:href="#ca"/><use transform="matrix(0.06172839506172839,0,0,0.06172839506172839,43.148148148148145,0)" xlink:href="#aS"/><use transform="matrix(0.06172839506172839,0,0,0.06172839506172839,56.666666666666664,0)" xlink:href="#aX"/><use transform="matrix(0.06172839506172839,0,0,0.06172839506172839,62.839506172839506,0)" xlink:href="#bY"/></g><path fill="#3a414a" d="M139-81c0-46-55-55-73-27H18l9-140h149v37H72l-4 63c44-38 133-4 122 66C201 21 21 35 11-62l49-4c5 18 15 30 39 30 26 0 40-18 40-45" id="cb"/><g id="af"><use transform="matrix(0.06172839506172839,0,0,0.06172839506172839,0,0)" xlink:href="#cb"/><use transform="matrix(0.06172839506172839,0,0,0.06172839506172839,12.345679012345679,0)" xlink:href="#aO"/></g><path fill="#3a414a" d="M114-157C55-157 80-60 75 0H25v-261h50l-1 109c12-26 28-41 61-42 86-1 58 113 63 194h-50c-7-57 23-157-34-157" id="cc"/><g id="ag"><use transform="matrix(0.06172839506172839,0,0,0.06172839506172839,0,0)" xlink:href="#aK"/><use transform="matrix(0.06172839506172839,0,0,0.06172839506172839,14.814814814814813,0)" xlink:href="#cc"/><use transform="matrix(0.06172839506172839,0,0,0.06172839506172839,28.33333333333333,0)" xlink:href="#aP"/><use transform="matrix(0.06172839506172839,0,0,0.06172839506172839,41.85185185185185,0)" xlink:href="#bY"/><use transform="matrix(0.06172839506172839,0,0,0.06172839506172839,49.197530864197525,0)" xlink:href="#aP"/><use transform="matrix(0.06172839506172839,0,0,0.06172839506172839,62.716049382716044,0)" xlink:href="#aH"/><use transform="matrix(0.06172839506172839,0,0,0.06172839506172839,71.35802469135803,0)" xlink:href="#aR"/><use transform="matrix(0.06172839506172839,0,0,0.06172839506172839,83.70370370370371,0)" xlink:href="#bZ"/><use transform="matrix(0.06172839506172839,0,0,0.06172839506172839,96.0493827160494,0)" xlink:href="#aX"/><use transform="matrix(0.06172839506172839,0,0,0.06172839506172839,102.22222222222223,0)" xlink:href="#bZ"/><use transform="matrix(0.06172839506172839,0,0,0.06172839506172839,114.56790123456791,0)" xlink:href="#bY"/><use transform="matrix(0.06172839506172839,0,0,0.06172839506172839,121.9135802469136,0)" xlink:href="#aP"/><use transform="matrix(0.06172839506172839,0,0,0.06172839506172839,135.4320987654321,0)" xlink:href="#aH"/></g></defs></g></svg>