<svg xmlns="http://www.w3.org/2000/svg" xmlns:xlink="http://www.w3.org/1999/xlink" xmlns:lucid="lucid" width="1284" height="164"><g transform="translate(-278 -3478)" lucid:page-tab-id="0_0"><path d="M508 3506a6 6 0 0 1 6-6h148a6 6 0 0 1 6 6v108a6 6 0 0 1-6 6H514a6 6 0 0 1-6-6z" stroke="#1071e5" stroke-width="4" fill="#fff"/><use xlink:href="#a" transform="matrix(1,0,0,1,520,3512) translate(38.98765432098766 38.77777777777778)"/><use xlink:href="#b" transform="matrix(1,0,0,1,520,3512) translate(13.7716049382716 65.44444444444446)"/><path d="M420 3520c22.1 0 40 17.9 40 40s-17.9 40-40 40h-80c-22.1 0-40-17.9-40-40s17.9-40 40-40z" stroke="#000" stroke-width="4" fill="#fff"/><use xlink:href="#c" transform="matrix(1,0,0,1,312,3532) translate(10.037037037037031 31.77777777777778)"/><path d="M716 3506a6 6 0 0 1 6-6h148a6 6 0 0 1 6 6v108a6 6 0 0 1-6 6H722a6 6 0 0 1-6-6z" stroke="#54c45e" stroke-width="4" fill="#fff"/><use xlink:href="#d" transform="matrix(1,0,0,1,728,3512) translate(19.944444444444436 38.77777777777778)"/><use xlink:href="#e" transform="matrix(1,0,0,1,728,3512) translate(19.327160493827158 65.44444444444446)"/><path d="M924 3506a6 6 0 0 1 6-6h148a6 6 0 0 1 6 6v108a6 6 0 0 1-6 6H930a6 6 0 0 1-6-6z" stroke="#54c45e" stroke-width="4" fill="#fff"/><use xlink:href="#f" transform="matrix(1,0,0,1,936,3512) translate(3.2777777777777857 53.77777777777778)"/><use xlink:href="#g" transform="matrix(1,0,0,1,936,3512) translate(79.69753086419753 53.77777777777778)"/><path d="M1500 3520c22.1 0 40 17.9 40 40s-17.9 40-40 40h-80c-22.1 0-40-17.9-40-40s17.9-40 40-40z" stroke="#1071e5" stroke-width="4" fill="#fff"/><use xlink:href="#h" transform="matrix(1,0,0,1,1385,3525) translate(24.44944444444443 26.52777777777778)"/><use xlink:href="#i" transform="matrix(1,0,0,1,1385,3525) translate(9.665493827160498 53.19444444444445)"/><path d="M1162.45 3505.8a7.8 7.8 0 0 1 7.55-5.8h156a4.6 4.6 0 0 1 4.45 5.8l-28.9 108.4a7.8 7.8 0 0 1-7.55 5.8h-156a4.6 4.6 0 0 1-4.45-5.8z" stroke="#9391ff" stroke-width="4" fill="#fff"/><use xlink:href="#j" transform="matrix(1,0,0,1,1144,3512) translate(17.93709876543209 53.77777777777778)"/><use xlink:href="#k" transform="matrix(1,0,0,1,1144,3512) translate(120.22104938271606 53.77777777777778)"/><path d="M462.5 3560h27.12" stroke="#3a414a" fill="none"/><path d="M462.5 3560.5h-.53l.03-.47-.02-.53h.53z" stroke="#3a414a" stroke-width=".05" fill="#3a414a"/><path d="M504.38 3560l-14.26 4.64v-9.28z" stroke="#3a414a" fill="#3a414a"/><path d="M670.5 3560h27.12" stroke="#3a414a" fill="none"/><path d="M670.5 3560.5h-.5v-1h.5z" stroke="#3a414a" stroke-width=".05" fill="#3a414a"/><path d="M712.38 3560l-14.26 4.64v-9.28z" stroke="#3a414a" fill="#3a414a"/><path d="M878.5 3560h27.12" stroke="#3a414a" fill="none"/><path d="M878.5 3560.5h-.5v-1h.5z" stroke="#3a414a" stroke-width=".05" fill="#3a414a"/><path d="M920.38 3560l-14.26 4.64v-9.28z" stroke="#3a414a" fill="#3a414a"/><path d="M1086.5 3560h43.05" stroke="#3a414a" fill="none"/><path d="M1086.5 3560.5h-.5v-1h.5z" stroke="#3a414a" stroke-width=".05" fill="#3a414a"/><path d="M1144.3 3560l-14.25 4.64v-9.28z" stroke="#3a414a" fill="#3a414a"/><path d="M1318.57 3560h43.05" stroke="#3a414a" fill="none"/><path d="M1318.58 3560.5h-.64l.26-1h.38z" stroke="#3a414a" stroke-width=".05" fill="#3a414a"/><path d="M1376.38 3560l-14.27 4.64.02-9.28z" stroke="#3a414a" fill="#3a414a"/><defs><path fill="#3a414a" d="M185-189c-5-48-123-54-124 2 14 75 158 14 163 119 3 78-121 87-175 55-17-10-28-26-33-46l33-7c5 56 141 63 141-1 0-78-155-14-162-118-5-82 145-84 179-34 5 7 8 16 11 25" id="l"/><path fill="#3a414a" d="M100-194c63 0 86 42 84 106H49c0 40 14 67 53 68 26 1 43-12 49-29l28 8c-11 28-37 45-77 45C44 4 14-33 15-96c1-61 26-98 85-98zm52 81c6-60-76-77-97-28-3 7-6 17-6 28h103" id="m"/><path fill="#3a414a" d="M59-47c-2 24 18 29 38 22v24C64 9 27 4 27-40v-127H5v-23h24l9-43h21v43h35v23H59v120" id="n"/><path fill="#3a414a" d="M84 4C-5 8 30-112 23-190h32v120c0 31 7 50 39 49 72-2 45-101 50-169h31l1 190h-30c-1-10 1-25-2-33-11 22-28 36-60 37" id="o"/><path fill="#3a414a" d="M115-194c55 1 70 41 70 98S169 2 115 4C84 4 66-9 55-30l1 105H24l-1-265h31l2 30c10-21 28-34 59-34zm-8 174c40 0 45-34 45-75s-6-73-45-74c-42 0-51 32-51 76 0 43 10 73 51 73" id="p"/><g id="a"><use transform="matrix(0.06172839506172839,0,0,0.06172839506172839,0,0)" xlink:href="#l"/><use transform="matrix(0.06172839506172839,0,0,0.06172839506172839,14.814814814814813,0)" xlink:href="#m"/><use transform="matrix(0.06172839506172839,0,0,0.06172839506172839,27.160493827160494,0)" xlink:href="#n"/><use transform="matrix(0.06172839506172839,0,0,0.06172839506172839,33.333333333333336,0)" xlink:href="#o"/><use transform="matrix(0.06172839506172839,0,0,0.06172839506172839,45.67901234567901,0)" xlink:href="#p"/></g><path fill="#3a414a" d="M30 0v-248h187v28H63v79h144v27H63v87h162V0H30" id="q"/><path fill="#3a414a" d="M24 0v-261h32V0H24" id="r"/><path fill="#3a414a" d="M96-169c-40 0-48 33-48 73s9 75 48 75c24 0 41-14 43-38l32 2c-6 37-31 61-74 61-59 0-76-41-82-99-10-93 101-131 147-64 4 7 5 14 7 22l-32 3c-4-21-16-35-41-35" id="s"/><path fill="#3a414a" d="M114-163C36-179 61-72 57 0H25l-1-190h30c1 12-1 29 2 39 6-27 23-49 58-41v29" id="t"/><path fill="#3a414a" d="M100-194c62-1 85 37 85 99 1 63-27 99-86 99S16-35 15-95c0-66 28-99 85-99zM99-20c44 1 53-31 53-75 0-43-8-75-51-75s-53 32-53 75 10 74 51 75" id="u"/><path fill="#3a414a" d="M117-194c89-4 53 116 60 194h-32v-121c0-31-8-49-39-48C34-167 62-67 57 0H25l-1-190h30c1 10-1 24 2 32 11-22 29-35 61-36" id="v"/><path fill="#3a414a" d="M24-231v-30h32v30H24zM24 0v-190h32V0H24" id="w"/><path fill="#3a414a" d="M135-143c-3-34-86-38-87 0 15 53 115 12 119 90S17 21 10-45l28-5c4 36 97 45 98 0-10-56-113-15-118-90-4-57 82-63 122-42 12 7 21 19 24 35" id="x"/><g id="b"><use transform="matrix(0.06172839506172839,0,0,0.06172839506172839,0,0)" xlink:href="#q"/><use transform="matrix(0.06172839506172839,0,0,0.06172839506172839,14.814814814814813,0)" xlink:href="#r"/><use transform="matrix(0.06172839506172839,0,0,0.06172839506172839,19.691358024691354,0)" xlink:href="#m"/><use transform="matrix(0.06172839506172839,0,0,0.06172839506172839,32.03703703703703,0)" xlink:href="#s"/><use transform="matrix(0.06172839506172839,0,0,0.06172839506172839,43.14814814814814,0)" xlink:href="#n"/><use transform="matrix(0.06172839506172839,0,0,0.06172839506172839,49.32098765432098,0)" xlink:href="#t"/><use transform="matrix(0.06172839506172839,0,0,0.06172839506172839,56.66666666666666,0)" xlink:href="#u"/><use transform="matrix(0.06172839506172839,0,0,0.06172839506172839,69.01234567901234,0)" xlink:href="#v"/><use transform="matrix(0.06172839506172839,0,0,0.06172839506172839,81.35802469135803,0)" xlink:href="#w"/><use transform="matrix(0.06172839506172839,0,0,0.06172839506172839,86.23456790123457,0)" xlink:href="#s"/><use transform="matrix(0.06172839506172839,0,0,0.06172839506172839,97.34567901234568,0)" xlink:href="#x"/></g><path fill="#3a414a" d="M33 0v-248h34V0H33" id="y"/><path fill="#3a414a" d="M85-194c31 0 48 13 60 33l-1-100h32l1 261h-30c-2-10 0-23-3-31C134-8 116 4 85 4 32 4 16-35 15-94c0-66 23-100 70-100zm9 24c-40 0-46 34-46 75 0 40 6 74 45 74 42 0 51-32 51-76 0-42-9-74-50-73" id="z"/><g id="c"><use transform="matrix(0.06172839506172839,0,0,0.06172839506172839,0,0)" xlink:href="#y"/><use transform="matrix(0.06172839506172839,0,0,0.06172839506172839,6.172839506172839,0)" xlink:href="#v"/><use transform="matrix(0.06172839506172839,0,0,0.06172839506172839,18.51851851851852,0)" xlink:href="#n"/><use transform="matrix(0.06172839506172839,0,0,0.06172839506172839,24.691358024691358,0)" xlink:href="#t"/><use transform="matrix(0.06172839506172839,0,0,0.06172839506172839,32.03703703703704,0)" xlink:href="#u"/><use transform="matrix(0.06172839506172839,0,0,0.06172839506172839,44.382716049382715,0)" xlink:href="#z"/><use transform="matrix(0.06172839506172839,0,0,0.06172839506172839,56.72839506172839,0)" xlink:href="#o"/><use transform="matrix(0.06172839506172839,0,0,0.06172839506172839,69.07407407407408,0)" xlink:href="#s"/><use transform="matrix(0.06172839506172839,0,0,0.06172839506172839,80.18518518518519,0)" xlink:href="#n"/><use transform="matrix(0.06172839506172839,0,0,0.06172839506172839,86.35802469135803,0)" xlink:href="#w"/><use transform="matrix(0.06172839506172839,0,0,0.06172839506172839,91.23456790123457,0)" xlink:href="#u"/><use transform="matrix(0.06172839506172839,0,0,0.06172839506172839,103.58024691358025,0)" xlink:href="#v"/></g><path fill="#3a414a" d="M212-179c-10-28-35-45-73-45-59 0-87 40-87 99 0 60 29 101 89 101 43 0 62-24 78-52l27 14C228-24 195 4 139 4 59 4 22-46 18-125c-6-104 99-153 187-111 19 9 31 26 39 46" id="A"/><path fill="#3a414a" d="M101-234c-31-9-42 10-38 44h38v23H63V0H32v-167H5v-23h27c-7-52 17-82 69-68v24" id="B"/><path fill="#3a414a" d="M177-190C167-65 218 103 67 71c-23-6-38-20-44-43l32-5c15 47 100 32 89-28v-30C133-14 115 1 83 1 29 1 15-40 15-95c0-56 16-97 71-98 29-1 48 16 59 35 1-10 0-23 2-32h30zM94-22c36 0 50-32 50-73 0-42-14-75-50-75-39 0-46 34-46 75s6 73 46 73" id="C"/><g id="d"><use transform="matrix(0.06172839506172839,0,0,0.06172839506172839,0,0)" xlink:href="#A"/><use transform="matrix(0.06172839506172839,0,0,0.06172839506172839,15.987654320987653,0)" xlink:href="#u"/><use transform="matrix(0.06172839506172839,0,0,0.06172839506172839,28.333333333333332,0)" xlink:href="#v"/><use transform="matrix(0.06172839506172839,0,0,0.06172839506172839,40.67901234567901,0)" xlink:href="#B"/><use transform="matrix(0.06172839506172839,0,0,0.06172839506172839,46.851851851851855,0)" xlink:href="#w"/><use transform="matrix(0.06172839506172839,0,0,0.06172839506172839,51.7283950617284,0)" xlink:href="#C"/><use transform="matrix(0.06172839506172839,0,0,0.06172839506172839,64.07407407407408,0)" xlink:href="#o"/><use transform="matrix(0.06172839506172839,0,0,0.06172839506172839,76.41975308641976,0)" xlink:href="#t"/><use transform="matrix(0.06172839506172839,0,0,0.06172839506172839,83.76543209876544,0)" xlink:href="#m"/></g><path fill="#3a414a" d="M210-169c-67 3-38 105-44 169h-31v-121c0-29-5-50-35-48C34-165 62-65 56 0H25l-1-190h30c1 10-1 24 2 32 10-44 99-50 107 0 11-21 27-35 58-36 85-2 47 119 55 194h-31v-121c0-29-5-49-35-48" id="D"/><g id="e"><use transform="matrix(0.06172839506172839,0,0,0.06172839506172839,0,0)" xlink:href="#A"/><use transform="matrix(0.06172839506172839,0,0,0.06172839506172839,15.987654320987653,0)" xlink:href="#u"/><use transform="matrix(0.06172839506172839,0,0,0.06172839506172839,28.333333333333332,0)" xlink:href="#D"/><use transform="matrix(0.06172839506172839,0,0,0.06172839506172839,46.79012345679012,0)" xlink:href="#p"/><use transform="matrix(0.06172839506172839,0,0,0.06172839506172839,59.1358024691358,0)" xlink:href="#o"/><use transform="matrix(0.06172839506172839,0,0,0.06172839506172839,71.48148148148148,0)" xlink:href="#n"/><use transform="matrix(0.06172839506172839,0,0,0.06172839506172839,77.65432098765432,0)" xlink:href="#m"/><use transform="matrix(0.06172839506172839,0,0,0.06172839506172839,90,0)" xlink:href="#t"/></g><path fill="#3a414a" d="M232-93c-1 65-40 97-104 97C67 4 28-28 28-90v-158h33c8 89-33 224 67 224 102 0 64-133 71-224h33v155" id="E"/><path fill="#3a414a" d="M141-36C126-15 110 5 73 4 37 3 15-17 15-53c-1-64 63-63 125-63 3-35-9-54-41-54-24 1-41 7-42 31l-33-3c5-37 33-52 76-52 45 0 72 20 72 64v82c-1 20 7 32 28 27v20c-31 9-61-2-59-35zM48-53c0 20 12 33 32 33 41-3 63-29 60-74-43 2-92-5-92 41" id="F"/><g id="f"><use transform="matrix(0.06172839506172839,0,0,0.06172839506172839,0,0)" xlink:href="#E"/><use transform="matrix(0.06172839506172839,0,0,0.06172839506172839,15.987654320987653,0)" xlink:href="#p"/><use transform="matrix(0.06172839506172839,0,0,0.06172839506172839,28.333333333333332,0)" xlink:href="#r"/><use transform="matrix(0.06172839506172839,0,0,0.06172839506172839,33.20987654320987,0)" xlink:href="#u"/><use transform="matrix(0.06172839506172839,0,0,0.06172839506172839,45.55555555555555,0)" xlink:href="#F"/><use transform="matrix(0.06172839506172839,0,0,0.06172839506172839,57.90123456790123,0)" xlink:href="#z"/></g><g id="g"><use transform="matrix(0.06172839506172839,0,0,0.06172839506172839,0,0)" xlink:href="#A"/><use transform="matrix(0.06172839506172839,0,0,0.06172839506172839,15.987654320987653,0)" xlink:href="#u"/><use transform="matrix(0.06172839506172839,0,0,0.06172839506172839,28.333333333333332,0)" xlink:href="#z"/><use transform="matrix(0.06172839506172839,0,0,0.06172839506172839,40.67901234567901,0)" xlink:href="#m"/></g><g id="h"><use transform="matrix(0.06172839506172839,0,0,0.06172839506172839,0,0)" xlink:href="#A"/><use transform="matrix(0.06172839506172839,0,0,0.06172839506172839,15.987654320987653,0)" xlink:href="#u"/><use transform="matrix(0.06172839506172839,0,0,0.06172839506172839,28.333333333333332,0)" xlink:href="#v"/><use transform="matrix(0.06172839506172839,0,0,0.06172839506172839,40.67901234567901,0)" xlink:href="#n"/><use transform="matrix(0.06172839506172839,0,0,0.06172839506172839,46.851851851851855,0)" xlink:href="#w"/><use transform="matrix(0.06172839506172839,0,0,0.06172839506172839,51.7283950617284,0)" xlink:href="#v"/><use transform="matrix(0.06172839506172839,0,0,0.06172839506172839,64.07407407407408,0)" xlink:href="#o"/><use transform="matrix(0.06172839506172839,0,0,0.06172839506172839,76.41975308641976,0)" xlink:href="#m"/><use transform="matrix(0.06172839506172839,0,0,0.06172839506172839,88.76543209876544,0)" xlink:href="#z"/></g><path fill="#3a414a" d="M30-248c118-7 216 8 213 122C240-48 200 0 122 0H30v-248zM63-27c89 8 146-16 146-99s-60-101-146-95v194" id="G"/><path fill="#3a414a" d="M108 0H70L1-190h34L89-25l56-165h34" id="H"/><g id="i"><use transform="matrix(0.06172839506172839,0,0,0.06172839506172839,0,0)" xlink:href="#G"/><use transform="matrix(0.06172839506172839,0,0,0.06172839506172839,15.987654320987653,0)" xlink:href="#m"/><use transform="matrix(0.06172839506172839,0,0,0.06172839506172839,28.333333333333332,0)" xlink:href="#H"/><use transform="matrix(0.06172839506172839,0,0,0.06172839506172839,39.44444444444444,0)" xlink:href="#m"/><use transform="matrix(0.06172839506172839,0,0,0.06172839506172839,51.79012345679012,0)" xlink:href="#r"/><use transform="matrix(0.06172839506172839,0,0,0.06172839506172839,56.666666666666664,0)" xlink:href="#u"/><use transform="matrix(0.06172839506172839,0,0,0.06172839506172839,69.01234567901234,0)" xlink:href="#p"/><use transform="matrix(0.06172839506172839,0,0,0.06172839506172839,81.35802469135803,0)" xlink:href="#D"/><use transform="matrix(0.06172839506172839,0,0,0.06172839506172839,99.81481481481481,0)" xlink:href="#m"/><use transform="matrix(0.06172839506172839,0,0,0.06172839506172839,112.1604938271605,0)" xlink:href="#v"/><use transform="matrix(0.06172839506172839,0,0,0.06172839506172839,124.50617283950618,0)" xlink:href="#n"/></g><g id="j"><use transform="matrix(0.06172839506172839,0,0,0.06172839506172839,0,0)" xlink:href="#A"/><use transform="matrix(0.06172839506172839,0,0,0.06172839506172839,15.987654320987653,0)" xlink:href="#u"/><use transform="matrix(0.06172839506172839,0,0,0.06172839506172839,28.333333333333332,0)" xlink:href="#v"/><use transform="matrix(0.06172839506172839,0,0,0.06172839506172839,40.67901234567901,0)" xlink:href="#B"/><use transform="matrix(0.06172839506172839,0,0,0.06172839506172839,46.851851851851855,0)" xlink:href="#w"/><use transform="matrix(0.06172839506172839,0,0,0.06172839506172839,51.7283950617284,0)" xlink:href="#C"/><use transform="matrix(0.06172839506172839,0,0,0.06172839506172839,64.07407407407408,0)" xlink:href="#o"/><use transform="matrix(0.06172839506172839,0,0,0.06172839506172839,76.41975308641976,0)" xlink:href="#t"/><use transform="matrix(0.06172839506172839,0,0,0.06172839506172839,83.76543209876544,0)" xlink:href="#m"/></g><path fill="#3a414a" d="M266 0h-40l-56-210L115 0H75L2-248h35L96-30l15-64 43-154h32l59 218 59-218h35" id="I"/><g id="k"><use transform="matrix(0.06172839506172839,0,0,0.06172839506172839,0,0)" xlink:href="#I"/><use transform="matrix(0.06172839506172839,0,0,0.06172839506172839,20.925925925925924,0)" xlink:href="#w"/><use transform="matrix(0.06172839506172839,0,0,0.06172839506172839,25.80246913580247,0)" xlink:href="#B"/><use transform="matrix(0.06172839506172839,0,0,0.06172839506172839,31.975308641975307,0)" xlink:href="#w"/></g></defs></g></svg>