<svg xmlns="http://www.w3.org/2000/svg" xmlns:xlink="http://www.w3.org/1999/xlink" xmlns:lucid="lucid" width="1221.45" height="504"><g transform="translate(20.45402409663801 -2498)" lucid:page-tab-id="0_0"><path d="M740 2606a6 6 0 0 1 6-6h193a6 6 0 0 1 6 6v8a14.48 14.48 0 0 1-4.24 10.24l-1.52 1.52A14.48 14.48 0 0 1 929 2630H746a6 6 0 0 1-6-6z" fill="#fff"/><path d="M945 2600v20l-10 10H740" fill="none"/><path d="M945 2600v20l-10 10h-9.3m-9.27 0h-18.57m-9.3 0H870m-9.3 0h-18.56m-9.28 0H814.3m-9.3 0h-18.57m-9.3 0h-18.56m-9.28 0H740" stroke="#3a414a" stroke-width="2" fill="none"/><path d="M740 2606a6 6 0 0 1 6-6h428a6 6 0 0 1 6 6v328a6 6 0 0 1-6 6H746a6 6 0 0 1-6-6z" fill="none"/><path d="M766.38 2600h20.38m10.2 0h20.37m10.2 0h20.38m10.2 0h20.38m10.2 0h20.37m10.2 0h20.37m10.2 0h20.37m10.18 0h20.38m10.2 0h20.37m10.2 0h20.38m10.2 0h20.38m10.2 0h20.37m10.2 0h20.37m10.2 0H1174l.94.07.9.22.88.35.8.5.72.6.6.72.5.8.37.88.23.9.07.95v9.94m0 9.94v19.88m0 9.94v19.88m0 9.93v19.9m0 9.93v19.88m0 9.95v19.88m0 9.94v19.88m0 9.94v19.87m0 9.94v19.9m0 9.92v19.88m0 9.94v19.88m0 9.94v9.94l-.07.94-.22.9-.35.88-.5.8-.6.72-.72.6-.8.5-.88.37-.9.23-.95.07h-10.2m-10.18 0h-20.38m-10.2 0h-20.37m-10.2 0h-20.38m-10.2 0h-20.38m-10.2 0h-20.37m-10.2 0H980.4m-10.2 0h-20.37m-10.18 0h-20.38m-10.2 0h-20.37m-10.2 0H858.1m-10.2 0h-20.38m-10.2 0h-20.37m-10.2 0H766.4m-10.2 0H746l-.94-.07-.9-.22-.88-.35-.8-.5-.72-.6-.6-.72-.5-.8-.37-.88-.23-.9-.07-.95v-9.94m0-9.94v-19.88m0-9.94v-19.88m0-9.93v-19.9m0-9.93v-19.88m0-9.95v-19.88m0-9.94v-19.88m0-9.94v-19.87m0-9.94v-19.9m0-9.92v-19.88m0-9.94v-19.88m0-9.94V2606l.07-.94.22-.9.35-.88.5-.8.6-.72.72-.6.8-.5.88-.37.9-.23.95-.07h10.2" stroke="#3a414a" stroke-width="2" fill="none"/><use xlink:href="#a" transform="matrix(1,0,0,1,748,2600) translate(0 18.6)"/><use xlink:href="#b" transform="matrix(1,0,0,1,748,2600) translate(123.70000000000002 18.6)"/><path d="M90.45 2525.8A7.8 7.8 0 0 1 98 2520h140.22a4.6 4.6 0 0 1 4.45 5.8l-28.9 108.4a7.8 7.8 0 0 1-7.55 5.8H66a4.6 4.6 0 0 1-4.45-5.8z" stroke="#9391ff" stroke-width="4" fill="#fff"/><use xlink:href="#c" transform="matrix(1,0,0,1,72,2532) translate(25.387716049382703 38.77777777777778)"/><use xlink:href="#d" transform="matrix(1,0,0,1,72,2532) translate(14.221049382716041 65.44444444444446)"/><path d="M320 2706a6 6 0 0 1 6-6h148a6 6 0 0 1 6 6v108a6 6 0 0 1-6 6H326a6 6 0 0 1-6-6z" stroke="#54c45e" stroke-width="4" fill="#fff"/><use xlink:href="#e" transform="matrix(1,0,0,1,332,2712) translate(17.290123456790127 38.77777777777778)"/><use xlink:href="#f" transform="matrix(1,0,0,1,332,2712) translate(6.950617283950621 65.44444444444446)"/><use xlink:href="#g" transform="matrix(1,0,0,1,332,2712) translate(59.97530864197531 65.44444444444446)"/><path d="M70.45 2705.8A7.8 7.8 0 0 1 78 2700h140.22a4.6 4.6 0 0 1 4.45 5.8l-28.9 108.4a7.8 7.8 0 0 1-7.55 5.8H46a4.6 4.6 0 0 1-4.45-5.8z" stroke="#9391ff" stroke-width="4" fill="#fff"/><use xlink:href="#h" transform="matrix(1,0,0,1,52,2712) translate(26.80746913580247 38.77777777777778)"/><use xlink:href="#i" transform="matrix(1,0,0,1,52,2712) translate(72.42475308641976 38.77777777777778)"/><use xlink:href="#j" transform="matrix(1,0,0,1,52,2712) translate(50.949444444444445 65.44444444444446)"/><path d="M30.45 2865.8A7.8 7.8 0 0 1 38 2860h200.22a4.6 4.6 0 0 1 4.45 5.8l-28.9 108.4a7.8 7.8 0 0 1-7.55 5.8H6a4.6 4.6 0 0 1-4.45-5.8z" stroke="#9391ff" stroke-width="4" fill="#fff"/><use xlink:href="#k" transform="matrix(1,0,0,1,12,2872) translate(31.971666666666657 37.2)"/><use xlink:href="#l" transform="matrix(1,0,0,1,12,2872) translate(114.57166666666667 37.2)"/><use xlink:href="#m" transform="matrix(1,0,0,1,12,2872) translate(165.17166666666668 37.2)"/><use xlink:href="#n" transform="matrix(1,0,0,1,12,2872) translate(10.471666666666659 66)"/><use xlink:href="#o" transform="matrix(1,0,0,1,12,2872) translate(114.27166666666666 66)"/><path d="M780 2706a6 6 0 0 1 6-6h148a6 6 0 0 1 6 6v108a6 6 0 0 1-6 6H786a6 6 0 0 1-6-6z" stroke="#1071e5" stroke-width="4" fill="#fff"/><use xlink:href="#p" transform="matrix(1,0,0,1,792,2712) translate(-5.271604938271608 25.77777777777778)"/><use xlink:href="#q" transform="matrix(1,0,0,1,792,2712) translate(30.407407407407412 52.44444444444445)"/><use xlink:href="#r" transform="matrix(1,0,0,1,792,2712) translate(21.20987654320988 79.11111111111111)"/><path d="M1120 2720c22.1 0 40 17.9 40 40s-17.9 40-40 40h-80c-22.1 0-40-17.9-40-40s17.9-40 40-40z" stroke="#1071e5" stroke-width="4" fill="#fff"/><use xlink:href="#s" transform="matrix(1,0,0,1,1005,2725) translate(11.543209876543216 39.65277777777778)"/><use xlink:href="#t" transform="matrix(1,0,0,1,1005,2725) translate(65.80246913580248 39.65277777777778)"/><path d="M942.5 2760h39.12" stroke="#3a414a" fill="none"/><path d="M942.5 2760.5h-.5v-1h.5z" stroke="#3a414a" stroke-width=".05" fill="#3a414a"/><path d="M996.38 2760l-14.26 4.64v-9.28z" stroke="#3a414a" fill="#3a414a"/><path d="M1120 2620c22.1 0 40 17.9 40 40s-17.9 40-40 40h-80c-22.1 0-40-17.9-40-40s17.9-40 40-40z" stroke="#1071e5" stroke-width="4" fill="#fff"/><use xlink:href="#u" transform="matrix(1,0,0,1,1005,2625) translate(19.320987654320994 39.65277777777778)"/><use xlink:href="#v" transform="matrix(1,0,0,1,1005,2625) translate(69.81481481481481 39.65277777777778)"/><path d="M942.5 2760H964a6 6 0 0 0 6-6v-88a6 6 0 0 1 6-6h5.62" stroke="#3a414a" fill="none"/><path d="M942.5 2760.5h-.5v-1h.5z" stroke="#3a414a" stroke-width=".05" fill="#3a414a"/><path d="M996.38 2660l-14.26 4.64v-9.28z" stroke="#3a414a" fill="#3a414a"/><path d="M1120 2840c22.1 0 40 17.9 40 40s-17.9 40-40 40h-80c-22.1 0-40-17.9-40-40s17.9-40 40-40z" stroke="#1071e5" stroke-width="4" fill="#fff"/><use xlink:href="#w" transform="matrix(1,0,0,1,1005,2845) translate(43.955617283950616 26.52777777777778)"/><use xlink:href="#x" transform="matrix(1,0,0,1,1005,2845) translate(15.776604938271591 53.19444444444445)"/><path d="M942.5 2760H964a6 6 0 0 1 6 6v108a6 6 0 0 0 6 6h5.62" stroke="#3a414a" fill="none"/><path d="M942.5 2760.5h-.5v-1h.5z" stroke="#3a414a" stroke-width=".05" fill="#3a414a"/><path d="M996.38 2880l-14.26 4.64v-9.28z" stroke="#3a414a" fill="#3a414a"/><path d="M230.8 2920h37.34a6 6 0 0 0 6-6v-148a6 6 0 0 1 6-6h21.48" stroke="#3a414a" fill="none"/><path d="M230.8 2920.5h-.65l.27-1h.38z" stroke="#3a414a" stroke-width=".05" fill="#3a414a"/><path d="M316.38 2760l-14.26 4.64v-9.28z" stroke="#3a414a" fill="#3a414a"/><path d="M210.8 2760h90.82" stroke="#3a414a" fill="none"/><path d="M210.8 2760.5h-.65l.27-1h.38z" stroke="#3a414a" stroke-width=".05" fill="#3a414a"/><path d="M316.38 2760l-14.26 4.64v-9.28z" stroke="#3a414a" fill="#3a414a"/><path d="M230.8 2580h37.34a6 6 0 0 1 6 6v168a6 6 0 0 0 6 6h21.48" stroke="#3a414a" fill="none"/><path d="M230.8 2580.5h-.65l.27-1h.38z" stroke="#3a414a" stroke-width=".05" fill="#3a414a"/><path d="M316.38 2760l-14.26 4.64v-9.28z" stroke="#3a414a" fill="#3a414a"/><path d="M440 2546a6 6 0 0 1 6-6h128a6 6 0 0 1 6 6v108a6 6 0 0 1-6 6H446a6 6 0 0 1-6-6z" stroke="#54c45e" stroke-width="4" fill="#fff"/><g><use xlink:href="#y" transform="matrix(1,0,0,1,452,2552) translate(8.648148148148138 38.77777777777778)"/><use xlink:href="#z" transform="matrix(1,0,0,1,452,2552) translate(10.5 65.44444444444446)"/></g><path d="M400 2697.5V2606a6 6 0 0 1 6-6h15.62" stroke="#3a414a" fill="none"/><path d="M400.5 2698h-1v-.5h1z" stroke="#3a414a" stroke-width=".05" fill="#3a414a"/><path d="M436.38 2600l-14.26 4.64v-9.28z" stroke="#3a414a" fill="#3a414a"/><path d="M530 2706a6 6 0 0 1 6-6h148a6 6 0 0 1 6 6v108a6 6 0 0 1-6 6H536a6 6 0 0 1-6-6z" stroke="#54c45e" stroke-width="4" fill="#fff"/><g><use xlink:href="#e" transform="matrix(1,0,0,1,542,2712) translate(17.290123456790127 38.77777777777778)"/><use xlink:href="#A" transform="matrix(1,0,0,1,542,2712) translate(16.827160493827165 65.44444444444446)"/><use xlink:href="#B" transform="matrix(1,0,0,1,542,2712) translate(83.37037037037037 65.44444444444446)"/></g><path d="M692.5 2760h69.12" stroke="#3a414a" fill="none"/><path d="M692.5 2760.5h-.5v-1h.5z" stroke="#3a414a" stroke-width=".05" fill="#3a414a"/><path d="M776.38 2760l-14.26 4.64v-9.28z" stroke="#3a414a" fill="#3a414a"/><path d="M582.5 2600H604a6 6 0 0 1 6 6v75.62" stroke="#3a414a" fill="none"/><path d="M582.5 2600.5h-.5v-1h.5z" stroke="#3a414a" stroke-width=".05" fill="#3a414a"/><path d="M610 2696.38l-4.63-14.26h9.26z" stroke="#3a414a" fill="#3a414a"/><defs><path d="M240 0l2-218c-23 76-54 145-80 218h-23L58-218 59 0H30v-248h44l77 211c21-75 51-140 76-211h43V0h-30" id="C"/><path d="M24-231v-30h32v30H24zM24 0v-190h32V0H24" id="D"/><path d="M96-169c-40 0-48 33-48 73s9 75 48 75c24 0 41-14 43-38l32 2c-6 37-31 61-74 61-59 0-76-41-82-99-10-93 101-131 147-64 4 7 5 14 7 22l-32 3c-4-21-16-35-41-35" id="E"/><path d="M114-163C36-179 61-72 57 0H25l-1-190h30c1 12-1 29 2 39 6-27 23-49 58-41v29" id="F"/><path d="M100-194c62-1 85 37 85 99 1 63-27 99-86 99S16-35 15-95c0-66 28-99 85-99zM99-20c44 1 53-31 53-75 0-43-8-75-51-75s-53 32-53 75 10 74 51 75" id="G"/><path d="M16-82v-28h88v28H16" id="H"/><path d="M33 0v-248h34V0H33" id="I"/><path d="M117-194c89-4 53 116 60 194h-32v-121c0-31-8-49-39-48C34-167 62-67 57 0H25l-1-190h30c1 10-1 24 2 32 11-22 29-35 61-36" id="J"/><path d="M85-194c31 0 48 13 60 33l-1-100h32l1 261h-30c-2-10 0-23-3-31C134-8 116 4 85 4 32 4 16-35 15-94c0-66 23-100 70-100zm9 24c-40 0-46 34-46 75 0 40 6 74 45 74 42 0 51-32 51-76 0-42-9-74-50-73" id="K"/><path d="M141-36C126-15 110 5 73 4 37 3 15-17 15-53c-1-64 63-63 125-63 3-35-9-54-41-54-24 1-41 7-42 31l-33-3c5-37 33-52 76-52 45 0 72 20 72 64v82c-1 20 7 32 28 27v20c-31 9-61-2-59-35zM48-53c0 20 12 33 32 33 41-3 63-29 60-74-43 2-92-5-92 41" id="L"/><path d="M59-47c-2 24 18 29 38 22v24C64 9 27 4 27-40v-127H5v-23h24l9-43h21v43h35v23H59v120" id="M"/><g id="a"><use transform="matrix(0.05,0,0,0.05,0,0)" xlink:href="#C"/><use transform="matrix(0.05,0,0,0.05,14.950000000000001,0)" xlink:href="#D"/><use transform="matrix(0.05,0,0,0.05,18.900000000000002,0)" xlink:href="#E"/><use transform="matrix(0.05,0,0,0.05,27.900000000000002,0)" xlink:href="#F"/><use transform="matrix(0.05,0,0,0.05,33.85,0)" xlink:href="#G"/><use transform="matrix(0.05,0,0,0.05,43.85,0)" xlink:href="#H"/><use transform="matrix(0.05,0,0,0.05,49.800000000000004,0)" xlink:href="#I"/><use transform="matrix(0.05,0,0,0.05,54.800000000000004,0)" xlink:href="#J"/><use transform="matrix(0.05,0,0,0.05,64.80000000000001,0)" xlink:href="#K"/><use transform="matrix(0.05,0,0,0.05,74.80000000000001,0)" xlink:href="#D"/><use transform="matrix(0.05,0,0,0.05,78.75000000000001,0)" xlink:href="#E"/><use transform="matrix(0.05,0,0,0.05,87.75000000000001,0)" xlink:href="#L"/><use transform="matrix(0.05,0,0,0.05,97.75000000000001,0)" xlink:href="#M"/><use transform="matrix(0.05,0,0,0.05,102.75,0)" xlink:href="#G"/><use transform="matrix(0.05,0,0,0.05,112.75,0)" xlink:href="#F"/></g><path d="M30-248c118-7 216 8 213 122C240-48 200 0 122 0H30v-248zM63-27c89 8 146-16 146-99s-60-101-146-95v194" id="N"/><path d="M100-194c63 0 86 42 84 106H49c0 40 14 67 53 68 26 1 43-12 49-29l28 8c-11 28-37 45-77 45C44 4 14-33 15-96c1-61 26-98 85-98zm52 81c6-60-76-77-97-28-3 7-6 17-6 28h103" id="O"/><path d="M108 0H70L1-190h34L89-25l56-165h34" id="P"/><g id="b"><use transform="matrix(0.05,0,0,0.05,0,0)" xlink:href="#N"/><use transform="matrix(0.05,0,0,0.05,12.950000000000001,0)" xlink:href="#O"/><use transform="matrix(0.05,0,0,0.05,22.950000000000003,0)" xlink:href="#P"/><use transform="matrix(0.05,0,0,0.05,31.950000000000003,0)" xlink:href="#D"/><use transform="matrix(0.05,0,0,0.05,35.900000000000006,0)" xlink:href="#E"/><use transform="matrix(0.05,0,0,0.05,44.900000000000006,0)" xlink:href="#O"/></g><path fill="#3a414a" d="M127-220V0H93v-220H8v-28h204v28h-85" id="Q"/><path fill="#3a414a" d="M114-163C36-179 61-72 57 0H25l-1-190h30c1 12-1 29 2 39 6-27 23-49 58-41v29" id="R"/><path fill="#3a414a" d="M141-36C126-15 110 5 73 4 37 3 15-17 15-53c-1-64 63-63 125-63 3-35-9-54-41-54-24 1-41 7-42 31l-33-3c5-37 33-52 76-52 45 0 72 20 72 64v82c-1 20 7 32 28 27v20c-31 9-61-2-59-35zM48-53c0 20 12 33 32 33 41-3 63-29 60-74-43 2-92-5-92 41" id="S"/><path fill="#3a414a" d="M117-194c89-4 53 116 60 194h-32v-121c0-31-8-49-39-48C34-167 62-67 57 0H25l-1-190h30c1 10-1 24 2 32 11-22 29-35 61-36" id="T"/><path fill="#3a414a" d="M135-143c-3-34-86-38-87 0 15 53 115 12 119 90S17 21 10-45l28-5c4 36 97 45 98 0-10-56-113-15-118-90-4-57 82-63 122-42 12 7 21 19 24 35" id="U"/><path fill="#3a414a" d="M115-194c55 1 70 41 70 98S169 2 115 4C84 4 66-9 55-30l1 105H24l-1-265h31l2 30c10-21 28-34 59-34zm-8 174c40 0 45-34 45-75s-6-73-45-74c-42 0-51 32-51 76 0 43 10 73 51 73" id="V"/><path fill="#3a414a" d="M100-194c62-1 85 37 85 99 1 63-27 99-86 99S16-35 15-95c0-66 28-99 85-99zM99-20c44 1 53-31 53-75 0-43-8-75-51-75s-53 32-53 75 10 74 51 75" id="W"/><path fill="#3a414a" d="M206 0h-36l-40-164L89 0H53L-1-190h32L70-26l43-164h34l41 164 42-164h31" id="X"/><path fill="#3a414a" d="M100-194c63 0 86 42 84 106H49c0 40 14 67 53 68 26 1 43-12 49-29l28 8c-11 28-37 45-77 45C44 4 14-33 15-96c1-61 26-98 85-98zm52 81c6-60-76-77-97-28-3 7-6 17-6 28h103" id="Y"/><g id="c"><use transform="matrix(0.06172839506172839,0,0,0.06172839506172839,0,0)" xlink:href="#Q"/><use transform="matrix(0.06172839506172839,0,0,0.06172839506172839,12.716049382716047,0)" xlink:href="#R"/><use transform="matrix(0.06172839506172839,0,0,0.06172839506172839,20.061728395061728,0)" xlink:href="#S"/><use transform="matrix(0.06172839506172839,0,0,0.06172839506172839,32.407407407407405,0)" xlink:href="#T"/><use transform="matrix(0.06172839506172839,0,0,0.06172839506172839,44.75308641975308,0)" xlink:href="#U"/><use transform="matrix(0.06172839506172839,0,0,0.06172839506172839,55.86419753086419,0)" xlink:href="#V"/><use transform="matrix(0.06172839506172839,0,0,0.06172839506172839,68.20987654320987,0)" xlink:href="#W"/><use transform="matrix(0.06172839506172839,0,0,0.06172839506172839,80.55555555555556,0)" xlink:href="#X"/><use transform="matrix(0.06172839506172839,0,0,0.06172839506172839,96.54320987654322,0)" xlink:href="#Y"/><use transform="matrix(0.06172839506172839,0,0,0.06172839506172839,108.8888888888889,0)" xlink:href="#R"/></g><path fill="#3a414a" d="M30-248c118-7 216 8 213 122C240-48 200 0 122 0H30v-248zM63-27c89 8 146-16 146-99s-60-101-146-95v194" id="Z"/><path fill="#3a414a" d="M59-47c-2 24 18 29 38 22v24C64 9 27 4 27-40v-127H5v-23h24l9-43h21v43h35v23H59v120" id="aa"/><path fill="#3a414a" d="M84 4C-5 8 30-112 23-190h32v120c0 31 7 50 39 49 72-2 45-101 50-169h31l1 190h-30c-1-10 1-25-2-33-11 22-28 36-60 37" id="ab"/><path fill="#3a414a" d="M96-169c-40 0-48 33-48 73s9 75 48 75c24 0 41-14 43-38l32 2c-6 37-31 61-74 61-59 0-76-41-82-99-10-93 101-131 147-64 4 7 5 14 7 22l-32 3c-4-21-16-35-41-35" id="ac"/><g id="d"><use transform="matrix(0.06172839506172839,0,0,0.06172839506172839,0,0)" xlink:href="#Z"/><use transform="matrix(0.06172839506172839,0,0,0.06172839506172839,15.987654320987653,0)" xlink:href="#S"/><use transform="matrix(0.06172839506172839,0,0,0.06172839506172839,28.333333333333332,0)" xlink:href="#aa"/><use transform="matrix(0.06172839506172839,0,0,0.06172839506172839,34.50617283950617,0)" xlink:href="#S"/><use transform="matrix(0.06172839506172839,0,0,0.06172839506172839,46.85185185185185,0)" xlink:href="#U"/><use transform="matrix(0.06172839506172839,0,0,0.06172839506172839,57.96296296296296,0)" xlink:href="#W"/><use transform="matrix(0.06172839506172839,0,0,0.06172839506172839,70.30864197530865,0)" xlink:href="#ab"/><use transform="matrix(0.06172839506172839,0,0,0.06172839506172839,82.65432098765433,0)" xlink:href="#R"/><use transform="matrix(0.06172839506172839,0,0,0.06172839506172839,90.00000000000001,0)" xlink:href="#ac"/><use transform="matrix(0.06172839506172839,0,0,0.06172839506172839,101.11111111111113,0)" xlink:href="#Y"/><use transform="matrix(0.06172839506172839,0,0,0.06172839506172839,113.45679012345681,0)" xlink:href="#U"/></g><path fill="#3a414a" d="M24-231v-30h32v30H24zM24 0v-190h32V0H24" id="ad"/><path fill="#3a414a" d="M179-190L93 31C79 59 56 82 12 73V49c39 6 53-20 64-50L1-190h34L92-34l54-156h33" id="ae"/><path fill="#3a414a" d="M266 0h-40l-56-210L115 0H75L2-248h35L96-30l15-64 43-154h32l59 218 59-218h35" id="af"/><g id="e"><use transform="matrix(0.06172839506172839,0,0,0.06172839506172839,0,0)" xlink:href="#Z"/><use transform="matrix(0.06172839506172839,0,0,0.06172839506172839,15.987654320987653,0)" xlink:href="#ad"/><use transform="matrix(0.06172839506172839,0,0,0.06172839506172839,20.864197530864196,0)" xlink:href="#R"/><use transform="matrix(0.06172839506172839,0,0,0.06172839506172839,28.209876543209873,0)" xlink:href="#aa"/><use transform="matrix(0.06172839506172839,0,0,0.06172839506172839,34.382716049382715,0)" xlink:href="#ae"/><use transform="matrix(0.06172839506172839,0,0,0.06172839506172839,45.49382716049382,0)" xlink:href="#af"/><use transform="matrix(0.06172839506172839,0,0,0.06172839506172839,65.61728395061728,0)" xlink:href="#S"/><use transform="matrix(0.06172839506172839,0,0,0.06172839506172839,77.96296296296296,0)" xlink:href="#aa"/><use transform="matrix(0.06172839506172839,0,0,0.06172839506172839,84.1358024691358,0)" xlink:href="#aa"/><use transform="matrix(0.06172839506172839,0,0,0.06172839506172839,90.30864197530863,0)" xlink:href="#U"/></g><g id="f"><use transform="matrix(0.06172839506172839,0,0,0.06172839506172839,0,0)" xlink:href="#Z"/><use transform="matrix(0.06172839506172839,0,0,0.06172839506172839,15.987654320987653,0)" xlink:href="#S"/><use transform="matrix(0.06172839506172839,0,0,0.06172839506172839,28.333333333333332,0)" xlink:href="#aa"/><use transform="matrix(0.06172839506172839,0,0,0.06172839506172839,34.50617283950617,0)" xlink:href="#S"/></g><path fill="#3a414a" d="M30 0v-248h33v221h125V0H30" id="ag"/><path fill="#3a414a" d="M177-190C167-65 218 103 67 71c-23-6-38-20-44-43l32-5c15 47 100 32 89-28v-30C133-14 115 1 83 1 29 1 15-40 15-95c0-56 16-97 71-98 29-1 48 16 59 35 1-10 0-23 2-32h30zM94-22c36 0 50-32 50-73 0-42-14-75-50-75-39 0-46 34-46 75s6 73 46 73" id="ah"/><g id="g"><use transform="matrix(0.06172839506172839,0,0,0.06172839506172839,0,0)" xlink:href="#ag"/><use transform="matrix(0.06172839506172839,0,0,0.06172839506172839,12.345679012345679,0)" xlink:href="#W"/><use transform="matrix(0.06172839506172839,0,0,0.06172839506172839,24.691358024691358,0)" xlink:href="#ah"/><use transform="matrix(0.06172839506172839,0,0,0.06172839506172839,37.03703703703704,0)" xlink:href="#ah"/><use transform="matrix(0.06172839506172839,0,0,0.06172839506172839,49.382716049382715,0)" xlink:href="#Y"/><use transform="matrix(0.06172839506172839,0,0,0.06172839506172839,61.72839506172839,0)" xlink:href="#R"/></g><path fill="#3a414a" d="M30 0v-248h187v28H63v79h144v27H63v87h162V0H30" id="ai"/><path fill="#3a414a" d="M240 0l2-218c-23 76-54 145-80 218h-23L58-218 59 0H30v-248h44l77 211c21-75 51-140 76-211h43V0h-30" id="aj"/><path fill="#3a414a" d="M33 0v-248h34V0H33" id="ak"/><g id="h"><use transform="matrix(0.06172839506172839,0,0,0.06172839506172839,0,0)" xlink:href="#ai"/><use transform="matrix(0.06172839506172839,0,0,0.06172839506172839,14.814814814814813,0)" xlink:href="#aj"/><use transform="matrix(0.06172839506172839,0,0,0.06172839506172839,33.2716049382716,0)" xlink:href="#ak"/></g><path fill="#3a414a" d="M143 0L79-87 56-68V0H24v-261h32v163l83-92h37l-77 82L181 0h-38" id="al"/><g id="i"><use transform="matrix(0.06172839506172839,0,0,0.06172839506172839,0,0)" xlink:href="#aj"/><use transform="matrix(0.06172839506172839,0,0,0.06172839506172839,18.456790123456788,0)" xlink:href="#S"/><use transform="matrix(0.06172839506172839,0,0,0.06172839506172839,30.80246913580247,0)" xlink:href="#R"/><use transform="matrix(0.06172839506172839,0,0,0.06172839506172839,38.148148148148145,0)" xlink:href="#al"/><use transform="matrix(0.06172839506172839,0,0,0.06172839506172839,49.25925925925925,0)" xlink:href="#Y"/><use transform="matrix(0.06172839506172839,0,0,0.06172839506172839,61.60493827160493,0)" xlink:href="#aa"/></g><path fill="#3a414a" d="M205 0l-28-72H64L36 0H1l101-248h38L239 0h-34zm-38-99l-47-123c-12 45-31 82-46 123h93" id="am"/><path fill="#3a414a" d="M30-248c87 1 191-15 191 75 0 78-77 80-158 76V0H30v-248zm33 125c57 0 124 11 124-50 0-59-68-47-124-48v98" id="an"/><path fill="#3a414a" d="M47-170H22l-4-78h33" id="ao"/><g id="j"><use transform="matrix(0.06172839506172839,0,0,0.06172839506172839,0,0)" xlink:href="#am"/><use transform="matrix(0.06172839506172839,0,0,0.06172839506172839,14.814814814814813,0)" xlink:href="#an"/><use transform="matrix(0.06172839506172839,0,0,0.06172839506172839,29.629629629629626,0)" xlink:href="#ak"/><use transform="matrix(0.06172839506172839,0,0,0.06172839506172839,35.80246913580247,0)" xlink:href="#ao"/><use transform="matrix(0.06172839506172839,0,0,0.06172839506172839,40,0)" xlink:href="#U"/></g><path fill="#1a4466" d="M30 0v-248h187v28H63v79h144v27H63v87h162V0H30" id="ap"/><path fill="#1a4466" d="M117-194c89-4 53 116 60 194h-32v-121c0-31-8-49-39-48C34-167 62-67 57 0H25l-1-190h30c1 10-1 24 2 32 11-22 29-35 61-36" id="aq"/><path fill="#1a4466" d="M100-194c63 0 86 42 84 106H49c0 40 14 67 53 68 26 1 43-12 49-29l28 8c-11 28-37 45-77 45C44 4 14-33 15-96c1-61 26-98 85-98zm52 81c6-60-76-77-97-28-3 7-6 17-6 28h103" id="ar"/><path fill="#1a4466" d="M114-163C36-179 61-72 57 0H25l-1-190h30c1 12-1 29 2 39 6-27 23-49 58-41v29" id="as"/><path fill="#1a4466" d="M177-190C167-65 218 103 67 71c-23-6-38-20-44-43l32-5c15 47 100 32 89-28v-30C133-14 115 1 83 1 29 1 15-40 15-95c0-56 16-97 71-98 29-1 48 16 59 35 1-10 0-23 2-32h30zM94-22c36 0 50-32 50-73 0-42-14-75-50-75-39 0-46 34-46 75s6 73 46 73" id="at"/><path fill="#1a4466" d="M179-190L93 31C79 59 56 82 12 73V49c39 6 53-20 64-50L1-190h34L92-34l54-156h33" id="au"/><g id="k"><use transform="matrix(0.06666666666666667,0,0,0.06666666666666667,0,0)" xlink:href="#ap"/><use transform="matrix(0.06666666666666667,0,0,0.06666666666666667,16,0)" xlink:href="#aq"/><use transform="matrix(0.06666666666666667,0,0,0.06666666666666667,29.333333333333336,0)" xlink:href="#ar"/><use transform="matrix(0.06666666666666667,0,0,0.06666666666666667,42.66666666666667,0)" xlink:href="#as"/><use transform="matrix(0.06666666666666667,0,0,0.06666666666666667,50.60000000000001,0)" xlink:href="#at"/><use transform="matrix(0.06666666666666667,0,0,0.06666666666666667,63.933333333333344,0)" xlink:href="#au"/></g><path fill="#1a4466" d="M30 0v-248h33v221h125V0H30" id="av"/><path fill="#1a4466" d="M24-231v-30h32v30H24zM24 0v-190h32V0H24" id="aw"/><path fill="#1a4466" d="M143 0L79-87 56-68V0H24v-261h32v163l83-92h37l-77 82L181 0h-38" id="ax"/><g id="l"><use transform="matrix(0.06666666666666667,0,0,0.06666666666666667,0,0)" xlink:href="#av"/><use transform="matrix(0.06666666666666667,0,0,0.06666666666666667,13.333333333333334,0)" xlink:href="#aw"/><use transform="matrix(0.06666666666666667,0,0,0.06666666666666667,18.6,0)" xlink:href="#aq"/><use transform="matrix(0.06666666666666667,0,0,0.06666666666666667,31.933333333333337,0)" xlink:href="#ax"/></g><path fill="#1a4466" d="M190 0L58-211 59 0H30v-248h39L202-35l-2-213h31V0h-41" id="ay"/><path fill="#1a4466" d="M209 0H11v-25l151-195H24v-28h176v25L50-27h159V0" id="az"/><g id="m"><use transform="matrix(0.06666666666666667,0,0,0.06666666666666667,0,0)" xlink:href="#ay"/><use transform="matrix(0.06666666666666667,0,0,0.06666666666666667,17.266666666666666,0)" xlink:href="#az"/></g><path fill="#1a4466" d="M210-169c-67 3-38 105-44 169h-31v-121c0-29-5-50-35-48C34-165 62-65 56 0H25l-1-190h30c1 10-1 24 2 32 10-44 99-50 107 0 11-21 27-35 58-36 85-2 47 119 55 194h-31v-121c0-29-5-49-35-48" id="aA"/><path fill="#1a4466" d="M135-143c-3-34-86-38-87 0 15 53 115 12 119 90S17 21 10-45l28-5c4 36 97 45 98 0-10-56-113-15-118-90-4-57 82-63 122-42 12 7 21 19 24 35" id="aB"/><path fill="#1a4466" d="M100-194c62-1 85 37 85 99 1 63-27 99-86 99S16-35 15-95c0-66 28-99 85-99zM99-20c44 1 53-31 53-75 0-43-8-75-51-75s-53 32-53 75 10 74 51 75" id="aC"/><g id="n"><use transform="matrix(0.06666666666666667,0,0,0.06666666666666667,0,0)" xlink:href="#ap"/><use transform="matrix(0.06666666666666667,0,0,0.06666666666666667,16,0)" xlink:href="#aA"/><use transform="matrix(0.06666666666666667,0,0,0.06666666666666667,35.93333333333334,0)" xlink:href="#aw"/><use transform="matrix(0.06666666666666667,0,0,0.06666666666666667,41.2,0)" xlink:href="#aB"/><use transform="matrix(0.06666666666666667,0,0,0.06666666666666667,53.199999999999996,0)" xlink:href="#aB"/><use transform="matrix(0.06666666666666667,0,0,0.06666666666666667,65.2,0)" xlink:href="#aw"/><use transform="matrix(0.06666666666666667,0,0,0.06666666666666667,70.46666666666667,0)" xlink:href="#aC"/><use transform="matrix(0.06666666666666667,0,0,0.06666666666666667,83.8,0)" xlink:href="#aq"/></g><path fill="#1a4466" d="M33 0v-248h34V0H33" id="aD"/><path fill="#1a4466" d="M59-47c-2 24 18 29 38 22v24C64 9 27 4 27-40v-127H5v-23h24l9-43h21v43h35v23H59v120" id="aE"/><g id="o"><use transform="matrix(0.06666666666666667,0,0,0.06666666666666667,0,0)" xlink:href="#aD"/><use transform="matrix(0.06666666666666667,0,0,0.06666666666666667,6.666666666666667,0)" xlink:href="#aq"/><use transform="matrix(0.06666666666666667,0,0,0.06666666666666667,20,0)" xlink:href="#aE"/><use transform="matrix(0.06666666666666667,0,0,0.06666666666666667,26.666666666666668,0)" xlink:href="#ar"/><use transform="matrix(0.06666666666666667,0,0,0.06666666666666667,40,0)" xlink:href="#aq"/><use transform="matrix(0.06666666666666667,0,0,0.06666666666666667,53.333333333333336,0)" xlink:href="#aB"/><use transform="matrix(0.06666666666666667,0,0,0.06666666666666667,65.33333333333334,0)" xlink:href="#aw"/><use transform="matrix(0.06666666666666667,0,0,0.06666666666666667,70.60000000000001,0)" xlink:href="#aE"/><use transform="matrix(0.06666666666666667,0,0,0.06666666666666667,77.26666666666668,0)" xlink:href="#au"/></g><path fill="#3a414a" d="M16-82v-28h88v28H16" id="aF"/><path fill="#3a414a" d="M85-194c31 0 48 13 60 33l-1-100h32l1 261h-30c-2-10 0-23-3-31C134-8 116 4 85 4 32 4 16-35 15-94c0-66 23-100 70-100zm9 24c-40 0-46 34-46 75 0 40 6 74 45 74 42 0 51-32 51-76 0-42-9-74-50-73" id="aG"/><g id="p"><use transform="matrix(0.06172839506172839,0,0,0.06172839506172839,0,0)" xlink:href="#aj"/><use transform="matrix(0.06172839506172839,0,0,0.06172839506172839,18.456790123456788,0)" xlink:href="#ad"/><use transform="matrix(0.06172839506172839,0,0,0.06172839506172839,23.33333333333333,0)" xlink:href="#ac"/><use transform="matrix(0.06172839506172839,0,0,0.06172839506172839,34.44444444444444,0)" xlink:href="#R"/><use transform="matrix(0.06172839506172839,0,0,0.06172839506172839,41.79012345679012,0)" xlink:href="#W"/><use transform="matrix(0.06172839506172839,0,0,0.06172839506172839,54.1358024691358,0)" xlink:href="#aF"/><use transform="matrix(0.06172839506172839,0,0,0.06172839506172839,61.481481481481474,0)" xlink:href="#ak"/><use transform="matrix(0.06172839506172839,0,0,0.06172839506172839,67.65432098765432,0)" xlink:href="#T"/><use transform="matrix(0.06172839506172839,0,0,0.06172839506172839,80,0)" xlink:href="#aG"/><use transform="matrix(0.06172839506172839,0,0,0.06172839506172839,92.34567901234568,0)" xlink:href="#ad"/><use transform="matrix(0.06172839506172839,0,0,0.06172839506172839,97.22222222222223,0)" xlink:href="#ac"/><use transform="matrix(0.06172839506172839,0,0,0.06172839506172839,108.33333333333334,0)" xlink:href="#S"/><use transform="matrix(0.06172839506172839,0,0,0.06172839506172839,120.67901234567903,0)" xlink:href="#aa"/><use transform="matrix(0.06172839506172839,0,0,0.06172839506172839,126.85185185185188,0)" xlink:href="#W"/><use transform="matrix(0.06172839506172839,0,0,0.06172839506172839,139.19753086419755,0)" xlink:href="#R"/></g><path fill="#3a414a" d="M185-189c-5-48-123-54-124 2 14 75 158 14 163 119 3 78-121 87-175 55-17-10-28-26-33-46l33-7c5 56 141 63 141-1 0-78-155-14-162-118-5-82 145-84 179-34 5 7 8 16 11 25" id="aH"/><g id="q"><use transform="matrix(0.06172839506172839,0,0,0.06172839506172839,0,0)" xlink:href="#aH"/><use transform="matrix(0.06172839506172839,0,0,0.06172839506172839,14.814814814814813,0)" xlink:href="#ac"/><use transform="matrix(0.06172839506172839,0,0,0.06172839506172839,25.925925925925924,0)" xlink:href="#W"/><use transform="matrix(0.06172839506172839,0,0,0.06172839506172839,38.2716049382716,0)" xlink:href="#R"/><use transform="matrix(0.06172839506172839,0,0,0.06172839506172839,45.61728395061728,0)" xlink:href="#ad"/><use transform="matrix(0.06172839506172839,0,0,0.06172839506172839,50.49382716049382,0)" xlink:href="#T"/><use transform="matrix(0.06172839506172839,0,0,0.06172839506172839,62.8395061728395,0)" xlink:href="#ah"/></g><path fill="#3a414a" d="M24 0v-261h32V0H24" id="aI"/><path fill="#3a414a" d="M106-169C34-169 62-67 57 0H25v-261h32l-1 103c12-21 28-36 61-36 89 0 53 116 60 194h-32v-121c2-32-8-49-39-48" id="aJ"/><path fill="#3a414a" d="M210-169c-67 3-38 105-44 169h-31v-121c0-29-5-50-35-48C34-165 62-65 56 0H25l-1-190h30c1 10-1 24 2 32 10-44 99-50 107 0 11-21 27-35 58-36 85-2 47 119 55 194h-31v-121c0-29-5-49-35-48" id="aK"/><g id="r"><use transform="matrix(0.06172839506172839,0,0,0.06172839506172839,0,0)" xlink:href="#am"/><use transform="matrix(0.06172839506172839,0,0,0.06172839506172839,14.814814814814813,0)" xlink:href="#aI"/><use transform="matrix(0.06172839506172839,0,0,0.06172839506172839,19.691358024691354,0)" xlink:href="#ah"/><use transform="matrix(0.06172839506172839,0,0,0.06172839506172839,32.03703703703703,0)" xlink:href="#W"/><use transform="matrix(0.06172839506172839,0,0,0.06172839506172839,44.38271604938271,0)" xlink:href="#R"/><use transform="matrix(0.06172839506172839,0,0,0.06172839506172839,51.728395061728385,0)" xlink:href="#ad"/><use transform="matrix(0.06172839506172839,0,0,0.06172839506172839,56.60493827160493,0)" xlink:href="#aa"/><use transform="matrix(0.06172839506172839,0,0,0.06172839506172839,62.77777777777777,0)" xlink:href="#aJ"/><use transform="matrix(0.06172839506172839,0,0,0.06172839506172839,75.12345679012346,0)" xlink:href="#aK"/></g><g id="s"><use transform="matrix(0.06172839506172839,0,0,0.06172839506172839,0,0)" xlink:href="#ag"/><use transform="matrix(0.06172839506172839,0,0,0.06172839506172839,12.345679012345679,0)" xlink:href="#ad"/><use transform="matrix(0.06172839506172839,0,0,0.06172839506172839,17.22222222222222,0)" xlink:href="#ah"/><use transform="matrix(0.06172839506172839,0,0,0.06172839506172839,29.5679012345679,0)" xlink:href="#aJ"/><use transform="matrix(0.06172839506172839,0,0,0.06172839506172839,41.913580246913575,0)" xlink:href="#aa"/></g><g id="t"><use transform="matrix(0.06172839506172839,0,0,0.06172839506172839,0,0)" xlink:href="#Z"/><use transform="matrix(0.06172839506172839,0,0,0.06172839506172839,15.987654320987653,0)" xlink:href="#ad"/><use transform="matrix(0.06172839506172839,0,0,0.06172839506172839,20.864197530864196,0)" xlink:href="#U"/><use transform="matrix(0.06172839506172839,0,0,0.06172839506172839,31.975308641975307,0)" xlink:href="#V"/><use transform="matrix(0.06172839506172839,0,0,0.06172839506172839,44.32098765432099,0)" xlink:href="#aI"/><use transform="matrix(0.06172839506172839,0,0,0.06172839506172839,49.19753086419753,0)" xlink:href="#S"/><use transform="matrix(0.06172839506172839,0,0,0.06172839506172839,61.54320987654321,0)" xlink:href="#ae"/></g><path fill="#3a414a" d="M137 0h-34L2-248h35l83 218 83-218h36" id="aL"/><path fill="#3a414a" d="M63-220v92h138v28H63V0H30v-248h175v28H63" id="aM"/><g id="u"><use transform="matrix(0.06172839506172839,0,0,0.06172839506172839,0,0)" xlink:href="#aL"/><use transform="matrix(0.06172839506172839,0,0,0.06172839506172839,14.814814814814813,0)" xlink:href="#aM"/><use transform="matrix(0.06172839506172839,0,0,0.06172839506172839,28.33333333333333,0)" xlink:href="#Z"/></g><path fill="#3a414a" d="M115-194c53 0 69 39 70 98 0 66-23 100-70 100C84 3 66-7 56-30L54 0H23l1-261h32v101c10-23 28-34 59-34zm-8 174c40 0 45-34 45-75 0-40-5-75-45-74-42 0-51 32-51 76 0 43 10 73 51 73" id="aN"/><g id="v"><use transform="matrix(0.06172839506172839,0,0,0.06172839506172839,0,0)" xlink:href="#Q"/><use transform="matrix(0.06172839506172839,0,0,0.06172839506172839,12.716049382716047,0)" xlink:href="#ab"/><use transform="matrix(0.06172839506172839,0,0,0.06172839506172839,25.061728395061728,0)" xlink:href="#aN"/><use transform="matrix(0.06172839506172839,0,0,0.06172839506172839,37.407407407407405,0)" xlink:href="#Y"/><use transform="matrix(0.06172839506172839,0,0,0.06172839506172839,49.75308641975308,0)" xlink:href="#U"/></g><g id="w"><use transform="matrix(0.06172839506172839,0,0,0.06172839506172839,0,0)" xlink:href="#af"/><use transform="matrix(0.06172839506172839,0,0,0.06172839506172839,20.123456790123456,0)" xlink:href="#S"/><use transform="matrix(0.06172839506172839,0,0,0.06172839506172839,32.46913580246913,0)" xlink:href="#aa"/><use transform="matrix(0.06172839506172839,0,0,0.06172839506172839,38.641975308641975,0)" xlink:href="#ac"/><use transform="matrix(0.06172839506172839,0,0,0.06172839506172839,49.75308641975309,0)" xlink:href="#aJ"/></g><path fill="#3a414a" d="M160-131c35 5 61 23 61 61C221 17 115-2 30 0v-248c76 3 177-17 177 60 0 33-19 50-47 57zm-97-11c50-1 110 9 110-42 0-47-63-36-110-37v79zm0 115c55-2 124 14 124-45 0-56-70-42-124-44v89" id="aO"/><g id="x"><use transform="matrix(0.06172839506172839,0,0,0.06172839506172839,0,0)" xlink:href="#aO"/><use transform="matrix(0.06172839506172839,0,0,0.06172839506172839,14.814814814814813,0)" xlink:href="#S"/><use transform="matrix(0.06172839506172839,0,0,0.06172839506172839,27.160493827160494,0)" xlink:href="#ac"/><use transform="matrix(0.06172839506172839,0,0,0.06172839506172839,38.27160493827161,0)" xlink:href="#al"/><use transform="matrix(0.06172839506172839,0,0,0.06172839506172839,49.38271604938272,0)" xlink:href="#ah"/><use transform="matrix(0.06172839506172839,0,0,0.06172839506172839,61.7283950617284,0)" xlink:href="#R"/><use transform="matrix(0.06172839506172839,0,0,0.06172839506172839,69.07407407407408,0)" xlink:href="#W"/><use transform="matrix(0.06172839506172839,0,0,0.06172839506172839,81.41975308641976,0)" xlink:href="#ab"/><use transform="matrix(0.06172839506172839,0,0,0.06172839506172839,93.76543209876544,0)" xlink:href="#T"/><use transform="matrix(0.06172839506172839,0,0,0.06172839506172839,106.11111111111113,0)" xlink:href="#aG"/></g><g id="y"><use transform="matrix(0.06172839506172839,0,0,0.06172839506172839,0,0)" xlink:href="#an"/><use transform="matrix(0.06172839506172839,0,0,0.06172839506172839,14.814814814814813,0)" xlink:href="#W"/><use transform="matrix(0.06172839506172839,0,0,0.06172839506172839,27.160493827160494,0)" xlink:href="#U"/><use transform="matrix(0.06172839506172839,0,0,0.06172839506172839,38.27160493827161,0)" xlink:href="#aa"/><use transform="matrix(0.06172839506172839,0,0,0.06172839506172839,44.44444444444445,0)" xlink:href="#ah"/><use transform="matrix(0.06172839506172839,0,0,0.06172839506172839,56.79012345679013,0)" xlink:href="#R"/><use transform="matrix(0.06172839506172839,0,0,0.06172839506172839,64.13580246913581,0)" xlink:href="#Y"/><use transform="matrix(0.06172839506172839,0,0,0.06172839506172839,76.4814814814815,0)" xlink:href="#U"/><use transform="matrix(0.06172839506172839,0,0,0.06172839506172839,87.59259259259261,0)" xlink:href="#U"/></g><g id="z"><use transform="matrix(0.06172839506172839,0,0,0.06172839506172839,0,0)" xlink:href="#Z"/><use transform="matrix(0.06172839506172839,0,0,0.06172839506172839,15.987654320987653,0)" xlink:href="#S"/><use transform="matrix(0.06172839506172839,0,0,0.06172839506172839,28.333333333333332,0)" xlink:href="#aa"/><use transform="matrix(0.06172839506172839,0,0,0.06172839506172839,34.50617283950617,0)" xlink:href="#S"/><use transform="matrix(0.06172839506172839,0,0,0.06172839506172839,46.85185185185185,0)" xlink:href="#aN"/><use transform="matrix(0.06172839506172839,0,0,0.06172839506172839,59.197530864197525,0)" xlink:href="#S"/><use transform="matrix(0.06172839506172839,0,0,0.06172839506172839,71.5432098765432,0)" xlink:href="#U"/><use transform="matrix(0.06172839506172839,0,0,0.06172839506172839,82.65432098765432,0)" xlink:href="#Y"/></g><g id="A"><use transform="matrix(0.06172839506172839,0,0,0.06172839506172839,0,0)" xlink:href="#an"/><use transform="matrix(0.06172839506172839,0,0,0.06172839506172839,14.814814814814813,0)" xlink:href="#ab"/><use transform="matrix(0.06172839506172839,0,0,0.06172839506172839,27.160493827160494,0)" xlink:href="#aN"/><use transform="matrix(0.06172839506172839,0,0,0.06172839506172839,39.50617283950617,0)" xlink:href="#aI"/><use transform="matrix(0.06172839506172839,0,0,0.06172839506172839,44.382716049382715,0)" xlink:href="#ad"/><use transform="matrix(0.06172839506172839,0,0,0.06172839506172839,49.25925925925926,0)" xlink:href="#ac"/></g><g id="B"><use transform="matrix(0.06172839506172839,0,0,0.06172839506172839,0,0)" xlink:href="#am"/><use transform="matrix(0.06172839506172839,0,0,0.06172839506172839,14.814814814814813,0)" xlink:href="#an"/><use transform="matrix(0.06172839506172839,0,0,0.06172839506172839,29.629629629629626,0)" xlink:href="#ak"/></g></defs></g></svg>