<svg xmlns="http://www.w3.org/2000/svg" xmlns:xlink="http://www.w3.org/1999/xlink" xmlns:lucid="lucid" width="1322.83" height="932.28"><g transform="translate(1258.8346456692911 -1736.5669291338581)" lucid:page-tab-id="0_0"><path d="M-1258.84 1736.57H64v932.28h-1322.84z" fill="#fff"/><path d="M-1150 2045.44a6 6 0 0 1 6-6h208a6 6 0 0 1 6 6v8a14.48 14.48 0 0 1-4.24 10.24l-1.52 1.52a14.48 14.48 0 0 1-10.24 4.24h-198a6 6 0 0 1-6-6z" fill="#fff"/><path d="M-930 2039.44v20l-10 10h-210" stroke="#000" fill="none"/><path d="M-1150 2045.44a6 6 0 0 1 6-6h868a6 6 0 0 1 6 6v388a6 6 0 0 1-6 6h-868a6 6 0 0 1-6-6z" stroke="#000" fill="none"/><use xlink:href="#a" transform="matrix(1,0,0,1,-1142,2039.44) translate(0 18.6)"/><use xlink:href="#b" transform="matrix(1,0,0,1,-1142,2039.44) translate(87.85000000000001 18.6)"/><use xlink:href="#c" transform="matrix(1,0,0,1,-1142,2039.44) translate(108.80000000000001 18.6)"/><use xlink:href="#d" transform="matrix(1,0,0,1,-1142,2039.44) translate(123.80000000000001 18.6)"/><path d="M-490 2305.44a6 6 0 0 1 6-6h148a6 6 0 0 1 6 6v108a6 6 0 0 1-6 6h-148a6 6 0 0 1-6-6z" stroke="#9391ff" fill="#f2f2ff"/><use xlink:href="#e" transform="matrix(1,0,0,1,-478,2311.44) translate(26.703703703703695 38.77777777777778)"/><use xlink:href="#f" transform="matrix(1,0,0,1,-478,2311.44) translate(40.22222222222223 65.44444444444446)"/><path d="M-150.82 1964.73a10 10 0 0 1 8.82-5.3h84a10 10 0 0 1 8.82 5.3l26.36 49.42a11.25 11.25 0 0 1 0 10.58l-26.36 49.42a10 10 0 0 1-8.82 5.3h-84a10 10 0 0 1-8.82-5.3l-26.36-49.42a11.25 11.25 0 0 1 0-10.58z" stroke="#e81313" fill="#fff0f0"/><use xlink:href="#g" transform="matrix(1,0,0,1,-175,1964.44) translate(38.06055555555555 45.27777777777778)"/><use xlink:href="#h" transform="matrix(1,0,0,1,-175,1964.44) translate(41.1161111111111 71.94444444444446)"/><path d="M-180 2125.44a6 6 0 0 1 6-6h148a6 6 0 0 1 6 6v108a6 6 0 0 1-6 6h-148a6 6 0 0 1-6-6z" stroke="#e81313" fill="#fff0f0"/><use xlink:href="#i" transform="matrix(1,0,0,1,-168,2131.44) translate(5.746913580246911 53.77777777777778)"/><use xlink:href="#j" transform="matrix(1,0,0,1,-168,2131.44) translate(64.94444444444444 53.77777777777778)"/><path d="M-100 2080.44v22.12" stroke="#000" fill="none"/><path d="M-99.5 2080.45h-1v-.5h1z" stroke="#000" stroke-width=".05"/><path d="M-100 2117.32l-4.64-14.26h9.28z" stroke="#000"/><path d="M-256.27 2404.03h-56.85v-1h56.85zm193.07-6.48l-.07 1-.24 1-.4.93-.54.88-.66.77-.77.66-.87.53-.95.4-.98.22-1 .08h-43.04v-1h43l.88-.07.84-.2.8-.33.74-.45.65-.56.55-.66.45-.73.33-.8.2-.84.07-.9v-157.06h1z" stroke="#000" stroke-width=".05"/><path d="M-63.2 2240.45h-1v-.5h1z"/><path d="M-63.17 2240.48h-1.05v-.57h1.05zm-1-.5v.45h.95v-.46z" stroke="#000" stroke-width=".05"/><path d="M-313.62 2408.17l-14.26-4.64 14.26-4.63z"/><path d="M-313.12 2408.86l-16.38-5.33 16.38-5.32zm-13.14-5.33l12.14 3.95v-7.9z" stroke="#000" stroke-width=".05"/><use xlink:href="#k" transform="matrix(1,0,0,1,-256.2749552386724,2392.866605487403) translate(0 14.222222222222223)"/><use xlink:href="#l" transform="matrix(1,0,0,1,-256.2749552386724,2392.866605487403) translate(49.382716049382715 14.222222222222223)"/><use xlink:href="#m" transform="matrix(1,0,0,1,-256.2749552386724,2392.866605487403) translate(74.07407407407408 14.222222222222223)"/><use xlink:href="#n" transform="matrix(1,0,0,1,-256.2749552386724,2392.866605487403) translate(89.38271604938272 14.222222222222223)"/><path d="M-247.5 2335.7H-329v-1h81.5zm105.6-6.5l-.07 1-.24 1-.4.94-.53.87-.66.8-.77.65-.87.54-.94.38-1 .23-1 .1h-59.7v-1h59.67l.87-.08.84-.2.8-.33.74-.46.66-.56.56-.66.45-.73.34-.8.2-.85.07-.88v-72.85h1z" stroke="#000" stroke-width=".05"/><path d="M-329 2335.7h-.5v-1h.5z"/><path d="M-328.96 2335.72h-.56v-1.05h.56zm-.52-1v.95h.47v-.95z" stroke="#000" stroke-width=".05"/><path d="M-137.76 2255.82h-9.27l4.64-14.26z"/><path d="M-137.07 2256.32h-10.65l5.33-16.38zm-9.27-1h7.9l-3.95-12.14z" stroke="#000" stroke-width=".05"/><use xlink:href="#o" transform="matrix(1,0,0,1,-247.48700284466688,2324.524997170569) translate(0 14.222222222222223)"/><path d="M-710 2305.44a6 6 0 0 1 6-6h148a6 6 0 0 1 6 6v108a6 6 0 0 1-6 6h-148a6 6 0 0 1-6-6z" stroke="#9391ff" fill="#f2f2ff"/><use xlink:href="#p" transform="matrix(1,0,0,1,-698,2311.44) translate(4.481481481481488 53.77777777777778)"/><use xlink:href="#q" transform="matrix(1,0,0,1,-698,2311.44) translate(66.20987654320987 53.77777777777778)"/><path d="M-549 2359.44h42.12" stroke="#000" fill="none"/><path d="M-549 2359.94h-.5v-1h.5z" stroke="#000" stroke-width=".05"/><path d="M-492.12 2359.44l-14.26 4.63v-9.27z" stroke="#000"/><path d="M-491 2359.44h-42.12" stroke="#000" fill="none"/><path d="M-490.5 2359.94h-.5v-1h.5z" stroke="#000" stroke-width=".05"/><path d="M-547.88 2359.44l14.26-4.64v9.27z" stroke="#000"/><path d="M-710 2085.44a6 6 0 0 1 6-6h148a6 6 0 0 1 6 6v108a6 6 0 0 1-6 6h-148a6 6 0 0 1-6-6z" stroke="#e08fff" fill="#fbf0ff"/><use xlink:href="#r" transform="matrix(1,0,0,1,-698,2091.44) translate(10.746913580246911 53.77777777777778)"/><path d="M-1130 2089.44a6 6 0 0 1 6-6h148a6 6 0 0 1 6 6v108a6 6 0 0 1-6 6h-148a6 6 0 0 1-6-6z" stroke="#e08fff" fill="#fbf0ff"/><use xlink:href="#s" transform="matrix(1,0,0,1,-1118,2095.4400078703206) translate(23 38.77777777777778)"/><use xlink:href="#t" transform="matrix(1,0,0,1,-1118,2095.4400078703206) translate(1.981481481481481 65.44444444444446)"/><use xlink:href="#u" transform="matrix(1,0,0,1,-1118,2095.4400078703206) translate(53.833333333333336 65.44444444444446)"/><path d="M-930 2305.44a6 6 0 0 1 6-6h148a6 6 0 0 1 6 6v108a6 6 0 0 1-6 6h-148a6 6 0 0 1-6-6z" stroke="#9391ff" fill="#f2f2ff"/><use xlink:href="#v" transform="matrix(1,0,0,1,-918,2311.44) translate(18.092592592592588 39.111111111111114)"/><use xlink:href="#w" transform="matrix(1,0,0,1,-918,2311.44) translate(-0.3950617283950635 65.77777777777777)"/><path d="M-565.5 2282.56h-1v-11.8h1zm0-54.45h-1v-11.78h1z" stroke="#000" stroke-width=".05"/><path d="M-566 2297.32l-4.63-14.26h9.26z"/><path d="M-566 2298.94l-5.32-16.38h10.64zm-3.95-15.38l3.95 12.14 3.95-12.14z" stroke="#000" stroke-width=".05"/><path d="M-561.37 2215.82h-9.26l4.63-14.26z"/><path d="M-560.68 2216.32h-10.64l5.32-16.38zm-9.27-1h7.9l-3.95-12.14z" stroke="#000" stroke-width=".05"/><use xlink:href="#x" transform="matrix(1,0,0,1,-622.716049044941,2228.106623423423) translate(10.079074074074072 14.222222222222223)"/><use xlink:href="#y" transform="matrix(1,0,0,1,-622.716049044941,2228.106623423423) translate(0.005000000000002558 35.55555555555556)"/><use xlink:href="#z" transform="matrix(1,0,0,1,-622.716049044941,2228.106623423423) translate(53.23956790123458 35.55555555555556)"/><path d="M-700.5 2298.44h-1v-16.87h1zm0-59.53h-1v-32.1h1z" stroke="#000" stroke-width=".05"/><path d="M-693.36 2213.83h-15.28l7.64-12.9z"/><path d="M-692.5 2214.33h-17l8.5-14.4zm-15.26-1h13.52l-6.76-11.43z" stroke="#000" stroke-width=".05"/><path d="M-700.5 2298.94h-1v-.5h1z"/><path d="M-700.48 2298.97h-1.04v-.57h1.04zm-1-.52v.47h.96v-.47z" stroke="#000" stroke-width=".05"/><use xlink:href="#A" transform="matrix(1,0,0,1,-745.3703740865878,2238.906654047393) translate(20.17783950617284 14.222222222222223)"/><use xlink:href="#B" transform="matrix(1,0,0,1,-745.3703740865878,2238.906654047393) translate(0.005000000000002558 35.55555555555556)"/><use xlink:href="#C" transform="matrix(1,0,0,1,-745.3703740865878,2238.906654047393) translate(54.325987654321 35.55555555555556)"/><path d="M-769 2359.44h42.12" stroke="#000" fill="none"/><path d="M-769 2359.94h-.5v-1h.5z" stroke="#000" stroke-width=".05"/><path d="M-712.12 2359.44l-14.26 4.63v-9.27z" stroke="#000"/><path d="M-930 2085.44a6 6 0 0 1 6-6h148a6 6 0 0 1 6 6v108a6 6 0 0 1-6 6h-148a6 6 0 0 1-6-6z" stroke="#9391ff" fill="#f2f2ff"/><use xlink:href="#D" transform="matrix(1,0,0,1,-918,2091.44) translate(14.481481481481481 26.77777777777778)"/><use xlink:href="#t" transform="matrix(1,0,0,1,-918,2091.44) translate(13.74074074074074 53.44444444444445)"/><use xlink:href="#E" transform="matrix(1,0,0,1,-918,2091.44) translate(65.5925925925926 53.44444444444445)"/><use xlink:href="#F" transform="matrix(1,0,0,1,-918,2091.44) translate(27.907407407407405 80.11111111111111)"/><path d="M-769 2139.44h42.12" stroke="#000" fill="none"/><path d="M-769 2139.94h-.5v-1h.5z" stroke="#000" stroke-width=".05"/><path d="M-712.12 2139.44l-14.26 4.63v-9.27z" stroke="#000"/><path d="M-969 2143.44h22.12" stroke="#000" fill="none"/><path d="M-969 2143.94h-.5v-1h.5z" stroke="#000" stroke-width=".05"/><path d="M-932.12 2143.44l-14.26 4.63v-9.27z" stroke="#000"/><path d="M-969 2190.1h14.5a6 6 0 0 1 6 6v37.84a6 6 0 0 0 6 6h30.5a6 6 0 0 1 6 6v36.62" stroke="#000" fill="none"/><path d="M-969 2190.6h-.5v-1h.5z" stroke="#000" stroke-width=".05"/><path d="M-906 2297.32l-4.63-14.26h9.26z" stroke="#000"/><path d="M-582 1899.44c17.67 0 32 17.9 32 40s-14.33 40-32 40h-96c-17.67 0-32-17.9-32-40s14.33-40 32-40z" stroke="#e81313" fill="#fff0f0"/><use xlink:href="#G" transform="matrix(1,0,0,1,-705,1904.44) translate(46.702530864197534 26.52777777777778)"/><use xlink:href="#H" transform="matrix(1,0,0,1,-705,1904.44) translate(38.67783950617284 53.19444444444445)"/><path d="M-630 2078.44v-82.12" stroke="#000" fill="none"/><path d="M-629.5 2078.94h-1v-.5h1z" stroke="#000" stroke-width=".05"/><path d="M-630 1981.56l4.63 14.26h-9.26z" stroke="#000"/><path d="M-566.8 2502.56h-1v-11.8h1zm0-54.45h-1v-11.78h1z" stroke="#000" stroke-width=".05"/><path d="M-567.3 2517.32l-4.64-14.26h9.27z"/><path d="M-567.3 2518.94l-5.33-16.38h10.65zm-3.95-15.38l3.95 12.14 3.94-12.14z" stroke="#000" stroke-width=".05"/><path d="M-562.67 2435.82h-9.27l4.64-14.26z"/><path d="M-561.98 2436.32h-10.65l5.33-16.38zm-9.27-1h7.9l-3.95-12.14z" stroke="#000" stroke-width=".05"/><use xlink:href="#x" transform="matrix(1,0,0,1,-624.0215172439672,2448.106624305496) translate(10.079074074074072 14.222222222222223)"/><use xlink:href="#y" transform="matrix(1,0,0,1,-624.0215172439672,2448.106624305496) translate(0.005000000000002558 35.55555555555556)"/><use xlink:href="#z" transform="matrix(1,0,0,1,-624.0215172439672,2448.106624305496) translate(53.23956790123458 35.55555555555556)"/><path d="M-697 2518.44h-1v-16.87h1zm0-59.53h-1v-32.1h1z" stroke="#000" stroke-width=".05"/><path d="M-689.86 2433.83h-15.28l7.64-12.9z"/><path d="M-689 2434.33h-17l8.5-14.4zm-15.26-1h13.52l-6.76-11.43z" stroke="#000" stroke-width=".05"/><path d="M-697 2518.94h-1v-.5h1z"/><path d="M-696.98 2518.97H-698v-.57h1.04zm-1-.52v.47h.96v-.47z" stroke="#000" stroke-width=".05"/><g><use xlink:href="#A" transform="matrix(1,0,0,1,-748.7592612862553,2458.907651682527) translate(27.066728395061734 14.222222222222223)"/><use xlink:href="#I" transform="matrix(1,0,0,1,-748.7592612862553,2458.907651682527) translate(0.005000000000002558 35.55555555555556)"/><use xlink:href="#J" transform="matrix(1,0,0,1,-748.7592612862553,2458.907651682527) translate(60.103765432098776 35.55555555555556)"/></g><path d="M-710 2525.44a6 6 0 0 1 6-6h148a6 6 0 0 1 6 6v108a6 6 0 0 1-6 6h-148a6 6 0 0 1-6-6z" stroke="#e81313" fill="#fff0f0"/><g><use xlink:href="#K" transform="matrix(1,0,0,1,-698,2531.44) translate(29.172839506172842 26.77777777777778)"/><use xlink:href="#L" transform="matrix(1,0,0,1,-698,2531.44) translate(36.580246913580254 53.44444444444445)"/><use xlink:href="#h" transform="matrix(1,0,0,1,-698,2531.44) translate(34.11111111111111 80.11111111111111)"/></g><path d="M-1130 2305.44a6 6 0 0 1 6-6h148a6 6 0 0 1 6 6v108a6 6 0 0 1-6 6h-148a6 6 0 0 1-6-6z" stroke="#e08fff" fill="#fbf0ff"/><g><use xlink:href="#M" transform="matrix(1,0,0,1,-1118,2311.44) translate(11.364197530864203 38.77777777777778)"/><use xlink:href="#N" transform="matrix(1,0,0,1,-1118,2311.44) translate(87.78395061728395 38.77777777777778)"/><use xlink:href="#O" transform="matrix(1,0,0,1,-1118,2311.44) translate(29.759259259259267 65.44444444444446)"/></g><path d="M-1050 2204.44v78.12" stroke="#000" fill="none"/><path d="M-1049.5 2204.45h-1v-.5h1z" stroke="#000" stroke-width=".05"/><path d="M-1050 2297.32l-4.63-14.26h9.27z" stroke="#000"/><path d="M-1049.5 2573.42l.07.88.2.84.33.8.45.73.56.66.67.56.73.44.8.33.84.2.88.07h5v1h-5.04l-1-.08-1-.24-.93-.4-.87-.52-.78-.66-.66-.78-.53-.87-.38-.95-.24-1-.08-1v-5.1h1zm25.63 6.52h-10.06v-1h10.06zm15.1 0h-10.06v-1h10.07zm15.1 0h-10.06v-1h10.07zm15.1 0h-10.06v-1h10.07zm15.1 0h-10.06v-1h10.07zm15.1 0h-10.06v-1h10.07zm15.1 0h-10.06v-1h10.07zm15.1 0h-10.06v-1h10.07zm15.1 0h-10.06v-1h10.07zm15.1 0h-10.06v-1h10.07zm15.1 0h-10.05v-1h10.06zm15.1 0h-10.05v-1h10.06zm15.1 0h-10.05v-1h10.06zm15.1 0h-10.05v-1h10.06zm15.12 0h-10.07v-1h10.06zm15.1 0h-10.07v-1h10.07zm15.1 0h-10.07v-1h10.07zm15.1 0h-10.07v-1h10.07zm15.1 0h-10.07v-1h10.07zm15.1 0h-10.07v-1h10.07zm10.07 0h-5.04v-1h5.04zm-322.62-16.66h-1v-10.15h1zm0-15.23h-1v-10.16h1zm0-15.24h-1v-10.14h1zm0-15.22h-1v-10.16h1zm0-15.24h-1v-10.15h1zm0-15.23h-1v-10.15h1zm0-15.23h-1v-10.15h1zm0-15.23h-1v-10.16h1zm0-15.24h-1v-5.08h1z" stroke="#000" stroke-width=".05"/><path d="M-1045.37 2435.82h-9.27l4.64-14.26z"/><path d="M-1044.68 2436.32h-10.64l5.32-16.38zm-9.27-1h7.9l-3.95-12.14z" stroke="#000" stroke-width=".05"/><path d="M-712.12 2579.44l-14.26 4.63v-9.27z"/><path d="M-710.5 2579.44l-16.38 5.32v-10.64zm-15.38 3.95l12.14-3.96-12.14-3.95z" stroke="#000" stroke-width=".05"/><path d="M-1160 1792a12 12 0 0 1 12-12h306a12 12 0 0 1 12 12v175.44a12 12 0 0 1-12 12h-306a12 12 0 0 1-12-12z" stroke="#dfe3e8" stroke-width="2" fill="#fff"/><path d="M-1092.64 1861.8c0 7.96-6.46 14.43-14.43 14.43-7.98 0-14.44-6.47-14.44-14.44 0-7.98 6.45-14.44 14.42-14.44 7.98 0 14.44 6.46 14.44 14.43z" stroke="#000" stroke-opacity=".25" fill="#9391ff"/><path d="M-1092.64 1900.28c0 7.98-6.46 14.44-14.43 14.44-7.98 0-14.44-6.46-14.44-14.44 0-7.97 6.45-14.43 14.42-14.43 7.98 0 14.44 6.46 14.44 14.43z" stroke="#000" stroke-opacity=".25" fill="#e08fff"/><path d="M-1092.64 1938.77c0 7.98-6.46 14.44-14.43 14.44-7.98 0-14.44-6.45-14.44-14.43 0-7.97 6.45-14.43 14.42-14.43 7.98 0 14.44 6.46 14.44 14.43z" stroke="#000" stroke-opacity=".25" fill="#e81313"/><g><use xlink:href="#P" transform="matrix(1,0,0,1,-1121.5093523912085,1808.8679857065936) translate(0 18.134764964491037)"/><use xlink:href="#Q" transform="matrix(1,0,0,1,-1121.5093523912085,1808.8679857065936) translate(77.64261826926686 18.134764964491037)"/></g><g><use xlink:href="#R" transform="matrix(1,0,0,1,-1078.2073738313181,1847.358633315385) translate(0 17.245876075602148)"/><use xlink:href="#S" transform="matrix(1,0,0,1,-1078.2073738313181,1847.358633315385) translate(51.027530404939945 17.245876075602148)"/><use xlink:href="#T" transform="matrix(1,0,0,1,-1078.2073738313181,1847.358633315385) translate(83.78735747358226 17.245876075602148)"/></g><g><use xlink:href="#U" transform="matrix(1,0,0,1,-1078.2073738313181,1885.8492809241764) translate(0 16.801431631157705)"/><use xlink:href="#V" transform="matrix(1,0,0,1,-1078.2073738313181,1885.8492809241764) translate(38.22933653978633 16.801431631157705)"/><use xlink:href="#W" transform="matrix(1,0,0,1,-1078.2073738313181,1885.8492809241764) translate(89.94761958441366 16.801431631157705)"/></g><g><use xlink:href="#X" transform="matrix(1,0,0,1,-1078.2073738313181,1924.3399285329679) translate(0 16.801431631157705)"/><use xlink:href="#Y" transform="matrix(1,0,0,1,-1078.2073738313181,1924.3399285329679) translate(45.32541740252259 16.801431631157705)"/></g><defs><path d="M233-177c-1 41-23 64-60 70L243 0h-38l-65-103H63V0H30v-248c88 3 205-21 203 71zM63-129c60-2 137 13 137-47 0-61-80-42-137-45v92" id="Z"/><path d="M141-36C126-15 110 5 73 4 37 3 15-17 15-53c-1-64 63-63 125-63 3-35-9-54-41-54-24 1-41 7-42 31l-33-3c5-37 33-52 76-52 45 0 72 20 72 64v82c-1 20 7 32 28 27v20c-31 9-61-2-59-35zM48-53c0 20 12 33 32 33 41-3 63-29 60-74-43 2-92-5-92 41" id="aa"/><path d="M135-143c-3-34-86-38-87 0 15 53 115 12 119 90S17 21 10-45l28-5c4 36 97 45 98 0-10-56-113-15-118-90-4-57 82-63 122-42 12 7 21 19 24 35" id="ab"/><path d="M115-194c55 1 70 41 70 98S169 2 115 4C84 4 66-9 55-30l1 105H24l-1-265h31l2 30c10-21 28-34 59-34zm-8 174c40 0 45-34 45-75s-6-73-45-74c-42 0-51 32-51 76 0 43 10 73 51 73" id="ac"/><path d="M115-194c53 0 69 39 70 98 0 66-23 100-70 100C84 3 66-7 56-30L54 0H23l1-261h32v101c10-23 28-34 59-34zm-8 174c40 0 45-34 45-75 0-40-5-75-45-74-42 0-51 32-51 76 0 43 10 73 51 73" id="ad"/><path d="M100-194c63 0 86 42 84 106H49c0 40 14 67 53 68 26 1 43-12 49-29l28 8c-11 28-37 45-77 45C44 4 14-33 15-96c1-61 26-98 85-98zm52 81c6-60-76-77-97-28-3 7-6 17-6 28h103" id="ae"/><path d="M114-163C36-179 61-72 57 0H25l-1-190h30c1 12-1 29 2 39 6-27 23-49 58-41v29" id="af"/><path d="M179-190L93 31C79 59 56 82 12 73V49c39 6 53-20 64-50L1-190h34L92-34l54-156h33" id="ag"/><g id="a"><use transform="matrix(0.05,0,0,0.05,0,0)" xlink:href="#Z"/><use transform="matrix(0.05,0,0,0.05,12.950000000000001,0)" xlink:href="#aa"/><use transform="matrix(0.05,0,0,0.05,22.950000000000003,0)" xlink:href="#ab"/><use transform="matrix(0.05,0,0,0.05,31.950000000000003,0)" xlink:href="#ac"/><use transform="matrix(0.05,0,0,0.05,41.95,0)" xlink:href="#ad"/><use transform="matrix(0.05,0,0,0.05,51.95,0)" xlink:href="#ae"/><use transform="matrix(0.05,0,0,0.05,61.95,0)" xlink:href="#af"/><use transform="matrix(0.05,0,0,0.05,67.9,0)" xlink:href="#af"/><use transform="matrix(0.05,0,0,0.05,73.85000000000001,0)" xlink:href="#ag"/></g><path d="M30-248c87 1 191-15 191 75 0 78-77 80-158 76V0H30v-248zm33 125c57 0 124 11 124-50 0-59-68-47-124-48v98" id="ah"/><path d="M24-231v-30h32v30H24zM24 0v-190h32V0H24" id="ai"/><g id="b"><use transform="matrix(0.05,0,0,0.05,0,0)" xlink:href="#ah"/><use transform="matrix(0.05,0,0,0.05,12,0)" xlink:href="#ai"/></g><path d="M155-56V0h-30v-56H8v-25l114-167h33v167h35v25h-35zm-30-156c-27 46-58 90-88 131h88v-131" id="aj"/><use transform="matrix(0.05,0,0,0.05,0,0)" xlink:href="#aj" id="c"/><path d="M212-179c-10-28-35-45-73-45-59 0-87 40-87 99 0 60 29 101 89 101 43 0 62-24 78-52l27 14C228-24 195 4 139 4 59 4 22-46 18-125c-6-104 99-153 187-111 19 9 31 26 39 46" id="ak"/><path d="M100-194c62-1 85 37 85 99 1 63-27 99-86 99S16-35 15-95c0-66 28-99 85-99zM99-20c44 1 53-31 53-75 0-43-8-75-51-75s-53 32-53 75 10 74 51 75" id="al"/><path d="M117-194c89-4 53 116 60 194h-32v-121c0-31-8-49-39-48C34-167 62-67 57 0H25l-1-190h30c1 10-1 24 2 32 11-22 29-35 61-36" id="am"/><path d="M59-47c-2 24 18 29 38 22v24C64 9 27 4 27-40v-127H5v-23h24l9-43h21v43h35v23H59v120" id="an"/><path d="M24 0v-261h32V0H24" id="ao"/><g id="d"><use transform="matrix(0.05,0,0,0.05,0,0)" xlink:href="#ak"/><use transform="matrix(0.05,0,0,0.05,12.950000000000001,0)" xlink:href="#al"/><use transform="matrix(0.05,0,0,0.05,22.950000000000003,0)" xlink:href="#am"/><use transform="matrix(0.05,0,0,0.05,32.95,0)" xlink:href="#an"/><use transform="matrix(0.05,0,0,0.05,37.95,0)" xlink:href="#af"/><use transform="matrix(0.05,0,0,0.05,43.900000000000006,0)" xlink:href="#al"/><use transform="matrix(0.05,0,0,0.05,53.900000000000006,0)" xlink:href="#ao"/><use transform="matrix(0.05,0,0,0.05,57.85,0)" xlink:href="#ao"/><use transform="matrix(0.05,0,0,0.05,61.80000000000001,0)" xlink:href="#ae"/><use transform="matrix(0.05,0,0,0.05,71.80000000000001,0)" xlink:href="#af"/></g><path fill="#3a414a" d="M30-248c87 1 191-15 191 75 0 78-77 80-158 76V0H30v-248zm33 125c57 0 124 11 124-50 0-59-68-47-124-48v98" id="ap"/><path fill="#3a414a" d="M106-169C34-169 62-67 57 0H25v-261h32l-1 103c12-21 28-36 61-36 89 0 53 116 60 194h-32v-121c2-32-8-49-39-48" id="aq"/><path fill="#3a414a" d="M179-190L93 31C79 59 56 82 12 73V49c39 6 53-20 64-50L1-190h34L92-34l54-156h33" id="ar"/><path fill="#3a414a" d="M135-143c-3-34-86-38-87 0 15 53 115 12 119 90S17 21 10-45l28-5c4 36 97 45 98 0-10-56-113-15-118-90-4-57 82-63 122-42 12 7 21 19 24 35" id="as"/><path fill="#3a414a" d="M24-231v-30h32v30H24zM24 0v-190h32V0H24" id="at"/><path fill="#3a414a" d="M96-169c-40 0-48 33-48 73s9 75 48 75c24 0 41-14 43-38l32 2c-6 37-31 61-74 61-59 0-76-41-82-99-10-93 101-131 147-64 4 7 5 14 7 22l-32 3c-4-21-16-35-41-35" id="au"/><path fill="#3a414a" d="M141-36C126-15 110 5 73 4 37 3 15-17 15-53c-1-64 63-63 125-63 3-35-9-54-41-54-24 1-41 7-42 31l-33-3c5-37 33-52 76-52 45 0 72 20 72 64v82c-1 20 7 32 28 27v20c-31 9-61-2-59-35zM48-53c0 20 12 33 32 33 41-3 63-29 60-74-43 2-92-5-92 41" id="av"/><path fill="#3a414a" d="M24 0v-261h32V0H24" id="aw"/><g id="e"><use transform="matrix(0.06172839506172839,0,0,0.06172839506172839,0,0)" xlink:href="#ap"/><use transform="matrix(0.06172839506172839,0,0,0.06172839506172839,14.814814814814813,0)" xlink:href="#aq"/><use transform="matrix(0.06172839506172839,0,0,0.06172839506172839,27.160493827160494,0)" xlink:href="#ar"/><use transform="matrix(0.06172839506172839,0,0,0.06172839506172839,38.27160493827161,0)" xlink:href="#as"/><use transform="matrix(0.06172839506172839,0,0,0.06172839506172839,49.38271604938272,0)" xlink:href="#at"/><use transform="matrix(0.06172839506172839,0,0,0.06172839506172839,54.25925925925927,0)" xlink:href="#au"/><use transform="matrix(0.06172839506172839,0,0,0.06172839506172839,65.37037037037038,0)" xlink:href="#av"/><use transform="matrix(0.06172839506172839,0,0,0.06172839506172839,77.71604938271606,0)" xlink:href="#aw"/></g><path fill="#3a414a" d="M143 4C61 4 22-44 18-125c-5-107 100-154 193-111 17 8 29 25 37 43l-32 9c-13-25-37-40-76-40-61 0-88 39-88 99 0 61 29 100 91 101 35 0 62-11 79-27v-45h-74v-28h105v86C228-13 192 4 143 4" id="ax"/><path fill="#3a414a" d="M33 0v-248h34V0H33" id="ay"/><path fill="#3a414a" d="M140-251c81 0 123 46 123 126C263-46 219 4 140 4 59 4 17-45 17-125s42-126 123-126zm0 227c63 0 89-41 89-101s-29-99-89-99c-61 0-89 39-89 99S79-25 140-24" id="az"/><g id="f"><use transform="matrix(0.06172839506172839,0,0,0.06172839506172839,0,0)" xlink:href="#ax"/><use transform="matrix(0.06172839506172839,0,0,0.06172839506172839,17.28395061728395,0)" xlink:href="#ap"/><use transform="matrix(0.06172839506172839,0,0,0.06172839506172839,32.09876543209876,0)" xlink:href="#ay"/><use transform="matrix(0.06172839506172839,0,0,0.06172839506172839,38.2716049382716,0)" xlink:href="#az"/></g><path fill="#3a414a" d="M114-163C36-179 61-72 57 0H25l-1-190h30c1 12-1 29 2 39 6-27 23-49 58-41v29" id="aA"/><path fill="#3a414a" d="M117-194c89-4 53 116 60 194h-32v-121c0-31-8-49-39-48C34-167 62-67 57 0H25l-1-190h30c1 10-1 24 2 32 11-22 29-35 61-36" id="aB"/><path fill="#3a414a" d="M85-194c31 0 48 13 60 33l-1-100h32l1 261h-30c-2-10 0-23-3-31C134-8 116 4 85 4 32 4 16-35 15-94c0-66 23-100 70-100zm9 24c-40 0-46 34-46 75 0 40 6 74 45 74 42 0 51-32 51-76 0-42-9-74-50-73" id="aC"/><path fill="#3a414a" d="M100-194c63 0 86 42 84 106H49c0 40 14 67 53 68 26 1 43-12 49-29l28 8c-11 28-37 45-77 45C44 4 14-33 15-96c1-61 26-98 85-98zm52 81c6-60-76-77-97-28-3 7-6 17-6 28h103" id="aD"/><g id="g"><use transform="matrix(0.06172839506172839,0,0,0.06172839506172839,0,0)" xlink:href="#ax"/><use transform="matrix(0.06172839506172839,0,0,0.06172839506172839,17.28395061728395,0)" xlink:href="#aA"/><use transform="matrix(0.06172839506172839,0,0,0.06172839506172839,24.629629629629626,0)" xlink:href="#at"/><use transform="matrix(0.06172839506172839,0,0,0.06172839506172839,29.50617283950617,0)" xlink:href="#aB"/><use transform="matrix(0.06172839506172839,0,0,0.06172839506172839,41.85185185185185,0)" xlink:href="#aC"/><use transform="matrix(0.06172839506172839,0,0,0.06172839506172839,54.197530864197525,0)" xlink:href="#aD"/><use transform="matrix(0.06172839506172839,0,0,0.06172839506172839,66.5432098765432,0)" xlink:href="#aA"/></g><path fill="#3a414a" d="M30-248c118-7 216 8 213 122C240-48 200 0 122 0H30v-248zM63-27c89 8 146-16 146-99s-60-101-146-95v194" id="aE"/><path fill="#3a414a" d="M108 0H70L1-190h34L89-25l56-165h34" id="aF"/><g id="h"><use transform="matrix(0.06172839506172839,0,0,0.06172839506172839,0,0)" xlink:href="#aE"/><use transform="matrix(0.06172839506172839,0,0,0.06172839506172839,15.987654320987653,0)" xlink:href="#aD"/><use transform="matrix(0.06172839506172839,0,0,0.06172839506172839,28.333333333333332,0)" xlink:href="#aF"/><use transform="matrix(0.06172839506172839,0,0,0.06172839506172839,39.44444444444444,0)" xlink:href="#at"/><use transform="matrix(0.06172839506172839,0,0,0.06172839506172839,44.32098765432099,0)" xlink:href="#au"/><use transform="matrix(0.06172839506172839,0,0,0.06172839506172839,55.4320987654321,0)" xlink:href="#aD"/></g><path fill="#3a414a" d="M233-177c-1 41-23 64-60 70L243 0h-38l-65-103H63V0H30v-248c88 3 205-21 203 71zM63-129c60-2 137 13 137-47 0-61-80-42-137-45v92" id="aG"/><g id="i"><use transform="matrix(0.06172839506172839,0,0,0.06172839506172839,0,0)" xlink:href="#aG"/><use transform="matrix(0.06172839506172839,0,0,0.06172839506172839,15.987654320987653,0)" xlink:href="#aD"/><use transform="matrix(0.06172839506172839,0,0,0.06172839506172839,28.333333333333332,0)" xlink:href="#aD"/><use transform="matrix(0.06172839506172839,0,0,0.06172839506172839,40.67901234567901,0)" xlink:href="#aC"/></g><path fill="#3a414a" d="M185-189c-5-48-123-54-124 2 14 75 158 14 163 119 3 78-121 87-175 55-17-10-28-26-33-46l33-7c5 56 141 63 141-1 0-78-155-14-162-118-5-82 145-84 179-34 5 7 8 16 11 25" id="aH"/><path fill="#3a414a" d="M206 0h-36l-40-164L89 0H53L-1-190h32L70-26l43-164h34l41 164 42-164h31" id="aI"/><path fill="#3a414a" d="M59-47c-2 24 18 29 38 22v24C64 9 27 4 27-40v-127H5v-23h24l9-43h21v43h35v23H59v120" id="aJ"/><g id="j"><use transform="matrix(0.06172839506172839,0,0,0.06172839506172839,0,0)" xlink:href="#aH"/><use transform="matrix(0.06172839506172839,0,0,0.06172839506172839,14.814814814814813,0)" xlink:href="#aI"/><use transform="matrix(0.06172839506172839,0,0,0.06172839506172839,30.80246913580247,0)" xlink:href="#at"/><use transform="matrix(0.06172839506172839,0,0,0.06172839506172839,35.67901234567901,0)" xlink:href="#aJ"/><use transform="matrix(0.06172839506172839,0,0,0.06172839506172839,41.851851851851855,0)" xlink:href="#au"/><use transform="matrix(0.06172839506172839,0,0,0.06172839506172839,52.96296296296296,0)" xlink:href="#aq"/></g><path fill="#333" d="M67-125c0 54 23 88 75 88 28 0 53-7 68-21v-34h-60v-39h108v91C232-14 192 4 140 4 58 4 20-42 15-125 8-236 126-280 215-234c19 10 29 26 37 47l-47 15c-11-23-29-39-63-39-53 1-75 33-75 86" id="aK"/><path fill="#333" d="M24-248c93 1 206-16 204 79-1 75-69 88-152 82V0H24v-248zm52 121c47 0 100 7 100-41 0-47-54-39-100-39v80" id="aL"/><path fill="#333" d="M24 0v-248h52V0H24" id="aM"/><path fill="#333" d="M140-251c80 0 125 45 125 126S219 4 139 4C58 4 15-44 15-125s44-126 125-126zm-1 214c52 0 73-35 73-88 0-50-21-86-72-86-52 0-73 35-73 86s22 88 72 88" id="aN"/><g id="k"><use transform="matrix(0.04938271604938272,0,0,0.04938271604938272,0,0)" xlink:href="#aK"/><use transform="matrix(0.04938271604938272,0,0,0.04938271604938272,13.827160493827162,0)" xlink:href="#aL"/><use transform="matrix(0.04938271604938272,0,0,0.04938271604938272,25.679012345679016,0)" xlink:href="#aM"/><use transform="matrix(0.04938271604938272,0,0,0.04938271604938272,30.617283950617285,0)" xlink:href="#aN"/></g><path fill="#333" d="M182-182c0 78-84 86-111 141h115V0H12c-6-101 99-100 120-180 1-22-12-31-33-32-23 0-32 14-35 34l-49-3c5-45 32-70 84-70 51 0 83 22 83 69" id="aO"/><path fill="#333" d="M23 0v-37h61v-169l-59 37v-38l62-41h46v211h57V0H23" id="aP"/><g id="l"><use transform="matrix(0.04938271604938272,0,0,0.04938271604938272,0,0)" xlink:href="#aO"/><use transform="matrix(0.04938271604938272,0,0,0.04938271604938272,9.876543209876544,0)" xlink:href="#aP"/></g><path fill="#333" d="M125-100v72H85v-72H15v-39h70v-72h40v72h71v39h-71" id="aQ"/><use transform="matrix(0.04938271604938272,0,0,0.04938271604938272,0,0)" xlink:href="#aQ" id="m"/><path fill="#333" d="M85 4C-2 5 27-109 22-190h50c7 57-23 150 33 157 60-5 35-97 40-157h50l1 190h-47c-2-12 1-28-3-38-12 25-28 42-61 42" id="aR"/><path fill="#333" d="M25 0v-261h50V0H25" id="aS"/><path fill="#333" d="M135-194c53 0 70 44 70 98 0 56-19 98-73 100-31 1-45-17-59-34 3 33 2 69 2 105H25l-1-265h48c2 10 0 23 3 31 11-24 29-35 60-35zM114-30c33 0 39-31 40-66 0-38-9-64-40-64-56 0-55 130 0 130" id="aT"/><g id="n"><use transform="matrix(0.04938271604938272,0,0,0.04938271604938272,0,0)" xlink:href="#aL"/><use transform="matrix(0.04938271604938272,0,0,0.04938271604938272,11.851851851851853,0)" xlink:href="#aR"/><use transform="matrix(0.04938271604938272,0,0,0.04938271604938272,22.666666666666668,0)" xlink:href="#aS"/><use transform="matrix(0.04938271604938272,0,0,0.04938271604938272,27.60493827160494,0)" xlink:href="#aS"/><use transform="matrix(0.04938271604938272,0,0,0.04938271604938272,32.543209876543216,0)" xlink:href="#aR"/><use transform="matrix(0.04938271604938272,0,0,0.04938271604938272,43.35802469135803,0)" xlink:href="#aT"/></g><path fill="#333" d="M175 0L67-191c6 58 2 128 3 191H24v-248h59L193-55c-6-58-2-129-3-193h46V0h-61" id="aU"/><path fill="#333" d="M24-248c120-7 223 5 221 122C244-46 201 0 124 0H24v-248zM76-40c74 7 117-18 117-86 0-67-45-88-117-82v168" id="aV"/><g id="o"><use transform="matrix(0.04938271604938272,0,0,0.04938271604938272,0,0)" xlink:href="#aK"/><use transform="matrix(0.04938271604938272,0,0,0.04938271604938272,13.827160493827162,0)" xlink:href="#aU"/><use transform="matrix(0.04938271604938272,0,0,0.04938271604938272,26.617283950617285,0)" xlink:href="#aV"/></g><g id="p"><use transform="matrix(0.06172839506172839,0,0,0.06172839506172839,0,0)" xlink:href="#ax"/><use transform="matrix(0.06172839506172839,0,0,0.06172839506172839,17.28395061728395,0)" xlink:href="#ap"/><use transform="matrix(0.06172839506172839,0,0,0.06172839506172839,32.09876543209876,0)" xlink:href="#ay"/><use transform="matrix(0.06172839506172839,0,0,0.06172839506172839,38.2716049382716,0)" xlink:href="#az"/></g><g id="q"><use transform="matrix(0.06172839506172839,0,0,0.06172839506172839,0,0)" xlink:href="#aH"/><use transform="matrix(0.06172839506172839,0,0,0.06172839506172839,14.814814814814813,0)" xlink:href="#aD"/><use transform="matrix(0.06172839506172839,0,0,0.06172839506172839,27.160493827160494,0)" xlink:href="#aA"/><use transform="matrix(0.06172839506172839,0,0,0.06172839506172839,34.50617283950617,0)" xlink:href="#aF"/><use transform="matrix(0.06172839506172839,0,0,0.06172839506172839,45.61728395061728,0)" xlink:href="#aD"/><use transform="matrix(0.06172839506172839,0,0,0.06172839506172839,57.962962962962955,0)" xlink:href="#aA"/></g><path fill="#3a414a" d="M212-179c-10-28-35-45-73-45-59 0-87 40-87 99 0 60 29 101 89 101 43 0 62-24 78-52l27 14C228-24 195 4 139 4 59 4 22-46 18-125c-6-104 99-153 187-111 19 9 31 26 39 46" id="aW"/><path fill="#3a414a" d="M100-194c62-1 85 37 85 99 1 63-27 99-86 99S16-35 15-95c0-66 28-99 85-99zM99-20c44 1 53-31 53-75 0-43-8-75-51-75s-53 32-53 75 10 74 51 75" id="aX"/><path fill="#3a414a" d="M210-169c-67 3-38 105-44 169h-31v-121c0-29-5-50-35-48C34-165 62-65 56 0H25l-1-190h30c1 10-1 24 2 32 10-44 99-50 107 0 11-21 27-35 58-36 85-2 47 119 55 194h-31v-121c0-29-5-49-35-48" id="aY"/><path fill="#3a414a" d="M84 4C-5 8 30-112 23-190h32v120c0 31 7 50 39 49 72-2 45-101 50-169h31l1 190h-30c-1-10 1-25-2-33-11 22-28 36-60 37" id="aZ"/><g id="r"><use transform="matrix(0.06172839506172839,0,0,0.06172839506172839,0,0)" xlink:href="#aW"/><use transform="matrix(0.06172839506172839,0,0,0.06172839506172839,15.987654320987653,0)" xlink:href="#aq"/><use transform="matrix(0.06172839506172839,0,0,0.06172839506172839,28.333333333333332,0)" xlink:href="#aA"/><use transform="matrix(0.06172839506172839,0,0,0.06172839506172839,35.67901234567901,0)" xlink:href="#aX"/><use transform="matrix(0.06172839506172839,0,0,0.06172839506172839,48.02469135802469,0)" xlink:href="#aY"/><use transform="matrix(0.06172839506172839,0,0,0.06172839506172839,66.48148148148148,0)" xlink:href="#aB"/><use transform="matrix(0.06172839506172839,0,0,0.06172839506172839,78.82716049382717,0)" xlink:href="#at"/><use transform="matrix(0.06172839506172839,0,0,0.06172839506172839,83.70370370370371,0)" xlink:href="#aZ"/><use transform="matrix(0.06172839506172839,0,0,0.06172839506172839,96.0493827160494,0)" xlink:href="#aY"/></g><g id="s"><use transform="matrix(0.06172839506172839,0,0,0.06172839506172839,0,0)" xlink:href="#aH"/><use transform="matrix(0.06172839506172839,0,0,0.06172839506172839,14.814814814814813,0)" xlink:href="#ar"/><use transform="matrix(0.06172839506172839,0,0,0.06172839506172839,25.925925925925924,0)" xlink:href="#as"/><use transform="matrix(0.06172839506172839,0,0,0.06172839506172839,37.03703703703704,0)" xlink:href="#aJ"/><use transform="matrix(0.06172839506172839,0,0,0.06172839506172839,43.20987654320988,0)" xlink:href="#aD"/><use transform="matrix(0.06172839506172839,0,0,0.06172839506172839,55.55555555555556,0)" xlink:href="#aY"/><use transform="matrix(0.06172839506172839,0,0,0.06172839506172839,74.01234567901234,0)" xlink:href="#aE"/></g><path fill="#3a414a" d="M160-131c35 5 61 23 61 61C221 17 115-2 30 0v-248c76 3 177-17 177 60 0 33-19 50-47 57zm-97-11c50-1 110 9 110-42 0-47-63-36-110-37v79zm0 115c55-2 124 14 124-45 0-56-70-42-124-44v89" id="ba"/><g id="t"><use transform="matrix(0.06172839506172839,0,0,0.06172839506172839,0,0)" xlink:href="#ba"/><use transform="matrix(0.06172839506172839,0,0,0.06172839506172839,14.814814814814813,0)" xlink:href="#aX"/><use transform="matrix(0.06172839506172839,0,0,0.06172839506172839,27.160493827160494,0)" xlink:href="#aX"/><use transform="matrix(0.06172839506172839,0,0,0.06172839506172839,39.50617283950617,0)" xlink:href="#aJ"/></g><g id="u"><use transform="matrix(0.06172839506172839,0,0,0.06172839506172839,0,0)" xlink:href="#ap"/><use transform="matrix(0.06172839506172839,0,0,0.06172839506172839,14.814814814814813,0)" xlink:href="#aA"/><use transform="matrix(0.06172839506172839,0,0,0.06172839506172839,22.160493827160494,0)" xlink:href="#aX"/><use transform="matrix(0.06172839506172839,0,0,0.06172839506172839,34.50617283950617,0)" xlink:href="#au"/><use transform="matrix(0.06172839506172839,0,0,0.06172839506172839,45.61728395061728,0)" xlink:href="#aD"/><use transform="matrix(0.06172839506172839,0,0,0.06172839506172839,57.962962962962955,0)" xlink:href="#as"/><use transform="matrix(0.06172839506172839,0,0,0.06172839506172839,69.07407407407406,0)" xlink:href="#as"/></g><path fill="#3a414a" d="M16-82v-28h88v28H16" id="bb"/><path fill="#3a414a" d="M177-190C167-65 218 103 67 71c-23-6-38-20-44-43l32-5c15 47 100 32 89-28v-30C133-14 115 1 83 1 29 1 15-40 15-95c0-56 16-97 71-98 29-1 48 16 59 35 1-10 0-23 2-32h30zM94-22c36 0 50-32 50-73 0-42-14-75-50-75-39 0-46 34-46 75s6 73 46 73" id="bc"/><path fill="#3a414a" d="M115-194c55 1 70 41 70 98S169 2 115 4C84 4 66-9 55-30l1 105H24l-1-265h31l2 30c10-21 28-34 59-34zm-8 174c40 0 45-34 45-75s-6-73-45-74c-42 0-51 32-51 76 0 43 10 73 51 73" id="bd"/><g id="v"><use transform="matrix(0.06172839506172839,0,0,0.06172839506172839,0,0)" xlink:href="#aB"/><use transform="matrix(0.06172839506172839,0,0,0.06172839506172839,12.345679012345679,0)" xlink:href="#av"/><use transform="matrix(0.06172839506172839,0,0,0.06172839506172839,24.691358024691358,0)" xlink:href="#aZ"/><use transform="matrix(0.06172839506172839,0,0,0.06172839506172839,37.03703703703704,0)" xlink:href="#aJ"/><use transform="matrix(0.06172839506172839,0,0,0.06172839506172839,43.20987654320988,0)" xlink:href="#bb"/><use transform="matrix(0.06172839506172839,0,0,0.06172839506172839,50.55555555555556,0)" xlink:href="#bc"/><use transform="matrix(0.06172839506172839,0,0,0.06172839506172839,62.901234567901234,0)" xlink:href="#bd"/><use transform="matrix(0.06172839506172839,0,0,0.06172839506172839,75.24691358024691,0)" xlink:href="#at"/><use transform="matrix(0.06172839506172839,0,0,0.06172839506172839,80.12345679012346,0)" xlink:href="#aX"/><use transform="matrix(0.06172839506172839,0,0,0.06172839506172839,92.46913580246914,0)" xlink:href="#bb"/></g><path fill="#3a414a" d="M33 0v-38h34V0H33" id="be"/><g id="w"><use transform="matrix(0.06172839506172839,0,0,0.06172839506172839,0,0)" xlink:href="#as"/><use transform="matrix(0.06172839506172839,0,0,0.06172839506172839,11.11111111111111,0)" xlink:href="#aD"/><use transform="matrix(0.06172839506172839,0,0,0.06172839506172839,23.45679012345679,0)" xlink:href="#aA"/><use transform="matrix(0.06172839506172839,0,0,0.06172839506172839,30.80246913580247,0)" xlink:href="#aF"/><use transform="matrix(0.06172839506172839,0,0,0.06172839506172839,41.91358024691358,0)" xlink:href="#aD"/><use transform="matrix(0.06172839506172839,0,0,0.06172839506172839,54.25925925925926,0)" xlink:href="#aA"/><use transform="matrix(0.06172839506172839,0,0,0.06172839506172839,60.37037037037037,0)" xlink:href="#be"/><use transform="matrix(0.06172839506172839,0,0,0.06172839506172839,66.5432098765432,0)" xlink:href="#as"/><use transform="matrix(0.06172839506172839,0,0,0.06172839506172839,77.65432098765432,0)" xlink:href="#aD"/><use transform="matrix(0.06172839506172839,0,0,0.06172839506172839,90,0)" xlink:href="#aA"/><use transform="matrix(0.06172839506172839,0,0,0.06172839506172839,97.34567901234568,0)" xlink:href="#aF"/><use transform="matrix(0.06172839506172839,0,0,0.06172839506172839,108.4567901234568,0)" xlink:href="#at"/><use transform="matrix(0.06172839506172839,0,0,0.06172839506172839,113.33333333333334,0)" xlink:href="#au"/><use transform="matrix(0.06172839506172839,0,0,0.06172839506172839,124.44444444444446,0)" xlink:href="#aD"/></g><path fill="#333" d="M275 0h-61l-44-196L126 0H64L0-248h53L97-49l45-199h58l43 199 44-199h52" id="bf"/><path fill="#333" d="M185-48c-13 30-37 53-82 52C43 2 14-33 14-96s30-98 90-98c62 0 83 45 84 108H66c0 31 8 55 39 56 18 0 30-7 34-22zm-45-69c5-46-57-63-70-21-2 6-4 13-4 21h74" id="bg"/><path fill="#333" d="M135-194c52 0 70 43 70 98 0 56-19 99-73 100-30 1-46-15-58-35L72 0H24l1-261h50v104c11-23 29-37 60-37zM114-30c31 0 40-27 40-66 0-37-7-63-39-63s-41 28-41 65c0 36 8 64 40 64" id="bh"/><path fill="#333" d="M137-138c1-29-70-34-71-4 15 46 118 7 119 86 1 83-164 76-172 9l43-7c4 19 20 25 44 25 33 8 57-30 24-41C81-84 22-81 20-136c-2-80 154-74 161-7" id="bi"/><path fill="#333" d="M110-194c64 0 96 36 96 99 0 64-35 99-97 99-61 0-95-36-95-99 0-62 34-99 96-99zm-1 164c35 0 45-28 45-65 0-40-10-65-43-65-34 0-45 26-45 65 0 36 10 65 43 65" id="bj"/><path fill="#333" d="M190-63c-7 42-38 67-86 67-59 0-84-38-90-98-12-110 154-137 174-36l-49 2c-2-19-15-32-35-32-30 0-35 28-38 64-6 74 65 87 74 30" id="bk"/><path fill="#333" d="M147 0L96-86 75-71V0H25v-261h50v150l67-79h53l-66 74L201 0h-54" id="bl"/><path fill="#333" d="M115-3C79 11 28 4 28-45v-112H4v-33h27l15-45h31v45h36v33H77v99c-1 23 16 31 38 25v30" id="bm"/><g id="x"><use transform="matrix(0.04938271604938272,0,0,0.04938271604938272,0,0)" xlink:href="#bf"/><use transform="matrix(0.04938271604938272,0,0,0.04938271604938272,16.39506172839506,0)" xlink:href="#bg"/><use transform="matrix(0.04938271604938272,0,0,0.04938271604938272,26.271604938271608,0)" xlink:href="#bh"/><use transform="matrix(0.04938271604938272,0,0,0.04938271604938272,37.08641975308642,0)" xlink:href="#bi"/><use transform="matrix(0.04938271604938272,0,0,0.04938271604938272,46.96296296296296,0)" xlink:href="#bj"/><use transform="matrix(0.04938271604938272,0,0,0.04938271604938272,57.777777777777786,0)" xlink:href="#bk"/><use transform="matrix(0.04938271604938272,0,0,0.04938271604938272,67.65432098765433,0)" xlink:href="#bl"/><use transform="matrix(0.04938271604938272,0,0,0.04938271604938272,77.53086419753087,0)" xlink:href="#bg"/><use transform="matrix(0.04938271604938272,0,0,0.04938271604938272,87.40740740740742,0)" xlink:href="#bm"/></g><path fill="#333" d="M24 0v-248h195v40H76v63h132v40H76v65h150V0H24" id="bn"/><path fill="#333" d="M128 0H69L1-190h53L99-40l48-150h52" id="bo"/><path fill="#333" d="M135-194c87-1 58 113 63 194h-50c-7-57 23-157-34-157-59 0-34 97-39 157H25l-1-190h47c2 12-1 28 3 38 12-26 28-41 61-42" id="bp"/><g id="y"><use transform="matrix(0.04938271604938272,0,0,0.04938271604938272,0,0)" xlink:href="#bn"/><use transform="matrix(0.04938271604938272,0,0,0.04938271604938272,11.851851851851853,0)" xlink:href="#bo"/><use transform="matrix(0.04938271604938272,0,0,0.04938271604938272,21.7283950617284,0)" xlink:href="#bg"/><use transform="matrix(0.04938271604938272,0,0,0.04938271604938272,31.60493827160494,0)" xlink:href="#bp"/><use transform="matrix(0.04938271604938272,0,0,0.04938271604938272,42.41975308641976,0)" xlink:href="#bm"/></g><path fill="#333" d="M169-182c-1-43-94-46-97-3 18 66 151 10 154 114 3 95-165 93-204 36-6-8-10-19-12-30l50-8c3 46 112 56 116 5-17-69-150-10-154-114-4-87 153-88 188-35 5 8 8 18 10 28" id="bq"/><path fill="#333" d="M135-150c-39-12-60 13-60 57V0H25l-1-190h47c2 13-1 29 3 40 6-28 27-53 61-41v41" id="br"/><path fill="#333" d="M133-34C117-15 103 5 69 4 32 3 11-16 11-54c-1-60 55-63 116-61 1-26-3-47-28-47-18 1-26 9-28 27l-52-2c7-38 36-58 82-57s74 22 75 68l1 82c-1 14 12 18 25 15v27c-30 8-71 5-69-32zm-48 3c29 0 43-24 42-57-32 0-66-3-65 30 0 17 8 27 23 27" id="bs"/><path fill="#333" d="M220-157c-53 9-28 100-34 157h-49v-107c1-27-5-49-29-50C55-147 81-57 75 0H25l-1-190h47c2 12-1 28 3 38 10-53 101-56 108 0 13-22 24-43 59-42 82 1 51 116 57 194h-49v-107c-1-25-5-48-29-50" id="bt"/><g id="z"><use transform="matrix(0.04938271604938272,0,0,0.04938271604938272,0,0)" xlink:href="#bq"/><use transform="matrix(0.04938271604938272,0,0,0.04938271604938272,11.851851851851853,0)" xlink:href="#bm"/><use transform="matrix(0.04938271604938272,0,0,0.04938271604938272,17.728395061728396,0)" xlink:href="#br"/><use transform="matrix(0.04938271604938272,0,0,0.04938271604938272,24.641975308641975,0)" xlink:href="#bg"/><use transform="matrix(0.04938271604938272,0,0,0.04938271604938272,34.51851851851852,0)" xlink:href="#bs"/><use transform="matrix(0.04938271604938272,0,0,0.04938271604938272,44.39506172839506,0)" xlink:href="#bt"/></g><g id="A"><use transform="matrix(0.04938271604938272,0,0,0.04938271604938272,0,0)" xlink:href="#bq"/><use transform="matrix(0.04938271604938272,0,0,0.04938271604938272,11.851851851851853,0)" xlink:href="#bg"/><use transform="matrix(0.04938271604938272,0,0,0.04938271604938272,21.7283950617284,0)" xlink:href="#br"/><use transform="matrix(0.04938271604938272,0,0,0.04938271604938272,28.64197530864198,0)" xlink:href="#bo"/><use transform="matrix(0.04938271604938272,0,0,0.04938271604938272,38.518518518518526,0)" xlink:href="#bg"/></g><g id="B"><use transform="matrix(0.04938271604938272,0,0,0.04938271604938272,0,0)" xlink:href="#aK"/><use transform="matrix(0.04938271604938272,0,0,0.04938271604938272,13.827160493827162,0)" xlink:href="#bs"/><use transform="matrix(0.04938271604938272,0,0,0.04938271604938272,23.703703703703706,0)" xlink:href="#bt"/><use transform="matrix(0.04938271604938272,0,0,0.04938271604938272,39.50617283950618,0)" xlink:href="#bg"/></g><path fill="#333" d="M199 0l-22-63H83L61 0H9l90-248h61L250 0h-51zm-33-102l-36-108c-10 38-24 72-36 108h72" id="bu"/><g id="C"><use transform="matrix(0.04938271604938272,0,0,0.04938271604938272,0,0)" xlink:href="#bu"/><use transform="matrix(0.04938271604938272,0,0,0.04938271604938272,12.790123456790125,0)" xlink:href="#aT"/><use transform="matrix(0.04938271604938272,0,0,0.04938271604938272,23.60493827160494,0)" xlink:href="#aT"/></g><g id="D"><use transform="matrix(0.06172839506172839,0,0,0.06172839506172839,0,0)" xlink:href="#aW"/><use transform="matrix(0.06172839506172839,0,0,0.06172839506172839,15.987654320987653,0)" xlink:href="#aq"/><use transform="matrix(0.06172839506172839,0,0,0.06172839506172839,28.333333333333332,0)" xlink:href="#aA"/><use transform="matrix(0.06172839506172839,0,0,0.06172839506172839,35.67901234567901,0)" xlink:href="#aY"/><use transform="matrix(0.06172839506172839,0,0,0.06172839506172839,54.1358024691358,0)" xlink:href="#aB"/><use transform="matrix(0.06172839506172839,0,0,0.06172839506172839,66.48148148148148,0)" xlink:href="#at"/><use transform="matrix(0.06172839506172839,0,0,0.06172839506172839,71.35802469135803,0)" xlink:href="#aZ"/><use transform="matrix(0.06172839506172839,0,0,0.06172839506172839,83.70370370370371,0)" xlink:href="#at"/><use transform="matrix(0.06172839506172839,0,0,0.06172839506172839,88.58024691358025,0)" xlink:href="#aY"/></g><g id="E"><use transform="matrix(0.06172839506172839,0,0,0.06172839506172839,0,0)" xlink:href="#aH"/><use transform="matrix(0.06172839506172839,0,0,0.06172839506172839,14.814814814814813,0)" xlink:href="#au"/><use transform="matrix(0.06172839506172839,0,0,0.06172839506172839,25.925925925925924,0)" xlink:href="#aA"/><use transform="matrix(0.06172839506172839,0,0,0.06172839506172839,33.2716049382716,0)" xlink:href="#at"/><use transform="matrix(0.06172839506172839,0,0,0.06172839506172839,38.148148148148145,0)" xlink:href="#bd"/><use transform="matrix(0.06172839506172839,0,0,0.06172839506172839,50.49382716049382,0)" xlink:href="#aJ"/></g><path fill="#3a414a" d="M143 0L79-87 56-68V0H24v-261h32v163l83-92h37l-77 82L181 0h-38" id="bv"/><g id="F"><use transform="matrix(0.06172839506172839,0,0,0.06172839506172839,0,0)" xlink:href="#bv"/><use transform="matrix(0.06172839506172839,0,0,0.06172839506172839,11.11111111111111,0)" xlink:href="#at"/><use transform="matrix(0.06172839506172839,0,0,0.06172839506172839,15.987654320987653,0)" xlink:href="#aX"/><use transform="matrix(0.06172839506172839,0,0,0.06172839506172839,28.333333333333332,0)" xlink:href="#as"/><use transform="matrix(0.06172839506172839,0,0,0.06172839506172839,39.44444444444444,0)" xlink:href="#bv"/><use transform="matrix(0.06172839506172839,0,0,0.06172839506172839,50.55555555555556,0)" xlink:href="#be"/><use transform="matrix(0.06172839506172839,0,0,0.06172839506172839,56.7283950617284,0)" xlink:href="#as"/><use transform="matrix(0.06172839506172839,0,0,0.06172839506172839,67.8395061728395,0)" xlink:href="#aq"/></g><path fill="#3a414a" d="M197 0v-115H63V0H30v-248h33v105h134v-105h34V0h-34" id="bw"/><path fill="#3a414a" d="M240 0l2-218c-23 76-54 145-80 218h-23L58-218 59 0H30v-248h44l77 211c21-75 51-140 76-211h43V0h-30" id="bx"/><g id="G"><use transform="matrix(0.06172839506172839,0,0,0.06172839506172839,0,0)" xlink:href="#bw"/><use transform="matrix(0.06172839506172839,0,0,0.06172839506172839,15.987654320987653,0)" xlink:href="#aE"/><use transform="matrix(0.06172839506172839,0,0,0.06172839506172839,31.975308641975307,0)" xlink:href="#bx"/><use transform="matrix(0.06172839506172839,0,0,0.06172839506172839,50.432098765432094,0)" xlink:href="#ay"/></g><g id="H"><use transform="matrix(0.06172839506172839,0,0,0.06172839506172839,0,0)" xlink:href="#aE"/><use transform="matrix(0.06172839506172839,0,0,0.06172839506172839,15.987654320987653,0)" xlink:href="#at"/><use transform="matrix(0.06172839506172839,0,0,0.06172839506172839,20.864197530864196,0)" xlink:href="#as"/><use transform="matrix(0.06172839506172839,0,0,0.06172839506172839,31.975308641975307,0)" xlink:href="#bd"/><use transform="matrix(0.06172839506172839,0,0,0.06172839506172839,44.32098765432099,0)" xlink:href="#aw"/><use transform="matrix(0.06172839506172839,0,0,0.06172839506172839,49.19753086419753,0)" xlink:href="#av"/><use transform="matrix(0.06172839506172839,0,0,0.06172839506172839,61.54320987654321,0)" xlink:href="#ar"/></g><path fill="#333" d="M88-194c31-1 46 15 58 34l-1-101h50l1 261h-48c-2-10 0-23-3-31C134-8 116 4 84 4 32 4 16-41 15-95c0-56 19-97 73-99zm17 164c33 0 40-30 41-66 1-37-9-64-41-64s-38 30-39 65c0 43 13 65 39 65" id="by"/><path fill="#333" d="M25-224v-37h50v37H25zM25 0v-190h50V0H25" id="bz"/><g id="I"><use transform="matrix(0.04938271604938272,0,0,0.04938271604938272,0,0)" xlink:href="#bu"/><use transform="matrix(0.04938271604938272,0,0,0.04938271604938272,12.790123456790125,0)" xlink:href="#by"/><use transform="matrix(0.04938271604938272,0,0,0.04938271604938272,23.60493827160494,0)" xlink:href="#bt"/><use transform="matrix(0.04938271604938272,0,0,0.04938271604938272,39.40740740740741,0)" xlink:href="#bz"/><use transform="matrix(0.04938271604938272,0,0,0.04938271604938272,44.345679012345684,0)" xlink:href="#bp"/></g><path fill="#333" d="M195-6C206 82 75 100 31 46c-4-6-6-13-8-21l49-6c3 16 16 24 34 25 40 0 42-37 40-79-11 22-30 35-61 35-53 0-70-43-70-97 0-56 18-96 73-97 30 0 46 14 59 34l2-30h47zm-90-29c32 0 41-27 41-63 0-35-9-62-40-62-32 0-39 29-40 63 0 36 9 62 39 62" id="bA"/><g id="J"><use transform="matrix(0.04938271604938272,0,0,0.04938271604938272,0,0)" xlink:href="#aL"/><use transform="matrix(0.04938271604938272,0,0,0.04938271604938272,11.851851851851853,0)" xlink:href="#bs"/><use transform="matrix(0.04938271604938272,0,0,0.04938271604938272,21.7283950617284,0)" xlink:href="#bA"/><use transform="matrix(0.04938271604938272,0,0,0.04938271604938272,32.543209876543216,0)" xlink:href="#bg"/></g><g id="K"><use transform="matrix(0.06172839506172839,0,0,0.06172839506172839,0,0)" xlink:href="#aG"/><use transform="matrix(0.06172839506172839,0,0,0.06172839506172839,15.987654320987653,0)" xlink:href="#aD"/><use transform="matrix(0.06172839506172839,0,0,0.06172839506172839,28.333333333333332,0)" xlink:href="#aY"/><use transform="matrix(0.06172839506172839,0,0,0.06172839506172839,46.79012345679012,0)" xlink:href="#aX"/><use transform="matrix(0.06172839506172839,0,0,0.06172839506172839,59.1358024691358,0)" xlink:href="#aJ"/><use transform="matrix(0.06172839506172839,0,0,0.06172839506172839,65.30864197530863,0)" xlink:href="#aD"/></g><path fill="#3a414a" d="M205 0l-28-72H64L36 0H1l101-248h38L239 0h-34zm-38-99l-47-123c-12 45-31 82-46 123h93" id="bB"/><g id="L"><use transform="matrix(0.06172839506172839,0,0,0.06172839506172839,0,0)" xlink:href="#bB"/><use transform="matrix(0.06172839506172839,0,0,0.06172839506172839,14.814814814814813,0)" xlink:href="#aC"/><use transform="matrix(0.06172839506172839,0,0,0.06172839506172839,27.160493827160494,0)" xlink:href="#aY"/><use transform="matrix(0.06172839506172839,0,0,0.06172839506172839,45.61728395061728,0)" xlink:href="#at"/><use transform="matrix(0.06172839506172839,0,0,0.06172839506172839,50.49382716049382,0)" xlink:href="#aB"/></g><g id="M"><use transform="matrix(0.06172839506172839,0,0,0.06172839506172839,0,0)" xlink:href="#bw"/><use transform="matrix(0.06172839506172839,0,0,0.06172839506172839,15.987654320987653,0)" xlink:href="#at"/><use transform="matrix(0.06172839506172839,0,0,0.06172839506172839,20.864197530864196,0)" xlink:href="#aC"/><use transform="matrix(0.06172839506172839,0,0,0.06172839506172839,33.20987654320987,0)" xlink:href="#aC"/><use transform="matrix(0.06172839506172839,0,0,0.06172839506172839,45.55555555555555,0)" xlink:href="#aD"/><use transform="matrix(0.06172839506172839,0,0,0.06172839506172839,57.90123456790123,0)" xlink:href="#aB"/></g><path fill="#3a414a" d="M266 0h-40l-56-210L115 0H75L2-248h35L96-30l15-64 43-154h32l59 218 59-218h35" id="bC"/><path fill="#3a414a" d="M101-234c-31-9-42 10-38 44h38v23H63V0H32v-167H5v-23h27c-7-52 17-82 69-68v24" id="bD"/><g id="N"><use transform="matrix(0.06172839506172839,0,0,0.06172839506172839,0,0)" xlink:href="#bC"/><use transform="matrix(0.06172839506172839,0,0,0.06172839506172839,20.925925925925924,0)" xlink:href="#at"/><use transform="matrix(0.06172839506172839,0,0,0.06172839506172839,25.80246913580247,0)" xlink:href="#bD"/><use transform="matrix(0.06172839506172839,0,0,0.06172839506172839,31.975308641975307,0)" xlink:href="#at"/></g><g id="O"><use transform="matrix(0.06172839506172839,0,0,0.06172839506172839,0,0)" xlink:href="#bw"/><use transform="matrix(0.06172839506172839,0,0,0.06172839506172839,15.987654320987653,0)" xlink:href="#aX"/><use transform="matrix(0.06172839506172839,0,0,0.06172839506172839,28.333333333333332,0)" xlink:href="#aJ"/><use transform="matrix(0.06172839506172839,0,0,0.06172839506172839,34.50617283950617,0)" xlink:href="#as"/><use transform="matrix(0.06172839506172839,0,0,0.06172839506172839,45.61728395061728,0)" xlink:href="#bd"/><use transform="matrix(0.06172839506172839,0,0,0.06172839506172839,57.962962962962955,0)" xlink:href="#aX"/><use transform="matrix(0.06172839506172839,0,0,0.06172839506172839,70.30864197530863,0)" xlink:href="#aJ"/></g><path d="M24-248c120-7 223 5 221 122C244-46 201 0 124 0H24v-248zM76-40c74 7 117-18 117-86 0-67-45-88-117-82v168" id="bE"/><path d="M25-224v-37h50v37H25zM25 0v-190h50V0H25" id="bF"/><path d="M133-34C117-15 103 5 69 4 32 3 11-16 11-54c-1-60 55-63 116-61 1-26-3-47-28-47-18 1-26 9-28 27l-52-2c7-38 36-58 82-57s74 22 75 68l1 82c-1 14 12 18 25 15v27c-30 8-71 5-69-32zm-48 3c29 0 43-24 42-57-32 0-66-3-65 30 0 17 8 27 23 27" id="bG"/><path d="M195-6C206 82 75 100 31 46c-4-6-6-13-8-21l49-6c3 16 16 24 34 25 40 0 42-37 40-79-11 22-30 35-61 35-53 0-70-43-70-97 0-56 18-96 73-97 30 0 46 14 59 34l2-30h47zm-90-29c32 0 41-27 41-63 0-35-9-62-40-62-32 0-39 29-40 63 0 36 9 62 39 62" id="bH"/><path d="M135-150c-39-12-60 13-60 57V0H25l-1-190h47c2 13-1 29 3 40 6-28 27-53 61-41v41" id="bI"/><path d="M220-157c-53 9-28 100-34 157h-49v-107c1-27-5-49-29-50C55-147 81-57 75 0H25l-1-190h47c2 12-1 28 3 38 10-53 101-56 108 0 13-22 24-43 59-42 82 1 51 116 57 194h-49v-107c-1-25-5-48-29-50" id="bJ"/><g id="P"><use transform="matrix(0.05048284672904218,0,0,0.05048284672904218,0,0)" xlink:href="#bE"/><use transform="matrix(0.05048284672904218,0,0,0.05048284672904218,13.075057302821925,0)" xlink:href="#bF"/><use transform="matrix(0.05048284672904218,0,0,0.05048284672904218,18.12334197572614,0)" xlink:href="#bG"/><use transform="matrix(0.05048284672904218,0,0,0.05048284672904218,28.21991132153457,0)" xlink:href="#bH"/><use transform="matrix(0.05048284672904218,0,0,0.05048284672904218,39.27565475519481,0)" xlink:href="#bI"/><use transform="matrix(0.05048284672904218,0,0,0.05048284672904218,46.343253297260716,0)" xlink:href="#bG"/><use transform="matrix(0.05048284672904218,0,0,0.05048284672904218,56.43982264306914,0)" xlink:href="#bJ"/></g><path d="M195 0l-88-114-31 24V0H24v-248h52v113l112-113h60L142-143 257 0h-62" id="bK"/><path d="M185-48c-13 30-37 53-82 52C43 2 14-33 14-96s30-98 90-98c62 0 83 45 84 108H66c0 31 8 55 39 56 18 0 30-7 34-22zm-45-69c5-46-57-63-70-21-2 6-4 13-4 21h74" id="bL"/><path d="M123 10C108 53 80 86 19 72V37c35 8 53-11 59-39L3-190h52l48 148c12-52 28-100 44-148h51" id="bM"/><g id="Q"><use transform="matrix(0.05048284672904218,0,0,0.05048284672904218,0,0)" xlink:href="#bK"/><use transform="matrix(0.05048284672904218,0,0,0.05048284672904218,13.075057302821925,0)" xlink:href="#bL"/><use transform="matrix(0.05048284672904218,0,0,0.05048284672904218,23.171626648630358,0)" xlink:href="#bM"/></g><path d="M84 4C-5 8 30-112 23-190h32v120c0 31 7 50 39 49 72-2 45-101 50-169h31l1 190h-30c-1-10 1-25-2-33-11 22-28 36-60 37" id="bN"/><path d="M210-169c-67 3-38 105-44 169h-31v-121c0-29-5-50-35-48C34-165 62-65 56 0H25l-1-190h30c1 10-1 24 2 32 10-44 99-50 107 0 11-21 27-35 58-36 85-2 47 119 55 194h-31v-121c0-29-5-49-35-48" id="bO"/><g id="R"><use transform="matrix(0.03813716771669652,0,0,0.03813716771669652,0,0)" xlink:href="#ak"/><use transform="matrix(0.03813716771669652,0,0,0.03813716771669652,9.877526438624399,0)" xlink:href="#bN"/><use transform="matrix(0.03813716771669652,0,0,0.03813716771669652,17.5049599819637,0)" xlink:href="#ab"/><use transform="matrix(0.03813716771669652,0,0,0.03813716771669652,24.369650170969074,0)" xlink:href="#an"/><use transform="matrix(0.03813716771669652,0,0,0.03813716771669652,28.183366942638727,0)" xlink:href="#al"/><use transform="matrix(0.03813716771669652,0,0,0.03813716771669652,35.810800485978035,0)" xlink:href="#bO"/></g><path d="M190 0L58-211 59 0H30v-248h39L202-35l-2-213h31V0h-41" id="bP"/><g id="S"><use transform="matrix(0.03813716771669652,0,0,0.03813716771669652,0,0)" xlink:href="#bP"/><use transform="matrix(0.03813716771669652,0,0,0.03813716771669652,9.877526438624399,0)" xlink:href="#aa"/><use transform="matrix(0.03813716771669652,0,0,0.03813716771669652,17.5049599819637,0)" xlink:href="#bN"/><use transform="matrix(0.03813716771669652,0,0,0.03813716771669652,25.132393525303,0)" xlink:href="#an"/></g><path d="M185-189c-5-48-123-54-124 2 14 75 158 14 163 119 3 78-121 87-175 55-17-10-28-26-33-46l33-7c5 56 141 63 141-1 0-78-155-14-162-118-5-82 145-84 179-34 5 7 8 16 11 25" id="bQ"/><path d="M101-234c-31-9-42 10-38 44h38v23H63V0H32v-167H5v-23h27c-7-52 17-82 69-68v24" id="bR"/><path d="M206 0h-36l-40-164L89 0H53L-1-190h32L70-26l43-164h34l41 164 42-164h31" id="bS"/><g id="T"><use transform="matrix(0.03813716771669652,0,0,0.03813716771669652,0,0)" xlink:href="#bQ"/><use transform="matrix(0.03813716771669652,0,0,0.03813716771669652,9.152920252007165,0)" xlink:href="#al"/><use transform="matrix(0.03813716771669652,0,0,0.03813716771669652,16.78035379534647,0)" xlink:href="#bR"/><use transform="matrix(0.03813716771669652,0,0,0.03813716771669652,20.594070567016125,0)" xlink:href="#an"/><use transform="matrix(0.03813716771669652,0,0,0.03813716771669652,24.40778733868578,0)" xlink:href="#bS"/><use transform="matrix(0.03813716771669652,0,0,0.03813716771669652,34.28531377731018,0)" xlink:href="#aa"/><use transform="matrix(0.03813716771669652,0,0,0.03813716771669652,41.91274732064949,0)" xlink:href="#af"/><use transform="matrix(0.03813716771669652,0,0,0.03813716771669652,46.45107027893637,0)" xlink:href="#ae"/></g><path d="M160-131c35 5 61 23 61 61C221 17 115-2 30 0v-248c76 3 177-17 177 60 0 33-19 50-47 57zm-97-11c50-1 110 9 110-42 0-47-63-36-110-37v79zm0 115c55-2 124 14 124-45 0-56-70-42-124-44v89" id="bT"/><path d="M16-82v-28h88v28H16" id="bU"/><g id="U"><use transform="matrix(0.03196432821052369,0,0,0.03196432821052369,0,0)" xlink:href="#bT"/><use transform="matrix(0.03196432821052369,0,0,0.03196432821052369,7.671438770525685,0)" xlink:href="#bN"/><use transform="matrix(0.03196432821052369,0,0,0.03196432821052369,14.064304412630424,0)" xlink:href="#ai"/><use transform="matrix(0.03196432821052369,0,0,0.03196432821052369,16.589486341261797,0)" xlink:href="#ao"/><use transform="matrix(0.03196432821052369,0,0,0.03196432821052369,19.11466826989317,0)" xlink:href="#an"/><use transform="matrix(0.03196432821052369,0,0,0.03196432821052369,22.311101090945538,0)" xlink:href="#bU"/><use transform="matrix(0.03196432821052369,0,0,0.03196432821052369,26.114856147997855,0)" xlink:href="#ai"/><use transform="matrix(0.03196432821052369,0,0,0.03196432821052369,28.640038076629228,0)" xlink:href="#am"/></g><g id="V"><use transform="matrix(0.03196432821052369,0,0,0.03196432821052369,0,0)" xlink:href="#Z"/><use transform="matrix(0.03196432821052369,0,0,0.03196432821052369,8.278761006525636,0)" xlink:href="#aa"/><use transform="matrix(0.03196432821052369,0,0,0.03196432821052369,14.671626648630376,0)" xlink:href="#ab"/><use transform="matrix(0.03196432821052369,0,0,0.03196432821052369,20.425205726524638,0)" xlink:href="#ac"/><use transform="matrix(0.03196432821052369,0,0,0.03196432821052369,26.818071368629376,0)" xlink:href="#ad"/><use transform="matrix(0.03196432821052369,0,0,0.03196432821052369,33.21093701073411,0)" xlink:href="#ai"/><use transform="matrix(0.03196432821052369,0,0,0.03196432821052369,35.73611893936548,0)" xlink:href="#aa"/><use transform="matrix(0.03196432821052369,0,0,0.03196432821052369,42.12898458147022,0)" xlink:href="#am"/></g><path d="M127-220V0H93v-220H8v-28h204v28h-85" id="bV"/><path d="M0 4l72-265h28L28 4H0" id="bW"/><path d="M205 0l-28-72H64L36 0H1l101-248h38L239 0h-34zm-38-99l-47-123c-12 45-31 82-46 123h93" id="bX"/><g id="W"><use transform="matrix(0.03196432821052369,0,0,0.03196432821052369,0,0)" xlink:href="#bV"/><use transform="matrix(0.03196432821052369,0,0,0.03196432821052369,5.721614749683741,0)" xlink:href="#al"/><use transform="matrix(0.03196432821052369,0,0,0.03196432821052369,12.11448039178848,0)" xlink:href="#al"/><use transform="matrix(0.03196432821052369,0,0,0.03196432821052369,18.507346033893217,0)" xlink:href="#ao"/><use transform="matrix(0.03196432821052369,0,0,0.03196432821052369,21.03252796252459,0)" xlink:href="#ab"/><use transform="matrix(0.03196432821052369,0,0,0.03196432821052369,26.786107040418855,0)" xlink:href="#bW"/><use transform="matrix(0.03196432821052369,0,0,0.03196432821052369,29.982539861471224,0)" xlink:href="#bX"/><use transform="matrix(0.03196432821052369,0,0,0.03196432821052369,37.65397863199691,0)" xlink:href="#ac"/><use transform="matrix(0.03196432821052369,0,0,0.03196432821052369,44.046844274101645,0)" xlink:href="#ac"/><use transform="matrix(0.03196432821052369,0,0,0.03196432821052369,50.43970991620638,0)" xlink:href="#ab"/></g><path d="M30 0v-248h187v28H63v79h144v27H63v87h162V0H30" id="bY"/><path d="M141 0L90-78 38 0H4l68-98-65-92h35l48 74 47-74h35l-64 92 68 98h-35" id="bZ"/><g id="X"><use transform="matrix(0.03196432821052369,0,0,0.03196432821052369,0,0)" xlink:href="#bY"/><use transform="matrix(0.03196432821052369,0,0,0.03196432821052369,7.671438770525685,0)" xlink:href="#bZ"/><use transform="matrix(0.03196432821052369,0,0,0.03196432821052369,13.425017848419948,0)" xlink:href="#an"/><use transform="matrix(0.03196432821052369,0,0,0.03196432821052369,16.621450669472317,0)" xlink:href="#ae"/><use transform="matrix(0.03196432821052369,0,0,0.03196432821052369,23.014316311577055,0)" xlink:href="#af"/><use transform="matrix(0.03196432821052369,0,0,0.03196432821052369,26.818071368629376,0)" xlink:href="#am"/><use transform="matrix(0.03196432821052369,0,0,0.03196432821052369,33.21093701073411,0)" xlink:href="#aa"/><use transform="matrix(0.03196432821052369,0,0,0.03196432821052369,39.60380265283885,0)" xlink:href="#ao"/></g><path d="M30-248c118-7 216 8 213 122C240-48 200 0 122 0H30v-248zM63-27c89 8 146-16 146-99s-60-101-146-95v194" id="ca"/><path d="M108 0H70L1-190h34L89-25l56-165h34" id="cb"/><path d="M96-169c-40 0-48 33-48 73s9 75 48 75c24 0 41-14 43-38l32 2c-6 37-31 61-74 61-59 0-76-41-82-99-10-93 101-131 147-64 4 7 5 14 7 22l-32 3c-4-21-16-35-41-35" id="cc"/><path d="M197 0v-115H63V0H30v-248h33v105h134v-105h34V0h-34" id="cd"/><path d="M85-194c31 0 48 13 60 33l-1-100h32l1 261h-30c-2-10 0-23-3-31C134-8 116 4 85 4 32 4 16-35 15-94c0-66 23-100 70-100zm9 24c-40 0-46 34-46 75 0 40 6 74 45 74 42 0 51-32 51-76 0-42-9-74-50-73" id="ce"/><g id="Y"><use transform="matrix(0.03196432821052369,0,0,0.03196432821052369,0,0)" xlink:href="#ca"/><use transform="matrix(0.03196432821052369,0,0,0.03196432821052369,8.278761006525636,0)" xlink:href="#ae"/><use transform="matrix(0.03196432821052369,0,0,0.03196432821052369,14.671626648630376,0)" xlink:href="#cb"/><use transform="matrix(0.03196432821052369,0,0,0.03196432821052369,20.425205726524638,0)" xlink:href="#ai"/><use transform="matrix(0.03196432821052369,0,0,0.03196432821052369,22.95038765515601,0)" xlink:href="#cc"/><use transform="matrix(0.03196432821052369,0,0,0.03196432821052369,28.703966733050272,0)" xlink:href="#ae"/><use transform="matrix(0.03196432821052369,0,0,0.03196432821052369,35.09683237515501,0)" xlink:href="#ab"/><use transform="matrix(0.03196432821052369,0,0,0.03196432821052369,40.850411453049276,0)" xlink:href="#bW"/><use transform="matrix(0.03196432821052369,0,0,0.03196432821052369,44.046844274101645,0)" xlink:href="#cd"/><use transform="matrix(0.03196432821052369,0,0,0.03196432821052369,52.32560528062728,0)" xlink:href="#aa"/><use transform="matrix(0.03196432821052369,0,0,0.03196432821052369,58.71847092273202,0)" xlink:href="#af"/><use transform="matrix(0.03196432821052369,0,0,0.03196432821052369,62.52222597978434,0)" xlink:href="#ce"/><use transform="matrix(0.03196432821052369,0,0,0.03196432821052369,68.91509162188908,0)" xlink:href="#bS"/><use transform="matrix(0.03196432821052369,0,0,0.03196432821052369,77.19385262841472,0)" xlink:href="#aa"/><use transform="matrix(0.03196432821052369,0,0,0.03196432821052369,83.58671827051946,0)" xlink:href="#af"/><use transform="matrix(0.03196432821052369,0,0,0.03196432821052369,87.39047332757177,0)" xlink:href="#ae"/></g></defs></g></svg>