<?xml version="1.0" encoding="UTF-8"?>
<svg width="315.2" height="54.88" data-name="Layer 2" version="1.1" viewBox="0 0 315.2 54.88" xmlns="http://www.w3.org/2000/svg">
 <defs>
  <style>.cls-1 {
        fill: #f15a29;
      }

      .cls-2 {
        fill: #00aeef;
      }</style>
 </defs>
 <g transform="translate(-44.98,-4.33)" data-name="Layer 1">
  <path class="cls-2" d="m44.98 58.65v-48.3h23.6c6.07 0 10.64 1.15 13.7 3.45s4.59 5.34 4.59 9.11c0 2.53-0.62 4.73-1.86 6.59s-2.94 3.3-5.11 4.31c-2.16 1.01-4.65 1.52-7.45 1.52l1.31-2.83c3.04 0 5.73 0.49 8.07 1.48 2.35 0.99 4.17 2.45 5.49 4.38 1.31 1.93 1.97 4.3 1.97 7.11 0 4.14-1.63 7.37-4.9 9.69s-8.07 3.48-14.42 3.48h-24.98zm11.11-8.42h13.04c2.9 0 5.09-0.47 6.59-1.41 1.49-0.94 2.24-2.45 2.24-4.52s-0.75-3.53-2.24-4.52c-1.5-0.99-3.69-1.48-6.59-1.48h-13.87v-8.14h11.94c2.71 0 4.8-0.47 6.24-1.41 1.45-0.94 2.17-2.38 2.17-4.31s-0.72-3.3-2.17-4.24-3.53-1.41-6.24-1.41h-11.11v31.46z"/>
  <path class="cls-2" d="m102.38 16.35c-1.98 0-3.59-0.57-4.83-1.73-1.24-1.15-1.86-2.58-1.86-4.28s0.62-3.13 1.86-4.28 2.85-1.73 4.83-1.73 3.59 0.54 4.83 1.62 1.86 2.47 1.86 4.17c0 1.79-0.61 3.28-1.83 4.45s-2.84 1.76-4.86 1.76zm-5.38 42.3v-37.12h10.76v37.12z"/>
  <path class="cls-2" d="m129.22 59.2c-2.9 0-5.38-0.49-7.45-1.48s-3.66-2.33-4.76-4.04c-1.1-1.7-1.66-3.61-1.66-5.73s0.54-4.14 1.62-5.8 2.79-2.96 5.14-3.9 5.4-1.41 9.18-1.41h9.87v6.28h-8.69c-2.53 0-4.27 0.41-5.21 1.24s-1.41 1.86-1.41 3.1c0 1.38 0.54 2.47 1.62 3.28s2.56 1.21 4.45 1.21 3.4-0.42 4.83-1.28c1.43-0.85 2.46-2.1 3.1-3.76l1.66 4.97c-0.78 2.39-2.21 4.21-4.28 5.45s-4.74 1.86-8 1.86zm11.32-0.55v-7.25l-0.69-1.59v-12.97c0-2.3-0.7-4.09-2.1-5.38s-3.55-1.93-6.45-1.93c-1.98 0-3.92 0.31-5.83 0.93s-3.53 1.46-4.86 2.52l-3.86-7.52c2.02-1.43 4.46-2.53 7.31-3.31s5.75-1.17 8.69-1.17c5.66 0 10.05 1.33 13.18 4s4.69 6.83 4.69 12.49v21.18h-10.07z"/>
  <path class="cls-2" d="m172.83 59.2c-3.17 0-6.22-0.38-9.14-1.14s-5.23-1.71-6.93-2.86l3.59-7.73c1.7 1.06 3.71 1.92 6.04 2.59 2.32 0.67 4.61 1 6.87 1 2.48 0 4.24-0.3 5.28-0.9s1.55-1.43 1.55-2.48c0-0.87-0.4-1.53-1.21-1.97s-1.88-0.77-3.21-1-2.79-0.46-4.38-0.69-3.19-0.54-4.8-0.93-3.08-0.98-4.42-1.76c-1.33-0.78-2.4-1.84-3.21-3.17s-1.21-3.06-1.21-5.17c0-2.35 0.68-4.42 2.04-6.21s3.32-3.21 5.9-4.24c2.58-1.04 5.66-1.55 9.25-1.55 2.53 0 5.11 0.28 7.73 0.83s4.81 1.36 6.56 2.42l-3.59 7.66c-1.79-1.06-3.6-1.78-5.42-2.17s-3.58-0.59-5.28-0.59c-2.39 0-4.14 0.32-5.24 0.97-1.1 0.64-1.66 1.47-1.66 2.48 0 0.92 0.4 1.61 1.21 2.07 0.8 0.46 1.87 0.83 3.21 1.1 1.33 0.28 2.79 0.52 4.38 0.72s3.18 0.52 4.8 0.93c1.61 0.41 3.07 1 4.38 1.76s2.38 1.79 3.21 3.1 1.24 3.03 1.24 5.14c0 2.3-0.69 4.34-2.07 6.11s-3.37 3.16-5.97 4.17-5.76 1.52-9.49 1.52z"/>
  <path class="cls-2" d="m197.74 58.65v-48.3h11.18v39.19h24.22v9.11z"/>
  <path class="cls-2" d="m256.8 59.2c-4.23 0-7.95-0.83-11.14-2.48-3.2-1.66-5.67-3.92-7.42-6.8-1.75-2.87-2.62-6.15-2.62-9.83s0.86-7.03 2.59-9.9 4.08-5.13 7.07-6.76 6.37-2.45 10.14-2.45 6.91 0.77 9.83 2.31 5.23 3.75 6.93 6.62c1.7 2.88 2.55 6.31 2.55 10.32 0 0.41-0.02 0.89-0.07 1.41-0.05 0.53-0.09 1.02-0.14 1.48h-30.15v-6.28h24.5l-4.14 1.86c0-1.93-0.39-3.61-1.17-5.04s-1.86-2.54-3.24-3.35c-1.38-0.8-2.99-1.21-4.83-1.21s-3.46 0.4-4.86 1.21-2.5 1.93-3.28 3.38-1.17 3.16-1.17 5.14v1.66c0 2.02 0.45 3.81 1.35 5.35s2.16 2.71 3.79 3.52 3.55 1.21 5.76 1.21c1.98 0 3.71-0.3 5.21-0.9 1.49-0.6 2.86-1.49 4.11-2.69l5.73 6.21c-1.7 1.93-3.84 3.42-6.42 4.45-2.58 1.04-5.54 1.55-8.9 1.55z"/>
  <path class="cls-1" d="m304.48 20.98c2.94 0 5.58 0.59 7.9 1.76s4.15 2.97 5.49 5.38c1.33 2.42 2 5.51 2 9.28v21.25h-10.76v-19.6c0-2.99-0.66-5.2-1.97-6.62-1.31-1.43-3.16-2.14-5.55-2.14-1.7 0-3.23 0.36-4.59 1.07s-2.42 1.81-3.17 3.28c-0.76 1.47-1.14 3.36-1.14 5.66v18.35h-10.76v-37.12h10.28v10.28l-1.93-3.1c1.33-2.48 3.24-4.39 5.73-5.73 2.48-1.33 5.31-2 8.49-2z"/>
  <path class="cls-1" d="m327.05 58.65v-6.49l21.94-25.94 1.86 3.59h-23.32v-8.28h32.02v6.49l-21.94 25.94-1.93-3.59h24.5v8.28h-33.12z"/>
 </g>
</svg>
