<?xml version="1.0" encoding="UTF-8" standalone="no"?>
<svg
   id="Layer_2"
   data-name="Layer 2"
   viewBox="0 0 126505.52 4199.4177"
   version="1.1"
   width="126505.52"
   height="4199.4175"
   xmlns="http://www.w3.org/2000/svg"
   xmlns:svg="http://www.w3.org/2000/svg">
  <defs
     id="defs1">
    <style
       id="style1">
      .cls-1 {
        fill: #f15a29;
      }

      .cls-2 {
        fill: #00aeef;
      }
    </style>
  </defs>
  <g
     id="Layer_1-2"
     data-name="Layer 1"
     transform="translate(-18052.723,-331.33159)">
    <g
       id="g8">
      <path
         class="cls-2"
         d="m 44.98,58.65 v -48.3 h 23.6 c 6.07,0 10.64,1.15 13.7,3.45 3.06,2.3 4.59,5.34 4.59,9.11 0,2.53 -0.62,4.73 -1.86,6.59 -1.24,1.86 -2.94,3.3 -5.11,4.31 -2.16,1.01 -4.65,1.52 -7.45,1.52 l 1.31,-2.83 c 3.04,0 5.73,0.49 8.07,1.48 2.35,0.99 4.17,2.45 5.49,4.38 1.31,1.93 1.97,4.3 1.97,7.11 0,4.14 -1.63,7.37 -4.9,9.69 -3.27,2.32 -8.07,3.48 -14.42,3.48 H 44.99 Z m 11.11,-8.42 h 13.04 c 2.9,0 5.09,-0.47 6.59,-1.41 1.49,-0.94 2.24,-2.45 2.24,-4.52 0,-2.07 -0.75,-3.53 -2.24,-4.52 -1.5,-0.99 -3.69,-1.48 -6.59,-1.48 H 55.26 V 30.16 H 67.2 c 2.71,0 4.8,-0.47 6.24,-1.41 1.45,-0.94 2.17,-2.38 2.17,-4.31 0,-1.93 -0.72,-3.3 -2.17,-4.24 -1.45,-0.94 -3.53,-1.41 -6.24,-1.41 H 56.09 v 31.46 z"
         id="path1" />
      <path
         class="cls-2"
         d="m 102.38,16.35 c -1.98,0 -3.59,-0.57 -4.83,-1.73 -1.24,-1.15 -1.86,-2.58 -1.86,-4.28 0,-1.7 0.62,-3.13 1.86,-4.28 1.24,-1.15 2.85,-1.73 4.83,-1.73 1.98,0 3.59,0.54 4.83,1.62 1.24,1.08 1.86,2.47 1.86,4.17 0,1.79 -0.61,3.28 -1.83,4.45 -1.22,1.17 -2.84,1.76 -4.86,1.76 z M 97,58.65 V 21.53 h 10.76 v 37.12 z"
         id="path2" />
      <path
         class="cls-2"
         d="m 129.22,59.2 c -2.9,0 -5.38,-0.49 -7.45,-1.48 -2.07,-0.99 -3.66,-2.33 -4.76,-4.04 -1.1,-1.7 -1.66,-3.61 -1.66,-5.73 0,-2.12 0.54,-4.14 1.62,-5.8 1.08,-1.66 2.79,-2.96 5.14,-3.9 2.35,-0.94 5.4,-1.41 9.18,-1.41 h 9.87 v 6.28 h -8.69 c -2.53,0 -4.27,0.41 -5.21,1.24 -0.94,0.83 -1.41,1.86 -1.41,3.1 0,1.38 0.54,2.47 1.62,3.28 1.08,0.81 2.56,1.21 4.45,1.21 1.89,0 3.4,-0.42 4.83,-1.28 1.43,-0.85 2.46,-2.1 3.1,-3.76 l 1.66,4.97 c -0.78,2.39 -2.21,4.21 -4.28,5.45 -2.07,1.24 -4.74,1.86 -8,1.86 z m 11.32,-0.55 V 51.4 l -0.69,-1.59 V 36.84 c 0,-2.3 -0.7,-4.09 -2.1,-5.38 -1.4,-1.29 -3.55,-1.93 -6.45,-1.93 -1.98,0 -3.92,0.31 -5.83,0.93 -1.91,0.62 -3.53,1.46 -4.86,2.52 l -3.86,-7.52 c 2.02,-1.43 4.46,-2.53 7.31,-3.31 2.85,-0.78 5.75,-1.17 8.69,-1.17 5.66,0 10.05,1.33 13.18,4 3.13,2.67 4.69,6.83 4.69,12.49 v 21.18 h -10.07 z"
         id="path3" />
      <path
         class="cls-2"
         d="m 172.83,59.2 c -3.17,0 -6.22,-0.38 -9.14,-1.14 -2.92,-0.76 -5.23,-1.71 -6.93,-2.86 l 3.59,-7.73 c 1.7,1.06 3.71,1.92 6.04,2.59 2.32,0.67 4.61,1 6.87,1 2.48,0 4.24,-0.3 5.28,-0.9 1.04,-0.6 1.55,-1.43 1.55,-2.48 0,-0.87 -0.4,-1.53 -1.21,-1.97 -0.81,-0.44 -1.88,-0.77 -3.21,-1 -1.33,-0.23 -2.79,-0.46 -4.38,-0.69 -1.59,-0.23 -3.19,-0.54 -4.8,-0.93 -1.61,-0.39 -3.08,-0.98 -4.42,-1.76 -1.33,-0.78 -2.4,-1.84 -3.21,-3.17 -0.81,-1.33 -1.21,-3.06 -1.21,-5.17 0,-2.35 0.68,-4.42 2.04,-6.21 1.36,-1.79 3.32,-3.21 5.9,-4.24 2.58,-1.04 5.66,-1.55 9.25,-1.55 2.53,0 5.11,0.28 7.73,0.83 2.62,0.55 4.81,1.36 6.56,2.42 l -3.59,7.66 c -1.79,-1.06 -3.6,-1.78 -5.42,-2.17 -1.82,-0.39 -3.58,-0.59 -5.28,-0.59 -2.39,0 -4.14,0.32 -5.24,0.97 -1.1,0.64 -1.66,1.47 -1.66,2.48 0,0.92 0.4,1.61 1.21,2.07 0.8,0.46 1.87,0.83 3.21,1.1 1.33,0.28 2.79,0.52 4.38,0.72 1.59,0.2 3.18,0.52 4.8,0.93 1.61,0.41 3.07,1 4.38,1.76 1.31,0.76 2.38,1.79 3.21,3.1 0.83,1.31 1.24,3.03 1.24,5.14 0,2.3 -0.69,4.34 -2.07,6.11 -1.38,1.77 -3.37,3.16 -5.97,4.17 -2.6,1.01 -5.76,1.52 -9.49,1.52 z"
         id="path4" />
      <path
         class="cls-2"
         d="m 197.74,58.65 v -48.3 h 11.18 v 39.19 h 24.22 v 9.11 z"
         id="path5" />
      <path
         class="cls-2"
         d="m 256.8,59.2 c -4.23,0 -7.95,-0.83 -11.14,-2.48 -3.2,-1.66 -5.67,-3.92 -7.42,-6.8 -1.75,-2.87 -2.62,-6.15 -2.62,-9.83 0,-3.68 0.86,-7.03 2.59,-9.9 1.73,-2.87 4.08,-5.13 7.07,-6.76 2.99,-1.63 6.37,-2.45 10.14,-2.45 3.77,0 6.91,0.77 9.83,2.31 2.92,1.54 5.23,3.75 6.93,6.62 1.7,2.88 2.55,6.31 2.55,10.32 0,0.41 -0.02,0.89 -0.07,1.41 -0.05,0.53 -0.09,1.02 -0.14,1.48 h -30.15 v -6.28 h 24.5 l -4.14,1.86 c 0,-1.93 -0.39,-3.61 -1.17,-5.04 -0.78,-1.43 -1.86,-2.54 -3.24,-3.35 -1.38,-0.8 -2.99,-1.21 -4.83,-1.21 -1.84,0 -3.46,0.4 -4.86,1.21 -1.4,0.81 -2.5,1.93 -3.28,3.38 -0.78,1.45 -1.17,3.16 -1.17,5.14 v 1.66 c 0,2.02 0.45,3.81 1.35,5.35 0.9,1.54 2.16,2.71 3.79,3.52 1.63,0.81 3.55,1.21 5.76,1.21 1.98,0 3.71,-0.3 5.21,-0.9 1.49,-0.6 2.86,-1.49 4.11,-2.69 l 5.73,6.21 c -1.7,1.93 -3.84,3.42 -6.42,4.45 -2.58,1.04 -5.54,1.55 -8.9,1.55 z"
         id="path6" />
      <path
         class="cls-1"
         d="m 304.48,20.98 c 2.94,0 5.58,0.59 7.9,1.76 2.32,1.17 4.15,2.97 5.49,5.38 1.33,2.42 2,5.51 2,9.28 v 21.25 h -10.76 v -19.6 c 0,-2.99 -0.66,-5.2 -1.97,-6.62 -1.31,-1.43 -3.16,-2.14 -5.55,-2.14 -1.7,0 -3.23,0.36 -4.59,1.07 -1.36,0.71 -2.42,1.81 -3.17,3.28 -0.76,1.47 -1.14,3.36 -1.14,5.66 V 58.65 H 281.93 V 21.53 h 10.28 v 10.28 l -1.93,-3.1 c 1.33,-2.48 3.24,-4.39 5.73,-5.73 2.48,-1.33 5.31,-2 8.49,-2 z"
         id="path7" />
      <path
         class="cls-1"
         d="m 327.05,58.65 v -6.49 l 21.94,-25.94 1.86,3.59 h -23.32 v -8.28 h 32.02 v 6.49 l -21.94,25.94 -1.93,-3.59 h 24.5 v 8.28 h -33.12 z"
         id="path8" />
    </g>
  </g>
</svg>
