<svg xmlns="http://www.w3.org/2000/svg" xmlns:xlink="http://www.w3.org/1999/xlink" xmlns:lucid="lucid" width="1002" height="602"><g transform="translate(-538.9999999933178 -318.9999999960232)" lucid:page-tab-id="0_0"><path d="M500 0h1500v1000H500z" fill="#fff"/><path d="M580 446a6 6 0 0 1 6-6h103a6 6 0 0 1 6 6v8a14.48 14.48 0 0 1-4.24 10.24l-1.52 1.52A14.48 14.48 0 0 1 679 470h-93a6 6 0 0 1-6-6z" fill="#e3fae3"/><path d="M695 440v20l-10 10H580" fill="none"/><path d="M695 440v1.67m0 6.66v3.34m0 6.66V460l-1.67 1.67m-6.66 6.66L685 470h-1.94m-7.78 0h-3.9m-7.77 0h-3.88m-7.78 0h-3.88m-7.78 0h-3.9m-7.77 0h-3.88m-7.78 0h-3.88m-7.78 0h-3.9m-7.77 0h-3.88m-7.78 0H580" stroke="#008a0e" stroke-width="2" fill="none"/><path d="M580 446a6 6 0 0 1 6-6h448a6 6 0 0 1 6 6v388a6 6 0 0 1-6 6H586a6 6 0 0 1-6-6z" fill="none"/><path d="M584.45 440.22l.6-.15.95-.07h2.02m8.07 0h4.03m8.07 0h4.03m8.08 0h4.04m8.07 0h4.05m8.07 0h4.04m8.07 0h4.04m8.07 0h4.03m8.08 0h4.03m8.08 0H697m8.06 0h4.04m8.07 0h4.04m8.08 0h4.04m8.07 0h4.02m8.08 0h4.03m8.07 0h4.04m8.07 0h4.05m8.07 0h4.04m8.07 0h4.03m8.08 0h4.03m8.07 0h4.04m8.07 0h4.04m8.06 0h4.04m8.07 0h4.03m8.08 0h4.03m8.08 0h4.04m8.07 0h4.03m8.07 0h4.04m8.07 0h4.04m8.08 0h4.03m8.08 0h4.03m8.07 0h4.04m8.07 0h4.04m8.07 0h4.04m8.06 0h4.03m8.07 0h4.03m8.07 0h4.04m8.08 0h2.02l.94.07.6.15m4.24 4.23l.15.6.07.95v2.02m0 8.08v4.05m0 8.08v4.04m0 8.08v4.05m0 8.08v4.04m0 8.08v4.05m0 8.08v4.04m0 8.08v4.05m0 8.08v4.04m0 8.08v4.05m0 8.08v4.04m0 8.08v4.05m0 8.08v4.04m0 8.08v4.05m0 8.08v4.04m0 8.08v4.05m0 8.08v4.04m0 8.08v4.05m0 8.08v4.04m0 8.08v4.05m0 8.08v4.04m0 8.08v4.05m0 8.08v4.04m0 8.08v4.05m0 8.08v4.04m0 8.08v4.05m0 8.08v4.04m0 8.08v4.05m0 8.08v4.04m0 8.08v4.05m0 8.08v4.04m0 8.08v4.05m0 8.08V834l-.07.94-.15.6m-4.23 4.24l-.6.15-.95.07h-2.02m-8.07 0h-4.03m-8.07 0h-4.03m-8.08 0h-4.04m-8.07 0h-4.05m-8.07 0h-4.04m-8.07 0h-4.04m-8.07 0h-4.03m-8.08 0h-4.03m-8.08 0H923m-8.06 0h-4.04m-8.07 0h-4.04m-8.08 0h-4.04m-8.07 0h-4.02m-8.08 0h-4.03m-8.07 0h-4.04m-8.07 0h-4.05m-8.07 0h-4.04m-8.07 0h-4.03m-8.08 0h-4.03m-8.07 0h-4.04m-8.07 0h-4.04m-8.06 0h-4.04m-8.07 0h-4.03m-8.08 0h-4.03m-8.08 0h-4.04m-8.07 0h-4.03m-8.07 0h-4.04m-8.07 0h-4.04m-8.08 0h-4.03m-8.08 0h-4.03m-8.07 0h-4.04m-8.07 0h-4.04m-8.07 0h-4.04m-8.06 0h-4.03m-8.07 0h-4.03m-8.07 0h-4.04m-8.08 0H586l-.94-.07-.6-.15m-4.24-4.23l-.15-.6-.07-.95v-2.02m0-8.08v-4.05m0-8.08v-4.04m0-8.08v-4.05m0-8.08v-4.04m0-8.08v-4.05m0-8.08v-4.04m0-8.08v-4.05m0-8.08v-4.04m0-8.08v-4.05m0-8.08v-4.04m0-8.08v-4.05m0-8.08v-4.04m0-8.08v-4.05m0-8.08v-4.04m0-8.08v-4.05m0-8.08v-4.04m0-8.08v-4.05m0-8.08v-4.04m0-8.08v-4.05m0-8.08v-4.04m0-8.08v-4.05m0-8.08v-4.04m0-8.08v-4.05m0-8.08v-4.04m0-8.08v-4.05m0-8.08v-4.04m0-8.08v-4.05m0-8.08v-4.04m0-8.08v-4.05m0-8.08v-4.04m0-8.08v-4.05m0-8.08V446l.07-.94.15-.6" stroke="#008a0e" stroke-width="2" fill="none"/><use xlink:href="#a" transform="matrix(1,0,0,1,588,440) translate(0 23.08376736111111)"/><use xlink:href="#b" transform="matrix(1,0,0,1,588,440) translate(82.15060763888889 23.08376736111111)"/><path d="M560 386a6 6 0 0 1 6-6h103a6 6 0 0 1 6 6v8a14.48 14.48 0 0 1-4.24 10.24l-1.52 1.52A14.48 14.48 0 0 1 659 410h-93a6 6 0 0 1-6-6z" fill="#f2f2ff"/><path d="M675 380v20l-10 10H560" fill="none"/><path d="M675 380v1.67m0 6.66v3.34m0 6.66V400l-1.67 1.67m-6.66 6.66L665 410h-1.94m-7.78 0h-3.9m-7.77 0h-3.88m-7.78 0h-3.88m-7.78 0h-3.9m-7.77 0h-3.88m-7.78 0h-3.88m-7.78 0h-3.9m-7.77 0h-3.88m-7.78 0H560" stroke="#635dff" stroke-width="2" fill="none"/><path d="M560 386a6 6 0 0 1 6-6h708a6 6 0 0 1 6 6v488a6 6 0 0 1-6 6H566a6 6 0 0 1-6-6z" fill="none"/><path d="M564.45 380.22l.6-.15.95-.07h2m8 0h4m8 0h4m8 0h4m8 0h4m8 0h4m8 0h4m8 0h4m8 0h4m8 0h4m8 0h4m8 0h4m8 0h4m8 0h4m8 0h4m8 0h4m8 0h4m8 0h4m8 0h4m8 0h4m8 0h4m8 0h4m8 0h4m8 0h4m8 0h4m8 0h4m8 0h4m8 0h4m8 0h4m8 0h4m8 0h4m8 0h4m8 0h4m8 0h4m8 0h4m8 0h4m8 0h4m8 0h4m8 0h4m8 0h4m8 0h4m8 0h4m8 0h4m8 0h4m8 0h4m8 0h4m8 0h4m8 0h4m8 0h4m8 0h4m8 0h4m8 0h4m8 0h4m8 0h4m8 0h4m8 0h4m8 0h4m8 0h4m8 0h4m8 0h2l.94.07.6.15m4.24 4.23l.15.6.07.95v1.98m0 7.94v3.97m0 7.92v3.97m0 7.92v3.97m0 7.93v3.96m0 7.93v3.97m0 7.93v3.97m0 7.93v3.97m0 7.94v3.96m0 7.94v3.97m0 7.94V507m0 7.94v3.97m0 7.95v3.96m0 7.95v3.97m0 7.93v3.97m0 7.93v3.97m0 7.94v3.96m0 7.94v3.97m0 7.93v3.97m0 7.93v3.97m0 7.94v3.96m0 7.94v3.96m0 7.94v3.97m0 7.93v3.97m0 7.93v3.97m0 7.94v3.96m0 7.94v3.97m0 7.93v3.97m0 7.93v3.97m0 7.94v3.95m0 7.94v3.96m0 7.93v3.96m0 7.93v3.96m0 7.94v3.96m0 7.94v3.97m0 7.93v3.97m0 7.93v3.97m0 7.94v3.97m0 7.94v3.98m0 7.93v3.98m0 7.93v3.98m0 7.94V874l-.07.94-.15.6m-4.23 4.24l-.6.15-.95.07h-2m-8 0h-4m-8 0h-4m-8 0h-4m-8 0h-4m-8 0h-4m-8 0h-4m-8 0h-4m-8 0h-4m-8 0h-4m-8 0h-4m-8 0h-4m-8 0h-4m-8 0h-4m-8 0h-4m-8 0h-4m-8 0h-4m-8 0h-4m-8 0h-4m-8 0h-4m-8 0h-4m-8 0h-4m-8 0h-4m-8 0h-4m-8 0h-4m-8 0h-4m-8 0h-4m-8 0h-4m-8 0h-4m-8 0h-4m-8 0h-4m-8 0h-4m-8 0h-4m-8 0h-4m-8 0h-4m-8 0h-4m-8 0h-4m-8 0h-4m-8 0h-4m-8 0h-4m-8 0h-4m-8 0h-4m-8 0h-4m-8 0h-4m-8 0h-4m-8 0h-4m-8 0h-4m-8 0h-4m-8 0h-4m-8 0h-4m-8 0h-4m-8 0h-4m-8 0h-4m-8 0h-4m-8 0h-4m-8 0h-4m-8 0h-4m-8 0h-4m-8 0h-4m-8 0h-2l-.94-.07-.6-.15m-4.24-4.23l-.15-.6-.07-.95v-1.98m0-7.94v-3.97m0-7.92v-3.97m0-7.92v-3.97m0-7.93v-3.96m0-7.93v-3.97m0-7.93v-3.97m0-7.93v-3.97m0-7.94v-3.96m0-7.94v-3.97m0-7.94V753m0-7.94v-3.97m0-7.95v-3.96m0-7.95v-3.97m0-7.93v-3.97m0-7.93v-3.97m0-7.94v-3.96m0-7.94v-3.97m0-7.93v-3.97m0-7.93v-3.97m0-7.94v-3.96m0-7.94v-3.96m0-7.94v-3.97m0-7.93v-3.97m0-7.93v-3.97m0-7.94v-3.96m0-7.94v-3.97m0-7.93v-3.97m0-7.93v-3.97m0-7.94v-3.95m0-7.94v-3.96m0-7.93v-3.96m0-7.93v-3.96m0-7.94v-3.96m0-7.94v-3.97m0-7.93v-3.97m0-7.93v-3.97m0-7.94v-3.97m0-7.94v-3.98m0-7.93v-3.98m0-7.93v-3.98m0-7.94V386l.07-.94.15-.6" stroke="#635dff" stroke-width="2" fill="none"/><use xlink:href="#a" transform="matrix(1,0,0,1,568,380) translate(0 23.08376736111111)"/><use xlink:href="#c" transform="matrix(1,0,0,1,568,380) translate(82.15060763888889 23.08376736111111)"/><path d="M540 326a6 6 0 0 1 6-6h103a6 6 0 0 1 6 6v8a14.48 14.48 0 0 1-4.24 10.24l-1.52 1.52A14.48 14.48 0 0 1 639 350h-93a6 6 0 0 1-6-6z" fill="#fff3d9"/><path d="M655 320v20l-10 10H540" fill="none"/><path d="M655 320v1.67m0 6.66v3.34m0 6.66V340l-1.67 1.67m-6.66 6.66L645 350h-1.94m-7.78 0h-3.9m-7.77 0h-3.88m-7.78 0h-3.88m-7.78 0h-3.9m-7.77 0h-3.88m-7.78 0h-3.88m-7.78 0h-3.9m-7.77 0h-3.88m-7.78 0H540" stroke="#fc9432" stroke-width="2" fill="none"/><path d="M540 326a6 6 0 0 1 6-6h988a6 6 0 0 1 6 6v588a6 6 0 0 1-6 6H546a6 6 0 0 1-6-6z" fill="none"/><path d="M544.45 320.22l.6-.15.95-.07h2m8.04 0h4.02m8.03 0h4m8.04 0h4m8.05 0h4m8.04 0h4m8.04 0h4.02m8.03 0h4.02m8.03 0h4.02m8.03 0h4.02m8.03 0h4.02m8.03 0h4m8.05 0h4m8.05 0h4m8.04 0h4.02m8.02 0h4.02m8.03 0h4.02m8.02 0h4.02m8.03 0h4.02m8.02 0h4m8.05 0h4m8.05 0h4m8.05 0h4m8.04 0h4.03m8.03 0h4.02m8.03 0h4.03m8.03 0h4.02m8.03 0h4.03m8.03 0h4m8.05 0h4.02m8.04 0h4m8.04 0h4.02m8.03 0h4.02m8.03 0h4.02m8.03 0h4.02m8.03 0h4m8.05 0h4m8.05 0h4m8.05 0h4m8.04 0h4m8.04 0h4.02m8.03 0h4m8.04 0h4.02m8.03 0h4m8.04 0h4m8.05 0h4m8.04 0h4m8.05 0h4m8.03 0h4.02m8.03 0h4.02m8.03 0h4.02m8.03 0h4.02m8.03 0h4.02m8.03 0h4m8.05 0h4m8.04 0h4.02m8.02 0h4.02m8.03 0h4.02m8.02 0h4.02m8.03 0h4.02m8.02 0h4m8.05 0h4m8.05 0h4m8.05 0h4m8.04 0h4.03m8.03 0h4.02m8.03 0h4.03m8.03 0h4.02m8.03 0h4.03m8.03 0h4m8.05 0h4.02m8.03 0h4.02m8.03 0h4.02m8.03 0h4.02m8.03 0h4.02m8.03 0h4.02m8.03 0h4m8.05 0h4m8.05 0h4m8.05 0h4m8.04 0h4m8.04 0h4.02m8.03 0h2l.94.07.6.15m4.24 4.23l.15.6.07.95v2m0 8v4m0 8v4m0 8v4m0 8v4m0 8v4m0 8v4m0 8v4m0 8v4m0 8v4m0 8v4m0 8v4m0 8v4m0 8v4m0 8v4m0 8v4m0 8v4m0 8v4m0 8v4m0 8v4m0 8v4m0 8v4m0 8v4m0 8v4m0 8v4m0 8v4m0 8v4m0 8v4m0 8v4m0 8v4m0 8v4m0 8v4m0 8v4m0 8v4m0 8v4m0 8v4m0 8v4m0 8v4m0 8v4m0 8v4m0 8v4m0 8v4m0 8v4m0 8v4m0 8v4m0 8v4m0 8v4m0 8v4m0 8v4m0 8v2l-.07.94-.15.6m-4.23 4.24l-.6.15-.95.07h-2m-8.04 0h-4.02m-8.03 0h-4m-8.04 0h-4m-8.05 0h-4m-8.04 0h-4m-8.05 0h-4m-8.03 0h-4.02m-8.03 0h-4.02m-8.03 0h-4.02m-8.03 0h-4.02m-8.03 0h-4.02m-8.03 0h-4m-8.05 0h-4m-8.04 0h-4.02m-8.02 0h-4.02m-8.03 0h-4.02m-8.02 0h-4.02m-8.03 0h-4.02m-8.02 0h-4m-8.05 0h-4m-8.05 0h-4m-8.05 0h-4m-8.04 0h-4.03m-8.03 0h-4.02m-8.03 0h-4.03m-8.03 0h-4.02m-8.03 0h-4.03m-8.03 0h-4m-8.05 0h-4.02m-8.03 0h-4.02m-8.03 0h-4.02m-8.03 0h-4.02m-8.03 0h-4.02m-8.03 0h-4.02m-8.03 0h-4m-8.05 0h-4m-8.05 0h-4m-8.05 0h-4m-8.04 0h-4m-8.04 0h-4.02m-8.03 0h-4m-8.04 0h-4.02m-8.03 0h-4m-8.04 0h-4m-8.05 0h-4m-8.04 0h-4m-8.04 0h-4.02m-8.03 0h-4.02m-8.03 0h-4.02m-8.03 0h-4.02m-8.03 0h-4.02m-8.03 0h-4m-8.05 0h-4m-8.05 0h-4m-8.04 0h-4.02m-8.02 0h-4.02m-8.03 0h-4.02m-8.02 0h-4.02m-8.03 0h-4.02m-8.02 0h-4m-8.05 0h-4m-8.05 0h-4m-8.05 0h-4m-8.04 0h-4.03m-8.03 0h-4.02m-8.03 0h-4.03m-8.03 0h-4.02m-8.03 0h-4.03m-8.03 0h-4m-8.05 0h-4.02m-8.04 0h-4m-8.04 0h-4.02m-8.03 0h-4.02m-8.03 0h-4.02m-8.03 0h-4.02m-8.03 0h-4m-8.05 0h-4m-8.05 0h-4m-8.05 0h-4m-8.04 0h-4m-8.04 0h-4.02m-8.03 0h-2l-.94-.07-.6-.15m-4.24-4.23l-.15-.6-.07-.95v-2m0-8v-4m0-8v-4m0-8v-4m0-8v-4m0-8v-4m0-8v-4m0-8v-4m0-8v-4m0-8v-4m0-8v-4m0-8v-4m0-8v-4m0-8v-4m0-8v-4m0-8v-4m0-8v-4m0-8v-4m0-8v-4m0-8v-4m0-8v-4m0-8v-4m0-8v-4m0-8v-4m0-8v-4m0-8v-4m0-8v-4m0-8v-4m0-8v-4m0-8v-4m0-8v-4m0-8v-4m0-8v-4m0-8v-4m0-8v-4m0-8v-4m0-8v-4m0-8v-4m0-8v-4m0-8v-4m0-8v-4m0-8v-4m0-8v-4m0-8v-4m0-8v-4m0-8v-4m0-8v-4m0-8v-4m0-8v-4m0-8v-2l.07-.94.15-.6" stroke="#fc9432" stroke-width="2" fill="none"/><use xlink:href="#a" transform="matrix(1,0,0,1,548,320) translate(0 23.08376736111111)"/><use xlink:href="#d" transform="matrix(1,0,0,1,548,320) translate(82.15060763888889 23.08376736111111)"/><path d="M850.67 506a6 6 0 0 1 6-6h148a6 6 0 0 1 6 6v108a6 6 0 0 1-6 6h-148a6 6 0 0 1-6-6z" stroke="#6db1ff" stroke-width="4" fill="#edf5ff"/><use xlink:href="#e" transform="matrix(1,0,0,1,862.6666666666666,512) translate(32.60503472222222 42.52777777777778)"/><use xlink:href="#f" transform="matrix(1,0,0,1,862.6666666666666,512) translate(13.746527777777764 69.41579861111111)"/><path d="M930.67 623.5v53.88" stroke="#008a0e" stroke-width="3" fill="none"/><path d="M932.14 623.54h-2.95V622h2.94z" stroke="#008a0e" stroke-width=".05" fill="#008a0e"/><path d="M930.67 693.15l-4.64-14.27h9.27z" stroke="#008a0e" stroke-width="3" fill="#008a0e"/><path d="M850.67 706a6 6 0 0 1 6-6h148a6 6 0 0 1 6 6v108a6 6 0 0 1-6 6h-148a6 6 0 0 1-6-6z" stroke="#ba23f6" stroke-width="4" fill="#fbf0ff"/><use xlink:href="#g" transform="matrix(1,0,0,1,862.6666666666666,712) translate(28.411241319444436 42.52777777777778)"/><use xlink:href="#h" transform="matrix(1,0,0,1,862.6666666666666,712) translate(36.13151041666667 69.41579861111111)"/><path d="M601.33 506a6 6 0 0 1 6-6h148a6 6 0 0 1 6 6v108a6 6 0 0 1-6 6h-148a6 6 0 0 1-6-6z" stroke="#ba23f6" stroke-width="4" fill="#fbf0ff"/><use xlink:href="#i" transform="matrix(1,0,0,1,613.3333333333333,512) translate(-5.3344184027777715 56.08376736111111)"/><path d="M764.83 560h63.22" stroke="#008a0e" stroke-width="3" fill="none"/><path d="M764.87 561.48h-1.54v-2.96h1.54z" stroke="#008a0e" stroke-width=".05" fill="#008a0e"/><path d="M843.8 560l-14.25 4.63v-9.26z" stroke="#008a0e" stroke-width="3" fill="#008a0e"/><path d="M1100 506a6 6 0 0 1 6-6h148a6 6 0 0 1 6 6v108a6 6 0 0 1-6 6h-148a6 6 0 0 1-6-6z" stroke="#e81313" stroke-width="4" fill="#fff0f0"/><use xlink:href="#j" transform="matrix(1,0,0,1,1112,512) translate(33.793185763888886 30.52777777777778)"/><use xlink:href="#k" transform="matrix(1,0,0,1,1112,512) translate(29.984592013888886 57.415798611111114)"/><use xlink:href="#l" transform="matrix(1,0,0,1,1112,512) translate(27.90125868055555 84.30381944444446)"/><path d="M1014.17 560h63.2" stroke="#635dff" stroke-width="3" fill="none"/><path d="M1014.2 561.48h-1.53v-2.96h1.54z" stroke="#635dff" stroke-width=".05" fill="#635dff"/><path d="M1093.15 560l-14.27 4.63v-9.26z" stroke="#635dff" stroke-width="3" fill="#635dff"/><path d="M1100 706a6 6 0 0 1 6-6h148a6 6 0 0 1 6 6v108a6 6 0 0 1-6 6h-148a6 6 0 0 1-6-6z" stroke="#6db1ff" stroke-width="4" fill="#edf5ff"/><use xlink:href="#m" transform="matrix(1,0,0,1,1112,712) translate(15.249348958333329 57.52777777777778)"/><path d="M1349.33 506a6 6 0 0 1 6-6h148a6 6 0 0 1 6 6v108a6 6 0 0 1-6 6h-148a6 6 0 0 1-6-6z" stroke="#6db1ff" stroke-width="4" fill="#edf5ff"/><use xlink:href="#n" transform="matrix(1,0,0,1,1361.3333333333335,512) translate(5.608506944444443 42.52777777777778)"/><use xlink:href="#o" transform="matrix(1,0,0,1,1361.3333333333335,512) translate(59.6015625 42.52777777777778)"/><use xlink:href="#p" transform="matrix(1,0,0,1,1361.3333333333335,512) translate(26.685980902777786 69.41579861111111)"/><path d="M930.67 496.5v-10.83m0-10.84V464a6 6 0 0 1 6-6h14.74m14.76 0h29.5m14.74 0h29.5m14.75 0h29.5m14.74 0h29.48m14.75 0h29.5m14.74 0h29.5m14.75 0h29.5m14.74 0h29.5m14.74 0h29.5m14.74 0h29.5m14.75 0h14.73a6 6 0 0 1 6 6v13.38" stroke="#fc9432" stroke-width="3" fill="none"/><path d="M932.14 498h-2.95v-1.54h2.94z" stroke="#fc9432" stroke-width=".05" fill="#fc9432"/><path d="M1429.33 493.15l-4.63-14.27h9.27z" stroke="#fc9432" stroke-width="3" fill="#fc9432"/><path d="M1180 623.5v53.88" stroke="#635dff" stroke-width="3" fill="none"/><path d="M1181.47 623.54h-2.94V622h2.94z" stroke="#635dff" stroke-width=".05" fill="#635dff"/><path d="M1180 693.15l-4.63-14.27h9.27z" stroke="#635dff" stroke-width="3" fill="#635dff"/><path d="M1150.67 623.5V664a6 6 0 0 1-6 6H1086a6 6 0 0 0-6 6v78a6 6 0 0 1-6 6h-40.7" stroke="#635dff" stroke-width="3" fill="none"/><path d="M1152.14 623.54h-2.95V622h2.94z" stroke="#635dff" stroke-width=".05" fill="#635dff"/><path d="M1017.52 760l14.27-4.63v9.26z" stroke="#635dff" stroke-width="3" fill="#635dff"/><defs><path d="M180 0v-1490h510c348 0 508 209 508 474 0 266-160 477-507 477H370V0H180zm190-706h312c236 0 327-133 327-310 0-176-91-307-329-307H370v617" id="q"/><path d="M158 0v-1118h174v172h12c41-113 157-188 290-188 26 0 70 2 91 3v181c-11-2-60-10-108-10-161 0-279 109-279 260V0H158" id="r"/><path d="M158 0v-1118h180V0H158zm91-1301c-68 0-125-53-125-119s57-119 125-119c69 0 126 53 126 119s-57 119-126 119" id="s"/><path d="M613 24c-304 0-509-231-509-576 0-350 205-580 509-580 305 0 511 230 511 580 0 345-206 576-511 576zm0-161c226 0 329-195 329-415 0-222-103-419-329-419-223 0-326 196-326 419 0 220 103 415 326 415" id="t"/><path d="M598-1118v154H368v674c0 100 37 144 132 144 23 0 62-6 92-12L629-6c-37 13-88 20-134 20-193 0-307-107-307-290v-688H20v-154h168v-266h180v266h230" id="u"/><path d="M140 405l46-156c120 36 205 19 263-150l32-93L54-1118h197c107 313 237 620 324 950 87-331 219-637 326-950h196L606 167c-68 178-176 259-334 259-64 0-113-12-132-21" id="v"/><g id="a"><use transform="matrix(0.010850694444444444,0,0,0.010850694444444444,0,0)" xlink:href="#q"/><use transform="matrix(0.010850694444444444,0,0,0.010850694444444444,14.192708333333332,0)" xlink:href="#r"/><use transform="matrix(0.010850694444444444,0,0,0.010850694444444444,22.90581597222222,0)" xlink:href="#s"/><use transform="matrix(0.010850694444444444,0,0,0.010850694444444444,28.287760416666664,0)" xlink:href="#t"/><use transform="matrix(0.010850694444444444,0,0,0.010850694444444444,41.61241319444444,0)" xlink:href="#r"/><use transform="matrix(0.010850694444444444,0,0,0.010850694444444444,50.32552083333333,0)" xlink:href="#s"/><use transform="matrix(0.010850694444444444,0,0,0.010850694444444444,55.70746527777778,0)" xlink:href="#u"/><use transform="matrix(0.010850694444444444,0,0,0.010850694444444444,63.41145833333333,0)" xlink:href="#v"/></g><path d="M653-1490V0H466v-1314h-10L96-1047v-204l324-239h233" id="w"/><use transform="matrix(0.010850694444444444,0,0,0.010850694444444444,0,0)" xlink:href="#w" id="b"/><path d="M154 0v-137l495-537c165-179 249-281 249-418 0-156-121-253-280-253-170 0-278 110-278 278H158c0-264 200-443 465-443 266 0 455 183 455 416 0 161-73 288-336 568L416-179v12h687V0H154" id="x"/><use transform="matrix(0.010850694444444444,0,0,0.010850694444444444,0,0)" xlink:href="#x" id="c"/><path d="M635 20c-292 0-500-160-510-396h192c11 142 145 229 315 229 187 0 323-105 323-260 0-161-125-274-346-274H488v-165h121c174 0 294-100 294-254 0-148-104-245-266-245-152 0-291 85-297 230H157c8-234 222-395 484-395 278 0 448 188 448 400 0 168-95 291-247 336v12c190 31 301 169 301 357 0 244-216 425-508 425" id="y"/><use transform="matrix(0.010850694444444444,0,0,0.010850694444444444,0,0)" xlink:href="#y" id="d"/><path d="M135 0v-1490h997v253H440v360h640v249H440v375h694V0H135" id="z"/><path d="M681 22C323 22 94-145 85-462h297c10 151 131 226 296 226 163 0 271-77 271-190 0-102-95-149-257-189l-164-41c-252-61-403-188-403-405 0-269 236-449 560-449 330 0 546 183 551 445H941c-11-119-106-188-259-188-156 0-244 72-244 172-3 156 226 185 373 221 250 61 445 186 445 436 0 271-213 446-575 446" id="A"/><path d="M135 0v-1490h581c339 0 533 210 533 503 0 295-197 500-540 500H440V0H135zm305-733h220c186 0 274-104 274-254s-88-251-275-251H440v505" id="B"/><path d="M659 20C335 20 103-159 99-418h307c5 112 113 185 254 185 147 0 250-83 250-204 0-123-105-209-278-209H494v-227h138c145 0 246-81 246-200 0-115-87-193-216-193-130 0-237 73-240 189H128c4-255 233-433 536-433 306 0 510 185 510 418 0 167-114 285-279 317v11c217 29 333 162 333 347 0 254-237 437-569 437" id="C"/><path d="M124 0v-220l528-495c135-132 210-216 210-336 0-133-98-215-231-215-139 0-229 88-229 233H110c0-290 214-477 523-477 315 0 525 182 525 440 0 167-80 305-385 586L548-262v11h630V0H124" id="D"/><g id="e"><use transform="matrix(0.010850694444444444,0,0,0.010850694444444444,0,0)" xlink:href="#z"/><use transform="matrix(0.010850694444444444,0,0,0.010850694444444444,13.49826388888889,0)" xlink:href="#A"/><use transform="matrix(0.010850694444444444,0,0,0.010850694444444444,28.04904513888889,0)" xlink:href="#B"/><use transform="matrix(0.010850694444444444,0,0,0.010850694444444444,42.447916666666664,0)" xlink:href="#C"/><use transform="matrix(0.010850694444444444,0,0,0.010850694444444444,56.79253472222222,0)" xlink:href="#D"/></g><path d="M786 20C389 20 94-260 94-744c0-487 299-766 692-766 339 0 597 194 641 529h-309c-28-162-156-258-326-258-233 0-388 179-388 495 0 323 157 493 387 493 170 0 298-97 328-259h309c-34 277-266 530-642 530" id="E"/><path d="M628 22C291 22 81-210 81-554c0-346 210-578 547-578 336 0 547 232 547 578 0 344-211 576-547 576zm0-236c160 0 242-146 242-341 0-197-82-341-242-341S387-753 387-555c0 195 81 341 241 341" id="F"/><path d="M428-647V0H128v-1118h283l4 231c63-156 176-245 348-245 232 0 384 159 384 421V0H847v-659c0-139-76-222-202-222-128 0-217 86-217 234" id="G"/><path d="M683-1118v229H474v562c0 71 29 104 102 104 23 0 73-7 95-13l43 225C647 9 580 16 520 16 296 16 174-96 174-301v-588H20v-229h154v-266h300v266h209" id="H"/><path d="M128 0v-1118h290v195h12c54-169 184-238 367-200v268c-27-8-86-15-130-15-138 0-239 95-239 234V0H128" id="I"/><path d="M428-1490V0H128v-1490h300" id="J"/><path d="M633 22C291 22 81-200 81-553c0-345 210-579 537-579 292 0 525 185 525 567v84H378c7 183 109 277 260 277 105 0 184-46 216-132l272 51C1071-99 893 22 633 22zM380-669h474c-15-146-94-237-233-237-143 0-229 99-241 237" id="K"/><g id="f"><use transform="matrix(0.010850694444444444,0,0,0.010850694444444444,0,0)" xlink:href="#E"/><use transform="matrix(0.010850694444444444,0,0,0.010850694444444444,16.438802083333332,0)" xlink:href="#F"/><use transform="matrix(0.010850694444444444,0,0,0.010850694444444444,30.067274305555554,0)" xlink:href="#G"/><use transform="matrix(0.010850694444444444,0,0,0.010850694444444444,43.90190972222222,0)" xlink:href="#H"/><use transform="matrix(0.010850694444444444,0,0,0.010850694444444444,52.03993055555556,0)" xlink:href="#I"/><use transform="matrix(0.010850694444444444,0,0,0.010850694444444444,60.546875,0)" xlink:href="#F"/><use transform="matrix(0.010850694444444444,0,0,0.010850694444444444,74.17534722222223,0)" xlink:href="#J"/><use transform="matrix(0.010850694444444444,0,0,0.010850694444444444,80.1974826388889,0)" xlink:href="#J"/><use transform="matrix(0.010850694444444444,0,0,0.010850694444444444,86.21961805555557,0)" xlink:href="#K"/><use transform="matrix(0.010850694444444444,0,0,0.010850694444444444,99.4574652777778,0)" xlink:href="#I"/></g><path fill="#3a414a" d="M75-1237v-253h1217v253H837V0H531v-1237H75" id="L"/><path fill="#3a414a" d="M128 0v-1118h290v195h12c54-169 184-238 367-200v268c-27-8-86-15-130-15-138 0-239 95-239 234V0H128" id="M"/><path fill="#3a414a" d="M128 0v-1118h300V0H128zm150-1264c-91 0-165-68-165-154 0-85 74-154 165-154 90 0 165 69 165 154 0 86-75 154-165 154" id="N"/><path fill="#3a414a" d="M625 442c-280 0-454-114-503-274l258-72c28 63 97 128 243 128 153 0 246-69 246-216v-206h-23C805-108 717-16 536-16 284-16 81-191 81-561c0-378 208-571 456-571 188 0 280 113 321 202h13v-188h295V-9c0 303-226 451-541 451zm5-686c153 0 240-119 240-319 0-198-86-329-240-329-158 0-241 137-241 329 0 195 85 319 241 319" id="O"/><path fill="#3a414a" d="M633 22C291 22 81-200 81-553c0-345 210-579 537-579 292 0 525 185 525 567v84H378c7 183 109 277 260 277 105 0 184-46 216-132l272 51C1071-99 893 22 633 22zM380-669h474c-15-146-94-237-233-237-143 0-229 99-241 237" id="P"/><g id="g"><use transform="matrix(0.010850694444444444,0,0,0.010850694444444444,0,0)" xlink:href="#L"/><use transform="matrix(0.010850694444444444,0,0,0.010850694444444444,13.57421875,0)" xlink:href="#M"/><use transform="matrix(0.010850694444444444,0,0,0.010850694444444444,22.786458333333332,0)" xlink:href="#N"/><use transform="matrix(0.010850694444444444,0,0,0.010850694444444444,28.80859375,0)" xlink:href="#O"/><use transform="matrix(0.010850694444444444,0,0,0.010850694444444444,42.849392361111114,0)" xlink:href="#O"/><use transform="matrix(0.010850694444444444,0,0,0.010850694444444444,56.89019097222223,0)" xlink:href="#P"/><use transform="matrix(0.010850694444444444,0,0,0.010850694444444444,70.12803819444446,0)" xlink:href="#M"/></g><path fill="#3a414a" d="M681 22C323 22 94-145 85-462h297c10 151 131 226 296 226 163 0 271-77 271-190 0-102-95-149-257-189l-164-41c-252-61-403-188-403-405 0-269 236-449 560-449 330 0 546 183 551 445H941c-11-119-106-188-259-188-156 0-244 72-244 172-3 156 226 185 373 221 250 61 445 186 445 436 0 271-213 446-575 446" id="Q"/><path fill="#3a414a" d="M443 0L31-1118h319c90 293 199 572 268 885 66-313 175-593 264-885h315L784 0H443" id="R"/><path fill="#3a414a" d="M628 22C291 22 81-210 81-554c0-346 210-578 547-578 336 0 547 232 547 578 0 344-211 576-547 576zm0-236c160 0 242-146 242-341 0-197-82-341-242-341S387-753 387-555c0 195 81 341 241 341" id="S"/><g id="h"><use transform="matrix(0.010850694444444444,0,0,0.010850694444444444,0,0)" xlink:href="#Q"/><use transform="matrix(0.010850694444444444,0,0,0.010850694444444444,14.55078125,0)" xlink:href="#P"/><use transform="matrix(0.010850694444444444,0,0,0.010850694444444444,27.78862847222222,0)" xlink:href="#M"/><use transform="matrix(0.010850694444444444,0,0,0.010850694444444444,37.18532986111111,0)" xlink:href="#R"/><use transform="matrix(0.010850694444444444,0,0,0.010850694444444444,50.10850694444444,0)" xlink:href="#S"/></g><path fill="#3a414a" d="M135 0v-1490h581c339 0 533 210 533 503 0 295-197 500-540 500H440V0H135zm305-733h220c186 0 274-104 274-254s-88-251-275-251H440v505" id="T"/><path fill="#3a414a" d="M428-647V0H128v-1490h294v586c65-146 175-228 341-228 232 0 385 159 385 421V0H847v-659c0-139-76-222-202-222-128 0-217 86-217 234" id="U"/><path fill="#3a414a" d="M683-1118v229H474v562c0 71 29 104 102 104 23 0 73-7 95-13l43 225C647 9 580 16 520 16 296 16 174-96 174-301v-588H20v-229h154v-266h300v266h209" id="V"/><path fill="#3a414a" d="M572 22C302 22 117-98 78-306l279-48c29 105 101 156 224 156 114 0 185-48 185-115 0-118-228-130-337-155-215-49-322-150-322-317 0-215 187-347 470-347 265 0 424 116 466 298l-266 47c-24-76-87-130-196-130-98 0-174 46-174 113 0 56 38 95 144 117l201 40c216 44 320 143 320 302 0 220-207 367-500 367" id="W"/><g id="i"><use transform="matrix(0.010850694444444444,0,0,0.010850694444444444,0,0)" xlink:href="#T"/><use transform="matrix(0.010850694444444444,0,0,0.010850694444444444,14.398871527777777,0)" xlink:href="#U"/><use transform="matrix(0.010850694444444444,0,0,0.010850694444444444,28.233506944444443,0)" xlink:href="#S"/><use transform="matrix(0.010850694444444444,0,0,0.010850694444444444,41.861979166666664,0)" xlink:href="#V"/><use transform="matrix(0.010850694444444444,0,0,0.010850694444444444,49.78298611111111,0)" xlink:href="#S"/><use transform="matrix(0.010850694444444444,0,0,0.010850694444444444,63.41145833333333,0)" xlink:href="#M"/><use transform="matrix(0.010850694444444444,0,0,0.010850694444444444,71.91840277777779,0)" xlink:href="#P"/><use transform="matrix(0.010850694444444444,0,0,0.010850694444444444,85.15625,0)" xlink:href="#W"/><use transform="matrix(0.010850694444444444,0,0,0.010850694444444444,97.60199652777777,0)" xlink:href="#N"/><use transform="matrix(0.010850694444444444,0,0,0.010850694444444444,103.62413194444444,0)" xlink:href="#W"/><use transform="matrix(0.010850694444444444,0,0,0.010850694444444444,116.06987847222221,0)" xlink:href="#V"/><use transform="matrix(0.010850694444444444,0,0,0.010850694444444444,123.99088541666666,0)" xlink:href="#S"/><use transform="matrix(0.010850694444444444,0,0,0.010850694444444444,137.61935763888889,0)" xlink:href="#M"/></g><path d="M361 0L31-1118h315c68 295 127 523 188 845 63-317 128-551 199-845h276c71 296 131 525 196 846 57-321 119-552 186-846h319L1378 0h-305c-73-261-148-486-204-771C813-484 740-261 666 0H361" id="X"/><g id="j"><use transform="matrix(0.010850694444444444,0,0,0.010850694444444444,0,0)" xlink:href="#B"/><use transform="matrix(0.010850694444444444,0,0,0.010850694444444444,14.214409722222221,0)" xlink:href="#F"/><use transform="matrix(0.010850694444444444,0,0,0.010850694444444444,27.5390625,0)" xlink:href="#X"/><use transform="matrix(0.010850694444444444,0,0,0.010850694444444444,46.12630208333333,0)" xlink:href="#K"/><use transform="matrix(0.010850694444444444,0,0,0.010850694444444444,59.36414930555555,0)" xlink:href="#I"/></g><path d="M513 14c-232 0-385-159-385-421v-711h300v659c0 139 76 222 202 222 127 0 217-86 217-234v-647h301V0H864l-4-232C797-74 683 14 513 14" id="Y"/><path d="M128 418v-1536h295v188h14c41-89 129-202 319-202 248 0 453 193 453 575 0 372-197 576-455 576-183 0-275-108-317-198h-9v597H128zm534-640c156 0 240-139 240-336 0-196-83-334-240-334-154 0-241 131-241 334 0 202 88 336 241 336" id="Z"/><path d="M120 396l69-226c123 42 245 23 254-107l8-60L31-1118h319c87 288 199 559 259 872 72-308 185-583 277-872h315L726 132c-68 181-186 294-410 294-79 0-153-13-196-30" id="aa"/><g id="k"><use transform="matrix(0.010850694444444444,0,0,0.010850694444444444,0,0)" xlink:href="#A"/><use transform="matrix(0.010850694444444444,0,0,0.010850694444444444,14.55078125,0)" xlink:href="#Y"/><use transform="matrix(0.010850694444444444,0,0,0.010850694444444444,28.385416666666664,0)" xlink:href="#Z"/><use transform="matrix(0.010850694444444444,0,0,0.010850694444444444,42.39366319444444,0)" xlink:href="#Z"/><use transform="matrix(0.010850694444444444,0,0,0.010850694444444444,56.40190972222222,0)" xlink:href="#J"/><use transform="matrix(0.010850694444444444,0,0,0.010850694444444444,62.65190972222222,0)" xlink:href="#aa"/></g><g id="l"><use transform="matrix(0.010850694444444444,0,0,0.010850694444444444,0,0)" xlink:href="#E"/><use transform="matrix(0.010850694444444444,0,0,0.010850694444444444,16.438802083333332,0)" xlink:href="#F"/><use transform="matrix(0.010850694444444444,0,0,0.010850694444444444,30.067274305555554,0)" xlink:href="#G"/><use transform="matrix(0.010850694444444444,0,0,0.010850694444444444,43.90190972222222,0)" xlink:href="#H"/><use transform="matrix(0.010850694444444444,0,0,0.010850694444444444,52.03993055555556,0)" xlink:href="#I"/><use transform="matrix(0.010850694444444444,0,0,0.010850694444444444,60.546875,0)" xlink:href="#F"/><use transform="matrix(0.010850694444444444,0,0,0.010850694444444444,74.17534722222223,0)" xlink:href="#J"/></g><path d="M818-733v240H140v-240h678" id="ab"/><path d="M49 0l509-1490h400L1480 0h-339l-115-346H497L386 0H49zm524-585h374c-75-213-124-402-192-666-66 268-110 453-182 666" id="ac"/><path d="M135 0v-1490h468l242 684c30 94 76 293 111 455 34-161 80-360 110-455l238-684h470V0h-307c0-447-3-765 11-1227-122 503-246 788-395 1227H826C676-435 552-717 427-1215c15 453 11 775 11 1215H135" id="ad"/><g id="m"><use transform="matrix(0.010850694444444444,0,0,0.010850694444444444,0,0)" xlink:href="#z"/><use transform="matrix(0.010850694444444444,0,0,0.010850694444444444,13.49826388888889,0)" xlink:href="#A"/><use transform="matrix(0.010850694444444444,0,0,0.010850694444444444,28.04904513888889,0)" xlink:href="#B"/><use transform="matrix(0.010850694444444444,0,0,0.010850694444444444,41.98133680555556,0)" xlink:href="#ab"/><use transform="matrix(0.010850694444444444,0,0,0.010850694444444444,52.37630208333333,0)" xlink:href="#E"/><use transform="matrix(0.010850694444444444,0,0,0.010850694444444444,68.20746527777779,0)" xlink:href="#ac"/><use transform="matrix(0.010850694444444444,0,0,0.010850694444444444,84.79817708333334,0)" xlink:href="#ad"/></g><path d="M601 0v-560L49-1490h357l252 464c38 68 67 130 97 208 96-243 225-446 337-672h356L905-560V0H601" id="ae"/><path d="M659 0H135v-1490h529c448 0 721 280 721 744 0 466-273 746-726 746zM440-263h204c287 0 437-148 437-483 0-333-150-481-435-481H440v964" id="af"/><g id="n"><use transform="matrix(0.010850694444444444,0,0,0.010850694444444444,0,0)" xlink:href="#E"/><use transform="matrix(0.010850694444444444,0,0,0.010850694444444444,16.438802083333332,0)" xlink:href="#ae"/><use transform="matrix(0.010850694444444444,0,0,0.010850694444444444,32.682291666666664,0)" xlink:href="#af"/></g><g id="o"><use transform="matrix(0.010850694444444444,0,0,0.010850694444444444,0,0)" xlink:href="#z"/><use transform="matrix(0.010850694444444444,0,0,0.010850694444444444,13.49826388888889,0)" xlink:href="#A"/><use transform="matrix(0.010850694444444444,0,0,0.010850694444444444,28.04904513888889,0)" xlink:href="#B"/><use transform="matrix(0.010850694444444444,0,0,0.010850694444444444,42.447916666666664,0)" xlink:href="#C"/><use transform="matrix(0.010850694444444444,0,0,0.010850694444444444,56.79253472222222,0)" xlink:href="#D"/></g><path d="M135 0v-1490h581c339 0 533 192 533 485 0 204-94 351-264 424L1302 0H964L680-532H440V0H135zm305-779h220c186 0 274-77 274-226 0-150-88-233-275-233H440v459" id="ag"/><path d="M128 0v-1118h278l12 217c60-163 185-234 319-234 143 0 236 81 288 251 63-172 205-251 359-251 205 0 357 138 357 381V0h-301v-697c0-126-76-187-177-187-114 0-184 79-184 196V0H789v-705c0-109-72-179-174-179-106 0-187 74-187 208V0H128" id="ah"/><g id="p"><use transform="matrix(0.010850694444444444,0,0,0.010850694444444444,0,0)" xlink:href="#ag"/><use transform="matrix(0.010850694444444444,0,0,0.010850694444444444,14.322916666666666,0)" xlink:href="#K"/><use transform="matrix(0.010850694444444444,0,0,0.010850694444444444,27.56076388888889,0)" xlink:href="#ah"/><use transform="matrix(0.010850694444444444,0,0,0.010850694444444444,47.84071180555556,0)" xlink:href="#F"/><use transform="matrix(0.010850694444444444,0,0,0.010850694444444444,61.46918402777778,0)" xlink:href="#H"/><use transform="matrix(0.010850694444444444,0,0,0.010850694444444444,69.39019097222221,0)" xlink:href="#K"/></g></defs></g></svg>